<svg xmlns="http://www.w3.org/2000/svg" width="1410.437" height="1362.845" viewBox="0 0 1410.437 1362.845">
  <g id="Group_180" data-name="Group 180" transform="translate(0 656.319)">
    <path id="Path_219" data-name="Path 219" d="M341.238-162.143l.208,39.874H320.562l.2-40.684C327.684-162.681,334.524-162.415,341.238-162.143Z" transform="translate(345.282 531.007)" fill="#f8a63a"/>
    <path id="Path_220" data-name="Path 220" d="M335.133-618.422l4.023,729.5q-9.765-22.056-17.784-44.639l3.492-647.469Q330.2-601.27,335.133-618.422Z" transform="translate(346.154 40.415)" fill="#f8a63a"/>
    <path id="Path_221" data-name="Path 221" d="M341.133-162.143c-6.713-.272-13.553-.538-20.474-.81v.409c3.39.129,6.836.266,10.165.4l.2,39.874h10.315Z" transform="translate(345.386 531.007)" fill="#df902c"/>
    <path id="Path_222" data-name="Path 222" d="M325.67,85.9c3.317,8.443,6.763,16.856,10.45,25.185l-4.023-729.5c-3.238,11.244-4.408,15.242-7.906,28.5Z" transform="translate(349.19 40.415)" fill="#df902c"/>
    <path id="Path_223" data-name="Path 223" d="M524.633-126.431,506.31-86.357h-332.9l-.137,1.145c-1.94-.2-3.888-.4-5.77-.6a444.786,444.786,0,0,1,91.9-40.614Z" transform="translate(180.416 570.345)" fill="#37aecc"/>
    <path id="Path_224" data-name="Path 224" d="M752.523-119.994H531.732a5.3,5.3,0,0,0-5.025,3.641l-16.785,51.28,7.237,2.369,15.065-46.028a5.29,5.29,0,0,1,5.031-3.641H582.1a5.289,5.289,0,0,1,5.031,6.925L573.961-65.067l7.237,2.356,15.009-46.015a5.283,5.283,0,0,1,5.022-3.647h53.44a5.281,5.281,0,0,1,5.025,6.925L646.532-65.067l7.237,2.356,15.007-46.015a5.288,5.288,0,0,1,5.024-3.647h57.127a5.285,5.285,0,0,1,5.284,5.135l1.225,43.457L745.051-64l-1.363-48.377h8.834Z" transform="translate(549.244 577.279)" fill="#fff"/>
    <path id="Path_225" data-name="Path 225" d="M294.232-121.119c-26.971-2.686-51.992-5.438-75.464-8.055-35.423-4-62.574-7.01-89.524-9.268-31.676-2.713-57.848-3.974-82.364-3.974H39.422l4.239,6.127c.162.241,16.812,24.3,38.758,53.428l6.251-4.7c-13.787-18.3-25.471-34.578-32.254-44.166a1.757,1.757,0,0,1,1.461-2.783c20.284.31,42.081,1.479,67.409,3.589l1.3.712C130.3-124.871,145-103.9,163.718-79.037l3.123-2.349-2.467,3.2,3.134-2.328,2.455-3.222c-13.443-17.869-24.8-33.707-31.482-43.144a1.763,1.763,0,0,1,1.623-2.767c22.563,2.065,46.119,4.661,75.23,7.951l1.261.748c12.286,17.525,24.776,34.74,37.141,51.168l6.244-4.692c-10.352-13.767-20.79-28.132-31.124-42.737a1.772,1.772,0,0,1,1.61-2.8c19.843,2.193,40.724,4.445,62.995,6.665Z" transform="translate(42.462 553.128)" fill="#fff"/>
    <path id="Path_226" data-name="Path 226" d="M795.769-132.9v.214A10.468,10.468,0,0,1,785.3-122.223H249.4v-.208a20.935,20.935,0,0,1,20.933-20.935H785.3A10.468,10.468,0,0,1,795.769-132.9Z" transform="translate(268.629 552.104)" fill="#154070"/>
    <path id="Path_227" data-name="Path 227" d="M788.221-143.166a10.378,10.378,0,0,1,1.018,4.441v.208a10.468,10.468,0,0,1-10.462,10.471H250.151a20.465,20.465,0,0,0-.779,5.349v.206H785.28a10.467,10.467,0,0,0,10.465-10.462v-.214A10.439,10.439,0,0,0,788.221-143.166Z" transform="translate(268.602 552.32)" fill="#142f51"/>
    <path id="Path_228" data-name="Path 228" d="M701.729,306.2H443.745a553.7,553.7,0,0,1-102.3-132.987V-631.478C416.022-67.251,701.729,306.2,701.729,306.2Z" transform="translate(367.771 26.353)" fill="#fff"/>
    <path id="Path_229" data-name="Path 229" d="M818.624-133.187,842.05-53.1c-137.816-1.006-308.393-3.622-463.19-9.665-82.846-3.291-150.441-9.126-208.582-15.168l.137-1.145h332.9l18.322-40.074H256.408c25.912-8.055,54.913-14.033,83.714-14.033Z" transform="translate(183.409 563.068)" fill="#fff"/>
    <path id="Path_230" data-name="Path 230" d="M518.461-53.1l-23.426-80.085H470.7l23.374,79.9C502.3-53.226,510.452-53.161,518.461-53.1Z" transform="translate(506.997 563.068)" fill="#dde8f6"/>
    <path id="Path_231" data-name="Path 231" d="M731.59-133.187h-478.5c-.669,0-1.338.044-2.007.05l480.509,6.946h2.044Z" transform="translate(270.443 563.068)" fill="#dde8f6"/>
    <path id="Path_232" data-name="Path 232" d="M613.712,151.5q10.771,24.467,23.9,48.064a553.7,553.7,0,0,0,102.3,132.987h.071a547.292,547.292,0,0,0,47.792,40.809s-71.49-.733-172.859-4.493c-6.713-.272-13.553-.538-20.474-.81C432.2,361.615,205.229,347.582,66.472,317.508c0,0,162.923-629.409,568.188-973.452,0,0-6.647,17.591-16.247,48.469-2.682,8.795-5.635,18.6-8.724,29.468q-2.337,8.1-4.759,16.9-2.7,9.814-5.511,20.491c-38.738,149.164-85.525,417.215-3.492,647.469Q603.979,129.405,613.712,151.5Z" transform="translate(71.598)" fill="#fff"/>
    <path id="Path_233" data-name="Path 233" d="M613.712,151.5q10.771,24.467,23.9,48.064a553.7,553.7,0,0,0,102.3,132.987h.071a547.292,547.292,0,0,0,47.792,40.809s-71.49-.733-172.859-4.493c-6.713-.272-13.553-.538-20.474-.81C432.2,361.615,205.229,347.582,66.472,317.508c0,0,162.923-629.409,568.188-973.452,0,0-6.647,17.591-16.247,48.469-2.682,8.795-5.635,18.6-8.724,29.468q-2.337,8.1-4.759,16.9-2.7,9.814-5.511,20.491c-38.738,149.164-85.525,417.215-3.492,647.469Q603.979,129.405,613.712,151.5Z" transform="translate(71.598)" fill="none" stroke="rgba(0,0,0,0)" stroke-linejoin="round" stroke-width="0.75"/>
    <path id="Path_234" data-name="Path 234" d="M341.17-162.143c-6.713-.272-13.553-.538-20.474-.81l-.071,15.04h.071c6.921.266,13.761.538,20.474.8l.077.006Z" transform="translate(345.349 531.007)" fill="#df902c"/>
    <path id="Path_235" data-name="Path 235" d="M369.577,308.266c6.757.266,13.456.526,20.019.791,101.369,3.76,172.859,4.493,172.859,4.493a547.292,547.292,0,0,1-47.792-40.809h-.071a553.7,553.7,0,0,1-102.3-132.987q-13.086-23.561-23.9-48.064Q378.623,69.634,370.6,47.05c-82.034-230.254-35.247-498.306,3.492-647.469C283.605-400.619,209.523,134.314,369.577,308.266Z" transform="translate(296.923 59.807)" fill="#dde8f6"/>
    <path id="Path_236" data-name="Path 236" d="M443.745-7.8h70.491a553.567,553.567,0,0,1-102.31-132.987q-13.086-23.561-23.893-48.064-9.777-22.056-17.793-44.639a733.529,733.529,0,0,1-28.8-106.473v199.176A553.7,553.7,0,0,0,443.745-7.8Z" transform="translate(367.771 340.347)" fill="#dde8f6"/>
    <path id="Path_237" data-name="Path 237" d="M341.441-416.674c5.673-36.37,12.326-70.383,19.226-101.234Q350.522-571,342.816-626.7l-1.375,1.344Z" transform="translate(367.771 31.502)" fill="#dde8f6"/>
    <path id="Path_238" data-name="Path 238" d="M321.3-86.357H289.187l20.682-40.074h32.11Z" transform="translate(311.487 570.345)" fill="#b2d1d4"/>
    <path id="Path_239" data-name="Path 239" d="M321.3-86.357h0Zm20.68-40.074h0Z" transform="translate(311.487 570.345)" fill="#fff"/>
    <path id="Path_240" data-name="Path 240" d="M285.324-86.357h-7.38l20.68-40.074H306Z" transform="translate(299.377 570.345)" fill="#b2d1d4"/>
    <path id="Path_241" data-name="Path 241" d="M285.324-86.357h0ZM306-126.431h0Z" transform="translate(299.377 570.345)" fill="#fff"/>
    <path id="Path_242" data-name="Path 242" d="M266.243-86.357H251.419l20.68-40.074h14.824Z" transform="translate(270.807 570.345)" fill="#b2d1d4"/>
    <path id="Path_243" data-name="Path 243" d="M266.243-86.357h0Zm20.68-40.074h0Z" transform="translate(270.807 570.345)" fill="#fff"/>
    <path id="Path_244" data-name="Path 244" d="M259.788-86.357H235.947l20.68-40.074h23.841Z" transform="translate(254.142 570.345)" fill="#b2d1d4"/>
    <path id="Path_245" data-name="Path 245" d="M259.788-86.357h0Zm20.68-40.074h0Z" transform="translate(254.142 570.345)" fill="#fff"/>
    <path id="Path_246" data-name="Path 246" d="M226.782-86.357h-7.92l20.682-40.074h7.924Z" transform="translate(235.739 570.345)" fill="#b2d1d4"/>
    <path id="Path_247" data-name="Path 247" d="M226.782-86.357h0Zm20.686-40.074h0Z" transform="translate(235.739 570.345)" fill="#fff"/>
    <path id="Path_248" data-name="Path 248" d="M213.215-86.357h-7.924l20.68-40.074H233.9Z" transform="translate(221.122 570.345)" fill="#b2d1d4"/>
    <path id="Path_249" data-name="Path 249" d="M213.215-86.357h0ZM233.9-126.431h0Z" transform="translate(221.122 570.345)" fill="#fff"/>
    <path id="Path_250" data-name="Path 250" d="M208.731-86.492H194.713l17.6-34.1c5.471-1.973,11.131-3.895,16.96-5.712Z" transform="translate(209.728 570.48)" fill="#b2d1d4"/>
    <path id="Path_251" data-name="Path 251" d="M669.479,15.62h508.037c-24.1,13.092-54.576,22.822-54.576,22.822H187.35C146.8,12.972,82.189-79.122,58.328-116.153,63.43-112.13,198.9,15.62,669.479,15.62Z" transform="translate(62.826 581.416)" fill="#0c1a2a"/>
    <path id="Path_252" data-name="Path 252" d="M514.282-121.895,448.917-90.821a46.164,46.164,0,0,1-19.809,4.464H341.441L359.7-126.431H513.256A2.383,2.383,0,0,1,514.282-121.895Z" transform="translate(367.771 570.345)" fill="#37aecc"/>
    <path id="Path_253" data-name="Path 253" d="M839.459-90.02c-251.025,0-669.044-17.118-669.044-17.118l-.137,1.145c58.14,6.042,125.736,11.877,208.582,15.168,154.8,6.043,325.374,8.659,463.19,9.665Z" transform="translate(183.409 591.126)" fill="#dde8f6"/>
    <path id="Path_254" data-name="Path 254" d="M421.081-118.363l7.419-3.531a1.409,1.409,0,0,0,.253-.137,1.409,1.409,0,0,1-.253.137Zm8.7-6.3a.03.03,0,0,0-.006-.021A.03.03,0,0,1,429.78-124.665Zm-.006-.021a2.32,2.32,0,0,0-2.3-1.745h0A2.313,2.313,0,0,1,429.774-124.686Z" transform="translate(453.552 570.345)" fill="#fff"/>
    <path id="Path_255" data-name="Path 255" d="M421.081-118.363l4.161-8.068h2.233a2.32,2.32,0,0,1,2.3,1.745.03.03,0,0,1,.006.021,2.321,2.321,0,0,1-1.026,2.634,1.409,1.409,0,0,1-.253.137Z" transform="translate(453.552 570.345)" fill="#b2d1d4"/>
    <path id="Path_256" data-name="Path 256" d="M400.578-98.124l14.61-28.307h23.843l-6.861,13.294Z" transform="translate(431.468 570.345)" fill="#b2d1d4"/>
    <path id="Path_257" data-name="Path 257" d="M386.959-86.357h-6.387l20.68-40.074h7.926L388.536-86.44Z" transform="translate(409.919 570.345)" fill="#b2d1d4"/>
    <path id="Path_258" data-name="Path 258" d="M374.926-86.357H367l20.68-40.074h7.926Z" transform="translate(395.301 570.345)" fill="#b2d1d4"/>
    <path id="Path_259" data-name="Path 259" d="M370.442-86.357H356.422l20.686-40.074h14.014Z" transform="translate(383.907 570.345)" fill="#b2d1d4"/>
    <path id="Path_260" data-name="Path 260" d="M813.181.658H555.13a8.819,8.819,0,0,1-8.822-8.828,8.818,8.818,0,0,1,8.822-8.821h258.05A8.817,8.817,0,0,1,822-8.169,8.819,8.819,0,0,1,813.181.658Z" transform="translate(588.437 688.225)" fill="#3aadca"/>
    <path id="Path_261" data-name="Path 261" d="M365.171.658H64.768a8.819,8.819,0,0,1-8.821-8.828,8.818,8.818,0,0,1,8.821-8.821h300.4a8.818,8.818,0,0,1,8.821,8.821A8.819,8.819,0,0,1,365.171.658Z" transform="translate(60.261 688.225)" fill="#3aadca"/>
    <path id="Path_262" data-name="Path 262" d="M527.9,9.149H331.09A8.819,8.819,0,0,1,322.262.327a8.819,8.819,0,0,1,8.828-8.821H527.9A8.817,8.817,0,0,1,536.718.327,8.817,8.817,0,0,1,527.9,9.149Z" transform="translate(347.113 697.377)" fill="#3aadca"/>
    <path id="Path_263" data-name="Path 263" d="M1198.116-25.495H73.924A8.819,8.819,0,0,1,65.1-34.323a8.817,8.817,0,0,1,8.821-8.821H1198.116a8.818,8.818,0,0,1,8.822,8.821A8.819,8.819,0,0,1,1198.116-25.495Z" transform="translate(70.123 660.055)" fill="#3aadca"/>
    <path id="Path_264" data-name="Path 264" d="M664.106-25.495H645.912a8.819,8.819,0,0,1-8.822-8.828,8.818,8.818,0,0,1,8.822-8.821h18.193a8.817,8.817,0,0,1,8.822,8.821A8.819,8.819,0,0,1,664.106-25.495Z" transform="translate(686.219 660.055)" fill="#3aadca"/>
    <path id="Path_265" data-name="Path 265" d="M91.328-25.495H8.821A8.819,8.819,0,0,1,0-34.323a8.817,8.817,0,0,1,8.821-8.821H91.328a8.817,8.817,0,0,1,8.821,8.821A8.819,8.819,0,0,1,91.328-25.495Z" transform="translate(0 660.055)" fill="#3aadca"/>
    <path id="Path_266" data-name="Path 266" d="M328.207-574.72c68.221-14.752,137.484-13.966,207.632,0l-55.754,50.364,55.754,72.024q-99.951-17.258-207.632,0Z" transform="translate(353.516 75.885)" fill="#142f51" fill-rule="evenodd"/>
    <path id="Path_267" data-name="Path 267" d="M1143.283-70.775c-21.214,0-45.651,0-72.57-.136-20,0-41.484-.065-64.04-.2q-21.352-.1-44.041-.338c-137.816-1.006-308.393-3.622-463.19-9.665C416.6-84.406,349-90.241,290.861-96.283c-1.94-.2-3.888-.4-5.77-.6-19.531-2.083-37.926-4.16-55.446-6.109-32.428-3.629-61.9-6.919-90.023-9.332-28.06-2.351-54.647-3.824-81.293-3.824,0,0,20.408,29.6,46.385,63.365l.065.071c5.1,4.024,94.119,68.337,564.7,68.337h508.037c9-4.836,17.051-10.2,22.354-15.643,19.539-20.207,34.507-71.024,34.507-71.024S1200.071-70.846,1143.283-70.775Z" transform="translate(62.826 581.416)" fill="#102f52"/>
    <g id="Group_130" data-name="Group 130" transform="translate(668.154 -314.982) rotate(20)">
      <path id="Path_184" data-name="Path 184" d="M68.774-130.683a35.941,35.941,0,0,1-25.594,10.6,35.953,35.953,0,0,1-25.6-10.6,35.961,35.961,0,0,1-10.6-25.594,35.97,35.97,0,0,1,10.6-25.6,35.982,35.982,0,0,1,25.6-10.6,35.97,35.97,0,0,1,25.594,10.6,35.966,35.966,0,0,1,10.6,25.6,35.957,35.957,0,0,1-10.6,25.594m16.61-23.665a2.392,2.392,0,0,0,.973-1.915,2.392,2.392,0,0,0-.956-1.924,3.419,3.419,0,0,1-1.363-2.383,3.419,3.419,0,0,1,.828-2.617,2.385,2.385,0,0,0,.544-2.08,2.385,2.385,0,0,0-1.351-1.673,3.451,3.451,0,0,1-1.788-2.035,3.451,3.451,0,0,1,.232-2.7,2.417,2.417,0,0,0,.1-2.178,2.417,2.417,0,0,0-1.693-1.373,3.43,3.43,0,0,1-2.155-1.636,3.43,3.43,0,0,1-.3-2.689,2.42,2.42,0,0,0-.337-2.08,2.42,2.42,0,0,0-1.84-1.027c-2.353-.3-3.372-1.437-3.425-3.813a2.39,2.39,0,0,0-.84-1.941,2.39,2.39,0,0,0-2.051-.514,3.55,3.55,0,0,1-4.022-2.844c-.343-1.869-1.618-2.575-3.438-2a3.424,3.424,0,0,1-4.4-1.932c-.806-1.755-2.143-2.179-3.855-1.227a3.411,3.411,0,0,1-4.646-.977c-1.2-1.618-2.539-1.757-4.059-.42a3.406,3.406,0,0,1-4.7.029c-1.619-1.388-2.854-1.248-4.153.48a3.418,3.418,0,0,1-4.484.952c-1.869-1.03-3.1-.641-3.994,1.266a3.435,3.435,0,0,1-4.179,1.894c-2.123-.634-3.184-.024-3.672,2.113a3.449,3.449,0,0,1-3.932,2.667,2.428,2.428,0,0,0-2.138.573,2.428,2.428,0,0,0-.785,2.07,3.394,3.394,0,0,1-.859,2.489,3.394,3.394,0,0,1-2.38,1.126,2.432,2.432,0,0,0-1.988.969,2.432,2.432,0,0,0-.381,2.178,3.426,3.426,0,0,1-.316,2.689,3.426,3.426,0,0,1-2.17,1.62,2.39,2.39,0,0,0-1.672,1.352,2.39,2.39,0,0,0,.091,2.148,3.416,3.416,0,0,1,.273,2.732,3.416,3.416,0,0,1-1.825,2.051,2.411,2.411,0,0,0-1.328,1.683,2.411,2.411,0,0,0,.538,2.076,3.382,3.382,0,0,1,.836,2.574,3.382,3.382,0,0,1-1.319,2.363A2.417,2.417,0,0,0,0-156.254a2.417,2.417,0,0,0,1.032,1.966,3.38,3.38,0,0,1,1.29,2.337,3.38,3.38,0,0,1-.808,2.545A2.422,2.422,0,0,0,.951-147.3a2.422,2.422,0,0,0,1.358,1.706,3.4,3.4,0,0,1,1.8,2.027,3.4,3.4,0,0,1-.255,2.7,2.4,2.4,0,0,0-.107,2.183,2.4,2.4,0,0,0,1.707,1.364,3.41,3.41,0,0,1,2.135,1.6,3.41,3.41,0,0,1,.325,2.65,2.437,2.437,0,0,0,.369,2.216,2.437,2.437,0,0,0,2.025.973,3.4,3.4,0,0,1,3.2,3.572,2.442,2.442,0,0,0,.731,2.054,2.442,2.442,0,0,0,2.081.651,3.409,3.409,0,0,1,2.676.557A3.409,3.409,0,0,1,20.4-120.7a2.412,2.412,0,0,0,1.194,1.83,2.412,2.412,0,0,0,2.182.115,3.452,3.452,0,0,1,2.708.054,3.452,3.452,0,0,1,1.835,1.992,2.4,2.4,0,0,0,1.5,1.486,2.4,2.4,0,0,0,2.1-.281c2.014-1.114,3.578-.787,4.964,1.054a2.228,2.228,0,0,0,2.314,1.063,4.079,4.079,0,0,0,1.613-.855,3.466,3.466,0,0,1,4.651-.051c1.693,1.434,2.849,1.314,4.214-.44a3.422,3.422,0,0,1,4.487-.941c1.873,1.025,3.081.636,3.99-1.282a3.438,3.438,0,0,1,4.191-1.876c2.107.636,3.119.042,3.649-2.137a3.458,3.458,0,0,1,3.949-2.646,2.426,2.426,0,0,0,2.078-.535,2.426,2.426,0,0,0,.841-1.973,3.4,3.4,0,0,1,.857-2.644,3.4,3.4,0,0,1,2.543-1.121A2.419,2.419,0,0,0,78.11-130.9a2.419,2.419,0,0,0,.36-2.077,3.433,3.433,0,0,1,.3-2.725,3.433,3.433,0,0,1,2.2-1.64,2.41,2.41,0,0,0,1.652-1.37,2.41,2.41,0,0,0-.1-2.144,3.443,3.443,0,0,1-.251-2.7,3.443,3.443,0,0,1,1.775-2.044,2.392,2.392,0,0,0,1.364-1.662,2.392,2.392,0,0,0-.521-2.086,3.421,3.421,0,0,1-.844-2.609,3.421,3.421,0,0,1,1.344-2.391" fill="#fff" fill-rule="evenodd"/>
      <path id="Path_185" data-name="Path 185" d="M74.759-128.6c-1.646-.887-2.68-.194-3.639,1.185A25.883,25.883,0,0,1,56.509-117.3a10.976,10.976,0,0,0-1.9.756,17.164,17.164,0,0,0-1.508.939c-.033-.015-.066-.029-.1-.046l-.1.046a16.864,16.864,0,0,0-1.509-.939,10.879,10.879,0,0,0-1.9-.756,25.879,25.879,0,0,1-14.611-10.117c-.961-1.379-1.994-2.073-3.64-1.185-2.562-4.442-5.267-8.723-2.819-14.327a32.522,32.522,0,0,0,11.266,8.5c-2.419,3.4-.472,7.211,3.972,8.075,0-5.035.083-10.068-.034-15.094a10.961,10.961,0,0,1,2.069-7.006c1.664-2.261,2.9-4.632,2.112-7.8H32.05a17.158,17.158,0,0,1,6.1-5.591c1.924-1.185,2.255-.979,2.32,1.39,2.277,0,4.563-.042,6.847.02.959.025,1.287-.342,1.339-1.251.18-3.022.423-6.042.617-9.064.03-.422.089-1-.142-1.257-.894-.984-.541-1.969-.233-3.013a2.549,2.549,0,0,0,.112-1.357c-.311-1.017.191-1.45,1.036-1.47q1.447-.03,2.9-.025h.128q1.45-.005,2.9.025c.845.02,1.347.453,1.038,1.47a2.507,2.507,0,0,0,.113,1.357c.307,1.044.658,2.029-.235,3.013-.231.257-.17.835-.143,1.257.194,3.023.436,6.042.617,9.064.055.91.382,1.277,1.339,1.251,2.284-.062,4.569-.02,6.848-.02.063-2.369.393-2.575,2.318-1.39a17.16,17.16,0,0,1,6.1,5.591H58.193c-.783,3.163.448,5.534,2.112,7.795a10.938,10.938,0,0,1,2.066,7.006c-.113,5.026-.032,10.058-.032,15.094,4.443-.864,6.392-4.674,3.975-8.075a32.5,32.5,0,0,0,11.262-8.5c2.452,5.6-.257,9.885-2.816,14.327M53.006-182.465a35.768,35.768,0,0,0-35.731,35.727,35.772,35.772,0,0,0,35.731,35.729,35.771,35.771,0,0,0,35.728-35.729,35.767,35.767,0,0,0-35.728-35.727" transform="translate(-9.825 -9.539)" fill="#fff" fill-rule="evenodd"/>
    </g>
  </g>
</svg>
