<svg xmlns="http://www.w3.org/2000/svg" width="286.077" height="100.71" viewBox="0 0 286.077 100.71">
  <g id="Group_239" data-name="Group 239" transform="translate(0 0)">
    <path id="Path_389" data-name="Path 389" d="M80.615-118.88a42.13,42.13,0,0,1-30,12.428,42.143,42.143,0,0,1-30-12.428,42.155,42.155,0,0,1-12.426-30,42.165,42.165,0,0,1,12.426-30,42.177,42.177,0,0,1,30-12.426,42.163,42.163,0,0,1,30,12.426,42.158,42.158,0,0,1,12.429,30,42.148,42.148,0,0,1-12.429,30m19.47-27.74a2.8,2.8,0,0,0,.02-4.5c-1.925-1.822-2.129-3.706-.626-5.86a2.8,2.8,0,0,0-.946-4.4,4.045,4.045,0,0,1-1.824-5.549,2.833,2.833,0,0,0-1.866-4.162,4.02,4.02,0,0,1-2.876-5.069,2.837,2.837,0,0,0-2.552-3.642c-2.759-.351-3.953-1.685-4.016-4.47a2.8,2.8,0,0,0-3.388-2.878,4.161,4.161,0,0,1-4.714-3.333c-.4-2.19-1.9-3.019-4.031-2.344a4.013,4.013,0,0,1-5.162-2.265c-.945-2.057-2.513-2.554-4.519-1.439a4,4,0,0,1-5.446-1.145c-1.409-1.9-2.976-2.06-4.758-.492a3.993,3.993,0,0,1-5.508.034c-1.9-1.627-3.345-1.462-4.868.563a4.006,4.006,0,0,1-5.255,1.116c-2.19-1.208-3.633-.752-4.681,1.484a4.028,4.028,0,0,1-4.9,2.22c-2.487-.743-3.731-.028-4.3,2.477a4.044,4.044,0,0,1-4.609,3.126,2.847,2.847,0,0,0-3.427,3.1,3.979,3.979,0,0,1-3.8,4.237,2.85,2.85,0,0,0-2.776,3.691,4.017,4.017,0,0,1-2.914,5.051,2.8,2.8,0,0,0-1.853,4.1c1.028,2.419.429,4.26-1.82,5.6a2.827,2.827,0,0,0-.926,4.406,3.965,3.965,0,0,1-.565,5.787c-1.582,1.48-1.574,3.133.03,4.623a3.962,3.962,0,0,1,.565,5.723,2.839,2.839,0,0,0,.931,4.468,3.989,3.989,0,0,1,1.805,5.536,2.813,2.813,0,0,0,1.87,4.158,4,4,0,0,1,2.884,4.987,2.856,2.856,0,0,0,2.806,3.738,3.985,3.985,0,0,1,3.756,4.187,2.863,2.863,0,0,0,3.3,3.171,4,4,0,0,1,4.787,3.4,2.828,2.828,0,0,0,3.957,2.28,4.046,4.046,0,0,1,5.326,2.4,2.817,2.817,0,0,0,4.216,1.413c2.361-1.306,4.194-.922,5.819,1.235a2.612,2.612,0,0,0,2.712,1.246,4.782,4.782,0,0,0,1.89-1,4.062,4.062,0,0,1,5.452-.06c1.986,1.681,3.34,1.54,4.94-.516a4.011,4.011,0,0,1,5.259-1.1c2.2,1.2,3.612.745,4.677-1.5a4.031,4.031,0,0,1,4.913-2.2c2.469.745,3.656.05,4.277-2.5a4.054,4.054,0,0,1,4.629-3.1,2.843,2.843,0,0,0,3.421-2.939c.048-2.694,1.32-4.1,3.983-4.413a2.835,2.835,0,0,0,2.593-3.614c-.535-2.516.455-4.243,2.923-5.117a2.825,2.825,0,0,0,1.825-4.119,4.035,4.035,0,0,1,1.785-5.555,2.8,2.8,0,0,0,.989-4.394c-1.507-2.19-1.318-4.068.588-5.862" transform="translate(0 199.237)" fill="#0c223b" fill-rule="evenodd"/>
    <path id="Path_390" data-name="Path 390" d="M84.656-119.33c-1.929-1.04-3.142-.227-4.266,1.39a30.34,30.34,0,0,1-17.127,11.859,12.834,12.834,0,0,0-2.224.886,20.128,20.128,0,0,0-1.768,1.1c-.038-.017-.077-.034-.115-.054-.038.019-.078.036-.117.054a19.828,19.828,0,0,0-1.768-1.1,12.776,12.776,0,0,0-2.223-.886A30.335,30.335,0,0,1,37.922-117.94c-1.126-1.617-2.338-2.43-4.267-1.39-3-5.206-6.174-10.225-3.3-16.794,3.912,4.271,8.053,7.791,13.205,9.964-2.836,3.986-.554,8.452,4.656,9.465,0-5.9.1-11.8-.041-17.693A12.848,12.848,0,0,1,50.6-142.6c1.95-2.65,3.393-5.429,2.475-9.137H34.594a20.112,20.112,0,0,1,7.15-6.554c2.255-1.39,2.643-1.147,2.719,1.629,2.669,0,5.349-.049,8.025.024,1.124.03,1.508-.4,1.569-1.467.211-3.543.5-7.082.724-10.625.034-.494.1-1.171-.167-1.473-1.048-1.154-.634-2.308-.273-3.532a2.977,2.977,0,0,0,.131-1.591c-.364-1.192.224-1.7,1.215-1.724q1.7-.035,3.395-.03h.149q1.7-.006,3.395.03c.99.024,1.579.531,1.217,1.724a2.938,2.938,0,0,0,.132,1.591c.36,1.224.772,2.378-.275,3.532-.271.3-.2.979-.168,1.473.228,3.543.511,7.082.723,10.625.064,1.067.448,1.5,1.57,1.467,2.678-.073,5.356-.024,8.028-.024.074-2.777.46-3.019,2.717-1.629a20.12,20.12,0,0,1,7.151,6.554H65.238c-.917,3.708.525,6.487,2.476,9.137a12.824,12.824,0,0,1,2.421,8.212C70-128.5,70.1-122.6,70.1-116.694c5.208-1.013,7.492-5.479,4.659-9.465,5.149-2.173,9.292-5.693,13.2-9.964,2.874,6.568-.3,11.587-3.3,16.794m-25.5-63.135a41.926,41.926,0,0,0-41.882,41.878,41.931,41.931,0,0,0,41.882,41.88,41.93,41.93,0,0,0,41.879-41.88,41.925,41.925,0,0,0-41.879-41.878" transform="translate(-8.543 190.943)" fill="#0c223b" fill-rule="evenodd"/>
    <path id="Path_391" data-name="Path 391" d="M231.811-148.313v16.1h2c1.127,0,1.8-.58,1.8-2.19v-11.722c0-1.61-.676-2.19-1.8-2.19Zm-3.542-3.22h5.6c3.542,0,5.281,1.964,5.281,5.571v11.4c0,3.607-1.739,5.571-5.281,5.571h-5.6Z" transform="translate(-112.884 175.646)" fill="#0c223b"/>
    <path id="Path_392" data-name="Path 392" d="M257.228-134.429c0,1.61.709,2.222,1.836,2.222s1.836-.612,1.836-2.222V-146.6c0-1.61-.709-2.222-1.836-2.222s-1.836.612-1.836,2.222Zm-3.542-11.947c0-3.607,1.9-5.667,5.378-5.667s5.378,2.061,5.378,5.667v11.722c0,3.607-1.9,5.667-5.378,5.667s-5.378-2.061-5.378-5.667Z" transform="translate(-125.453 175.898)" fill="#0c223b"/>
    <path id="Path_393" data-name="Path 393" d="M283.028-139.136v6.924h2.029c1.191,0,1.836-.547,1.836-2.222V-136.4c0-2.093-.676-2.737-2.287-2.737Zm0-9.178v5.957h1.384c1.32,0,2.126-.579,2.126-2.382v-1.256c0-1.61-.548-2.319-1.8-2.319Zm7.052,1.964v.805c0,2.319-.709,3.8-2.286,4.54,1.9.741,2.641,2.448,2.641,4.83v1.835c0,3.478-1.836,5.345-5.378,5.345h-5.571v-22.541h5.345c3.671,0,5.249,1.706,5.249,5.184" transform="translate(-138.212 175.646)" fill="#0c223b"/>
    <path id="Path_394" data-name="Path 394" d="M308.889-148.313v6.924h1.385c1.32,0,2.125-.58,2.125-2.383v-2.222c0-1.61-.548-2.318-1.8-2.318Zm3.864,19.321a6.943,6.943,0,0,1-.322-2.769V-135.3c0-2.093-.708-2.866-2.318-2.866h-1.224v9.177h-3.542v-22.541h5.346c3.671,0,5.248,1.707,5.248,5.185v1.771c0,2.319-.741,3.832-2.318,4.573,1.771.741,2.351,2.447,2.351,4.8v3.478a6.636,6.636,0,0,0,.387,2.737Z" transform="translate(-151 175.646)" fill="#0c223b"/>
    <path id="Path_395" data-name="Path 395" d="M333.423-136.141h3.414l-1.707-11.4Zm8.083,7.149h-3.574l-.612-4.09h-4.347l-.612,4.09h-3.252l3.607-22.541H337.9Z" transform="translate(-162.751 175.646)" fill="#0c223b"/>
    <path id="Path_396" data-name="Path 396" d="M370.3-148.313v7.632h1.675c1.127,0,1.739-.515,1.739-2.125v-3.381c0-1.611-.612-2.126-1.739-2.126Zm6.956,2.351v2.931c0,3.607-1.74,5.571-5.282,5.571H370.3v8.469h-3.542v-22.541h5.217c3.542,0,5.282,1.964,5.282,5.571" transform="translate(-181.368 175.646)" fill="#0c223b"/>
    <path id="Path_397" data-name="Path 397" d="M394.631-148.313v6.924h1.385c1.32,0,2.126-.58,2.126-2.383v-2.222c0-1.61-.548-2.318-1.8-2.318Zm3.864,19.321a6.945,6.945,0,0,1-.322-2.769V-135.3c0-2.093-.708-2.866-2.318-2.866h-1.224v9.177h-3.542v-22.541h5.346c3.671,0,5.248,1.707,5.248,5.185v1.771c0,2.319-.741,3.832-2.318,4.573,1.771.741,2.351,2.447,2.351,4.8v3.478a6.636,6.636,0,0,0,.387,2.737Z" transform="translate(-193.402 175.646)" fill="#0c223b"/>
    <path id="Path_398" data-name="Path 398" d="M419.166-136.141h3.413l-1.707-11.4Zm8.083,7.149h-3.575l-.612-4.09h-4.347l-.612,4.09h-3.252l3.607-22.541h5.185Z" transform="translate(-205.152 175.646)" fill="#0c223b"/>
    <path id="Path_399" data-name="Path 399" d="M447.261-137.976l-1.095,2.061v6.924h-3.542v-22.541h3.542v9.821l4.637-9.821h3.542l-4.926,10.047,4.926,12.494h-3.639Z" transform="translate(-218.887 175.646)" fill="#0c223b"/>
    <path id="Path_400" data-name="Path 400" d="M466.958-151.533h10.949v3.22h-3.7v19.321h-3.542v-19.321h-3.7Z" transform="translate(-230.92 175.646)" fill="#0c223b"/>
    <path id="Path_401" data-name="Path 401" d="M493.859-136.463l-4.476-15.07h3.7l2.7,10.272,2.7-10.272h3.381l-4.476,15.07v7.471h-3.541Z" transform="translate(-242.01 175.646)" fill="#0c223b"/>
    <path id="Path_402" data-name="Path 402" d="M521.536-137.976l-1.095,2.061v6.924H516.9v-22.541h3.542v9.821l4.637-9.821h3.542l-4.926,10.047,4.926,12.494h-3.639Z" transform="translate(-255.617 175.646)" fill="#0c223b"/>
    <path id="Path_403" data-name="Path 403" d="M545.74-136.141h3.413l-1.707-11.4Zm8.083,7.149h-3.575l-.612-4.09h-4.347l-.612,4.09h-3.252l3.607-22.541h5.185Z" transform="translate(-267.746 175.646)" fill="#0c223b"/>
    <path id="Path_404" data-name="Path 404" d="M233.98-95.334h-3.092v-3.092h3.092Zm3.574,1.191v3.156l-6.73,16.165h6.73v3.22H227.185v-3.156l6.73-16.165h-6.408v-3.22Z" transform="translate(-112.348 149.384)" fill="#0c223b"/>
    <path id="Path_405" data-name="Path 405" d="M255.381-80.454h4.863v3.22h-4.863v6.6H261.5v3.22h-9.66V-89.953h9.66v3.22h-6.118Z" transform="translate(-124.54 145.194)" fill="#0c223b"/>
    <path id="Path_406" data-name="Path 406" d="M280.311-80.223h4.959v7.149c0,3.607-1.8,5.667-5.281,5.667s-5.281-2.061-5.281-5.667V-84.8c0-3.607,1.8-5.667,5.281-5.667S285.27-88.4,285.27-84.8v2.19h-3.349v-2.415c0-1.61-.709-2.222-1.835-2.222s-1.836.612-1.836,2.222v12.172c0,1.61.708,2.189,1.836,2.189s1.835-.579,1.835-2.189V-77h-1.61Z" transform="translate(-135.849 145.446)" fill="#0c223b"/>
    <path id="Path_407" data-name="Path 407" d="M300.124-89.953h3.542v19.321H309.5v3.22h-9.371Z" transform="translate(-148.417 145.194)" fill="#0c223b"/>
    <path id="Path_408" data-name="Path 408" d="M324.188-74.561H327.6l-1.707-11.4Zm8.083,7.149H328.7l-.612-4.09h-4.347l-.612,4.09h-3.252l3.607-22.541h5.185Z" transform="translate(-158.184 145.194)" fill="#0c223b"/>
    <path id="Path_409" data-name="Path 409" d="M351.188-86.733v6.924h1.385c1.32,0,2.126-.58,2.126-2.383v-2.222c0-1.61-.548-2.319-1.8-2.319Zm3.864,19.321a6.944,6.944,0,0,1-.322-2.769v-3.542c0-2.093-.708-2.866-2.318-2.866h-1.224v9.177h-3.542V-89.954h5.346c3.671,0,5.248,1.707,5.248,5.185V-83c0,2.319-.741,3.832-2.318,4.573,1.771.741,2.351,2.447,2.351,4.8v3.478a6.635,6.635,0,0,0,.387,2.737Z" transform="translate(-171.918 145.194)" fill="#0c223b"/>
    <path id="Path_410" data-name="Path 410" d="M377.485-90.463c3.445,0,5.216,2.061,5.216,5.667v.709h-3.349v-.934c0-1.61-.644-2.222-1.771-2.222s-1.771.612-1.771,2.222c0,4.637,6.923,5.507,6.923,11.947,0,3.607-1.8,5.667-5.281,5.667s-5.281-2.061-5.281-5.667v-1.385h3.349v1.61c0,1.61.709,2.19,1.835,2.19s1.835-.58,1.835-2.19c0-4.637-6.923-5.507-6.923-11.947,0-3.607,1.771-5.667,5.217-5.667" transform="translate(-184.046 145.446)" fill="#0c223b"/>
    <path id="Path_411" data-name="Path 411" d="M401.716-76.4l-1.095,2.061v6.924h-3.542V-89.954h3.542v9.821l4.637-9.821H408.8l-4.927,10.047L408.8-67.412h-3.639Z" transform="translate(-196.364 145.194)" fill="#0c223b"/>
    <path id="Path_412" data-name="Path 412" d="M425.919-74.561h3.414l-1.707-11.4ZM434-67.412h-3.574l-.612-4.09h-4.347l-.612,4.09h-3.252l3.607-22.541H430.4Z" transform="translate(-208.492 145.194)" fill="#0c223b"/>
  </g>
</svg>
