<svg xmlns="http://www.w3.org/2000/svg" width="144.121" height="218.726" viewBox="0 0 144.121 218.726">
  <g id="Group_240" data-name="Group 240" transform="translate(0 0)">
    <path id="Path_413" data-name="Path 413" d="M114.5-377.085a59.836,59.836,0,0,1-42.609,17.652,59.856,59.856,0,0,1-42.616-17.652,59.869,59.869,0,0,1-17.649-42.609A59.883,59.883,0,0,1,29.273-462.31a59.9,59.9,0,0,1,42.616-17.649A59.882,59.882,0,0,1,114.5-462.31a59.876,59.876,0,0,1,17.654,42.616A59.863,59.863,0,0,1,114.5-377.085m27.653-39.4c2.151-2.029,2.164-4.379.028-6.392-2.735-2.587-3.024-5.263-.89-8.323,1.683-2.408,1.176-4.759-1.343-6.249-3.084-1.824-4-4.622-2.591-7.881,1.178-2.71.178-4.935-2.65-5.911-3.379-1.159-4.824-3.7-4.085-7.2A4.029,4.029,0,0,0,127-463.613c-3.918-.5-5.614-2.392-5.7-6.349a3.978,3.978,0,0,0-4.813-4.086,5.91,5.91,0,0,1-6.7-4.735c-.571-3.111-2.693-4.288-5.724-3.33a5.7,5.7,0,0,1-7.333-3.217c-1.342-2.922-3.568-3.628-6.419-2.043A5.678,5.678,0,0,1,82.575-489c-2-2.694-4.227-2.925-6.758-.7a5.671,5.671,0,0,1-7.823.049c-2.7-2.311-4.751-2.077-6.914.8a5.69,5.69,0,0,1-7.464,1.584c-3.111-1.715-5.16-1.067-6.648,2.107a5.72,5.72,0,0,1-6.959,3.153c-3.534-1.055-5.3-.039-6.112,3.518a5.744,5.744,0,0,1-6.547,4.44c-2.864-.426-4.9,1.408-4.867,4.4a5.651,5.651,0,0,1-5.393,6.018c-3.007.283-4.5,2.271-3.942,5.242.679,3.576-.717,5.993-4.138,7.174-2.783.954-3.768,3.137-2.632,5.82,1.46,3.436.608,6.051-2.585,7.961a4.015,4.015,0,0,0-1.315,6.258c2.122,2.983,1.855,5.744-.8,8.219-2.246,2.1-2.235,4.449.043,6.565,2.589,2.4,2.871,5.248.8,8.128-1.725,2.4-1.217,4.834,1.322,6.346,3.117,1.849,3.991,4.528,2.564,7.864-1.18,2.749-.2,4.926,2.657,5.9,3.344,1.147,4.768,3.606,4.1,7.082-.592,3.04.9,5.032,3.986,5.31a5.658,5.658,0,0,1,5.335,5.948c-.035,2.961,1.9,4.826,4.68,4.5,3.613-.419,5.96,1.249,6.8,4.825.687,2.931,2.766,4.13,5.621,3.239,3.4-1.056,6.08.148,7.564,3.405a4,4,0,0,0,5.989,2.007c3.352-1.855,5.956-1.311,8.264,1.754.976,1.3,2.235,2.132,3.853,1.77a6.786,6.786,0,0,0,2.685-1.423,5.768,5.768,0,0,1,7.743-.085c2.82,2.387,4.744,2.186,7.017-.733a5.7,5.7,0,0,1,7.469-1.567c3.117,1.707,5.129,1.059,6.642-2.134a5.723,5.723,0,0,1,6.977-3.123c3.508,1.058,5.192.07,6.075-3.557a5.758,5.758,0,0,1,6.575-4.406,4.039,4.039,0,0,0,4.858-4.175c.067-3.825,1.875-5.829,5.657-6.266a4.028,4.028,0,0,0,3.682-5.134c-.76-3.572.647-6.026,4.152-7.266,2.749-.976,3.738-3.2,2.591-5.851-1.423-3.292-.529-6.078,2.536-7.89,2.537-1.5,3.062-3.838,1.4-6.24-2.141-3.111-1.872-5.777.836-8.325" transform="translate(0 491.215)" fill="#0c223b" fill-rule="evenodd"/>
    <path id="Path_414" data-name="Path 414" d="M123.556-374.5c-2.74-1.478-4.462-.323-6.059,1.974-6,8.62-14.328,13.951-24.325,16.843a18.187,18.187,0,0,0-3.158,1.259,28.245,28.245,0,0,0-2.512,1.562c-.055-.024-.11-.049-.163-.076-.055.027-.111.052-.166.076a27.937,27.937,0,0,0-2.512-1.562,18.057,18.057,0,0,0-3.156-1.259c-10-2.892-18.327-8.223-24.326-16.843-1.6-2.3-3.32-3.451-6.061-1.974-4.264-7.4-8.769-14.523-4.691-23.852,5.557,6.066,11.438,11.065,18.756,14.152-4.028,5.662-.786,12.005,6.613,13.443,0-8.383.137-16.76-.057-25.128a18.253,18.253,0,0,1,3.445-11.665c2.771-3.764,4.819-7.711,3.516-12.977H52.452c2.738-4.425,6.372-6.969,10.155-9.308,3.2-1.973,3.754-1.63,3.862,2.314,3.79,0,7.6-.069,11.4.033,1.6.043,2.142-.568,2.228-2.083.3-5.032.7-10.059,1.028-15.091.049-.7.148-1.663-.237-2.092-1.489-1.639-.9-3.278-.388-5.017a4.244,4.244,0,0,0,.186-2.259c-.517-1.694.317-2.414,1.725-2.448q2.408-.051,4.821-.043h.212q2.414-.009,4.822.043c1.407.033,2.242.754,1.728,2.448a4.18,4.18,0,0,0,.187,2.259c.512,1.739,1.1,3.378-.391,5.017-.384.429-.284,1.39-.239,2.092.324,5.033.725,10.059,1.027,15.091.091,1.515.637,2.126,2.23,2.083,3.8-.1,7.606-.033,11.4-.033.105-3.944.655-4.288,3.86-2.314,3.784,2.339,7.419,4.883,10.157,9.308H95.976c-1.3,5.266.745,9.213,3.516,12.977a18.214,18.214,0,0,1,3.44,11.665c-.188,8.368-.053,16.745-.053,25.128,7.4-1.438,10.642-7.781,6.617-13.443,7.313-3.087,13.2-8.086,18.749-14.152,4.082,9.329-.427,16.456-4.689,23.852M87.339-464.176A59.549,59.549,0,0,0,27.853-404.7a59.555,59.555,0,0,0,59.486,59.483A59.553,59.553,0,0,0,146.82-404.7a59.547,59.547,0,0,0-59.481-59.481" transform="translate(-15.451 476.216)" fill="#0c223b" fill-rule="evenodd"/>
    <path id="Path_415" data-name="Path 415" d="M4.187-130.243v13.535H5.866c.947,0,1.516-.488,1.516-1.841V-128.4c0-1.354-.569-1.841-1.516-1.841ZM1.209-132.95h4.71c2.978,0,4.439,1.651,4.439,4.683v9.583c0,3.032-1.462,4.683-4.439,4.683H1.209Z" transform="translate(-0.671 292.477)" fill="#0c223b"/>
    <path id="Path_416" data-name="Path 416" d="M28.441-118.629c0,1.353.6,1.867,1.543,1.867s1.543-.514,1.543-1.867v-10.232c0-1.354-.6-1.868-1.543-1.868s-1.543.514-1.543,1.868Zm-2.978-10.043c0-3.031,1.6-4.764,4.52-4.764s4.52,1.733,4.52,4.764v9.853c0,3.032-1.6,4.764-4.52,4.764s-4.52-1.732-4.52-4.764Z" transform="translate(-14.125 292.746)" fill="#0c223b"/>
    <path id="Path_417" data-name="Path 417" d="M53.06-122.528v5.82h1.7c1,0,1.543-.46,1.543-1.867v-1.652c0-1.759-.569-2.3-1.922-2.3Zm0-7.714v5.008h1.164c1.11,0,1.787-.487,1.787-2v-1.056c0-1.353-.46-1.949-1.516-1.949Zm5.928,1.651v.677c0,1.949-.6,3.194-1.922,3.817,1.6.622,2.22,2.057,2.22,4.06v1.543c0,2.924-1.542,4.493-4.52,4.493H50.082v-18.948h4.493c3.086,0,4.412,1.434,4.412,4.358" transform="translate(-27.782 292.476)" fill="#0c223b"/>
    <path id="Path_418" data-name="Path 418" d="M77.74-130.243v5.82H78.9c1.11,0,1.787-.487,1.787-2v-1.867c0-1.353-.46-1.949-1.516-1.949ZM80.988-114a5.826,5.826,0,0,1-.271-2.328v-2.977c0-1.76-.6-2.409-1.949-2.409H77.74V-114H74.762V-132.95h4.493c3.086,0,4.412,1.435,4.412,4.358v1.489c0,1.949-.623,3.221-1.949,3.844,1.489.622,1.976,2.058,1.976,4.033v2.924a5.577,5.577,0,0,0,.326,2.3Z" transform="translate(-41.472 292.477)" fill="#0c223b"/>
    <path id="Path_419" data-name="Path 419" d="M101.061-120.011h2.869l-1.434-9.582ZM107.856-114h-3l-.515-3.438h-3.654L100.168-114H97.434l3.032-18.948h4.358Z" transform="translate(-54.049 292.477)" fill="#0c223b"/>
    <path id="Path_420" data-name="Path 420" d="M136.338-130.243v6.415h1.407c.948,0,1.462-.433,1.462-1.786v-2.843c0-1.353-.514-1.786-1.462-1.786Zm5.847,1.976v2.464c0,3.031-1.462,4.683-4.44,4.683h-1.407V-114H133.36V-132.95h4.385c2.978,0,4.44,1.651,4.44,4.683" transform="translate(-73.978 292.477)" fill="#0c223b"/>
    <path id="Path_421" data-name="Path 421" d="M159.558-130.243v5.82h1.164c1.11,0,1.787-.487,1.787-2v-1.867c0-1.353-.46-1.949-1.516-1.949ZM162.806-114a5.826,5.826,0,0,1-.271-2.328v-2.977c0-1.76-.6-2.409-1.949-2.409h-1.029V-114H156.58V-132.95h4.493c3.086,0,4.412,1.435,4.412,4.358v1.489c0,1.949-.623,3.221-1.949,3.844,1.489.622,1.976,2.058,1.976,4.033v2.924a5.577,5.577,0,0,0,.326,2.3Z" transform="translate(-86.859 292.477)" fill="#0c223b"/>
    <path id="Path_422" data-name="Path 422" d="M182.879-120.011h2.869l-1.434-9.582ZM189.674-114h-3l-.515-3.438H182.5L181.986-114h-2.734l3.032-18.948h4.358Z" transform="translate(-99.436 292.477)" fill="#0c223b"/>
    <path id="Path_423" data-name="Path 423" d="M209.654-121.554l-.92,1.733V-114h-2.978V-132.95h2.978v8.256l3.9-8.256h2.978l-4.141,8.446,4.141,10.5H212.55Z" transform="translate(-114.138 292.477)" fill="#0c223b"/>
    <path id="Path_424" data-name="Path 424" d="M228.975-132.95h9.2v2.707h-3.113V-114h-2.978v-16.242h-3.113Z" transform="translate(-127.018 292.477)" fill="#0c223b"/>
    <path id="Path_425" data-name="Path 425" d="M254.135-120.281l-3.763-12.668h3.113l2.274,8.635,2.274-8.635h2.842l-3.763,12.668V-114h-2.978Z" transform="translate(-138.888 292.476)" fill="#0c223b"/>
    <path id="Path_426" data-name="Path 426" d="M280.531-121.554l-.92,1.733V-114h-2.978V-132.95h2.978v8.256l3.9-8.256h2.978l-4.142,8.446,4.142,10.5h-3.059Z" transform="translate(-153.455 292.477)" fill="#0c223b"/>
    <path id="Path_427" data-name="Path 427" d="M303.662-120.011h2.869l-1.435-9.582ZM310.457-114h-3l-.514-3.438h-3.654L302.769-114h-2.734l3.032-18.948h4.358Z" transform="translate(-166.437 292.477)" fill="#0c223b"/>
    <path id="Path_428" data-name="Path 428" d="M9.184-75.092H5.163v-4.021H9.184Zm4.649,1.55v4.1L5.079-48.41h8.754v4.189H.346v-4.1L9.1-69.353H.765v-4.189Z" transform="translate(-0.192 262.612)" fill="#0c223b"/>
    <path id="Path_429" data-name="Path 429" d="M41.358-54.245h6.325v4.189H41.358v8.587h7.959v4.189H36.751V-66.6H49.318v4.189H41.358Z" transform="translate(-20.386 255.672)" fill="#0c223b"/>
    <path id="Path_430" data-name="Path 430" d="M77.811-54.034h6.45v9.3c0,4.691-2.345,7.372-6.869,7.372s-6.87-2.681-6.87-7.372V-59.982c0-4.691,2.346-7.372,6.87-7.372s6.869,2.681,6.869,7.372v2.848H79.905v-3.142c0-2.094-.922-2.89-2.387-2.89s-2.388.8-2.388,2.89v15.834c0,2.095.922,2.848,2.388,2.848s2.387-.753,2.387-2.848v-5.4H77.811Z" transform="translate(-39.121 256.089)" fill="#0c223b"/>
    <path id="Path_431" data-name="Path 431" d="M108.057-66.6h4.608V-41.47h7.582v4.189H108.057Z" transform="translate(-59.942 255.672)" fill="#0c223b"/>
    <path id="Path_432" data-name="Path 432" d="M142.833-46.58h4.44l-2.221-14.828Zm10.513,9.3H148.7l-.8-5.32h-5.655l-.8,5.32h-4.23L141.911-66.6h6.743Z" transform="translate(-76.119 255.672)" fill="#0c223b"/>
    <path id="Path_433" data-name="Path 433" d="M182.841-62.413v9.006h1.8c1.717,0,2.765-.754,2.765-3.1V-59.4c0-2.095-.712-3.016-2.346-3.016Zm5.027,25.132a9.018,9.018,0,0,1-.419-3.6v-4.608c0-2.723-.921-3.728-3.015-3.728h-1.592v11.938h-4.608V-66.6h6.954c4.774,0,6.827,2.22,6.827,6.744v2.3c0,3.016-.963,4.984-3.016,5.948,2.3.963,3.058,3.183,3.058,6.241v4.524a8.648,8.648,0,0,0,.5,3.56Z" transform="translate(-98.87 255.672)" fill="#0c223b"/>
    <path id="Path_434" data-name="Path 434" d="M221.363-67.354c4.481,0,6.785,2.681,6.785,7.372v.922h-4.356v-1.215c0-2.094-.838-2.89-2.3-2.89s-2.3.8-2.3,2.89c0,6.032,9.006,7.163,9.006,15.541,0,4.691-2.346,7.372-6.87,7.372s-6.868-2.681-6.868-7.372v-1.8h4.356v2.094c0,2.095.921,2.848,2.387,2.848s2.387-.754,2.387-2.848c0-6.032-9.005-7.163-9.005-15.54,0-4.691,2.3-7.372,6.786-7.372" transform="translate(-118.962 256.089)" fill="#0c223b"/>
    <path id="Path_435" data-name="Path 435" d="M257.264-48.968l-1.424,2.681v9.006h-4.608V-66.6h4.608v12.776L261.872-66.6h4.608l-6.409,13.069,6.409,16.252h-4.734Z" transform="translate(-139.365 255.672)" fill="#0c223b"/>
    <path id="Path_436" data-name="Path 436" d="M293.064-46.58h4.44l-2.221-14.828Zm10.513,9.3h-4.649l-.8-5.32h-5.655l-.8,5.32h-4.23L292.142-66.6h6.743Z" transform="translate(-159.456 255.672)" fill="#0c223b"/>
  </g>
</svg>
