<svg xmlns="http://www.w3.org/2000/svg" width="269.137" height="139.619" viewBox="0 0 269.137 139.619">
  <g id="Group_238" data-name="Group 238" transform="translate(0 0)">
    <path id="Path_382" data-name="Path 382" d="M111.76-87.835A58.406,58.406,0,0,1,70.17-70.6a58.426,58.426,0,0,1-41.6-17.23,58.439,58.439,0,0,1-17.227-41.591,58.453,58.453,0,0,1,17.227-41.6,58.472,58.472,0,0,1,41.6-17.226,58.452,58.452,0,0,1,41.591,17.226,58.446,58.446,0,0,1,17.232,41.6A58.432,58.432,0,0,1,111.76-87.835m26.992-38.457c2.1-1.98,2.111-4.274.028-6.239-2.67-2.526-2.952-5.137-.869-8.124,1.643-2.35,1.148-4.645-1.311-6.1-3.011-1.781-3.908-4.512-2.529-7.693,1.15-2.645.174-4.817-2.587-5.77-3.3-1.131-4.708-3.612-3.987-7.028a3.933,3.933,0,0,0-3.538-5.049c-3.824-.486-5.48-2.336-5.566-6.2a3.884,3.884,0,0,0-4.7-3.989,5.768,5.768,0,0,1-6.535-4.621c-.558-3.036-2.629-4.185-5.587-3.25a5.564,5.564,0,0,1-7.158-3.14c-1.309-2.852-3.483-3.541-6.265-1.994a5.543,5.543,0,0,1-7.55-1.588c-1.953-2.63-4.125-2.856-6.6-.683a5.535,5.535,0,0,1-7.635.047c-2.631-2.256-4.638-2.027-6.749.781a5.554,5.554,0,0,1-7.286,1.547c-3.036-1.674-5.036-1.042-6.49,2.057a5.583,5.583,0,0,1-6.792,3.078c-3.449-1.03-5.174-.039-5.966,3.434a5.605,5.605,0,0,1-6.39,4.334c-2.8-.416-4.783,1.374-4.75,4.3a5.516,5.516,0,0,1-5.264,5.874c-2.935.276-4.394,2.217-3.848,5.116.662,3.491-.7,5.851-4.039,7-2.716.932-3.678,3.063-2.569,5.681,1.425,3.354.594,5.906-2.523,7.77a3.919,3.919,0,0,0-1.283,6.108c2.071,2.912,1.81,5.607-.784,8.022-2.193,2.051-2.182,4.343.041,6.409,2.528,2.345,2.8,5.123.783,7.933-1.684,2.345-1.189,4.72,1.291,6.195,3.043,1.8,3.9,4.419,2.5,7.675-1.151,2.683-.2,4.809,2.594,5.764,3.264,1.119,4.653,3.521,4,6.913-.578,2.968.881,4.912,3.89,5.182a5.523,5.523,0,0,1,5.207,5.805c-.034,2.891,1.858,4.711,4.569,4.4,3.526-.41,5.816,1.22,6.636,4.71.671,2.861,2.7,4.031,5.486,3.161,3.32-1.029,5.935.146,7.383,3.324a3.906,3.906,0,0,0,5.845,1.959c3.273-1.81,5.814-1.279,8.067,1.713a3.621,3.621,0,0,0,3.761,1.727,6.629,6.629,0,0,0,2.621-1.389,5.632,5.632,0,0,1,7.559-.083c2.752,2.33,4.63,2.135,6.849-.715a5.561,5.561,0,0,1,7.291-1.528c3.043,1.666,5.007,1.033,6.484-2.083a5.588,5.588,0,0,1,6.81-3.048c3.424,1.033,5.068.069,5.93-3.472a5.62,5.62,0,0,1,6.418-4.3,3.942,3.942,0,0,0,4.743-4.075c.066-3.734,1.83-5.69,5.522-6.118a3.93,3.93,0,0,0,3.594-5.01c-.742-3.488.631-5.883,4.052-7.094,2.684-.952,3.649-3.119,2.529-5.711-1.388-3.214-.516-5.933,2.476-7.7,2.477-1.467,2.989-3.746,1.371-6.091-2.09-3.036-1.828-5.639.816-8.126" transform="translate(0 199.237)" fill="#0c223b" fill-rule="evenodd"/>
    <path id="Path_383" data-name="Path 383" d="M110.69-94.938c-2.674-1.442-4.355-.315-5.914,1.926C98.917-84.6,90.791-79.394,81.032-76.571a17.833,17.833,0,0,0-3.083,1.228A27.9,27.9,0,0,0,75.5-73.817c-.053-.024-.107-.048-.158-.074-.053.027-.11.05-.163.074a27.411,27.411,0,0,0-2.452-1.526,17.68,17.68,0,0,0-3.081-1.228C59.886-79.394,51.755-84.6,45.9-93.011c-1.561-2.241-3.241-3.369-5.915-1.926-4.163-7.218-8.56-14.176-4.58-23.282,5.425,5.922,11.165,10.8,18.308,13.814-3.931,5.526-.767,11.718,6.455,13.122,0-8.183.135-16.36-.056-24.528A17.812,17.812,0,0,1,63.474-127.2c2.7-3.674,4.7-7.527,3.432-12.667H41.286c2.671-4.319,6.219-6.8,9.912-9.085,3.127-1.926,3.664-1.591,3.769,2.259,3.7,0,7.416-.068,11.126.033,1.558.041,2.091-.555,2.175-2.034.293-4.912.687-9.818,1-14.73.048-.685.145-1.624-.231-2.042-1.453-1.6-.879-3.2-.378-4.9a4.141,4.141,0,0,0,.182-2.205c-.505-1.653.31-2.357,1.684-2.39Q72.878-175,75.233-175h.208q2.356-.008,4.706.041c1.373.033,2.189.737,1.687,2.39a4.074,4.074,0,0,0,.183,2.205c.5,1.7,1.07,3.3-.382,4.9-.375.418-.277,1.357-.233,2.042.316,4.912.708,9.818,1,14.73.089,1.479.621,2.075,2.177,2.034,3.711-.1,7.425-.033,11.129-.033.1-3.849.638-4.185,3.767-2.259,3.693,2.282,7.241,4.767,9.913,9.085H83.77c-1.272,5.14.727,8.993,3.432,12.667a17.775,17.775,0,0,1,3.357,11.385c-.184,8.168-.052,16.345-.052,24.528,7.22-1.4,10.387-7.6,6.459-13.122,7.138-3.013,12.882-7.892,18.3-13.814,3.985,9.106-.417,16.064-4.577,23.282m-35.35-87.527a58.125,58.125,0,0,0-58.065,58.058A58.132,58.132,0,0,0,75.339-66.346,58.13,58.13,0,0,0,133.4-124.407a58.123,58.123,0,0,0-58.059-58.058" transform="translate(-5.169 194.218)" fill="#0c223b" fill-rule="evenodd"/>
    <path id="Path_384" data-name="Path 384" d="M111.76-87.835A58.406,58.406,0,0,1,70.17-70.6a58.426,58.426,0,0,1-41.6-17.23,58.439,58.439,0,0,1-17.227-41.591,58.453,58.453,0,0,1,17.227-41.6,58.472,58.472,0,0,1,41.6-17.226,58.452,58.452,0,0,1,41.591,17.226,58.446,58.446,0,0,1,17.232,41.6A58.432,58.432,0,0,1,111.76-87.835m26.992-38.457c2.1-1.98,2.111-4.274.028-6.239-2.67-2.526-2.952-5.137-.869-8.124,1.643-2.35,1.148-4.645-1.311-6.1-3.011-1.781-3.908-4.512-2.529-7.693,1.15-2.645.174-4.817-2.587-5.77-3.3-1.131-4.708-3.612-3.987-7.028a3.933,3.933,0,0,0-3.538-5.049c-3.824-.486-5.48-2.336-5.566-6.2a3.884,3.884,0,0,0-4.7-3.989,5.768,5.768,0,0,1-6.535-4.621c-.558-3.036-2.629-4.185-5.587-3.25a5.564,5.564,0,0,1-7.158-3.14c-1.309-2.852-3.483-3.541-6.265-1.994a5.543,5.543,0,0,1-7.55-1.588c-1.953-2.63-4.125-2.856-6.6-.683a5.535,5.535,0,0,1-7.635.047c-2.631-2.256-4.638-2.027-6.749.781a5.554,5.554,0,0,1-7.286,1.547c-3.036-1.674-5.036-1.042-6.49,2.057a5.583,5.583,0,0,1-6.792,3.078c-3.449-1.03-5.174-.039-5.966,3.434a5.605,5.605,0,0,1-6.39,4.334c-2.8-.416-4.783,1.374-4.75,4.3a5.516,5.516,0,0,1-5.264,5.874c-2.935.276-4.394,2.217-3.848,5.116.662,3.491-.7,5.851-4.039,7-2.716.932-3.678,3.063-2.569,5.681,1.425,3.354.594,5.906-2.523,7.77a3.919,3.919,0,0,0-1.283,6.108c2.071,2.912,1.81,5.607-.784,8.022-2.193,2.051-2.182,4.343.041,6.409,2.528,2.345,2.8,5.123.783,7.933-1.684,2.345-1.189,4.72,1.291,6.195,3.043,1.8,3.9,4.419,2.5,7.675-1.151,2.683-.2,4.809,2.594,5.764,3.264,1.119,4.653,3.521,4,6.913-.578,2.968.881,4.912,3.89,5.182a5.523,5.523,0,0,1,5.207,5.805c-.034,2.891,1.858,4.711,4.569,4.4,3.526-.41,5.816,1.22,6.636,4.71.671,2.861,2.7,4.031,5.486,3.161,3.32-1.029,5.935.146,7.383,3.324a3.906,3.906,0,0,0,5.845,1.959c3.273-1.81,5.814-1.279,8.067,1.713a3.621,3.621,0,0,0,3.761,1.727,6.629,6.629,0,0,0,2.621-1.389,5.632,5.632,0,0,1,7.559-.083c2.752,2.33,4.63,2.135,6.849-.715a5.561,5.561,0,0,1,7.291-1.528c3.043,1.666,5.007,1.033,6.484-2.083a5.588,5.588,0,0,1,6.81-3.048c3.424,1.033,5.068.069,5.93-3.472a5.62,5.62,0,0,1,6.418-4.3,3.942,3.942,0,0,0,4.743-4.075c.066-3.734,1.83-5.69,5.522-6.118a3.93,3.93,0,0,0,3.594-5.01c-.742-3.488.631-5.883,4.052-7.094,2.684-.952,3.649-3.119,2.529-5.711-1.388-3.214-.516-5.933,2.476-7.7,2.477-1.467,2.989-3.746,1.371-6.091-2.09-3.036-1.828-5.639.816-8.126" transform="translate(0 199.237)" fill="#0c223b" fill-rule="evenodd"/>
    <path id="Path_385" data-name="Path 385" d="M110.69-94.938c-2.674-1.442-4.355-.315-5.914,1.926C98.917-84.6,90.791-79.394,81.032-76.571a17.833,17.833,0,0,0-3.083,1.228A27.9,27.9,0,0,0,75.5-73.817c-.053-.024-.107-.048-.158-.074-.053.027-.11.05-.163.074a27.411,27.411,0,0,0-2.452-1.526,17.68,17.68,0,0,0-3.081-1.228C59.886-79.394,51.755-84.6,45.9-93.011c-1.561-2.241-3.241-3.369-5.915-1.926-4.163-7.218-8.56-14.176-4.58-23.282,5.425,5.922,11.165,10.8,18.308,13.814-3.931,5.526-.767,11.718,6.455,13.122,0-8.183.135-16.36-.056-24.528A17.812,17.812,0,0,1,63.474-127.2c2.7-3.674,4.7-7.527,3.432-12.667H41.286c2.671-4.319,6.219-6.8,9.912-9.085,3.127-1.926,3.664-1.591,3.769,2.259,3.7,0,7.416-.068,11.126.033,1.558.041,2.091-.555,2.175-2.034.293-4.912.687-9.818,1-14.73.048-.685.145-1.624-.231-2.042-1.453-1.6-.879-3.2-.378-4.9a4.141,4.141,0,0,0,.182-2.205c-.505-1.653.31-2.357,1.684-2.39Q72.878-175,75.233-175h.208q2.356-.008,4.706.041c1.373.033,2.189.737,1.687,2.39a4.074,4.074,0,0,0,.183,2.205c.5,1.7,1.07,3.3-.382,4.9-.375.418-.277,1.357-.233,2.042.316,4.912.708,9.818,1,14.73.089,1.479.621,2.075,2.177,2.034,3.711-.1,7.425-.033,11.129-.033.1-3.849.638-4.185,3.767-2.259,3.693,2.282,7.241,4.767,9.913,9.085H83.77c-1.272,5.14.727,8.993,3.432,12.667a17.775,17.775,0,0,1,3.357,11.385c-.184,8.168-.052,16.345-.052,24.528,7.22-1.4,10.387-7.6,6.459-13.122,7.138-3.013,12.882-7.892,18.3-13.814,3.985,9.106-.417,16.064-4.577,23.282m-35.35-87.527a58.125,58.125,0,0,0-58.065,58.058A58.132,58.132,0,0,0,75.339-66.346,58.13,58.13,0,0,0,133.4-124.407a58.123,58.123,0,0,0-58.059-58.058" transform="translate(-5.169 194.218)" fill="#0c223b" fill-rule="evenodd"/>
    <path id="Path_386" data-name="Path 386" d="M242.057-140.7v48.882h6.061c3.422,0,5.475-1.76,5.475-6.648v-35.586c0-4.889-2.053-6.648-5.475-6.648ZM231.3-150.472h17.012c10.753,0,16.034,5.964,16.034,16.913V-98.95c0,10.95-5.28,16.914-16.034,16.914H231.3Z" transform="translate(-69.212 184.645)" fill="#0c223b"/>
    <path id="Path_387" data-name="Path 387" d="M298.974-140.7v23.17h5.084c3.422,0,5.279-1.564,5.279-6.453v-10.265c0-4.889-1.857-6.453-5.279-6.453Zm21.118,7.137v8.9c0,10.949-5.28,16.913-16.034,16.913h-5.084v25.713H288.219v-68.436h15.839c10.754,0,16.034,5.964,16.034,16.913" transform="translate(-86.243 184.645)" fill="#0c223b"/>
    <path id="Path_388" data-name="Path 388" d="M359.766-159.643h-9.385v-9.385h9.385Zm10.851,3.618v9.58L350.185-97.366h20.432v9.776H339.138V-97.17l20.432-49.078H340.115v-9.776Z" transform="translate(-101.48 190.197)" fill="#0c223b"/>
  </g>
</svg>
