<svg xmlns="http://www.w3.org/2000/svg" xmlns:xlink="http://www.w3.org/1999/xlink" width="113.231" height="78.278" viewBox="0 0 113.231 78.278">
  <defs>
    <linearGradient id="linear-gradient" x1="0.5" x2="0.5" y2="1" gradientUnits="objectBoundingBox">
      <stop offset="0" stop-color="#0c1a2b"/>
      <stop offset="1" stop-color="#38aecc"/>
    </linearGradient>
    <filter id="Exclusion_6" x="0" y="0" width="113.231" height="78.278" filterUnits="userSpaceOnUse">
      <feOffset dy="3" input="SourceAlpha"/>
      <feGaussianBlur stdDeviation="3" result="blur"/>
      <feFlood flood-opacity="0.161"/>
      <feComposite operator="in" in2="blur"/>
      <feComposite in="SourceGraphic"/>
    </filter>
  </defs>
  <g transform="matrix(1, 0, 0, 1, 0, 0)" filter="url(#Exclusion_6)">
    <path id="Exclusion_6-2" data-name="Exclusion 6" d="M42.131,60.278a5.512,5.512,0,0,1-2.7-.616,3.925,3.925,0,0,1-1.649-1.778,29.432,29.432,0,0,0,3.17-1.122,2.31,2.31,0,0,1-.437-1.555V43.867c0-1.393.559-2.07,1.71-2.07s1.71.677,1.71,2.07v2.25h3.12V44.078a5.6,5.6,0,0,0-1.245-3.9,4.757,4.757,0,0,0-3.675-1.38,4.757,4.757,0,0,0-3.675,1.38,5.6,5.6,0,0,0-1.245,3.9V55a6.676,6.676,0,0,0,.567,2.887,29.451,29.451,0,0,1-3.524.792A5.7,5.7,0,0,0,35.351,55V44.078a5.5,5.5,0,0,0-1.29-3.9,4.885,4.885,0,0,0-3.72-1.38,4.885,4.885,0,0,0-3.72,1.38,5.5,5.5,0,0,0-1.29,3.9V55a5.484,5.484,0,0,0,1.3,3.914l0,0h0A29.482,29.482,0,0,1,20.976,57.8l.395-3.759H22.9l.24-2.34h-1.53l.57-5.49h1.53l.24-2.34h-1.53l.51-4.829h-2.7l-.51,4.829H17.77l.51-4.829h-2.7l-.51,4.829h-1.5l-.24,2.34h1.5L14.26,51.7h-1.47l-.207,2.014A29.777,29.777,0,0,1,3.438,43.367,29.532,29.532,0,1,1,55.8,16.037H51.851l-3.36,21H51.52l.571-3.811h4.05l.57,3.811h1.377a29.4,29.4,0,0,1-1.137,3.448V39.038h-2.22c-.541,1.5-1.153,2.64-3.63,2.64v2.34h2.55v2.536a29.5,29.5,0,0,0,3.3-6.068V60.036h-3.3V46.553a29.63,29.63,0,0,1-6.6,6.738V52.207h-3.12v3c0,.034,0,.067,0,.1a29.657,29.657,0,0,0,3.121-2.016V55a5.6,5.6,0,0,1-1.245,3.9A4.756,4.756,0,0,1,42.131,60.278Zm-1.183-3.515a1.581,1.581,0,0,0,1.273.485c1.123,0,1.682-.635,1.709-1.94A29.507,29.507,0,0,1,40.948,56.762ZM42.221,15.8a5.114,5.114,0,0,0-3.829,1.38,5.393,5.393,0,0,0-1.331,3.9v.661c0,2.1.667,3.483,2.039,4.23-1.353.761-2.039,2.234-2.039,4.379V32a5.393,5.393,0,0,0,1.331,3.9,5.114,5.114,0,0,0,3.829,1.38,5.114,5.114,0,0,0,3.829-1.38A5.393,5.393,0,0,0,47.38,32V30.347c0-2.145-.686-3.618-2.039-4.379,1.353-.752,2.039-2.175,2.039-4.23v-.661a5.393,5.393,0,0,0-1.331-3.9A5.114,5.114,0,0,0,42.221,15.8ZM25.42,30.257V32a5.6,5.6,0,0,0,1.245,3.9,4.757,4.757,0,0,0,3.675,1.38,4.757,4.757,0,0,0,3.675-1.38A5.6,5.6,0,0,0,35.261,32V30.347c0-2.289-.756-3.732-2.31-4.41,1.576-.654,2.31-2.026,2.31-4.32v-.54a5.6,5.6,0,0,0-1.245-3.9,4.757,4.757,0,0,0-3.675-1.38,4.757,4.757,0,0,0-3.675,1.38,5.6,5.6,0,0,0-1.245,3.9v1.14h3.12v-1.35c0-1.393.559-2.07,1.71-2.07,1.2,0,1.71.718,1.71,2.4v1.17c0,1.535-.611,2.219-1.98,2.219h-1.29v3H29.8c1.534,0,2.16.773,2.16,2.669v1.651c0,2.088-.864,2.37-1.71,2.37-1.151,0-1.71-.677-1.71-2.07v-1.95Zm-8.7.78H18.67l-.63,6h2.7l.63-6H22.9l.24-2.34h-1.53l.57-5.49h1.53l.24-2.34h-1.53l.51-4.83h-2.7l-.51,4.83H17.77l.51-4.83h-2.7l-.51,4.83h-1.5l-.24,2.34h1.5L14.26,28.7h-1.47l-.24,2.34h1.471l-.63,6h2.7l.63-6Zm13.62,29.24a4.894,4.894,0,0,1-3.705-1.365c.949.092,1.921.14,2.891.14a29.844,29.844,0,0,0,4.728-.377A4.76,4.76,0,0,1,30.341,60.278Zm32.76-.239h-3.03l3.361-21H68.26l3.36,21h-3.33l-.571-3.81h-4.05l-.57,3.81ZM65.68,42.757h0l-1.59,10.62h3.18l-1.589-10.62Zm24.54,17.28H85.031v-21h4.98a5.016,5.016,0,0,1,3.727,1.2,4.933,4.933,0,0,1,1.162,3.63v.751c0,2.2-.677,3.548-2.129,4.23,1.655.645,2.46,2.117,2.46,4.5v1.71C95.231,58.315,93.5,60.037,90.221,60.037Zm-1.89-9.45v6.45h1.89c1.2,0,1.71-.619,1.71-2.07V53.137c0-1.882-.557-2.55-2.129-2.55Zm0-8.55v5.55h1.291c1.369,0,1.98-.685,1.98-2.22V44.2c0-1.494-.518-2.16-1.68-2.16Zm-5.639,18h-9.54v-2.58c0-3.1,1.674-4.933,3.294-6.7,1.6-1.742,3.246-3.544,3.246-6.559,0-1.682-.511-2.4-1.71-2.4-1.151,0-1.71.677-1.71,2.07v2.25H73.151V44.078a5.6,5.6,0,0,1,1.245-3.9,5.583,5.583,0,0,1,7.35,0,5.6,5.6,0,0,1,1.245,3.9A9.331,9.331,0,0,1,81.652,48.9a21.188,21.188,0,0,1-2.731,3.485c-1.342,1.477-2.5,2.752-2.5,4.2a2.309,2.309,0,0,0,.03.45h6.241v3Zm-61.951,0h-2.7l.332-3.164c.846.345,1.721.656,2.6.922l-.235,2.241Zm-4.649,0h-2.7l.569-5.417h0c-.3-.188-.605-.384-.9-.583h.963l-.061.582v0c.82.51,1.678.986,2.551,1.416l-.42,4Zm14.25-2.76c-1.151,0-1.71-.677-1.71-2.07V43.867c0-1.393.559-2.07,1.71-2.07s1.71.677,1.71,2.07v11.34C32.051,56.6,31.491,57.277,30.341,57.277Zm-11.968-.4h0c-.626-.256-1.252-.537-1.86-.836l.21-2H18.67l-.3,2.835Zm-5.315-2.836H12.55l.033-.326c.142.1.3.205.471.324Zm5.853-2.34H16.96l.571-5.49h1.949l-.57,5.489Zm69.93-14.42a4.757,4.757,0,0,1-3.675-1.38A5.6,5.6,0,0,1,83.921,32V21.077a5.6,5.6,0,0,1,1.245-3.9,5.584,5.584,0,0,1,7.35,0,5.6,5.6,0,0,1,1.245,3.9v2.04h-3.12v-2.25c0-1.393-.559-2.07-1.71-2.07s-1.71.677-1.71,2.07v11.34c0,1.373.559,2.04,1.71,2.04s1.71-.667,1.71-2.04v-3h3.12V32a5.6,5.6,0,0,1-1.245,3.9A4.757,4.757,0,0,1,88.841,37.277Zm-11.58,0a4.756,4.756,0,0,1-3.675-1.38A5.6,5.6,0,0,1,72.341,32V21.077a5.6,5.6,0,0,1,1.245-3.9,5.584,5.584,0,0,1,7.35,0,5.6,5.6,0,0,1,1.245,3.9v2.04h-3.12v-2.25c0-1.393-.559-2.07-1.71-2.07s-1.71.677-1.71,2.07v11.34c0,1.373.559,2.04,1.71,2.04s1.71-.667,1.71-2.04v-3h3.12V32a5.6,5.6,0,0,1-1.245,3.9A4.757,4.757,0,0,1,77.261,37.277Zm-6.69-.239h-9v-21h9v3h-5.7v5.85H69.4v3h-4.53v6.15h5.7v3Zm-10.53,0H58.088a29.574,29.574,0,0,0,.941-6.328l1.012,6.327Zm-17.82-2.76c-1.269,0-1.86-.753-1.86-2.37v-1.95c0-1.572.626-2.37,1.86-2.37s1.86.8,1.86,2.37v1.95C44.054,33.524,43.463,34.277,42.221,34.277ZM59.027,30.7,57.181,19.16a29.419,29.419,0,0,1,1.871,10.366c0,.389-.008.784-.023,1.173Zm-3.336-.322H52.51l1.59-10.62,1.59,10.619ZM18.911,28.7H16.96l.571-5.49h1.949l-.57,5.489Zm23.31-4.11c-1.252,0-1.86-.726-1.86-2.219V21.2c0-1.638.591-2.4,1.86-2.4s1.86.763,1.86,2.4v1.17C44.081,23.84,43.455,24.587,42.221,24.587Zm14.956-5.436a29.482,29.482,0,0,0-1.38-3.114h.884l.5,3.113Z" transform="translate(9 6)" fill="url(#linear-gradient)"/>
  </g>
</svg>
