<svg xmlns="http://www.w3.org/2000/svg" xmlns:xlink="http://www.w3.org/1999/xlink" width="109.039" height="77.052" viewBox="0 0 109.039 77.052">
  <defs>
    <filter id="Exclusion_4" x="0" y="0" width="109.039" height="77.052" filterUnits="userSpaceOnUse">
      <feOffset dy="3" input="SourceAlpha"/>
      <feGaussianBlur stdDeviation="3" result="blur"/>
      <feFlood flood-opacity="0.161"/>
      <feComposite operator="in" in2="blur"/>
      <feComposite in="SourceGraphic"/>
    </filter>
  </defs>
  <g transform="matrix(1, 0, 0, 1, 0, 0)" filter="url(#Exclusion_4)">
    <path id="Exclusion_4-2" data-name="Exclusion 4" d="M29.526,59.053A29.534,29.534,0,0,1,18.033,2.32,29.517,29.517,0,0,1,59.052,29.526a29.728,29.728,0,0,1-.656,6.219L55.2,15.737H50.526l-3.248,20.3h2.929l.552-3.683h3.915l.551,3.683h3.108a29.3,29.3,0,0,1-3.773,9.154A29.475,29.475,0,0,1,29.526,59.053Zm11.69-43.547a4.943,4.943,0,0,0-3.7,1.334,5.214,5.214,0,0,0-1.287,3.77v.638c0,2.031.645,3.368,1.972,4.089-1.308.736-1.972,2.16-1.972,4.234v1.595a5.214,5.214,0,0,0,1.287,3.77,4.943,4.943,0,0,0,3.7,1.334,4.945,4.945,0,0,0,3.7-1.334,5.213,5.213,0,0,0,1.287-3.77V29.57c0-2.073-.663-3.5-1.972-4.234,1.308-.726,1.972-2.1,1.972-4.089v-.638a5.213,5.213,0,0,0-1.287-3.77A4.945,4.945,0,0,0,41.216,15.505ZM24.977,29.483v1.682a5.41,5.41,0,0,0,1.2,3.77,4.6,4.6,0,0,0,3.552,1.334,4.6,4.6,0,0,0,3.553-1.334,5.409,5.409,0,0,0,1.2-3.77V29.57c0-2.212-.73-3.607-2.233-4.263,1.523-.632,2.233-1.959,2.233-4.176v-.522a5.409,5.409,0,0,0-1.2-3.77,4.6,4.6,0,0,0-3.553-1.334,4.6,4.6,0,0,0-3.552,1.334,5.41,5.41,0,0,0-1.2,3.77v1.1h3.016V20.407c0-1.347.541-2,1.653-2,1.158,0,1.652.694,1.652,2.32v1.131c0,1.484-.59,2.146-1.913,2.146H28.138v2.9H29.21c1.483,0,2.088.748,2.088,2.581v1.595c0,2.019-.835,2.291-1.652,2.291-1.112,0-1.653-.654-1.653-2V29.483Zm-8.41.754h1.885l-.609,5.8h2.61l.609-5.8h1.479l.232-2.262H21.294l.551-5.307h1.479l.232-2.262H22.077l.493-4.669H19.96l-.493,4.669H17.582l.493-4.669h-2.61l-.493,4.669h-1.45l-.232,2.262H14.74l-.552,5.307H12.767l-.231,2.262h1.421l-.609,5.8h2.61l.609-5.8Zm69.716,6.032a4.6,4.6,0,0,1-3.553-1.334,5.409,5.409,0,0,1-1.2-3.77V20.609a5.409,5.409,0,0,1,1.2-3.77,5.4,5.4,0,0,1,7.105,0,5.41,5.41,0,0,1,1.2,3.77v1.972H88.023V20.407c0-1.347-.541-2-1.653-2s-1.652.655-1.652,2V31.369c0,1.327.54,1.972,1.652,1.972s1.653-.645,1.653-1.972v-2.9h3.016v2.7a5.41,5.41,0,0,1-1.2,3.77A4.6,4.6,0,0,1,86.283,36.269Zm-11.194,0a4.6,4.6,0,0,1-3.552-1.334,5.41,5.41,0,0,1-1.2-3.77V20.609a5.41,5.41,0,0,1,1.2-3.77,5.4,5.4,0,0,1,7.1,0,5.41,5.41,0,0,1,1.2,3.77v1.972H76.828V20.407c0-1.347-.54-2-1.652-2s-1.653.655-1.653,2V31.369c0,1.327.541,1.972,1.653,1.972s1.652-.645,1.652-1.972v-2.9h3.016v2.7a5.41,5.41,0,0,1-1.2,3.77A4.6,4.6,0,0,1,75.089,36.269Zm-6.467-.232h-8.7v-20.3h8.7v2.9h-5.51v5.655h4.379v2.9H63.112v5.944h5.51v2.9Zm-27.4-2.668c-1.226,0-1.8-.728-1.8-2.291V29.193c0-1.52.6-2.291,1.8-2.291s1.8.771,1.8,2.291v1.885C42.99,32.641,42.418,33.369,41.216,33.369ZM54.238,29.6H51.164L52.7,19.333,54.237,29.6ZM18.684,27.976H16.8l.552-5.307h1.885l-.551,5.306ZM41.216,24c-1.209,0-1.8-.7-1.8-2.146V20.725c0-1.583.571-2.32,1.8-2.32s1.8.737,1.8,2.32v1.131C43.015,23.28,42.41,24,41.216,24Z" transform="translate(9 6)" fill="#38aecc"/>
  </g>
</svg>
