<svg xmlns="http://www.w3.org/2000/svg" xmlns:xlink="http://www.w3.org/1999/xlink" width="110.46" height="77.052" viewBox="0 0 110.46 77.052">
  <defs>
    <filter id="Exclusion_1" x="0" y="0" width="110.46" height="77.052" filterUnits="userSpaceOnUse">
      <feOffset dy="3" input="SourceAlpha"/>
      <feGaussianBlur stdDeviation="3" result="blur"/>
      <feFlood flood-opacity="0.161"/>
      <feComposite operator="in" in2="blur"/>
      <feComposite in="SourceGraphic"/>
    </filter>
  </defs>
  <g transform="matrix(1, 0, 0, 1, 0, 0)" filter="url(#Exclusion_1)">
    <path id="Exclusion_1-2" data-name="Exclusion 1" d="M29.526,59.053A29.534,29.534,0,0,1,18.033,2.32,29.534,29.534,0,0,1,41.019,56.732,29.339,29.339,0,0,1,29.526,59.053Zm11.6-43.547a4.6,4.6,0,0,0-3.553,1.334,5.409,5.409,0,0,0-1.2,3.77V31.165a5.409,5.409,0,0,0,1.2,3.77,4.6,4.6,0,0,0,3.553,1.334,4.6,4.6,0,0,0,3.552-1.334,5.41,5.41,0,0,0,1.2-3.77v-2.7H42.87v2.9c0,1.327-.541,1.972-1.653,1.972s-1.652-.645-1.652-1.972V20.407c0-1.347.541-2,1.652-2s1.653.655,1.653,2v2.174h3.016V20.609a5.41,5.41,0,0,0-1.2-3.77A4.6,4.6,0,0,0,41.13,15.505Zm-11.4,0a4.722,4.722,0,0,0-3.6,1.334,5.313,5.313,0,0,0-1.247,3.77V31.165a5.314,5.314,0,0,0,1.247,3.77,4.722,4.722,0,0,0,3.6,1.334,4.723,4.723,0,0,0,3.6-1.334,5.313,5.313,0,0,0,1.247-3.77V20.609a5.313,5.313,0,0,0-1.247-3.77A4.723,4.723,0,0,0,29.732,15.505Zm22.533,5.046V36.037h3.191v-20.3H53.31c-.523,1.446-1.114,2.551-3.509,2.551v2.263Zm-35.7,9.686h1.885l-.609,5.8h2.61l.609-5.8H22.54l.232-2.262H21.294l.551-5.307h1.479l.232-2.262H22.077l.493-4.669H19.96l-.493,4.669H17.581l.493-4.669h-2.61l-.493,4.669h-1.45l-.232,2.262H14.74l-.552,5.307H12.767l-.231,2.262h1.421l-.609,5.8h2.61l.609-5.8Zm44.833,5.8H58.472l3.248-20.3h4.668l3.248,20.3H66.418l-.552-3.683H61.951L61.4,36.037Zm2.493-16.7h0L62.357,29.6h3.074L63.895,19.333Zm23.723,16.7H82.6v-20.3h4.813a4.849,4.849,0,0,1,3.6,1.16,4.769,4.769,0,0,1,1.124,3.509v.724c0,2.13-.654,3.429-2.059,4.09,1.6.624,2.378,2.047,2.378,4.35v1.653C92.46,34.373,90.785,36.037,87.617,36.037ZM85.79,26.9h0v6.235h1.827c1.159,0,1.653-.6,1.653-2V29.367c0-1.82-.539-2.465-2.059-2.465Zm0-8.265h0V24h1.247c1.323,0,1.913-.662,1.913-2.146V20.725c0-1.444-.5-2.088-1.624-2.088Zm-5.452,17.4H71.116V33.543c0-3,1.619-4.768,3.184-6.477,1.543-1.684,3.138-3.426,3.138-6.34,0-1.626-.494-2.32-1.653-2.32-1.112,0-1.652.655-1.652,2v2.174H71.116V20.609a5.41,5.41,0,0,1,1.2-3.77,5.4,5.4,0,0,1,7.1,0,5.41,5.41,0,0,1,1.2,3.77,9.022,9.022,0,0,1-1.294,4.664,20.48,20.48,0,0,1-2.64,3.369c-1.3,1.427-2.416,2.66-2.416,4.06a2.219,2.219,0,0,0,.029.435h6.032v2.9ZM29.732,33.369c-1.112,0-1.652-.654-1.652-2V20.407c0-1.347.541-2,1.652-2s1.653.655,1.653,2V31.369C31.386,32.715,30.845,33.369,29.732,33.369ZM18.684,27.976H16.8l.552-5.307h1.885l-.551,5.306Z" transform="translate(9 6)" fill="#0c1a2b"/>
  </g>
</svg>
