<svg id="cookie" xmlns="http://www.w3.org/2000/svg" width="114.241" height="114.241" viewBox="0 0 114.241 114.241">
  <path id="Path_347" data-name="Path 347" d="M119.089,56.712a53.693,53.693,0,0,1,.689,8.177c0,29.576-25.314,54.889-54.889,54.889S10,94.465,10,64.889,35.314,10,64.889,10a53.694,53.694,0,0,1,8.177.689,16.2,16.2,0,0,0-1.483,6.674,14.379,14.379,0,0,0,7.47,12.622,16.509,16.509,0,0,0,20.74,20.74,14.379,14.379,0,0,0,12.622,7.47A16.2,16.2,0,0,0,119.089,56.712Zm0,0" transform="translate(-7.769 -7.769)" fill="#ffda2d"/>
  <g id="Group_217" data-name="Group 217" transform="translate(25.883 21.42)">
    <path id="Path_348" data-name="Path 348" d="M329.388,322.694A6.694,6.694,0,1,1,322.694,316,6.693,6.693,0,0,1,329.388,322.694Zm0,0" transform="translate(-271.375 -266.912)" fill="#8c4a37"/>
    <path id="Path_349" data-name="Path 349" d="M224.925,260.463A4.463,4.463,0,1,1,220.463,256,4.462,4.462,0,0,1,224.925,260.463Zm0,0" transform="translate(-193.687 -220.3)" fill="#8c4a37"/>
    <path id="Path_350" data-name="Path 350" d="M179.388,102.694A6.694,6.694,0,1,1,172.694,96,6.693,6.693,0,0,1,179.388,102.694Zm0,0" transform="translate(-154.844 -96)" fill="#8c4a37"/>
    <path id="Path_351" data-name="Path 351" d="M129.388,332.694A6.694,6.694,0,1,1,122.694,326,6.693,6.693,0,0,1,129.388,332.694Zm0,0" transform="translate(-116 -274.681)" fill="#8c4a37"/>
  </g>
  <path id="Path_352" data-name="Path 352" d="M370.463,248.231A2.231,2.231,0,1,1,368.231,246,2.231,2.231,0,0,1,370.463,248.231Zm0,0" transform="translate(-284.335 -191.111)"/>
  <path id="Path_353" data-name="Path 353" d="M270.463,188.231A2.231,2.231,0,1,1,268.231,186,2.231,2.231,0,0,1,270.463,188.231Zm0,0" transform="translate(-206.648 -144.498)"/>
  <path id="Path_354" data-name="Path 354" d="M250.463,398.231A2.231,2.231,0,1,1,248.231,396,2.231,2.231,0,0,1,250.463,398.231Zm0,0" transform="translate(-191.111 -307.642)"/>
  <path id="Path_355" data-name="Path 355" d="M100.463,218.231A2.231,2.231,0,1,1,98.231,216,2.231,2.231,0,0,1,100.463,218.231Zm0,0" transform="translate(-74.58 -167.804)"/>
  <path id="Path_356" data-name="Path 356" d="M114.925,333.85A8.925,8.925,0,1,0,106,324.925,8.936,8.936,0,0,0,114.925,333.85Zm0-13.388a4.463,4.463,0,1,1-4.463,4.463A4.468,4.468,0,0,1,114.925,320.463Zm0,0" transform="translate(-82.348 -245.492)"/>
  <path id="Path_357" data-name="Path 357" d="M173.85,94.925a8.925,8.925,0,1,0-8.925,8.925A8.936,8.936,0,0,0,173.85,94.925Zm-13.388,0a4.463,4.463,0,1,1,4.463,4.463A4.468,4.468,0,0,1,160.463,94.925Zm0,0" transform="translate(-121.192 -66.811)"/>
  <path id="Path_358" data-name="Path 358" d="M306,314.925A8.925,8.925,0,1,0,314.925,306,8.936,8.936,0,0,0,306,314.925Zm13.388,0a4.463,4.463,0,1,1-4.463-4.463A4.468,4.468,0,0,1,319.388,314.925Zm0,0" transform="translate(-237.723 -237.723)"/>
  <path id="Path_359" data-name="Path 359" d="M212.694,259.388A6.694,6.694,0,1,0,206,252.694,6.7,6.7,0,0,0,212.694,259.388Zm0-8.925a2.231,2.231,0,1,1-2.231,2.231A2.233,2.233,0,0,1,212.694,250.463Zm0,0" transform="translate(-160.036 -191.111)"/>
  <path id="Path_360" data-name="Path 360" d="M250.463,494.231A2.231,2.231,0,1,1,248.231,492,2.231,2.231,0,0,1,250.463,494.231Zm0,0" transform="translate(-191.111 -382.221)"/>
  <path id="Path_361" data-name="Path 361" d="M110.314,46.952a14,14,0,0,1-5.667,1.244,12.1,12.1,0,0,1-10.624-6.231,2.233,2.233,0,0,0-2.637-1.146,14.27,14.27,0,0,1-4.143.683A14.52,14.52,0,0,1,72.74,27a14.275,14.275,0,0,1,.683-4.143,2.23,2.23,0,0,0-1.146-2.637A12.1,12.1,0,0,1,66.046,9.594a14,14,0,0,1,1.244-5.667A2.231,2.231,0,0,0,65.637.716,55.175,55.175,0,0,0,57.121,0C26.333,0,0,26.285,0,57.121c0,26.78,20.076,50.9,46.7,56.109a2.231,2.231,0,0,0,.857-4.38C22.988,104.044,4.463,81.806,4.463,57.121c0-28.544,24.114-52.658,52.658-52.658a45.813,45.813,0,0,1,5.128.3,19.122,19.122,0,0,0-.665,4.83A16.978,16.978,0,0,0,68.7,23.283,17.024,17.024,0,0,0,68.277,27,18.988,18.988,0,0,0,87.243,45.964a17.024,17.024,0,0,0,3.716-.424,16.978,16.978,0,0,0,13.688,7.118,19.122,19.122,0,0,0,4.83-.665,45.813,45.813,0,0,1,.3,5.128c0,24.685-18.526,46.924-43.092,51.729a2.231,2.231,0,0,0,.857,4.38c26.622-5.208,46.7-29.329,46.7-56.109a55.175,55.175,0,0,0-.716-8.516A2.232,2.232,0,0,0,110.314,46.952Zm0,0"/>
</svg>
