<svg xmlns="http://www.w3.org/2000/svg" width="32.727" height="41.779" viewBox="0 0 32.727 41.779">
  <g id="document" transform="translate(-6.5)">
    <path id="Path_362" data-name="Path 362" d="M29.07,0H6.5V41.779H39.227V10.156Zm.408,2.377L36.85,9.748H29.478ZM7.893,40.386V1.393H28.086v9.748h9.748V40.386Z" fill="#fff"/>
    <path id="Path_363" data-name="Path 363" d="M16.2,16.393h6.267a.7.7,0,0,0,0-1.393H16.2a.7.7,0,0,0,0,1.393Z" transform="translate(-2.733 -4.555)" fill="#fff"/>
    <path id="Path_364" data-name="Path 364" d="M28.034,37H16.2a.7.7,0,1,0,0,1.393H28.034a.7.7,0,1,0,0-1.393Z" transform="translate(-2.733 -11.236)" fill="#fff"/>
    <path id="Path_365" data-name="Path 365" d="M41.071,30H36.2a.7.7,0,1,0,0,1.393h4.874a.7.7,0,1,0,0-1.393Z" transform="translate(-8.807 -9.11)" fill="#fff"/>
    <path id="Path_366" data-name="Path 366" d="M16.2,24.393h3.482a.7.7,0,0,0,0-1.393H16.2a.7.7,0,1,0,0,1.393Z" transform="translate(-2.733 -6.985)" fill="#fff"/>
    <path id="Path_367" data-name="Path 367" d="M31.2,24.393h4.874a.7.7,0,0,0,0-1.393H31.2a.7.7,0,1,0,0,1.393Z" transform="translate(-7.288 -6.985)" fill="#fff"/>
    <path id="Path_368" data-name="Path 368" d="M25.5,23.7a.7.7,0,1,0,.2-.494A.732.732,0,0,0,25.5,23.7Z" transform="translate(-5.77 -6.988)" fill="#fff"/>
    <path id="Path_369" data-name="Path 369" d="M21.2,30a.7.7,0,0,0,0,1.393h6.963a.7.7,0,0,0,0-1.393Z" transform="translate(-4.252 -9.11)" fill="#fff"/>
    <path id="Path_370" data-name="Path 370" d="M16.2,31.4a.7.7,0,1,0-.494-1.191.717.717,0,0,0-.2.494.69.69,0,0,0,.7.7Z" transform="translate(-2.733 -9.114)" fill="#fff"/>
    <path id="Path_371" data-name="Path 371" d="M41.071,44H36.2a.7.7,0,1,0,0,1.393h4.874a.7.7,0,0,0,0-1.393Z" transform="translate(-8.807 -13.362)" fill="#fff"/>
    <path id="Path_372" data-name="Path 372" d="M28.159,44H21.2a.7.7,0,0,0,0,1.393h6.963a.7.7,0,0,0,0-1.393Z" transform="translate(-4.252 -13.362)" fill="#fff"/>
    <path id="Path_373" data-name="Path 373" d="M15.7,44.206a.705.705,0,0,0-.2.494.689.689,0,0,0,.2.494.732.732,0,0,0,.494.2.719.719,0,0,0,.494-.2.732.732,0,0,0,.2-.494.687.687,0,0,0-.2-.487A.722.722,0,0,0,15.7,44.206Z" transform="translate(-2.733 -13.366)" fill="#fff"/>
    <path id="Path_374" data-name="Path 374" d="M42.7,23.206a.7.7,0,0,0,.989.989.706.706,0,0,0,0-.989A.729.729,0,0,0,42.7,23.206Z" transform="translate(-10.933 -6.988)" fill="#fff"/>
    <path id="Path_375" data-name="Path 375" d="M38.691,38.194a.7.7,0,1,0-.989,0,.692.692,0,0,0,.494.2A.719.719,0,0,0,38.691,38.194Z" transform="translate(-9.414 -11.24)" fill="#fff"/>
    <path id="Path_376" data-name="Path 376" d="M42.7,37.206a.706.706,0,0,0,0,.989.706.706,0,0,0,.989,0,.7.7,0,0,0-.989-.989Z" transform="translate(-10.933 -11.24)" fill="#fff"/>
  </g>
</svg>
