<svg xmlns="http://www.w3.org/2000/svg" width="24.284" height="28.871" viewBox="0 0 24.284 28.871">
  <g id="file" transform="translate(0 0)">
    <path id="Path_301" data-name="Path 301" d="M64.955,10.183a6.242,6.242,0,0,0-1.84-4.442l-3.9-3.9A6.242,6.242,0,0,0,54.772,0h-9.04a2.466,2.466,0,0,0-2.463,2.463V2.6h-.134A2.466,2.466,0,0,0,40.671,5.06V26.408a2.466,2.466,0,0,0,2.463,2.463H59.9a2.466,2.466,0,0,0,2.463-2.463v-.134h.134a2.466,2.466,0,0,0,2.463-2.463V10.184h0ZM58.616,2.438l3.9,3.9a5.417,5.417,0,0,1,1.278,2.013,3.7,3.7,0,0,0-2.553-1.019h-2a1.619,1.619,0,0,1-1.617-1.617v-2A3.7,3.7,0,0,0,56.6,1.16a5.418,5.418,0,0,1,2.013,1.278Zm5.493,21.372a1.619,1.619,0,0,1-1.617,1.617H57.941a.423.423,0,0,0,0,.846h3.571v.134A1.619,1.619,0,0,1,59.9,28.025H43.134a1.619,1.619,0,0,1-1.617-1.617V5.06a1.619,1.619,0,0,1,1.617-1.617h.134V23.811a2.466,2.466,0,0,0,2.463,2.463H56.249a.423.423,0,0,0,0-.846H45.732a1.619,1.619,0,0,1-1.617-1.617V2.463A1.619,1.619,0,0,1,45.732.846h8.177a2.871,2.871,0,0,1,2.867,2.867v2a2.466,2.466,0,0,0,2.463,2.463h2a2.871,2.871,0,0,1,2.867,2.867Z" transform="translate(-40.671 0)" fill="#fff"/>
    <path id="Path_302" data-name="Path 302" d="M206.871,158.63a1.438,1.438,0,0,0,2.033,0l2.974-2.974a.889.889,0,0,0-.629-1.517h-.908V148.6a.89.89,0,0,0-.889-.889h-3.131a.89.89,0,0,0-.889.889v2.189a.423.423,0,1,0,.846,0V148.6a.043.043,0,0,1,.043-.043h3.131a.043.043,0,0,1,.043.043v5.965a.423.423,0,0,0,.423.423h1.331a.043.043,0,0,1,.03.073l-2.974,2.974a.592.592,0,0,1-.837,0l-2.974-2.974a.043.043,0,0,1,.03-.073h1.331a.423.423,0,0,0,.423-.423v-2.084a.423.423,0,0,0-.846,0v1.661h-.908a.889.889,0,0,0-.629,1.517Z" transform="translate(-194.447 -139.379)" fill="#fff"/>
    <path id="Path_303" data-name="Path 303" d="M199.636,357.627h-7.261a1.332,1.332,0,0,0-1.331,1.331v.025a1.332,1.332,0,0,0,1.331,1.331h7.261a1.332,1.332,0,0,0,1.331-1.331v-.025A1.332,1.332,0,0,0,199.636,357.627Zm.485,1.356a.486.486,0,0,1-.485.485h-7.261a.486.486,0,0,1-.485-.485v-.025a.486.486,0,0,1,.485-.485h7.261a.486.486,0,0,1,.485.485Z" transform="translate(-182.565 -337.461)" fill="#fff"/>
  </g>
</svg>
