<svg xmlns="http://www.w3.org/2000/svg" width="581.105" height="276.828" viewBox="0 0 581.105 276.828">
  <g id="Group_266" data-name="Group 266" transform="translate(0 0)">
    <path id="Path_471" data-name="Path 471" d="M474.587-360.792v53.886h15.52c10.009,0,18.536-2.641,25.21-7.891,5.061-4.828,7.57-11.233,7.57-19.02s-2.507-14.21-7.568-19.083c-5.39-4.7-13.347-7.925-22.87-7.925h-1.171v.034ZM509.162-333.9c-1.222,9.116-7.952,13.848-18.637,13.848H489.07l-.126-27.7h3.471C501.844-347.747,509.162-342.875,509.162-333.9Z" transform="translate(-164.169 401.645)" fill="#0c1a2b"/>
    <path id="Path_472" data-name="Path 472" d="M568.75-306.906v-15.018h7.784a22.691,22.691,0,0,0,15.68-5.682,18.25,18.25,0,0,0,5.938-13.736,18.582,18.582,0,0,0-5.93-13.793,21.917,21.917,0,0,0-15.379-5.69H555.571v53.92Zm15.735-34.437c0,3.707-3.766,6.373-7.639,6.373L569.238-335v-12.751h7.605C580.695-347.747,584.485-345.044,584.485-341.343Z" transform="translate(-192.182 401.645)" fill="#0c1a2b"/>
    <path id="Path_473" data-name="Path 473" d="M624.913-355.633h21.213l-21.9,40.976h43.3v-12.569H646.313l21.9-41.552h-43.3Zm14.873-21.908c0,3.356,3.021,5.887,6.434,5.887,3.392,0,6.434-2.552,6.434-5.887s-3.065-5.887-6.443-5.887S639.786-380.872,639.786-377.542Z" transform="translate(-215.931 409.463)" fill="#0c1a2b"/>
    <path id="Path_474" data-name="Path 474" d="M494.1-204.551h2.692l9.149-23.436,9.365,23.436H518l22.562-53.92H526.338L516.644-235l-9.949-24h-1.252l-9.986,24.014-9.731-23.479h-14.19Z" transform="translate(-163.113 366.423)" fill="#0c1a2b"/>
    <path id="Path_475" data-name="Path 475" d="M689.51-204.268v-21.067l16.023,21.067h16.024L708.6-223.605a12.989,12.989,0,0,0,5.679-4.632,17.393,17.393,0,0,0,3.628-10.491v-1.347c0-6.055-2.159-9.266-5.563-12.528a19.165,19.165,0,0,0-6.948-4.217,32.531,32.531,0,0,0-9.384-1.367H676.3l.035,53.92Zm7.718-28.264h-2.86v-.033h-4.891V-245.11h5.753c2.462,0,5.458.642,6.861,1.795a5.678,5.678,0,0,1,2.11,4.36C704.2-235.241,700.836-232.532,697.228-232.532Z" transform="translate(-233.944 366.14)" fill="#0c1a2b"/>
    <path id="Path_476" data-name="Path 476" d="M750.583-204.268h37.2V-217.38H763.762v-40.808H750.583Z" transform="translate(-259.641 366.14)" fill="#0c1a2b"/>
    <path id="Path_477" data-name="Path 477" d="M814.585-258.155v53.887h15.521c10.009,0,18.536-2.641,25.21-7.892,5.061-4.828,7.57-11.233,7.57-19.02s-2.508-14.21-7.568-19.083c-5.391-4.7-13.348-7.925-22.87-7.925h-1.171v.033Zm34.575,26.893c-1.222,9.117-7.951,13.848-18.637,13.848h-1.454l-.126-27.7h3.47C841.843-245.11,849.16-240.237,849.16-231.261Z" transform="translate(-281.78 366.14)" fill="#0c1a2b"/>
    <path id="Path_478" data-name="Path 478" d="M471.519-142.472h13.787l.161,40.841h14.884l-.5-40.841H513.6V-155.55H471.519Z" transform="translate(-163.107 330.636)" fill="#0c1a2b"/>
    <path id="Path_479" data-name="Path 479" d="M540.337-148.154a26.067,26.067,0,0,0-8.377,19.365,25.9,25.9,0,0,0,8.381,19.336c5.859,5.268,12.014,7.939,20.315,7.961,8.28,0,14.44-2.675,20.317-7.96a25.782,25.782,0,0,0,8.419-19.337,25.949,25.949,0,0,0-8.415-19.366c-5.9-5.348-12.061-8.06-20.319-8.06S546.239-153.505,540.337-148.154Zm30.682,9.348a12.7,12.7,0,0,1,4.767,9.951,12.575,12.575,0,0,1-4.76,9.945c-3.206,2.76-5.936,4.1-10.367,4.1-4.507,0-7.243-1.347-10.4-4.1a12.671,12.671,0,0,1-4.732-9.951,12.794,12.794,0,0,1,4.737-9.956c3.129-2.769,5.86-4.125,10.39-4.125C565.113-142.936,567.838-141.583,571.019-138.806Z" transform="translate(-184.015 330.866)" fill="#0c1a2b"/>
    <path id="Path_480" data-name="Path 480" d="M651.071-114.441a11.494,11.494,0,0,1-7.691-2.682,8.189,8.189,0,0,1-3.213-6.464V-155.55H626.921v32.422a20.9,20.9,0,0,0,6.732,15.578c4.468,4.261,10.363,6.421,17.455,6.421,7.021,0,12.89-2.161,17.378-6.42a20.891,20.891,0,0,0,6.734-15.579V-155.55H661.975v31.963C661.975-118.324,656.534-114.441,651.071-114.441Z" transform="translate(-216.864 330.636)" fill="#0c1a2b"/>
    <path id="Path_481" data-name="Path 481" d="M724.2-101.63V-122.7L740.22-101.63h16.024l-12.956-19.337a12.993,12.993,0,0,0,5.679-4.632,17.394,17.394,0,0,0,3.628-10.492v-1.346c0-6.055-2.159-9.266-5.564-12.529a19.162,19.162,0,0,0-6.948-4.216,32.531,32.531,0,0,0-9.384-1.367H710.984l.035,53.92Zm7.718-28.265h-2.86v-.033h-4.891v-12.543h5.753c2.462,0,5.458.642,6.861,1.795a5.677,5.677,0,0,1,2.11,4.36C738.888-132.6,735.522-129.895,731.915-129.895Z" transform="translate(-245.943 330.636)" fill="#0c1a2b"/>
    <path id="Path_482" data-name="Path 482" d="M603.51-209.865c.8-2.661,1.746-5.505,2.851-8.407a87.926,87.926,0,0,1,7-14.6,3.53,3.53,0,0,1-.714-2.075,51.191,51.191,0,0,0-12.892-.99,3.541,3.541,0,0,1-2.714,3.316,55.563,55.563,0,0,0,6.452,22.76Z" transform="translate(-206.529 358.463)" fill="#0c1a2b"/>
    <path id="Path_483" data-name="Path 483" d="M613.259-179.189a58.552,58.552,0,0,1-5.11-6.4,3.523,3.523,0,0,1-1.19.243c-.4,1.58-.725,3-.991,4.221a27.879,27.879,0,0,0,7.29,1.931" transform="translate(-209.616 341.026)" fill="#0c1a2b"/>
    <path id="Path_484" data-name="Path 484" d="M637.486-221.445a34.985,34.985,0,0,0-4.232-4.238,34.845,34.845,0,0,0-9.571-5.713,3.535,3.535,0,0,1-2.921,1.53,3.471,3.471,0,0,1-.987-.142,86.446,86.446,0,0,0-6.755,14.084c-1.074,2.824-2,5.6-2.783,8.2a3.54,3.54,0,0,1,1.508,2.041,37.41,37.41,0,0,0,21.06-7.485,41.39,41.39,0,0,0,3.921-3.333,3.527,3.527,0,0,1-.684-2.086,3.545,3.545,0,0,1,1.443-2.855" transform="translate(-211.093 356.872)" fill="#0c1a2b"/>
    <path id="Path_485" data-name="Path 485" d="M630.672-242.677a3.565,3.565,0,0,1,.707,1.978,37.483,37.483,0,0,1,10.476,6.259,37.878,37.878,0,0,1,5.028,5.176,3.506,3.506,0,0,1,1.5.432,36.209,36.209,0,0,0,3.787-6.093l.345.147a27.594,27.594,0,0,0-7.969-14.809,28.443,28.443,0,0,0-2.87-2.423,32.371,32.371,0,0,0-11.006,9.334" transform="translate(-218.161 364.003)" fill="#0c1a2b"/>
    <path id="Path_486" data-name="Path 486" d="M595.5-208.614a57.373,57.373,0,0,1-5.833-16.844,56.877,56.877,0,0,1-.812-6.975,3.559,3.559,0,0,1-2.03-2.44q-2.435.36-4.96.9a27.731,27.731,0,0,0,2.147,24.737,57.784,57.784,0,0,0,10.465,2.135,3.578,3.578,0,0,1,1.022-1.514" transform="translate(-200.604 358.075)" fill="#0c1a2b"/>
    <path id="Path_487" data-name="Path 487" d="M644.045-202.849a26.26,26.26,0,0,0-1.967-4.382,3.535,3.535,0,0,1-1.894.551,3.508,3.508,0,0,1-1.014-.15,42.65,42.65,0,0,1-4.446,3.807,39.573,39.573,0,0,1-17.818,7.451,42.81,42.81,0,0,1-4.666.451,3.881,3.881,0,0,1-.3.611,53.55,53.55,0,0,0,6.717,8.043,27.707,27.707,0,0,0,20.027-8.429,27.78,27.78,0,0,0,5.409-7.965Z" transform="translate(-211.68 348.513)" fill="#0c1a2b"/>
    <path id="Path_488" data-name="Path 488" d="M660.1-216.347a3.58,3.58,0,0,1,.3,1.425,3.536,3.536,0,0,1-.169,1.072A33.86,33.86,0,0,1,661.9-210.6a27.779,27.779,0,0,0,1.2-10.2,41.769,41.769,0,0,1-3,4.444" transform="translate(-228.34 353.204)" fill="#0c1a2b"/>
    <path id="Path_489" data-name="Path 489" d="M597.024-247.918a3.557,3.557,0,0,1,2.051,1.366c1.124-.056,2.229-.091,3.323-.091a50.966,50.966,0,0,1,10.735,1.091l.2.048a3.552,3.552,0,0,1,2.858-1.446,3.528,3.528,0,0,1,.991.142,35.494,35.494,0,0,1,10.741-9.463,27.816,27.816,0,0,0-30.013.867,62.346,62.346,0,0,0-.887,7.487" transform="translate(-206.522 366.852)" fill="#0c1a2b"/>
    <path id="Path_490" data-name="Path 490" d="M588.7-242.324a3.572,3.572,0,0,1,1.789-1.768c.1-1.882.288-3.785.565-5.686-.575.5-1.136,1.028-1.676,1.584a27.8,27.8,0,0,0-4.726,6.555q2.053-.4,4.048-.685" transform="translate(-202.241 363.231)" fill="#0c1a2b"/>
    <path id="Path_491" data-name="Path 491" d="M599.048-187.951a3.537,3.537,0,0,1-1.36-1.862,57.814,57.814,0,0,1-8.4-1.484,27.684,27.684,0,0,0,2.312,2.53,27.558,27.558,0,0,0,6.535,4.7c.252-1.149.559-2.455.918-3.885" transform="translate(-203.844 343.001)" fill="#0c1a2b"/>
    <path id="Path_492" data-name="Path 492" d="M221.59-202.352a115.8,115.8,0,0,1-82.462,34.163,115.842,115.842,0,0,1-82.477-34.163,115.867,115.867,0,0,1-34.157-82.464,115.9,115.9,0,0,1,34.157-82.477,115.935,115.935,0,0,1,82.477-34.156,115.893,115.893,0,0,1,82.462,34.156,115.884,115.884,0,0,1,34.167,82.477,115.854,115.854,0,0,1-34.167,82.464M275.109-278.6c4.164-3.927,4.188-8.476.055-12.371-5.293-5.008-5.851-10.186-1.722-16.107,3.258-4.66,2.276-9.209-2.6-12.093-5.97-3.531-7.748-8.945-5.015-15.253,2.281-5.243.344-9.552-5.129-11.441-6.539-2.242-9.335-7.162-7.9-13.935,1.115-5.273-1.728-9.334-7.016-10.011-7.582-.965-10.866-4.63-11.037-12.288-.12-5.3-4.111-8.839-9.313-7.908a11.438,11.438,0,0,1-12.958-9.163c-1.106-6.02-5.212-8.3-11.078-6.444-6.127,1.942-11.532-.429-14.191-6.226-2.6-5.655-6.906-7.021-12.422-3.954-5.5,3.06-11.233,1.865-14.97-3.148-3.872-5.214-8.179-5.662-13.078-1.354a10.975,10.975,0,0,1-15.139.094c-5.216-4.473-9.2-4.019-13.381,1.548a11.012,11.012,0,0,1-14.445,3.066c-6.021-3.318-9.987-2.065-12.866,4.079a11.07,11.07,0,0,1-13.468,6.1c-6.838-2.041-10.258-.075-11.828,6.809a11.118,11.118,0,0,1-12.671,8.593c-5.543-.824-9.484,2.725-9.419,8.514.071,6.492-3.99,11.029-10.437,11.647-5.819.547-8.712,4.4-7.629,10.145,1.313,6.921-1.387,11.6-8.009,13.883-5.385,1.847-7.292,6.072-5.094,11.263,2.825,6.65,1.177,11.711-5,15.407-4.781,2.854-5.774,7.568-2.544,12.11C8.9-301.263,8.386-295.92,3.243-291.13c-4.348,4.065-4.326,8.61.082,12.7,5.011,4.649,5.556,10.157,1.553,15.73-3.34,4.648-2.357,9.357,2.559,12.282,6.033,3.578,7.725,8.763,4.962,15.219-2.283,5.32-.4,9.534,5.142,11.429,6.472,2.218,9.227,6.979,7.927,13.706-1.145,5.883,1.748,9.739,7.714,10.275a10.951,10.951,0,0,1,10.324,11.511c-.067,5.732,3.686,9.339,9.059,8.715,6.991-.812,11.533,2.418,13.158,9.339,1.33,5.673,5.354,7.992,10.878,6.268,6.583-2.043,11.766.287,14.638,6.591,2.255,4.956,6.88,6.507,11.591,3.883,6.488-3.59,11.528-2.537,15.994,3.4,1.888,2.508,4.325,4.126,7.457,3.425a13.136,13.136,0,0,0,5.2-2.754c4.7-3.85,10.454-4.021,14.986-.164,5.457,4.618,9.181,4.231,13.58-1.42a11.027,11.027,0,0,1,14.455-3.032c6.035,3.3,9.928,2.05,12.856-4.13a11.075,11.075,0,0,1,13.5-6.043c6.789,2.047,10.048.135,11.757-6.885a11.145,11.145,0,0,1,12.724-8.528c5.366.758,9.3-2.619,9.4-8.081.131-7.4,3.628-11.281,10.949-12.128,5.3-.614,8.232-4.709,7.126-9.935-1.471-6.915,1.251-11.663,8.035-14.063,5.321-1.89,7.235-6.185,5.015-11.323-2.754-6.373-1.024-11.764,4.909-15.271,4.91-2.906,5.925-7.426,2.716-12.076-4.144-6.02-3.622-11.181,1.618-16.111" transform="translate(0 423.232)" fill="#0c1a2b" fill-rule="evenodd"/>
    <path id="Path_493" data-name="Path 493" d="M221.913-214.062c-5.3-2.861-8.635-.625-11.726,3.819-11.616,16.684-27.729,27-47.077,32.6A35.17,35.17,0,0,0,157-175.21a55.079,55.079,0,0,0-4.861,3.024c-.106-.046-.212-.094-.314-.146-.106.052-.216.1-.322.146a54.332,54.332,0,0,0-4.862-3.024,34.938,34.938,0,0,0-6.109-2.436c-19.346-5.6-35.467-15.914-47.078-32.6-3.1-4.443-6.427-6.679-11.729-3.819-8.253-14.313-16.972-28.107-9.08-46.161,10.755,11.739,22.136,21.414,36.3,27.388-7.8,10.957-1.522,23.234,12.8,26.017,0-16.224.266-32.438-.111-48.632-.184-8.4,1.742-15.878,6.668-22.576,5.361-7.285,9.327-14.923,6.8-25.115H84.3c5.3-8.563,12.332-13.489,19.653-18.015,6.2-3.819,7.266-3.154,7.474,4.478,7.335,0,14.7-.134,22.059.065,3.089.083,4.146-1.1,4.312-4.03.581-9.741,1.362-19.467,1.99-29.207.1-1.359.286-3.219-.459-4.049-2.881-3.172-1.744-6.344-.75-9.71a8.209,8.209,0,0,0,.36-4.372c-1-3.278.614-4.673,3.339-4.738q4.661-.1,9.331-.082h.411q4.672-.018,9.331.082c2.723.065,4.34,1.459,3.345,4.738a8.077,8.077,0,0,0,.362,4.372c.991,3.366,2.122,6.538-.756,9.71-.744.83-.551,2.69-.462,4.049.627,9.741,1.4,19.467,1.987,29.207.175,2.931,1.232,4.113,4.316,4.03,7.358-.2,14.721-.065,22.065-.065.2-7.633,1.266-8.3,7.47-4.478,7.322,4.526,14.358,9.451,19.656,18.015h-50.8c-2.523,10.192,1.442,17.83,6.8,25.115,4.927,6.7,6.851,14.177,6.657,22.576-.365,16.194-.1,32.407-.1,48.632,14.315-2.783,20.6-15.06,12.806-26.017,14.153-5.974,25.543-15.649,36.286-27.388,7.9,18.055-.827,31.849-9.074,46.161M151.822-387.607A115.247,115.247,0,0,0,36.7-272.492a115.26,115.26,0,0,0,115.126,115.12,115.256,115.256,0,0,0,115.116-115.12A115.243,115.243,0,0,0,151.822-387.607" transform="translate(-12.694 410.909)" fill="#0c1a2b" fill-rule="evenodd"/>
  </g>
</svg>
