<svg xmlns="http://www.w3.org/2000/svg" width="396.126" height="357.531" viewBox="0 0 396.126 357.531">
  <g id="Group_201" data-name="Group 201" transform="translate(0 357.531)">
    <path id="Path_304" data-name="Path 304" d="M369.808-173.592h0c.009-.005.006,0,0,0" fill="#fff"/>
    <path id="Path_305" data-name="Path 305" d="M37.5-28.949c0,8.228-3.447,11.187-9.207,11.187h-10.2V-100.01h10.2c5.76,0,9.207,2.96,9.207,11.187Zm-8.874-87.5H0V-1.317H28.624c18.093,0,26.967-10.024,26.967-28.453V-87.995c0-18.429-8.874-28.453-26.967-28.453" fill="#fff"/>
    <path id="Path_306" data-name="Path 306" d="M102.647-71.882c0,8.22-3.126,10.861-8.885,10.861H85.211v-38.989h8.552c5.759,0,8.885,2.633,8.885,10.86Zm-8.885-44.565H67.118V-1.317H85.211v-43.25h8.552c18.091,0,26.97-10.032,26.97-28.468V-87.994c0-18.428-8.878-28.452-26.97-28.452" fill="#fff"/>
    <path id="Path_307" data-name="Path 307" d="M128.8-100.009h32.729L127.162-17.43V-1.317h52.964V-17.762H145.742l34.384-82.572v-16.113H128.8Z" fill="#fff"/>
    <path id="Path_308" data-name="Path 308" d="M146.075-122.545H161.87v-15.8H146.075Z" fill="#fff" fill-rule="evenodd"/>
    <path id="Path_309" data-name="Path 309" d="M272.59-114.828,260.079-2.96H239.016L232.61-62.841l-1.651-15.3-1.641,15.3L222.9-2.96H201.026L188.52-114.828h14.311l9.552,89.334,1.8,16.113,1.493-16.113,8.553-89.334H238.7l8.885,89.985,1.643,16.284,1.65-16.284,9.2-89.985ZM249.226-25.006l-9.056-91.465H222.74l-8.722,90.806-9.7-90.806h-17.6L199.542-1.317h24.841l6.576-61.354,6.585,61.354h24.023l12.828-115.154H258.607Z" fill="#fff"/>
    <path id="Path_310" data-name="Path 310" d="M307.62-1.649q-25.324,0-25.339-27.307v-5.43h13.827V-27.8q0,12.828,11.017,12.829T318.155-27.8a24.431,24.431,0,0,0-3.633-13,47.981,47.981,0,0,0-8.789-10.609q-5.182-4.7-10.453-9.537a42.173,42.173,0,0,1-8.886-12.007,34.8,34.8,0,0,1-3.61-15.877q0-27.311,25-27.306,25.014,0,25.006,27.306v1.976h-13.82v-3.13q0-12.995-10.683-12.991-10.71,0-10.7,12.991A24.707,24.707,0,0,0,300.214-78.8a31.439,31.439,0,0,0,6.585,8.966q3.949,3.7,8.471,8.146c3.018,2.951,5.845,5.814,8.471,8.552a33.339,33.339,0,0,1,6.577,10.447,35.293,35.293,0,0,1,2.634,13.731q0,27.321-25.332,27.307M327.529-51.41a72.159,72.159,0,0,0-6.837-7.894Q317-63,313.213-66.377a90.134,90.134,0,0,1-6.91-6.829,30.179,30.179,0,0,1-5.1-7.731,21.433,21.433,0,0,1-1.968-9.048c0-7.56,3-11.355,9.048-11.355q9.033,0,9.04,11.355v4.779h17.112v-3.625q0-13.994-6.755-21.477-6.735-7.469-19.9-7.48t-19.9,7.48q-6.759,7.491-6.741,21.477A37.565,37.565,0,0,0,284.752-72.3a42.745,42.745,0,0,0,8.886,12.5q5.259,5.026,10.446,9.625a48.964,48.964,0,0,1,8.8,10.291A22.077,22.077,0,0,1,316.506-27.8q0,11.187-9.381,11.193T297.759-27.8v-8.22h-17.12v7.066q0,13.992,6.91,21.477Q294.473-.012,307.62,0t20.063-7.479q6.927-7.491,6.918-21.477a38.093,38.093,0,0,0-1.982-12.5,36.441,36.441,0,0,0-5.09-9.958" fill="#fff"/>
    <path id="Path_311" data-name="Path 311" d="M369.151-1.649q-25.335,0-25.339-27.307v-5.43h13.82V-27.8q0,12.828,11.024,12.829,11.008,0,11.023-12.829a24.552,24.552,0,0,0-3.618-13A48.135,48.135,0,0,0,367.25-51.41q-5.172-4.7-10.439-9.537a41.894,41.894,0,0,1-8.886-12.007,34.611,34.611,0,0,1-3.617-15.877q0-27.311,25.006-27.306T394.32-88.831v1.976H380.5v-3.13q0-12.995-10.7-12.991T359.1-89.985A24.709,24.709,0,0,0,361.746-78.8a31.418,31.418,0,0,0,6.584,8.966q3.929,3.7,8.471,8.146c3.019,2.951,5.837,5.814,8.463,8.552a33.21,33.21,0,0,1,6.585,10.447,35.422,35.422,0,0,1,2.634,13.731q0,27.321-25.332,27.307m25-39.8a36.4,36.4,0,0,0-5.1-9.958,71.129,71.129,0,0,0-6.829-7.894q-3.7-3.694-7.479-7.073a88.866,88.866,0,0,1-6.909-6.829,30.205,30.205,0,0,1-5.1-7.731,21.334,21.334,0,0,1-1.975-9.048q0-11.34,9.047-11.355t9.055,11.355v4.779h17.1v-3.625q0-13.994-6.741-21.477t-19.9-7.48q-13.172,0-19.9,7.48-6.759,7.491-6.755,21.477A37.459,37.459,0,0,0,346.276-72.3a42.6,42.6,0,0,0,8.885,12.5q5.262,5.026,10.446,9.625a48.5,48.5,0,0,1,8.8,10.291,22.06,22.06,0,0,1,3.61,12.081q0,11.187-9.365,11.193T359.282-27.8v-8.22H342.17v7.066q0,13.992,6.91,21.477Q355.982-.012,369.151,0c8.76,0,15.463-2.5,20.063-7.479q6.9-7.491,6.912-21.477a38.092,38.092,0,0,0-1.976-12.5" fill="#fff"/>
    <path id="Path_312" data-name="Path 312" d="M247.263-202.117c-.37-.173-.738-.348-1.109-.52a76.876,76.876,0,0,0,28.011-42.016A77.513,77.513,0,0,0,218.7-339.084a77.541,77.541,0,0,0-94.447,55.48,77.285,77.285,0,0,0,16.83,70.487c-.384.109-.772.216-1.153.326a77.623,77.623,0,0,1-8.356-11.583,77.934,77.934,0,0,1-8.3-59.49,78.026,78.026,0,0,1,36.187-47.918,78.025,78.025,0,0,1,59.494-8.286,77.957,77.957,0,0,1,47.9,36.2,77.921,77.921,0,0,1,8.286,59.459,77.858,77.858,0,0,1-27.887,42.292m-20.579-11.6q-1.441,1.236-2.931,2.344a129.251,129.251,0,0,0-16.675-4.282c-2.623-.645-5.331-.962-8-1.354-2.677-.333-5.315-.806-7.982-.9-2.656-.163-5.294-.333-7.924-.488-2.615-.133-5.234.073-7.812.1a120.846,120.846,0,0,0-15.053,1.225,53.273,53.273,0,0,1-9.627-16.4c-1.266-3.418-3.049-5.438-6.992-4.461-2.948-10.728-6.3-21.181,1.893-31.6,5.016,9.463,10.8,17.682,19.01,23.962-6.932,5.831-4.927,14.886,3.929,19.11,2.741-10.564,5.663-21.07,8.165-31.678a23.638,23.638,0,0,1,8.144-13.57c4.732-3.832,8.6-8.137,8.682-15.2L160.44-295.5c4.893-4.682,10.3-6.7,15.847-8.4,4.683-1.458,5.252-.851,4.109,4.158,4.772,1.242,9.589,2.4,14.353,3.78,2.005.576,2.87-.008,3.5-1.894,2.016-6.244,4.162-12.444,6.23-18.68.281-.873.735-2.05.381-2.716-1.335-2.552-.06-4.424,1.154-6.443a5.465,5.465,0,0,0,.969-2.79c-.1-2.308,1.191-2.937,2.981-2.515,2.035.481,4.062.991,6.1,1.525a.945.945,0,0,0,.118.028c.066.015.089.03.148.045q3.04.775,6.051,1.635c1.769.5,2.575,1.679,1.377,3.647a5.308,5.308,0,0,0-.5,2.9c.081,2.36.274,4.617-2.131,6.207-.622.408-.806,1.65-.991,2.553-1.228,6.444-2.368,12.909-3.64,19.347-.377,1.945.1,2.878,2.115,3.35,4.839,1.118,9.611,2.457,14.383,3.7,1.427-4.942,2.226-5.194,5.63-1.65,4,4.18,7.731,8.589,9.75,15.041l-33.077-8.583c-3.374,6.208-2.079,11.853.178,17.5a23.784,23.784,0,0,1,.525,15.826c-2.989,10.483-5.556,21.084-8.309,31.65,9.788.621,15.959-6.318,12.741-14.775,10.224-1.5,19.286-5.867,28.275-11.7,2.08,13.088-5.94,20.6-13.73,28.528-2.96-2.759-5.513-1.872-8.286.5m122.233,70.653c.9-.214,1.776-.428,2.642-.628,1.724-.438,3.389-.865,5.009-1.273,3.18-.932,6.037-2.153,8.655-3.188s4.832-2.457,6.9-3.471c4.157-1.968,6.932-4.453,8.966-5.748,1.954-1.434,3-2.212,3-2.212s-1.272.282-3.662.784c-2.367.5-5.726,1.473-10.1,2.049a99.4,99.4,0,0,1-15.4,1.347q-2.186-.056-4.505-.133c-.754-.014-1.531-.022-2.316-.045-.776-.1-1.575-.214-2.374-.31q-2.386-.29-4.868-.577-2.454-.522-5.009-1.081a101.274,101.274,0,0,1-21.188-7.427c-7.34-3.4-14.946-7.643-22.906-12.311-7.983-4.713-16.328-9.869-25.227-14.826q-2.964-1.689-6.024-3.334c.025-.187.044-.377.053-.572.207-4.75,2.774-7.392,7.606-7.8,3.787-.311,5.748-2.8,5.156-6.525-.7-4.617,1.346-7.828,5.793-9.115,3.7-1.043,5.119-3.833,3.817-7.4-1.672-4.616-.466-7.9,3.78-10.217,3.381-1.85,4.165-4.809,2.139-8.05-2.6-4.157-2.087-7.612,1.606-10.771,2.884-2.486,3.025-5.615.339-8.323-3.293-3.3-3.521-7.132-.679-10.772,2.367-3.033,1.841-6.171-1.407-8.315-3.883-2.568-4.869-6.252-2.789-10.411,1.606-3.254.458-6.369-2.879-7.7-4.763-1.924-6.288-4.853-5.111-9.877.828-3.469-1.177-6.451-4.727-6.725a7.676,7.676,0,0,1-6.873-8.153c.295-4.113-1.991-6.288-6.119-6.066a7.442,7.442,0,0,1-8.2-6.459c-.732-4.12-3.308-5.748-7.421-4.683a7.388,7.388,0,0,1-9.211-4.587c-1.642-4.04-4.38-5.053-8.278-3.078a7.394,7.394,0,0,1-9.884-2.507c-2.648-3.8-5.305-4.172-8.974-1.266a7.432,7.432,0,0,1-9.933-.436c-3.355-3.181-6.144-3.026-9.065.473a7.418,7.418,0,0,1-9.789,1.688c-4.114-2.472-6.669-1.768-8.867,2.441a7.482,7.482,0,0,1-9.695,3.462c-3.471-1.487-6.64.156-7.572,3.936a7.364,7.364,0,0,1-8.768,5.822c-3.88-.621-6.417,1.391-6.68,5.313-.322,4.734-2.867,7.324-7.572,7.679-3.81.3-5.766,2.737-5.213,6.48.711,4.8-1.224,7.827-5.866,9.182-3.592,1.051-5.05,3.958-3.7,7.458,1.694,4.461.451,7.849-3.7,10.105-3.53,1.9-4.281,4.869-2.094,8.279,2.467,3.869,1.883,7.553-1.646,10.5-2.967,2.471-3.125,5.689-.418,8.427,3.325,3.358,3.536,7.021.658,10.75-2.393,3.084-1.875,6.14,1.406,8.315,3.843,2.538,4.835,6.1,2.837,10.262-1.735,3.647-.5,6.643,3.292,8a7.378,7.378,0,0,1,4.783,9.241c-1.014,3.728.8,6.717,4.413,7.213a9.669,9.669,0,0,1,3.49,1.122c-2.373.893-4.678,1.808-6.919,2.681-3.721,1.382-7.073,3.188-10.324,4.742-3.2,1.649-6.285,2.989-9.033,4.742-5.5,3.308-10.332,6.1-13.925,8.789-3.687,2.567-6.476,4.816-8.422,6.251-1.927,1.488-2.941,2.294-2.941,2.294s1.259-.311,3.614-.9c2.334-.658,5.815-1.464,10.117-2.788,4.3-1.39,9.64-2.294,15.477-3.9,2.9-.814,6.126-1.369,9.455-2.071,3.353-.607,6.752-1.62,10.432-2.035,3.662-.5,7.4-1.295,11.3-1.747,3.911-.317,7.9-.917,12-1.19a179.122,179.122,0,0,1,25.506.1,155.342,155.342,0,0,1,26.438,4.322q3.308.886,6.639,1.774c2.2.748,4.4,1.488,6.622,2.168,2.235.629,4.41,1.576,6.614,2.367,2.205.822,4.41,1.651,6.591,2.65,8.834,3.506,17.52,7.848,26.316,12.177,8.753,4.394,17.578,8.819,26.494,12.91A188.982,188.982,0,0,0,307.7-145.612a97.878,97.878,0,0,0,26.539,3.832c2.1-.052,4.142-.066,6.11-.163l5.809-.733c.931-.132,1.848-.265,2.758-.392" fill="#fff"/>
    <path id="Path_313" data-name="Path 313" d="M281.253-197.237c-4.343-1.325-6.858-1.938-6.858-1.938s9,5.023,22.49,12.539c6.711,3.781,14.523,8.2,23.157,12.7,4.351,2.19,8.93,4.381,13.775,6.378a75.67,75.67,0,0,0,15.485,4.646,42.68,42.68,0,0,0,16.934-.215,38.238,38.238,0,0,0,4.129-1.169c.681-.215,1.31-.51,1.96-.769l.97-.4.377-.177.1-.045.214-.111.407-.221c.3-.178.466-.23.895-.511l1.169-.792a17.328,17.328,0,0,0,1.908-1.627,17.493,17.493,0,0,0,2.87-3.692,23.623,23.623,0,0,0,2.731-16.143,20.871,20.871,0,0,0-7.243-12.5,19.324,19.324,0,0,0-11.105-4.06,25.624,25.624,0,0,0-8.508.983,30.56,30.56,0,0,0-5.039,1.82c-1.116.518-1.693.8-1.693.8s.644-.082,1.857-.215a45.1,45.1,0,0,1,5.164-.362,28.075,28.075,0,0,1,7.635.852,15.9,15.9,0,0,1,7.8,4.482,15.42,15.42,0,0,1,3.819,9.248,16.527,16.527,0,0,1-2.583,10.558,12.474,12.474,0,0,1-1.708,1.953c-.312.228-.681.614-.911.732a3.92,3.92,0,0,0-.378.244,5.122,5.122,0,0,1-.724.377l-.421.215-.128.067h-.02L369-173.3c-.518.178-1.013.408-1.538.57a28.415,28.415,0,0,1-3.159.851,36.158,36.158,0,0,1-13.547.162,84.161,84.161,0,0,1-13.967-3.728c-4.624-1.621-9.159-3.484-13.531-5.371-4.417-1.813-8.687-3.67-12.755-5.416s-7.961-3.292-11.564-4.742-6.955-2.634-9.928-3.7-5.6-1.871-7.761-2.566" fill="#fff"/>
    <path id="Path_314" data-name="Path 314" d="M291.6-133.383c-13.805-13.693-76.661-52.291-135.562-52.2-57.673.1-89.571,34.483-154.813,29.156,57.984,30.451,111.267,10.084,152.017,1.687,72.52-14.937,138.358,21.358,138.358,21.358" fill="#fff"/>
  </g>
</svg>
