<svg xmlns="http://www.w3.org/2000/svg" width="86.357" height="85.917" viewBox="0 0 86.357 85.917">
  <g id="Group_130" data-name="Group 130" transform="translate(0 199.237)">
    <path id="Path_184" data-name="Path 184" d="M68.774-130.683a35.941,35.941,0,0,1-25.594,10.6,35.953,35.953,0,0,1-25.6-10.6,35.961,35.961,0,0,1-10.6-25.594,35.97,35.97,0,0,1,10.6-25.6,35.982,35.982,0,0,1,25.6-10.6,35.97,35.97,0,0,1,25.594,10.6,35.966,35.966,0,0,1,10.6,25.6,35.957,35.957,0,0,1-10.6,25.594m16.61-23.665a2.392,2.392,0,0,0,.017-3.839,3.419,3.419,0,0,1-.535-5,2.385,2.385,0,0,0-.807-3.753,3.451,3.451,0,0,1-1.556-4.734,2.417,2.417,0,0,0-1.592-3.551,3.43,3.43,0,0,1-2.453-4.325,2.42,2.42,0,0,0-2.177-3.107c-2.353-.3-3.372-1.437-3.425-3.813a2.39,2.39,0,0,0-2.891-2.455,3.55,3.55,0,0,1-4.022-2.844c-.343-1.869-1.618-2.575-3.438-2a3.424,3.424,0,0,1-4.4-1.932c-.806-1.755-2.143-2.179-3.855-1.227a3.411,3.411,0,0,1-4.646-.977c-1.2-1.618-2.539-1.757-4.059-.42a3.406,3.406,0,0,1-4.7.029c-1.619-1.388-2.854-1.248-4.153.48a3.418,3.418,0,0,1-4.484.952c-1.869-1.03-3.1-.641-3.994,1.266a3.435,3.435,0,0,1-4.179,1.894c-2.123-.634-3.184-.024-3.672,2.113a3.449,3.449,0,0,1-3.932,2.667,2.428,2.428,0,0,0-2.923,2.643,3.394,3.394,0,0,1-3.239,3.615A2.432,2.432,0,0,0,7.9-179.519a3.426,3.426,0,0,1-2.486,4.309,2.39,2.39,0,0,0-1.581,3.5,3.416,3.416,0,0,1-1.552,4.782,2.411,2.411,0,0,0-.79,3.759,3.382,3.382,0,0,1-.483,4.937,2.417,2.417,0,0,0,.025,3.944,3.38,3.38,0,0,1,.482,4.882,2.422,2.422,0,0,0,.794,3.812,3.4,3.4,0,0,1,1.54,4.723,2.4,2.4,0,0,0,1.6,3.547,3.41,3.41,0,0,1,2.46,4.254,2.437,2.437,0,0,0,2.394,3.189,3.4,3.4,0,0,1,3.2,3.572,2.442,2.442,0,0,0,2.812,2.705,3.409,3.409,0,0,1,4.083,2.9,2.412,2.412,0,0,0,3.376,1.945,3.452,3.452,0,0,1,4.543,2.046,2.4,2.4,0,0,0,3.6,1.205c2.014-1.114,3.578-.787,4.964,1.054a2.228,2.228,0,0,0,2.314,1.063,4.079,4.079,0,0,0,1.613-.855,3.466,3.466,0,0,1,4.651-.051c1.693,1.434,2.849,1.314,4.214-.44a3.422,3.422,0,0,1,4.487-.941c1.873,1.025,3.081.636,3.99-1.282a3.438,3.438,0,0,1,4.191-1.876c2.107.636,3.119.042,3.649-2.137a3.458,3.458,0,0,1,3.949-2.646,2.426,2.426,0,0,0,2.919-2.508,3.4,3.4,0,0,1,3.4-3.765,2.419,2.419,0,0,0,2.212-3.083,3.433,3.433,0,0,1,2.493-4.365,2.41,2.41,0,0,0,1.556-3.514,3.443,3.443,0,0,1,1.524-4.739,2.392,2.392,0,0,0,.843-3.748,3.421,3.421,0,0,1,.5-5" transform="translate(0)" fill="#fff" fill-rule="evenodd"/>
    <path id="Path_185" data-name="Path 185" d="M74.759-128.6c-1.646-.887-2.68-.194-3.639,1.185A25.883,25.883,0,0,1,56.509-117.3a10.976,10.976,0,0,0-1.9.756,17.164,17.164,0,0,0-1.508.939c-.033-.015-.066-.029-.1-.046-.033.016-.067.031-.1.046a16.861,16.861,0,0,0-1.509-.939,10.88,10.88,0,0,0-1.9-.756,25.879,25.879,0,0,1-14.611-10.117c-.961-1.379-1.994-2.073-3.64-1.185-2.562-4.442-5.267-8.723-2.819-14.327a32.522,32.522,0,0,0,11.266,8.5c-2.419,3.4-.472,7.211,3.972,8.075,0-5.035.083-10.068-.034-15.094a10.961,10.961,0,0,1,2.069-7.006c1.664-2.261,2.895-4.632,2.112-7.795H32.05a17.158,17.158,0,0,1,6.1-5.591c1.924-1.185,2.255-.979,2.32,1.39,2.277,0,4.563-.042,6.847.02.959.025,1.287-.342,1.339-1.251.18-3.022.423-6.042.617-9.064.03-.422.089-1-.142-1.257-.894-.984-.541-1.969-.233-3.013a2.549,2.549,0,0,0,.112-1.357c-.311-1.017.191-1.45,1.036-1.47q1.447-.03,2.9-.025h.128q1.45-.005,2.9.025c.845.02,1.347.453,1.038,1.47a2.507,2.507,0,0,0,.113,1.357c.307,1.044.658,2.029-.235,3.013-.231.257-.17.835-.143,1.257.194,3.023.436,6.042.617,9.064.055.91.382,1.277,1.339,1.251,2.284-.062,4.569-.02,6.848-.02.063-2.369.393-2.575,2.318-1.39a17.16,17.16,0,0,1,6.1,5.591H58.193c-.783,3.163.448,5.534,2.112,7.795a10.938,10.938,0,0,1,2.066,7.006c-.113,5.026-.032,10.058-.032,15.094,4.443-.864,6.392-4.674,3.975-8.075a32.5,32.5,0,0,0,11.262-8.5c2.452,5.6-.257,9.885-2.816,14.327M53.006-182.465a35.768,35.768,0,0,0-35.731,35.727,35.772,35.772,0,0,0,35.731,35.729,35.771,35.771,0,0,0,35.728-35.729,35.767,35.767,0,0,0-35.728-35.727" transform="translate(-9.825 -9.539)" fill="#fff" fill-rule="evenodd"/>
  </g>
</svg>
