<svg xmlns="http://www.w3.org/2000/svg" width="422" height="291.796" viewBox="0 0 422 291.796">
  <g id="Group_251" data-name="Group 251" transform="translate(0 498.435)">
    <path id="Path_461" data-name="Path 461" d="M62.664-260.185A17.664,17.664,0,0,0,59.871-270.3a23.633,23.633,0,0,0-8.8-7.32q-6-3.178-18.138-6.517t-18.2-6.742a24.066,24.066,0,0,1-8.892-7.9,20.1,20.1,0,0,1-2.825-10.915q0-10.208,8.6-16.533t22.408-6.324a36.29,36.29,0,0,1,16.148,3.5,26.214,26.214,0,0,1,11.075,9.823,26.576,26.576,0,0,1,3.916,14.285H61.7a22.133,22.133,0,0,0-7.7-17.3q-7.7-6.838-19.968-6.838-12.327,0-19.936,5.49T6.485-309.816A16.321,16.321,0,0,0,13.1-296.269q6.613,5.136,21.83,9.085t22.279,9.149A20.9,20.9,0,0,1,66.2-260.314a20.556,20.556,0,0,1-3.981,12.488,25.354,25.354,0,0,1-11.3,8.379,43.587,43.587,0,0,1-16.437,2.953,47.018,47.018,0,0,1-18.234-3.37,25.941,25.941,0,0,1-12.167-9.6A26.237,26.237,0,0,1,0-264.166H3.467q0,11.493,8.6,17.849t22.408,6.357q12.263,0,20.225-5.618T62.664-260.185Z" transform="translate(0 -68.774)"/>
    <path id="Path_462" data-name="Path 462" d="M147.7-276.354v39.486h-3.467v-93.483h29.213q14.318,0,22.247,7.223t7.93,20.064q0,12.713-7.737,19.647t-21.99,7.063Zm0-3.467h25.746q12.649,0,19.679-6.1t7.03-17.015q0-11.3-7.03-17.624t-19.679-6.324H147.7Z" transform="translate(-59.795 -69.684)"/>
    <path id="Path_463" data-name="Path 463" d="M342.291-277.521a50.508,50.508,0,0,1-4.334,21.477A33.183,33.183,0,0,1,325.6-241.6a33.708,33.708,0,0,1-18.491,5.1q-15.794,0-25.554-11.235t-9.759-30.305v-13.483a50.565,50.565,0,0,1,4.334-21.445,33.081,33.081,0,0,1,12.392-14.479,33.756,33.756,0,0,1,18.459-5.1,33.871,33.871,0,0,1,18.523,5.1,33.253,33.253,0,0,1,12.424,14.511,50.3,50.3,0,0,1,4.366,21.412Zm-3.467-14.125q0-16.95-8.6-27.191t-23.242-10.241q-14.446,0-23.05,10.176t-8.6,27.7v13.676a47.387,47.387,0,0,0,3.884,19.743,29.877,29.877,0,0,0,11.076,13.194,30.423,30.423,0,0,0,16.822,4.622q14.639,0,23.178-10.209t8.54-27.865Z" transform="translate(-112.679 -68.774)"/>
    <path id="Path_464" data-name="Path 464" d="M144.59-86.647h62.064v3.484H139.816V-86l59.936-87.677H142.4V-177.1H204.59v2.452Zm24.9-107.226a3.532,3.532,0,0,1,1.032-2.548,3.373,3.373,0,0,1,2.516-1.064,3.477,3.477,0,0,1,2.548,1.064,3.475,3.475,0,0,1,1.065,2.548,3.37,3.37,0,0,1-1.065,2.516,3.53,3.53,0,0,1-2.548,1.032,3.423,3.423,0,0,1-2.516-1.032A3.424,3.424,0,0,1,169.493-193.872Z" transform="translate(-57.964 -124.767)"/>
    <path id="Path_465" data-name="Path 465" d="M305.181-107.564l32.9-55.1h4.258L306.923-104.4v35.677h-3.484V-104.4L268.02-162.661h4.645Z" transform="translate(-111.115 -139.204)"/>
    <path id="Path_466" data-name="Path 466" d="M479.356-98.414q-1.355,14.516-10,22.29t-23.484,7.774a31.524,31.524,0,0,1-17.71-5.064A33.217,33.217,0,0,1,416.195-87.8a51.477,51.477,0,0,1-4.323-21.323v-14.516a52.381,52.381,0,0,1,4.193-21.451A33.165,33.165,0,0,1,428.033-159.7a31.51,31.51,0,0,1,17.838-5.161q14.71,0,23.419,7.742t10.065,22.193h-3.484q-1.484-12.968-9.032-19.71t-20.968-6.742q-13.677,0-22.1,10.323t-8.42,27.677v13.806A48.578,48.578,0,0,0,419.1-89.93,30.444,30.444,0,0,0,429.84-76.607a27.774,27.774,0,0,0,16.032,4.774q13.484,0,21.065-6.645t8.935-19.935Z" transform="translate(-170.752 -138.29)"/>
    <path id="Path_467" data-name="Path 467" d="M568.728-68.726h3.484v-93.935h-3.484Z" transform="translate(-235.781 -139.204)"/>
    <path id="Path_468" data-name="Path 468" d="M673.786-115.306h-47.1v43.1h53.677v3.484H623.205v-93.935h57.161v3.484H626.689v40.387h47.1Z" transform="translate(-258.366 -139.204)"/>
    <path id="Path_469" data-name="Path 469" d="M144.24-404.952v-93.483h25.875a38.242,38.242,0,0,1,19.647,5.136,36.259,36.259,0,0,1,13.8,14.414,44.082,44.082,0,0,1,5.136,20.771v12.135a44.676,44.676,0,0,1-4.912,21.059,36.328,36.328,0,0,1-13.708,14.639,37.967,37.967,0,0,1-19.647,5.329Zm3.467-90.016v86.549h22.408A34.373,34.373,0,0,0,188-413.2a33.444,33.444,0,0,0,12.616-13.355,40.443,40.443,0,0,0,4.623-19.037V-457.6a40.408,40.408,0,0,0-4.462-19,33.413,33.413,0,0,0-12.456-13.387,34.368,34.368,0,0,0-17.689-4.976Z" transform="translate(-59.798)"/>
  </g>
</svg>
