<?xml version="1.0" encoding="UTF-8" standalone="no"?>
<!DOCTYPE svg PUBLIC "-//W3C//DTD SVG 1.1//EN" "http://www.w3.org/Graphics/SVG/1.1/DTD/svg11.dtd">
<svg width="100%" height="100%" viewBox="0 0 582 277" version="1.1" xmlns="http://www.w3.org/2000/svg" xmlns:xlink="http://www.w3.org/1999/xlink" xml:space="preserve" xmlns:serif="http://www.serif.com/" style="fill-rule:evenodd;clip-rule:evenodd;stroke-linejoin:round;stroke-miterlimit:2;">
    <g id="Group_266">
        <g id="Path_471" transform="matrix(1,0,0,1,-164.169,401.645)">
            <path d="M474.587,-360.792L474.587,-306.906L490.107,-306.906C500.116,-306.906 508.643,-309.547 515.317,-314.797C520.378,-319.625 522.887,-326.03 522.887,-333.817C522.887,-341.604 520.38,-348.027 515.319,-352.9C509.929,-357.6 501.972,-360.825 492.449,-360.825L491.278,-360.825L491.278,-360.791L474.587,-360.792ZM509.162,-333.9C507.94,-324.784 501.21,-320.052 490.525,-320.052L489.07,-320.052L488.944,-347.752L492.415,-347.752C501.844,-347.747 509.162,-342.875 509.162,-333.9Z" style="fill:white;fill-rule:nonzero;"/>
        </g>
        <g id="Path_472" transform="matrix(1,0,0,1,-192.182,401.645)">
            <path d="M568.75,-306.906L568.75,-321.924L576.534,-321.924C582.291,-321.759 587.9,-323.791 592.214,-327.606C596.064,-331.124 598.227,-336.128 598.152,-341.342C598.203,-346.567 596.049,-351.578 592.222,-355.135C588.026,-358.949 582.51,-360.99 576.843,-360.825L555.571,-360.825L555.571,-306.905L568.75,-306.906ZM584.485,-341.343C584.485,-337.636 580.719,-334.97 576.846,-334.97L569.238,-335L569.238,-347.751L576.843,-347.751C580.695,-347.747 584.485,-345.044 584.485,-341.343Z" style="fill:white;fill-rule:nonzero;"/>
        </g>
        <g id="Path_473" transform="matrix(1,0,0,1,-215.931,409.463)">
            <path d="M624.913,-355.633L646.126,-355.633L624.226,-314.657L667.526,-314.657L667.526,-327.226L646.313,-327.226L668.213,-368.778L624.913,-368.778L624.913,-355.633ZM639.786,-377.541C639.786,-374.185 642.807,-371.654 646.22,-371.654C649.612,-371.654 652.654,-374.206 652.654,-377.541C652.654,-380.876 649.589,-383.428 646.211,-383.428C642.833,-383.428 639.786,-380.872 639.786,-377.542L639.786,-377.541Z" style="fill:white;fill-rule:nonzero;"/>
        </g>
        <g id="Path_474" transform="matrix(1,0,0,1,-163.113,366.423)">
            <path d="M494.1,-204.551L496.792,-204.551L505.941,-227.987L515.306,-204.551L518,-204.551L540.562,-258.471L526.338,-258.471L516.644,-235L506.695,-259L505.443,-259L495.457,-234.986L485.726,-258.465L471.536,-258.465L494.1,-204.551Z" style="fill:white;fill-rule:nonzero;"/>
        </g>
        <g id="Path_475" transform="matrix(1,0,0,1,-233.944,366.14)">
            <path d="M689.51,-204.268L689.51,-225.335L705.533,-204.268L721.557,-204.268L708.6,-223.605C710.898,-224.572 712.87,-226.18 714.279,-228.237C716.601,-231.243 717.876,-234.929 717.907,-238.728L717.907,-240.075C717.907,-246.13 715.748,-249.341 712.344,-252.603C710.356,-254.489 707.987,-255.927 705.396,-256.82C702.352,-257.732 699.19,-258.192 696.012,-258.187L676.3,-258.187L676.335,-204.267L689.51,-204.268ZM697.228,-232.532L694.368,-232.532L694.368,-232.565L689.477,-232.565L689.477,-245.11L695.23,-245.11C697.692,-245.11 700.688,-244.468 702.091,-243.315C703.409,-242.25 704.184,-240.649 704.201,-238.955C704.2,-235.241 700.836,-232.532 697.228,-232.532Z" style="fill:white;fill-rule:nonzero;"/>
        </g>
        <g id="Path_476" transform="matrix(1,0,0,1,-259.641,366.14)">
            <path d="M750.583,-204.268L787.783,-204.268L787.783,-217.38L763.762,-217.38L763.762,-258.188L750.583,-258.188L750.583,-204.268Z" style="fill:white;fill-rule:nonzero;"/>
        </g>
        <g id="Path_477" transform="matrix(1,0,0,1,-281.78,366.14)">
            <path d="M814.585,-258.155L814.585,-204.268L830.106,-204.268C840.115,-204.268 848.642,-206.909 855.316,-212.16C860.377,-216.988 862.886,-223.393 862.886,-231.18C862.886,-238.967 860.378,-245.39 855.318,-250.263C849.927,-254.963 841.97,-258.188 832.448,-258.188L831.277,-258.188L831.277,-258.155L814.585,-258.155ZM849.16,-231.262C847.938,-222.145 841.209,-217.414 830.523,-217.414L829.069,-217.414L828.943,-245.114L832.413,-245.114C841.843,-245.11 849.16,-240.237 849.16,-231.261L849.16,-231.262Z" style="fill:white;fill-rule:nonzero;"/>
        </g>
        <g id="Path_478" transform="matrix(1,0,0,1,-163.107,330.636)">
            <path d="M471.519,-142.472L485.306,-142.472L485.467,-101.631L500.351,-101.631L499.851,-142.472L513.6,-142.472L513.6,-155.55L471.519,-155.55L471.519,-142.472Z" style="fill:white;fill-rule:nonzero;"/>
        </g>
        <g id="Path_479" transform="matrix(1,0,0,1,-184.015,330.866)">
            <path d="M540.337,-148.154C534.943,-143.17 531.898,-136.133 531.96,-128.789C531.887,-121.451 534.936,-114.417 540.341,-109.453C546.2,-104.185 552.355,-101.514 560.656,-101.492C568.936,-101.492 575.096,-104.167 580.973,-109.452C586.405,-114.4 589.471,-121.442 589.392,-128.789C589.459,-136.142 586.398,-143.187 580.977,-148.155C575.077,-153.503 568.916,-156.215 560.658,-156.215C552.4,-156.215 546.239,-153.505 540.337,-148.154ZM571.019,-138.806C574.039,-136.39 575.796,-132.722 575.786,-128.855C575.815,-124.987 574.057,-121.314 571.026,-118.91C567.82,-116.15 565.09,-114.81 560.659,-114.81C556.152,-114.81 553.416,-116.157 550.259,-118.91C547.248,-121.33 545.504,-124.998 545.527,-128.861C545.522,-132.722 547.265,-136.385 550.264,-138.817C553.393,-141.586 556.124,-142.942 560.654,-142.942C565.113,-142.936 567.838,-141.583 571.019,-138.806Z" style="fill:white;fill-rule:nonzero;"/>
        </g>
        <g id="Path_480" transform="matrix(1,0,0,1,-216.864,330.636)">
            <path d="M651.071,-114.441C648.267,-114.366 645.53,-115.321 643.38,-117.123C641.367,-118.663 640.179,-121.053 640.167,-123.587L640.167,-155.55L626.921,-155.55L626.921,-123.128C626.861,-117.22 629.309,-111.555 633.653,-107.55C638.121,-103.289 644.016,-101.129 651.108,-101.129C658.129,-101.129 663.998,-103.29 668.486,-107.549C672.832,-111.553 675.281,-117.219 675.22,-123.128L675.22,-155.55L661.975,-155.55L661.975,-123.587C661.975,-118.324 656.534,-114.441 651.071,-114.441Z" style="fill:white;fill-rule:nonzero;"/>
        </g>
        <g id="Path_481" transform="matrix(1,0,0,1,-245.943,330.636)">
            <path d="M724.2,-101.63L724.2,-122.7L740.22,-101.63L756.244,-101.63L743.288,-120.967C745.586,-121.934 747.558,-123.542 748.967,-125.599C751.289,-128.606 752.564,-132.292 752.595,-136.091L752.595,-137.437C752.595,-143.492 750.436,-146.703 747.031,-149.966C745.043,-151.852 742.674,-153.29 740.083,-154.182C737.039,-155.094 733.877,-155.554 730.699,-155.549L710.984,-155.549L711.019,-101.629L724.2,-101.63ZM731.918,-129.895L729.058,-129.895L729.058,-129.928L724.167,-129.928L724.167,-142.471L729.92,-142.471C732.382,-142.471 735.378,-141.829 736.781,-140.676C738.099,-139.611 738.874,-138.01 738.891,-136.316C738.888,-132.6 735.522,-129.895 731.915,-129.895L731.918,-129.895Z" style="fill:white;fill-rule:nonzero;"/>
        </g>
        <g id="Path_482" transform="matrix(1,0,0,1,-206.529,358.463)">
            <path d="M603.51,-209.865C604.31,-212.526 605.256,-215.37 606.361,-218.272C608.24,-223.344 610.584,-228.231 613.361,-232.872C612.909,-233.47 612.659,-234.197 612.647,-234.947C608.409,-235.821 604.077,-236.153 599.755,-235.937C599.698,-234.352 598.583,-232.99 597.041,-232.621C597.533,-224.659 599.734,-216.896 603.493,-209.861L603.51,-209.865Z" style="fill:white;fill-rule:nonzero;"/>
        </g>
        <g id="Path_483" transform="matrix(1,0,0,1,-209.616,341.026)">
            <path d="M613.259,-179.189C611.408,-181.2 609.701,-183.339 608.149,-185.589C607.769,-185.44 607.367,-185.357 606.959,-185.346C606.559,-183.766 606.234,-182.346 605.968,-181.125C608.299,-180.154 610.752,-179.505 613.258,-179.194" style="fill:white;fill-rule:nonzero;"/>
        </g>
        <g id="Path_484" transform="matrix(1,0,0,1,-211.093,356.872)">
            <path d="M637.486,-221.445C636.199,-222.976 634.783,-224.394 633.254,-225.683C630.391,-228.089 627.159,-230.018 623.683,-231.396C623.022,-230.436 621.927,-229.863 620.762,-229.866C620.428,-229.866 620.095,-229.913 619.775,-230.008C617.103,-225.527 614.842,-220.813 613.02,-215.924C611.946,-213.1 611.02,-210.324 610.237,-207.724C610.974,-207.254 611.512,-206.526 611.745,-205.683C619.363,-205.974 626.713,-208.586 632.805,-213.168C634.18,-214.197 635.489,-215.31 636.726,-216.501C636.282,-217.106 636.042,-217.837 636.042,-218.587C636.042,-219.713 636.578,-220.774 637.485,-221.442" style="fill:white;fill-rule:nonzero;"/>
        </g>
        <g id="Path_485" transform="matrix(1,0,0,1,-218.161,364.003)">
            <path d="M630.672,-242.677C631.101,-242.104 631.347,-241.414 631.379,-240.699C635.189,-239.199 638.728,-237.085 641.855,-234.44C643.692,-232.879 645.376,-231.145 646.883,-229.264C647.409,-229.235 647.922,-229.087 648.383,-228.832C649.844,-230.733 651.112,-232.774 652.17,-234.925L652.515,-234.778C651.464,-240.422 648.678,-245.601 644.546,-249.587C643.644,-250.457 642.685,-251.266 641.676,-252.01C637.352,-249.767 633.589,-246.576 630.67,-242.676" style="fill:white;fill-rule:nonzero;"/>
        </g>
        <g id="Path_486" transform="matrix(1,0,0,1,-200.604,358.075)">
            <path d="M595.5,-208.614C592.69,-213.89 590.722,-219.574 589.667,-225.458C589.253,-227.764 588.982,-230.093 588.855,-232.433C587.834,-232.883 587.081,-233.787 586.825,-234.873C585.202,-234.633 583.548,-234.333 581.865,-233.973C578.645,-225.856 579.442,-216.677 584.012,-209.236C587.427,-208.203 590.93,-207.488 594.477,-207.101C594.681,-207.686 595.033,-208.207 595.499,-208.615" style="fill:white;fill-rule:nonzero;"/>
        </g>
        <g id="Path_487" transform="matrix(1,0,0,1,-211.68,348.513)">
            <path d="M644.045,-202.849C643.525,-204.367 642.866,-205.833 642.078,-207.231C641.512,-206.871 640.855,-206.68 640.184,-206.68C639.84,-206.68 639.499,-206.731 639.17,-206.83C637.777,-205.461 636.291,-204.189 634.724,-203.023C629.491,-199.106 623.369,-196.546 616.906,-195.572C615.36,-195.337 613.802,-195.186 612.24,-195.121C612.158,-194.909 612.058,-194.704 611.94,-194.51C613.911,-191.616 616.16,-188.922 618.657,-186.467C626.199,-186.433 633.437,-189.479 638.684,-194.896C640.937,-197.216 642.767,-199.911 644.093,-202.861L644.045,-202.849Z" style="fill:white;fill-rule:nonzero;"/>
        </g>
        <g id="Path_488" transform="matrix(1,0,0,1,-228.34,353.204)">
            <path d="M660.1,-216.347C660.297,-215.898 660.399,-215.413 660.4,-214.922C660.399,-214.558 660.342,-214.197 660.231,-213.85C660.845,-212.797 661.403,-211.713 661.9,-210.6C662.93,-213.896 663.337,-217.355 663.1,-220.8C662.196,-219.256 661.194,-217.772 660.1,-216.356" style="fill:white;fill-rule:nonzero;"/>
        </g>
        <g id="Path_489" transform="matrix(1,0,0,1,-206.522,366.852)">
            <path d="M597.024,-247.918C597.848,-247.722 598.576,-247.237 599.075,-246.552C600.199,-246.608 601.304,-246.643 602.398,-246.643C606.005,-246.66 609.603,-246.295 613.133,-245.552L613.333,-245.504C614.001,-246.412 615.064,-246.949 616.191,-246.95C616.526,-246.95 616.86,-246.902 617.182,-246.808C620.082,-250.659 623.737,-253.879 627.923,-256.271C618.625,-261.86 606.87,-261.521 597.91,-255.404C597.464,-252.929 597.167,-250.428 597.023,-247.917" style="fill:white;fill-rule:nonzero;"/>
        </g>
        <g id="Path_490" transform="matrix(1,0,0,1,-202.241,363.231)">
            <path d="M588.7,-242.324C589.062,-243.111 589.698,-243.739 590.489,-244.092C590.589,-245.974 590.777,-247.877 591.054,-249.778C590.479,-249.278 589.918,-248.75 589.378,-248.194C587.492,-246.251 585.9,-244.043 584.652,-241.639C586.021,-241.906 587.37,-242.134 588.7,-242.324" style="fill:white;fill-rule:nonzero;"/>
        </g>
        <g id="Path_491" transform="matrix(1,0,0,1,-203.844,343.001)">
            <path d="M599.048,-187.951C598.4,-188.402 597.921,-189.058 597.688,-189.813C594.855,-190.1 592.048,-190.596 589.288,-191.297C590.006,-190.407 590.778,-189.562 591.6,-188.767C593.537,-186.889 595.738,-185.305 598.135,-184.067C598.387,-185.216 598.694,-186.522 599.053,-187.952" style="fill:white;fill-rule:nonzero;"/>
        </g>
        <g id="Path_492" transform="matrix(1,0,0,1,0,423.232)">
            <path d="M221.59,-202.352C199.781,-180.411 170.064,-168.1 139.128,-168.189C108.188,-168.101 78.467,-180.412 56.651,-202.352C34.718,-224.167 22.41,-253.882 22.494,-284.816C22.411,-315.754 34.718,-345.473 56.651,-367.293C78.474,-389.222 108.191,-401.529 139.128,-401.449C170.061,-401.53 199.774,-389.222 221.59,-367.293C243.528,-345.475 255.84,-315.756 255.757,-284.816C255.84,-253.88 243.528,-224.164 221.59,-202.352M275.109,-278.6C279.273,-282.527 279.297,-287.076 275.164,-290.971C269.871,-295.979 269.313,-301.157 273.442,-307.078C276.7,-311.738 275.718,-316.287 270.842,-319.171C264.872,-322.702 263.094,-328.116 265.827,-334.424C268.108,-339.667 266.171,-343.976 260.698,-345.865C254.159,-348.107 251.363,-353.027 252.798,-359.8C253.913,-365.073 251.07,-369.134 245.782,-369.811C238.2,-370.776 234.916,-374.441 234.745,-382.099C234.625,-387.399 230.634,-390.938 225.432,-390.007C219.388,-389.086 213.62,-393.165 212.474,-399.17C211.368,-405.19 207.262,-407.47 201.396,-405.614C195.269,-403.672 189.864,-406.043 187.205,-411.84C184.605,-417.495 180.299,-418.861 174.783,-415.794C169.283,-412.734 163.55,-413.929 159.813,-418.942C155.941,-424.156 151.634,-424.604 146.735,-420.296C142.546,-416.256 135.835,-416.214 131.596,-420.202C126.38,-424.675 122.396,-424.221 118.215,-418.654C114.917,-414.1 108.634,-412.766 103.77,-415.588C97.749,-418.906 93.783,-417.653 90.904,-411.509C88.641,-406.362 82.797,-403.715 77.436,-405.409C70.598,-407.45 67.178,-405.484 65.608,-398.6C64.351,-392.854 58.74,-389.049 52.937,-390.007C47.394,-390.831 43.453,-387.282 43.518,-381.493C43.589,-375.001 39.528,-370.464 33.081,-369.846C27.262,-369.299 24.369,-365.446 25.452,-359.701C26.765,-352.78 24.065,-348.101 17.443,-345.818C12.058,-343.971 10.151,-339.746 12.349,-334.555C15.174,-327.905 13.526,-322.844 7.349,-319.148C2.568,-316.294 1.575,-311.58 4.805,-307.038C8.9,-301.263 8.386,-295.92 3.243,-291.13C-1.105,-287.065 -1.083,-282.52 3.325,-278.43C8.336,-273.781 8.881,-268.273 4.878,-262.7C1.538,-258.052 2.521,-253.343 7.437,-250.418C13.47,-246.84 15.162,-241.655 12.399,-235.199C10.116,-229.879 11.999,-225.665 17.541,-223.77C24.013,-221.552 26.768,-216.791 25.468,-210.064C24.323,-204.181 27.216,-200.325 33.182,-199.789C39.167,-199.454 43.822,-194.264 43.506,-188.278C43.439,-182.546 47.192,-178.939 52.565,-179.563C59.556,-180.375 64.098,-177.145 65.723,-170.224C67.053,-164.551 71.077,-162.232 76.601,-163.956C83.184,-165.999 88.367,-163.669 91.239,-157.365C93.494,-152.409 98.119,-150.858 102.83,-153.482C109.318,-157.072 114.358,-156.019 118.824,-150.082C120.712,-147.574 123.149,-145.956 126.281,-146.657C128.2,-147.17 129.978,-148.112 131.481,-149.411C136.181,-153.261 141.935,-153.432 146.467,-149.575C151.924,-144.957 155.648,-145.344 160.047,-150.995C163.36,-155.537 169.643,-156.855 174.502,-154.027C180.537,-150.727 184.43,-151.977 187.358,-158.157C189.645,-163.296 195.502,-165.918 200.858,-164.2C207.647,-162.153 210.906,-164.065 212.615,-171.085C213.914,-176.82 219.54,-180.591 225.339,-179.613C230.705,-178.855 234.639,-182.232 234.739,-187.694C234.87,-195.094 238.367,-198.975 245.688,-199.822C250.988,-200.436 253.92,-204.531 252.814,-209.757C251.343,-216.672 254.065,-221.42 260.849,-223.82C266.17,-225.71 268.084,-230.005 265.864,-235.143C263.11,-241.516 264.84,-246.907 270.773,-250.414C275.683,-253.32 276.698,-257.84 273.489,-262.49C269.345,-268.51 269.867,-273.671 275.107,-278.601" style="fill:white;"/>
        </g>
        <g id="Path_493" transform="matrix(1,0,0,1,-12.694,410.909)">
            <path d="M221.913,-214.062C216.613,-216.923 213.278,-214.687 210.187,-210.243C198.571,-193.559 182.458,-183.243 163.11,-177.643C161.002,-177.025 158.956,-176.21 157,-175.21C155.328,-174.287 153.706,-173.278 152.139,-172.186C152.033,-172.232 151.927,-172.28 151.825,-172.332C151.719,-172.28 151.609,-172.232 151.503,-172.186C149.937,-173.279 148.314,-174.288 146.641,-175.21C144.686,-176.212 142.64,-177.028 140.532,-177.646C121.186,-183.246 105.065,-193.56 93.454,-210.246C90.354,-214.689 87.027,-216.925 81.725,-214.065C73.472,-228.378 64.753,-242.172 72.645,-260.226C83.4,-248.487 94.781,-238.812 108.945,-232.838C101.145,-221.881 107.423,-209.604 121.745,-206.821C121.745,-223.045 122.011,-239.259 121.634,-255.453C121.45,-263.853 123.376,-271.331 128.302,-278.029C133.663,-285.314 137.629,-292.952 135.102,-303.144L84.3,-303.144C89.6,-311.707 96.632,-316.633 103.953,-321.159C110.153,-324.978 111.219,-324.313 111.427,-316.681C118.762,-316.681 126.127,-316.815 133.486,-316.616C136.575,-316.533 137.632,-317.716 137.798,-320.646C138.379,-330.387 139.16,-340.113 139.788,-349.853C139.888,-351.212 140.074,-353.072 139.329,-353.902C136.448,-357.074 137.585,-360.246 138.579,-363.612C139.093,-365.01 139.218,-366.521 138.939,-367.984C137.939,-371.262 139.553,-372.657 142.278,-372.722C145.385,-372.789 148.496,-372.816 151.609,-372.804L152.02,-372.804C155.135,-372.816 158.245,-372.789 161.351,-372.722C164.074,-372.657 165.691,-371.263 164.696,-367.984C164.411,-366.521 164.536,-365.008 165.058,-363.612C166.049,-360.246 167.18,-357.074 164.302,-353.902C163.558,-353.072 163.751,-351.212 163.84,-349.853C164.467,-340.112 165.24,-330.386 165.827,-320.646C166.002,-317.715 167.059,-316.533 170.143,-316.616C177.501,-316.816 184.864,-316.681 192.208,-316.681C192.408,-324.314 193.474,-324.981 199.678,-321.159C207,-316.633 214.036,-311.708 219.334,-303.144L168.534,-303.144C166.011,-292.952 169.976,-285.314 175.334,-278.029C180.261,-271.329 182.185,-263.852 181.991,-255.453C181.626,-239.259 181.891,-223.046 181.891,-206.821C196.206,-209.604 202.491,-221.881 194.697,-232.838C208.85,-238.812 220.24,-248.487 230.983,-260.226C238.883,-242.171 230.156,-228.377 221.909,-214.065M151.822,-387.607C88.696,-387.539 36.772,-335.618 36.7,-272.492C36.777,-209.366 88.7,-157.445 151.826,-157.372C214.949,-157.449 266.868,-209.369 266.942,-272.492C266.872,-335.618 214.948,-387.54 151.822,-387.607" style="fill:white;"/>
        </g>
    </g>
</svg>
