<?xml version="1.0" encoding="utf-8"?>
<!-- Generator: Adobe Illustrator 16.0.0, SVG Export Plug-In . SVG Version: 6.00 Build 0)  -->
<!DOCTYPE svg PUBLIC "-//W3C//DTD SVG 1.1//EN" "http://www.w3.org/Graphics/SVG/1.1/DTD/svg11.dtd">
<svg version="1.1" id="Capa_1" xmlns="http://www.w3.org/2000/svg" xmlns:xlink="http://www.w3.org/1999/xlink" x="0px" y="0px"
	 width="595.279px" height="595.279px" viewBox="0 0 595.279 595.279" enable-background="new 0 0 595.279 595.279"
	 xml:space="preserve">
<g>
	<path fill="#FFFFFF" d="M259.147,451.111h59.866c5.137,0,9.302-4.165,9.302-9.302v-134.76h31.102c4.769,0,8.765-3.605,9.253-8.348
		l5.243-50.892c0.27-2.618-0.582-5.229-2.348-7.184c-1.764-1.956-4.272-3.071-6.904-3.071h-36.346v-20.613
		c0-4.258,1.347-4.576,3.404-4.576h32.185c5.137,0,9.301-4.165,9.301-9.302v-49.413c0-5.122-4.142-9.28-9.264-9.301l-44.387-0.181
		c-31.104,0-47.703,13.685-56.15,25.164c-11.797,16.029-13.558,34.811-13.558,44.579v23.642h-19.171
		c-5.137,0-9.302,4.165-9.302,9.302v50.892c0,5.137,4.165,9.301,9.302,9.301h19.171v134.761
		C249.846,446.946,254.009,451.111,259.147,451.111z M239.975,288.447v-32.289h19.171c5.137,0,9.301-4.164,9.301-9.301v-32.943
		c0-6.028,0.969-21.364,9.938-33.554c8.588-11.67,22.439-17.587,41.13-17.587l35.086,0.143v30.849h-22.884
		c-10.953,0-22.007,7.166-22.007,23.179v29.915c0,5.137,4.165,9.301,9.302,9.301h35.339l-3.328,32.29h-32.011
		c-5.137,0-9.302,4.164-9.302,9.301v134.759h-41.264v-134.76c0-5.137-4.164-9.302-9.301-9.302H239.975L239.975,288.447z"/>
	<path fill="#FFFFFF" d="M508.107,87.181C451.89,30.961,377.144,0,297.64,0C218.142,0,143.4,30.961,87.181,87.181
		C30.961,143.4,0,218.142,0,297.64c0,79.512,30.961,154.259,87.181,210.474c56.216,56.211,130.958,87.166,210.459,87.166
		c79.509,0,154.253-30.955,210.465-87.166C564.321,451.9,595.28,377.153,595.28,297.64
		C595.28,218.14,564.321,143.398,508.107,87.181z M494.952,494.959c-52.7,52.697-122.773,81.719-197.313,81.719
		c-74.533,0-144.604-29.021-197.306-81.719C47.628,442.258,18.603,372.182,18.603,297.64c0-74.528,29.025-144.6,81.731-197.305
		C153.04,47.628,223.112,18.603,297.64,18.603c74.535,0,144.609,29.025,197.313,81.731c52.702,52.704,81.726,122.775,81.726,197.306
		C576.678,372.184,547.655,442.259,494.952,494.959z"/>
	<path fill="#FFFFFF" d="M499.987,133.669c-3.237-3.99-9.094-4.601-13.084-1.362c-3.988,3.236-4.599,9.094-1.362,13.082
		c34.778,42.867,53.933,96.938,53.933,152.251c0,64.605-25.154,125.338-70.828,171.011c-45.674,45.67-106.404,70.822-171.005,70.822
		c-59.598,0-116.853-21.866-161.217-61.57c-3.828-3.425-9.709-3.1-13.134,0.729c-3.425,3.827-3.1,9.708,0.728,13.133
		c47.781,42.762,109.441,66.312,173.623,66.312c69.57,0,134.972-27.087,184.158-76.271c49.188-49.187,76.277-114.591,76.277-184.164
		C558.075,238.073,537.445,179.841,499.987,133.669z"/>
	<path fill="#FFFFFF" d="M55.808,297.64c0-133.346,108.486-241.832,241.832-241.832c59.598,0,116.852,21.867,161.216,61.573
		c3.829,3.427,9.71,3.1,13.134-0.728c3.427-3.827,3.101-9.708-0.727-13.133c-47.78-42.765-109.44-66.315-173.623-66.315
		c-69.561,0-134.96,27.091-184.151,76.283c-49.192,49.19-76.283,114.591-76.283,184.151c0,59.575,20.63,117.81,58.09,163.979
		c1.838,2.267,4.521,3.441,7.228,3.441c2.06,0,4.131-0.68,5.855-2.078c3.989-3.237,4.6-9.095,1.362-13.084
		C74.961,407.032,55.808,352.959,55.808,297.64z"/>
</g>
</svg>
