<svg id="facebook" xmlns="http://www.w3.org/2000/svg" width="38.029" height="38.029" viewBox="0 0 38.029 38.029">
  <g id="Group_150" data-name="Group 150" transform="translate(18.272 27.878)">
    <g id="Group_149" data-name="Group 149">
      <path id="Path_205" data-name="Path 205" d="M246.743,375.333a.743.743,0,0,0-.743.743v.012a.743.743,0,1,0,1.486,0v-.012A.743.743,0,0,0,246.743,375.333Z" transform="translate(-246 -375.333)" fill="#fff"/>
    </g>
  </g>
  <g id="Group_152" data-name="Group 152">
    <g id="Group_151" data-name="Group 151">
      <path id="Path_206" data-name="Path 206" d="M30.75,0H7.279A7.287,7.287,0,0,0,0,7.279V30.75a7.287,7.287,0,0,0,7.279,7.279H19.015a.743.743,0,0,0,.743-.743V31.53a.743.743,0,1,0-1.486,0v5.014H7.279A5.8,5.8,0,0,1,1.486,30.75V7.279A5.8,5.8,0,0,1,7.279,1.486H30.75a5.8,5.8,0,0,1,5.793,5.793V30.75a5.8,5.8,0,0,1-5.793,5.793H26V23.434H30.3a.743.743,0,0,0,.739-.668l.534-5.307a.743.743,0,0,0-.739-.817H26V13.854c0-.5.161-.692.593-.692H30.8a.743.743,0,0,0,.743-.743V7.246A.743.743,0,0,0,30.8,6.5H25.269a6.552,6.552,0,0,0-5.642,2.533,7.817,7.817,0,0,0-1.355,4.518v3.12h-3.64a.743.743,0,0,0-.743.743v5.274a.743.743,0,0,0,.743.743h3.64v2.117a.743.743,0,1,0,1.486,0v-2.86a.743.743,0,0,0-.743-.743h-3.64V18.16h3.64a.743.743,0,0,0,.743-.743V13.554c0-1.674.537-5.566,5.512-5.566h4.792v3.689H26.589a2,2,0,0,0-2.078,2.177v3.53a.743.743,0,0,0,.743.743h4.762l-.385,3.822H25.254a.743.743,0,0,0-.743.743v14.6a.743.743,0,0,0,.743.743h5.5a7.287,7.287,0,0,0,7.279-7.279V7.279A7.287,7.287,0,0,0,30.75,0Z" transform="translate(0 0)" fill="#fff"/>
    </g>
  </g>
  <g id="Group_154" data-name="Group 154" transform="translate(3.565 7.613)">
    <g id="Group_153" data-name="Group 153">
      <path id="Path_207" data-name="Path 207" d="M48.743,102.5a.743.743,0,0,0-.743.743v6.2a.743.743,0,0,0,1.486,0v-6.2A.743.743,0,0,0,48.743,102.5Z" transform="translate(-48 -102.5)" fill="#fff"/>
    </g>
  </g>
  <g id="Group_156" data-name="Group 156" transform="translate(3.565 17.037)">
    <g id="Group_155" data-name="Group 155">
      <path id="Path_208" data-name="Path 208" d="M48.743,229.382a.743.743,0,0,0-.743.743v.009a.743.743,0,1,0,1.486,0v-.009A.743.743,0,0,0,48.743,229.382Z" transform="translate(-48 -229.382)" fill="#fff"/>
    </g>
  </g>
</svg>
