<svg xmlns="http://www.w3.org/2000/svg" xmlns:xlink="http://www.w3.org/1999/xlink" width="1472.404" height="1472.403" viewBox="0 0 1472.404 1472.403">
  <defs>
    <linearGradient id="linear-gradient" x1="0.5" x2="0.5" y2="1" gradientUnits="objectBoundingBox">
      <stop offset="0" stop-color="#0c1a2b"/>
      <stop offset="1" stop-color="#38aecc"/>
    </linearGradient>
  </defs>
  <g id="instagram" transform="matrix(0.966, 0.259, -0.259, 0.966, 311.156, 0)" opacity="0.057">
    <g id="Group_117" data-name="Group 117">
      <g id="Group_116" data-name="Group 116">
        <path id="Path_177" data-name="Path 177" d="M850,0H352.211C158,0,0,158,0,352.211V850c0,194.209,158,352.211,352.211,352.211H850c194.209,0,352.211-158,352.211-352.211V352.211C1202.213,158,1044.211,0,850,0Zm305.25,850c0,168.315-136.935,305.25-305.25,305.25H352.211C183.9,1155.252,46.961,1018.317,46.961,850V352.211C46.961,183.9,183.9,46.961,352.211,46.961H850c168.315,0,305.25,136.935,305.25,305.249Z" fill="url(#linear-gradient)"/>
      </g>
    </g>
    <g id="Group_119" data-name="Group 119" transform="translate(103.315 103.315)">
      <g id="Group_118" data-name="Group 118">
        <path id="Path_178" data-name="Path 178" d="M790.687,44H292.9C155.653,44,44,155.653,44,292.9V790.687c0,137.242,111.653,248.9,248.9,248.9H436.128a23.481,23.481,0,0,0,0-46.962H292.9c-111.346,0-201.934-90.588-201.934-201.934V292.9C90.961,181.55,181.55,90.961,292.9,90.961H790.687c111.346,0,201.934,90.589,201.934,201.934V790.687c0,111.346-90.588,201.934-201.934,201.934H649.021a23.481,23.481,0,0,0,0,46.962H790.687c137.242,0,248.9-111.653,248.9-248.9V292.9C1039.583,155.653,927.93,44,790.687,44Z" transform="translate(-44 -44)" fill="url(#linear-gradient)"/>
      </g>
    </g>
    <g id="Group_121" data-name="Group 121" transform="translate(577.626 1051.936)">
      <g id="Group_120" data-name="Group 120">
        <path id="Path_179" data-name="Path 179" d="M286.082,454.881a23.467,23.467,0,1,0,6.88,16.6A23.653,23.653,0,0,0,286.082,454.881Z" transform="translate(-246 -448.001)" fill="url(#linear-gradient)"/>
      </g>
    </g>
    <g id="Group_123" data-name="Group 123" transform="translate(371.265 358.192)">
      <g id="Group_122" data-name="Group 122">
        <path id="Path_180" data-name="Path 180" d="M199.712,159.974a23.485,23.485,0,0,0-33.19-1.082l-1.04.979a23.48,23.48,0,1,0,32.23,34.155l.918-.862A23.482,23.482,0,0,0,199.712,159.974Z" transform="translate(-158.115 -152.547)" fill="url(#linear-gradient)"/>
      </g>
    </g>
    <g id="Group_125" data-name="Group 125" transform="translate(277.073 277.073)">
      <g id="Group_124" data-name="Group 124">
        <path id="Path_181" data-name="Path 181" d="M442.034,118A324.966,324.966,0,0,0,293.6,153.928a23.481,23.481,0,1,0,21.541,41.73,273.982,273.982,0,0,1,126.9-30.7c152.777,0,277.073,124.295,277.073,277.072s-124.3,277.073-277.073,277.073-277.072-124.3-277.072-277.073a277.075,277.075,0,0,1,35.956-136.606,23.481,23.481,0,0,0-40.838-23.19A324.132,324.132,0,0,0,118,442.034c0,178.672,145.362,324.034,324.034,324.034S766.068,620.706,766.068,442.034,620.706,118,442.034,118Z" transform="translate(-118 -118)" fill="url(#linear-gradient)"/>
      </g>
    </g>
    <g id="Group_127" data-name="Group 127" transform="translate(389.78 389.78)">
      <g id="Group_126" data-name="Group 126">
        <path id="Path_182" data-name="Path 182" d="M377.326,166C260.8,166,166,260.8,166,377.326s94.8,211.327,211.326,211.327,211.327-94.8,211.327-211.327S493.852,166,377.326,166Zm0,375.691c-90.631,0-164.365-73.734-164.365-164.365S286.7,212.961,377.326,212.961,541.691,286.7,541.691,377.326,467.957,541.691,377.326,541.691Z" transform="translate(-166 -166)" fill="url(#linear-gradient)"/>
      </g>
    </g>
    <g id="Group_129" data-name="Group 129" transform="translate(820.064 203.695)">
      <g id="Group_128" data-name="Group 128">
        <path id="Path_183" data-name="Path 183" d="M438.477,86.75A89.227,89.227,0,1,0,527.7,175.977,89.328,89.328,0,0,0,438.477,86.75Zm0,131.492a42.265,42.265,0,1,1,42.265-42.265A42.314,42.314,0,0,1,438.477,218.242Z" transform="translate(-349.25 -86.75)" fill="url(#linear-gradient)"/>
      </g>
    </g>
  </g>
</svg>
