<?xml version="1.0" encoding="utf-8"?>
<!-- Generator: Adobe Illustrator 16.0.0, SVG Export Plug-In . SVG Version: 6.00 Build 0)  -->
<!DOCTYPE svg PUBLIC "-//W3C//DTD SVG 1.1//EN" "http://www.w3.org/Graphics/SVG/1.1/DTD/svg11.dtd">
<svg version="1.1" id="Capa_1" xmlns="http://www.w3.org/2000/svg" xmlns:xlink="http://www.w3.org/1999/xlink" x="0px" y="0px"
	 width="595.279px" height="595.279px" viewBox="0 0 595.279 595.279" enable-background="new 0 0 595.279 595.279"
	 xml:space="preserve">
<g>
	<g>
		<path fill="#FFFFFF" d="M420.881,0H174.399C78.236,0,0,78.236,0,174.399v246.483C0,517.045,78.236,595.28,174.399,595.28h246.482
			c96.164,0,174.398-78.234,174.398-174.397V174.399C595.28,78.236,517.045,0,420.881,0z M572.027,420.882
			c0,83.341-67.804,151.145-151.146,151.145H174.399c-83.342,0-151.146-67.804-151.146-151.145V174.399
			c0-83.342,67.804-151.146,151.146-151.146h246.482c83.342,0,151.146,67.804,151.146,151.146V420.882z"/>
	</g>
</g>
<g>
	<g>
		<path fill="#FFFFFF" d="M420.881,51.156H174.399c-67.956,0-123.242,55.286-123.242,123.242v246.483
			c0,67.956,55.286,123.241,123.242,123.241h70.922c6.421,0,11.627-5.205,11.627-11.627c0-6.421-5.206-11.626-11.627-11.626h-70.922
			c-55.134,0-99.988-44.855-99.988-99.988V174.399c0-55.134,44.854-99.988,99.988-99.988h246.482
			c55.134,0,99.989,44.854,99.989,99.988v246.483c0,55.133-44.855,99.988-99.989,99.988h-70.146
			c-6.421,0-11.626,5.205-11.626,11.626c0,6.422,5.205,11.627,11.626,11.627h70.146c67.957,0,123.242-55.285,123.242-123.241
			V174.399C544.123,106.443,488.838,51.156,420.881,51.156z"/>
	</g>
</g>
<g>
	<g>
		<path fill="#FFFFFF" d="M305.86,524.277c-2.162-2.162-5.162-3.406-8.22-3.406s-6.058,1.244-8.22,3.406s-3.406,5.162-3.406,8.22
			s1.244,6.058,3.406,8.221c2.162,2.162,5.162,3.406,8.22,3.406s6.058-1.244,8.22-3.406c2.163-2.163,3.407-5.163,3.407-8.221
			S308.023,526.439,305.86,524.277z"/>
	</g>
</g>
<g>
	<g>
		<path fill="#FFFFFF" d="M204.43,181.037c-4.392-4.686-11.747-4.925-16.435-0.536l-0.515,0.485
			c-4.67,4.406-4.885,11.765-0.477,16.435c2.287,2.425,5.369,3.647,8.458,3.647c2.862,0,5.73-1.051,7.978-3.171l0.454-0.427
			C208.579,193.081,208.821,185.723,204.43,181.037z"/>
	</g>
</g>
<g>
	<g>
		<path fill="#FFFFFF" d="M297.64,137.194c-25.536,0-50.952,6.151-73.499,17.79c-5.705,2.944-7.943,9.958-4.999,15.664
			c2.946,5.705,9.96,7.942,15.665,4.998c19.538-10.086,40.679-15.199,62.833-15.199c75.648,0,137.193,61.545,137.193,137.193
			S373.288,434.833,297.64,434.833S160.447,373.288,160.447,297.64c0-23.74,6.156-47.131,17.804-67.641
			c3.171-5.583,1.215-12.68-4.369-15.852c-5.584-3.17-12.68-1.215-15.852,4.369c-13.631,24.004-20.836,51.365-20.836,79.123
			c0,88.471,71.977,160.446,160.446,160.446s160.446-71.976,160.446-160.446C458.086,209.17,386.11,137.194,297.64,137.194z"/>
	</g>
</g>
<g>
	<g>
		<path fill="#FFFFFF" d="M297.64,193.001c-57.698,0-104.639,46.94-104.639,104.639s46.94,104.64,104.639,104.64
			s104.639-46.941,104.639-104.64S355.338,193.001,297.64,193.001z M297.64,379.026c-44.876,0-81.386-36.51-81.386-81.386
			s36.51-81.386,81.386-81.386s81.386,36.51,81.386,81.386S342.516,379.026,297.64,379.026z"/>
	</g>
</g>
<g>
	<g>
		<path fill="#FFFFFF" d="M450.239,100.861c-24.361,0-44.181,19.819-44.181,44.181s19.819,44.181,44.181,44.181
			s44.181-19.819,44.181-44.181S474.6,100.861,450.239,100.861z M450.239,165.969c-11.539,0-20.928-9.389-20.928-20.928
			s9.389-20.928,20.928-20.928s20.928,9.389,20.928,20.928S461.778,165.969,450.239,165.969z"/>
	</g>
</g>
</svg>
