<svg id="instagram" xmlns="http://www.w3.org/2000/svg" width="36.952" height="36.952" viewBox="0 0 36.952 36.952">
  <g id="Group_117" data-name="Group 117">
    <g id="Group_116" data-name="Group 116">
      <path id="Path_177" data-name="Path 177" d="M26.126,0h-15.3A10.838,10.838,0,0,0,0,10.826v15.3A10.838,10.838,0,0,0,10.826,36.952h15.3A10.838,10.838,0,0,0,36.952,26.126v-15.3A10.838,10.838,0,0,0,26.126,0Zm9.382,26.126a9.393,9.393,0,0,1-9.382,9.382h-15.3a9.393,9.393,0,0,1-9.382-9.382v-15.3a9.393,9.393,0,0,1,9.382-9.382h15.3a9.393,9.393,0,0,1,9.382,9.382Z" fill="#fff"/>
    </g>
  </g>
  <g id="Group_119" data-name="Group 119" transform="translate(3.176 3.176)">
    <g id="Group_118" data-name="Group 118">
      <path id="Path_178" data-name="Path 178" d="M66.951,44H51.65A7.659,7.659,0,0,0,44,51.65v15.3a7.659,7.659,0,0,0,7.65,7.65h4.4a.722.722,0,0,0,0-1.443h-4.4a6.214,6.214,0,0,1-6.207-6.207V51.65a6.214,6.214,0,0,1,6.207-6.207h15.3a6.214,6.214,0,0,1,6.207,6.207v15.3a6.214,6.214,0,0,1-6.207,6.207H62.6a.722.722,0,1,0,0,1.443h4.354a7.659,7.659,0,0,0,7.65-7.65V51.65A7.659,7.659,0,0,0,66.951,44Z" transform="translate(-44 -44)" fill="#fff"/>
    </g>
  </g>
  <g id="Group_121" data-name="Group 121" transform="translate(17.754 32.333)">
    <g id="Group_120" data-name="Group 120">
      <path id="Path_179" data-name="Path 179" d="M247.232,448.211a.721.721,0,1,0,.211.51A.727.727,0,0,0,247.232,448.211Z" transform="translate(-246 -448)" fill="#fff"/>
    </g>
  </g>
  <g id="Group_123" data-name="Group 123" transform="translate(11.411 11.01)">
    <g id="Group_122" data-name="Group 122">
      <path id="Path_180" data-name="Path 180" d="M159.393,152.776a.722.722,0,0,0-1.02-.033l-.032.03a.722.722,0,1,0,.991,1.05l.028-.026A.722.722,0,0,0,159.393,152.776Z" transform="translate(-158.115 -152.547)" fill="#fff"/>
    </g>
  </g>
  <g id="Group_125" data-name="Group 125" transform="translate(8.516 8.516)">
    <g id="Group_124" data-name="Group 124">
      <path id="Path_181" data-name="Path 181" d="M127.96,118a9.988,9.988,0,0,0-4.562,1.1.722.722,0,1,0,.662,1.283,8.421,8.421,0,0,1,3.9-.943,8.512,8.512,0,1,1-7.411,4.317.722.722,0,0,0-1.255-.713A9.961,9.961,0,1,0,127.96,118Z" transform="translate(-118 -118)" fill="#fff"/>
    </g>
  </g>
  <g id="Group_127" data-name="Group 127" transform="translate(11.98 11.98)">
    <g id="Group_126" data-name="Group 126">
      <path id="Path_182" data-name="Path 182" d="M172.5,166a6.5,6.5,0,1,0,6.5,6.5A6.5,6.5,0,0,0,172.5,166Zm0,11.547a5.052,5.052,0,1,1,5.052-5.052A5.058,5.058,0,0,1,172.5,177.547Z" transform="translate(-166 -166)" fill="#fff"/>
    </g>
  </g>
  <g id="Group_129" data-name="Group 129" transform="translate(25.206 6.261)">
    <g id="Group_128" data-name="Group 128">
      <path id="Path_183" data-name="Path 183" d="M351.993,86.75a2.743,2.743,0,1,0,2.742,2.743A2.746,2.746,0,0,0,351.993,86.75Zm0,4.042a1.3,1.3,0,1,1,1.3-1.3A1.3,1.3,0,0,1,351.993,90.792Z" transform="translate(-349.25 -86.75)" fill="#fff"/>
    </g>
  </g>
</svg>
