<svg id="like" xmlns="http://www.w3.org/2000/svg" width="51.351" height="47.243" viewBox="0 0 51.351 47.243">
  <path id="Path_315" data-name="Path 315" d="M25.522,10.346A13.43,13.43,0,0,1,37.836,2C45.254,2,50.6,8.347,51.268,15.91a13.842,13.842,0,0,1-.435,5.257,23.245,23.245,0,0,1-7.084,11.814L25.522,49.243,7.6,32.98A23.241,23.241,0,0,1,.518,21.166a13.842,13.842,0,0,1-.435-5.257C.754,8.346,6.1,2,13.515,2A13.014,13.014,0,0,1,25.522,10.346Z" transform="translate(0 -2)" fill="#c03a2b"/>
  <path id="Path_316" data-name="Path 316" d="M6.027,18.375A1.026,1.026,0,0,1,5,17.348,10.282,10.282,0,0,1,15.27,7.078a1.027,1.027,0,1,1,0,2.054,8.226,8.226,0,0,0-8.216,8.216A1.026,1.026,0,0,1,6.027,18.375Z" transform="translate(0.135 -1.863)" fill="#ed7161"/>
</svg>
