<?xml version="1.0" encoding="UTF-8" standalone="no"?>
<!DOCTYPE svg PUBLIC "-//W3C//DTD SVG 1.1//EN" "http://www.w3.org/Graphics/SVG/1.1/DTD/svg11.dtd">
<svg width="100%" height="100%" viewBox="0 0 1427 952" version="1.1" xmlns="http://www.w3.org/2000/svg" xmlns:xlink="http://www.w3.org/1999/xlink" xml:space="preserve" xmlns:serif="http://www.serif.com/" style="fill-rule:evenodd;clip-rule:evenodd;stroke-linejoin:round;stroke-miterlimit:2;">
    <g transform="matrix(1.41499,0,0,1.41499,-247.833,-80.9091)">
        <g transform="matrix(708.206,0,0,708.206,146.819,641.449)">
            <path d="M0.04,-0.7L0.118,-0.7L0.118,-0.071L0.318,-0.071L0.318,0L0.04,0L0.04,-0.7Z" style="fill:rgb(231,231,231);fill-opacity:0.25;fill-rule:nonzero;"/>
        </g>
        <g transform="matrix(708.206,0,0,708.206,385.485,641.449)">
            <path d="M0.034,-0.531C0.034,-0.586 0.048,-0.629 0.075,-0.66C0.101,-0.691 0.141,-0.707 0.194,-0.707C0.247,-0.707 0.287,-0.691 0.314,-0.66C0.341,-0.629 0.355,-0.586 0.355,-0.531L0.355,-0.169C0.355,-0.114 0.341,-0.071 0.314,-0.04C0.287,-0.009 0.247,0.007 0.194,0.007C0.142,0.007 0.102,-0.009 0.075,-0.04C0.048,-0.071 0.034,-0.114 0.034,-0.169L0.034,-0.531ZM0.111,-0.165C0.111,-0.132 0.118,-0.107 0.132,-0.09C0.146,-0.073 0.167,-0.064 0.194,-0.064C0.249,-0.064 0.277,-0.098 0.277,-0.165L0.277,-0.535C0.277,-0.567 0.27,-0.592 0.257,-0.61C0.243,-0.627 0.222,-0.636 0.194,-0.636C0.167,-0.636 0.146,-0.627 0.132,-0.61C0.118,-0.592 0.111,-0.567 0.111,-0.535L0.111,-0.165Z" style="fill:rgb(231,231,231);fill-opacity:0.25;fill-rule:nonzero;"/>
        </g>
        <g transform="matrix(708.206,0,0,708.206,660.977,641.449)">
            <path d="M0.191,-0.707C0.244,-0.707 0.283,-0.691 0.31,-0.66C0.336,-0.629 0.349,-0.586 0.349,-0.531L0.349,-0.471L0.275,-0.471L0.275,-0.535C0.275,-0.602 0.248,-0.636 0.193,-0.636C0.166,-0.636 0.145,-0.627 0.132,-0.61C0.118,-0.592 0.111,-0.567 0.111,-0.535L0.111,-0.165C0.111,-0.133 0.118,-0.108 0.132,-0.091C0.145,-0.073 0.166,-0.064 0.193,-0.064C0.248,-0.064 0.275,-0.098 0.275,-0.165L0.275,-0.305L0.203,-0.305L0.203,-0.375L0.349,-0.375L0.349,-0.169C0.349,-0.114 0.336,-0.071 0.31,-0.04C0.283,-0.009 0.244,0.007 0.191,0.007C0.139,0.007 0.1,-0.009 0.074,-0.04C0.047,-0.071 0.034,-0.114 0.034,-0.169L0.034,-0.531C0.034,-0.586 0.047,-0.629 0.074,-0.66C0.1,-0.691 0.139,-0.707 0.191,-0.707Z" style="fill:rgb(231,231,231);fill-opacity:0.25;fill-rule:nonzero;"/>
        </g>
        <g transform="matrix(708.206,0,0,708.206,932.22,641.449)">
            <path d="M0.034,-0.531C0.034,-0.586 0.048,-0.629 0.075,-0.66C0.101,-0.691 0.141,-0.707 0.194,-0.707C0.247,-0.707 0.287,-0.691 0.314,-0.66C0.341,-0.629 0.355,-0.586 0.355,-0.531L0.355,-0.169C0.355,-0.114 0.341,-0.071 0.314,-0.04C0.287,-0.009 0.247,0.007 0.194,0.007C0.142,0.007 0.102,-0.009 0.075,-0.04C0.048,-0.071 0.034,-0.114 0.034,-0.169L0.034,-0.531ZM0.111,-0.165C0.111,-0.132 0.118,-0.107 0.132,-0.09C0.146,-0.073 0.167,-0.064 0.194,-0.064C0.249,-0.064 0.277,-0.098 0.277,-0.165L0.277,-0.535C0.277,-0.567 0.27,-0.592 0.257,-0.61C0.243,-0.627 0.222,-0.636 0.194,-0.636C0.167,-0.636 0.146,-0.627 0.132,-0.61C0.118,-0.592 0.111,-0.567 0.111,-0.535L0.111,-0.165Z" style="fill:rgb(231,231,231);fill-opacity:0.25;fill-rule:nonzero;"/>
        </g>
    </g>
</svg>
