<?xml version="1.0" encoding="UTF-8" standalone="no"?>
<!DOCTYPE svg PUBLIC "-//W3C//DTD SVG 1.1//EN" "http://www.w3.org/Graphics/SVG/1.1/DTD/svg11.dtd">
<svg width="100%" height="100%" viewBox="0 0 1349 2047" version="1.1" xmlns="http://www.w3.org/2000/svg" xmlns:xlink="http://www.w3.org/1999/xlink" xml:space="preserve" xmlns:serif="http://www.serif.com/" style="fill-rule:evenodd;clip-rule:evenodd;stroke-linejoin:round;stroke-miterlimit:2;">
    <g transform="matrix(1,0,0,1,-3796.49,-15039.8)">
        <g transform="matrix(4.16667,0,0,4.16667,3590,14648.8)">
            <g transform="matrix(1,0,0,1,306.696,158.776)">
                <path d="M0,191.387C-25.56,216.962 -59.54,231.031 -95.691,231.031C-131.845,231.031 -165.831,216.962 -191.398,191.387C-216.954,165.826 -231.035,131.847 -231.035,95.695C-231.035,59.541 -216.954,25.547 -191.398,-0.013C-165.831,-25.561 -131.845,-39.649 -95.691,-39.649C-59.54,-39.649 -25.56,-25.561 0,-0.013C25.562,25.547 39.647,59.541 39.647,95.695C39.647,131.847 25.562,165.826 0,191.387M62.104,102.907C66.935,98.35 66.963,93.072 62.168,88.551C56.025,82.74 55.377,76.731 60.17,69.86C63.95,64.451 62.811,59.172 57.153,55.826C50.226,51.729 48.162,45.446 51.334,38.126C53.98,32.041 51.733,27.042 45.382,24.85C37.793,22.248 34.549,16.539 36.209,8.68C37.503,2.561 34.204,-2.151 28.068,-2.937C19.27,-4.056 15.459,-8.31 15.261,-17.196C15.121,-23.342 10.49,-27.453 4.453,-26.373C-2.721,-25.09 -9.368,-30.375 -10.584,-37.006C-11.867,-43.992 -16.633,-46.635 -23.438,-44.484C-30.548,-42.231 -36.82,-44.982 -39.906,-51.709C-42.919,-58.271 -47.92,-59.856 -54.321,-56.298C-60.698,-52.747 -67.355,-54.134 -71.692,-59.951C-76.186,-66.002 -81.184,-66.521 -86.869,-61.522C-92.233,-56.803 -99.011,-56.762 -104.437,-61.413C-110.49,-66.603 -115.107,-66.077 -119.965,-59.617C-124.012,-54.263 -130.86,-52.808 -136.728,-56.059C-143.714,-59.91 -148.316,-58.456 -151.658,-51.327C-154.522,-45.221 -160.881,-42.34 -167.286,-44.245C-175.222,-46.615 -179.189,-44.333 -181.013,-36.344C-182.562,-29.577 -188.812,-25.349 -195.716,-26.373C-202.148,-27.33 -206.721,-23.212 -206.646,-16.492C-206.563,-8.96 -211.275,-3.695 -218.757,-2.977C-225.51,-2.342 -228.867,2.124 -227.61,8.795C-226.086,16.826 -229.22,22.255 -236.903,24.906C-243.152,27.049 -245.365,31.952 -242.814,37.976C-239.536,45.693 -241.449,51.565 -248.619,55.854C-254.167,59.166 -255.319,64.636 -251.572,69.908C-246.807,76.608 -247.407,82.808 -253.376,88.367C-258.421,93.084 -258.396,98.358 -253.28,103.111C-247.465,108.505 -246.832,114.897 -251.478,121.364C-255.353,126.757 -254.212,132.221 -248.508,135.616C-241.507,139.768 -239.544,145.784 -242.75,153.276C-245.399,159.449 -243.208,164.339 -236.783,166.537C-229.273,169.112 -226.076,174.636 -227.585,182.442C-228.914,189.27 -225.557,193.743 -218.634,194.366C-211.411,195.014 -206.561,200.421 -206.653,207.723C-206.731,214.373 -202.377,218.56 -196.142,217.836C-188.029,216.894 -182.758,220.642 -180.873,228.673C-179.33,235.256 -174.661,237.948 -168.25,235.947C-160.611,233.576 -154.596,236.28 -151.264,243.595C-148.646,249.346 -143.28,251.147 -137.813,248.102C-130.284,243.936 -124.437,245.158 -119.253,252.041C-117.062,254.951 -114.233,256.829 -110.6,256.016C-108.451,255.538 -106.307,254.248 -104.57,252.821C-99.121,248.354 -92.438,248.156 -87.18,252.63C-80.847,257.99 -76.526,257.539 -71.421,250.983C-67.242,245.623 -60.568,244.216 -54.646,247.465C-47.645,251.298 -43.127,249.843 -39.729,242.672C-36.851,236.588 -30.474,233.726 -24.061,235.659C-16.183,238.035 -12.4,235.817 -10.417,227.67C-8.746,220.881 -2.642,216.772 4.35,217.775C10.575,218.655 15.141,214.736 15.261,208.398C15.412,199.807 19.471,195.307 27.966,194.325C34.111,193.613 37.519,188.861 36.235,182.795C34.528,174.772 37.688,169.261 45.559,166.476C51.733,164.283 53.954,159.299 51.378,153.336C48.183,145.942 50.19,139.685 57.074,135.616C62.772,132.243 63.95,126.997 60.227,121.603C55.418,114.617 56.022,108.628 62.104,102.907" style="fill:rgb(13,35,59);"/>
            </g>
        </g>
        <g transform="matrix(4.16667,0,0,4.16667,3590,14648.8)">
            <g transform="matrix(1,0,0,1,292.34,186.671)">
                <path d="M0,135.603C-6.153,132.284 -10.021,134.878 -13.607,140.035C-27.087,159.394 -45.785,171.367 -68.237,177.861C-70.672,178.571 -73.065,179.533 -75.329,180.688C-77.579,181.834 -79.646,183.357 -80.97,184.197C-81.093,184.143 -81.216,184.087 -81.335,184.027C-81.458,184.087 -81.585,184.143 -81.708,184.197C-83.035,183.357 -85.092,181.834 -87.35,180.688C-89.606,179.533 -92.003,178.571 -94.438,177.861C-116.889,171.367 -135.596,159.394 -149.069,140.035C-152.66,134.878 -156.526,132.284 -162.68,135.603C-172.256,118.995 -182.374,102.988 -173.216,82.037C-160.736,95.66 -147.529,106.886 -131.094,113.819C-140.14,126.534 -132.86,140.78 -116.243,144.009C-116.243,125.182 -115.935,106.368 -116.372,87.576C-116.586,77.83 -114.351,69.151 -108.635,61.378C-102.413,52.925 -97.812,44.061 -100.739,32.234L-159.685,32.234C-153.537,22.297 -145.375,16.582 -136.879,11.33C-129.685,6.898 -128.448,7.669 -128.206,16.527C-119.694,16.527 -111.145,16.371 -102.607,16.602C-99.023,16.698 -97.797,15.326 -97.604,11.924C-96.93,0.622 -96.022,-10.666 -95.295,-21.968C-95.185,-23.545 -94.963,-25.704 -95.827,-26.667C-99.17,-30.347 -97.852,-34.028 -96.698,-37.934C-96.228,-39.545 -95.817,-41.485 -96.28,-43.008C-97.442,-46.812 -95.567,-48.43 -92.405,-48.505C-88.8,-48.581 -85.191,-48.614 -81.577,-48.601L-81.101,-48.601C-77.486,-48.614 -73.878,-48.581 -70.272,-48.505C-67.113,-48.43 -65.236,-46.812 -66.391,-43.008C-66.861,-41.485 -66.449,-39.545 -65.971,-37.934C-64.821,-34.028 -63.508,-30.347 -66.849,-26.667C-67.712,-25.704 -67.487,-23.545 -67.385,-21.968C-66.657,-10.666 -65.757,0.622 -65.079,11.924C-64.875,15.326 -63.649,16.698 -60.07,16.602C-51.532,16.371 -42.988,16.527 -34.466,16.527C-34.23,7.669 -32.996,6.898 -25.798,11.33C-17.301,16.582 -9.137,22.297 -2.988,32.234L-61.938,32.234C-64.865,44.061 -60.265,52.925 -54.042,61.378C-48.324,69.151 -46.092,77.83 -46.317,87.576C-46.74,106.368 -46.437,125.182 -46.437,144.009C-29.825,140.78 -22.538,126.534 -31.576,113.819C-15.153,106.886 -1.937,95.66 10.53,82.037C19.697,102.988 9.57,118.995 0,135.603M-81.335,-65.783C-154.999,-65.783 -214.929,-5.865 -214.929,67.799C-214.929,141.448 -154.999,201.386 -81.335,201.386C-7.679,201.386 52.248,141.448 52.248,67.799C52.248,-5.865 -7.679,-65.783 -81.335,-65.783" style="fill:rgb(13,35,59);"/>
            </g>
        </g>
        <g transform="matrix(4.16667,0,0,4.16667,3590,14648.8)">
            <g transform="matrix(1,0,0,1,57.4541,488.589)">
                <path d="M0,-30.396L0,0L3.77,0C5.897,0 7.174,-1.095 7.174,-4.134L7.174,-26.262C7.174,-29.302 5.897,-30.396 3.77,-30.396L0,-30.396ZM-6.687,-36.475L3.891,-36.475C10.578,-36.475 13.861,-32.767 13.861,-25.959L13.861,-4.438C13.861,2.371 10.578,6.079 3.891,6.079L-6.687,6.079L-6.687,-36.475Z" style="fill:rgb(13,35,59);fill-rule:nonzero;"/>
            </g>
        </g>
        <g transform="matrix(4.16667,0,0,4.16667,3590,14648.8)">
            <g transform="matrix(1,0,0,1,81.708,461.901)">
                <path d="M0,22.98C0,26.019 1.338,27.174 3.465,27.174C5.593,27.174 6.931,26.019 6.931,22.98L6.931,0.001C6.931,-3.039 5.593,-4.194 3.465,-4.194C1.338,-4.194 0,-3.039 0,0.001L0,22.98ZM-6.687,0.426C-6.687,-6.382 -3.1,-10.273 3.465,-10.273C10.031,-10.273 13.617,-6.382 13.617,0.426L13.617,22.554C13.617,29.363 10.031,33.253 3.465,33.253C-3.1,33.253 -6.687,29.363 -6.687,22.554L-6.687,0.426Z" style="fill:rgb(13,35,59);fill-rule:nonzero;"/>
            </g>
        </g>
        <g transform="matrix(4.16667,0,0,4.16667,3590,14648.8)">
            <g transform="matrix(1,0,0,1,106.327,471.264)">
                <path d="M0,4.255L0,17.325L3.829,17.325C6.078,17.325 7.295,16.292 7.295,13.131L7.295,9.422C7.295,5.471 6.018,4.255 2.979,4.255L0,4.255ZM0,-13.07L0,-1.824L2.613,-1.824C5.105,-1.824 6.626,-2.918 6.626,-6.322L6.626,-8.693C6.626,-11.732 5.592,-13.07 3.222,-13.07L0,-13.07ZM13.313,-9.362L13.313,-7.842C13.313,-3.465 11.976,-0.669 8.996,0.73C12.583,2.127 13.981,5.35 13.981,9.848L13.981,13.313C13.981,19.879 10.517,23.404 3.829,23.404L-6.687,23.404L-6.687,-19.149L3.404,-19.149C10.334,-19.149 13.313,-15.928 13.313,-9.362" style="fill:rgb(13,35,59);fill-rule:nonzero;"/>
            </g>
        </g>
        <g transform="matrix(4.16667,0,0,4.16667,3590,14648.8)">
            <g transform="matrix(1,0,0,1,131.007,488.589)">
                <path d="M0,-30.396L0,-17.326L2.613,-17.326C5.105,-17.326 6.626,-18.42 6.626,-21.825L6.626,-26.019C6.626,-29.058 5.592,-30.396 3.222,-30.396L0,-30.396ZM7.295,6.079C6.93,4.985 6.687,4.316 6.687,0.85L6.687,-5.836C6.687,-9.788 5.35,-11.247 2.31,-11.247L0,-11.247L0,6.079L-6.687,6.079L-6.687,-36.475L3.404,-36.475C10.334,-36.475 13.313,-33.253 13.313,-26.688L13.313,-23.344C13.313,-18.967 11.914,-16.11 8.936,-14.712C12.279,-13.314 13.373,-10.091 13.373,-5.654L13.373,0.912C13.373,2.978 13.435,4.499 14.104,6.079L7.295,6.079Z" style="fill:rgb(13,35,59);fill-rule:nonzero;"/>
            </g>
        </g>
        <g transform="matrix(4.16667,0,0,4.16667,3590,14648.8)">
            <g transform="matrix(1,0,0,1,155.138,465.61)">
                <path d="M0,15.562L6.444,15.562L3.223,-5.958L0,15.562ZM15.259,29.058L8.511,29.058L7.355,21.337L-0.851,21.337L-2.006,29.058L-8.146,29.058L-1.337,-13.496L8.45,-13.496L15.259,29.058Z" style="fill:rgb(13,35,59);fill-rule:nonzero;"/>
            </g>
        </g>
        <g transform="matrix(4.16667,0,0,4.16667,3590,14648.8)">
            <g transform="matrix(1,0,0,1,189.604,488.589)">
                <path d="M0,-30.396L0,-15.989L3.16,-15.989C5.288,-15.989 6.443,-16.961 6.443,-20L6.443,-26.384C6.443,-29.423 5.288,-30.396 3.16,-30.396L0,-30.396ZM13.131,-25.959L13.131,-20.426C13.131,-13.618 9.848,-9.91 3.16,-9.91L0,-9.91L0,6.079L-6.687,6.079L-6.687,-36.475L3.16,-36.475C9.848,-36.475 13.131,-32.767 13.131,-25.959" style="fill:rgb(13,35,59);fill-rule:nonzero;"/>
            </g>
        </g>
        <g transform="matrix(4.16667,0,0,4.16667,3590,14648.8)">
            <g transform="matrix(1,0,0,1,212.825,488.589)">
                <path d="M0,-30.396L0,-17.326L2.613,-17.326C5.105,-17.326 6.626,-18.42 6.626,-21.825L6.626,-26.019C6.626,-29.058 5.592,-30.396 3.222,-30.396L0,-30.396ZM7.295,6.079C6.93,4.985 6.687,4.316 6.687,0.85L6.687,-5.836C6.687,-9.788 5.35,-11.247 2.31,-11.247L0,-11.247L0,6.079L-6.687,6.079L-6.687,-36.475L3.404,-36.475C10.334,-36.475 13.313,-33.253 13.313,-26.688L13.313,-23.344C13.313,-18.967 11.914,-16.11 8.936,-14.712C12.279,-13.314 13.373,-10.091 13.373,-5.654L13.373,0.912C13.373,2.978 13.435,4.499 14.104,6.079L7.295,6.079Z" style="fill:rgb(13,35,59);fill-rule:nonzero;"/>
            </g>
        </g>
        <g transform="matrix(4.16667,0,0,4.16667,3590,14648.8)">
            <g transform="matrix(1,0,0,1,236.956,465.61)">
                <path d="M0,15.562L6.444,15.562L3.223,-5.958L0,15.562ZM15.259,29.058L8.511,29.058L7.355,21.337L-0.851,21.337L-2.006,29.058L-8.146,29.058L-1.337,-13.496L8.45,-13.496L15.259,29.058Z" style="fill:rgb(13,35,59);fill-rule:nonzero;"/>
            </g>
        </g>
        <g transform="matrix(4.16667,0,0,4.16667,3590,14648.8)">
            <g transform="matrix(1,0,0,1,264.067,469.075)">
                <path d="M0,8.632L-2.066,12.523L-2.066,25.593L-8.754,25.593L-8.754,-16.961L-2.066,-16.961L-2.066,1.58L6.687,-16.961L13.374,-16.961L4.073,2.006L13.374,25.593L6.505,25.593L0,8.632Z" style="fill:rgb(13,35,59);fill-rule:nonzero;"/>
            </g>
        </g>
        <g transform="matrix(4.16667,0,0,4.16667,3590,14648.8)">
            <g transform="matrix(1,0,0,1,278.533,494.668)">
                <path d="M0,-42.554L20.669,-42.554L20.669,-36.475L13.678,-36.475L13.678,0L6.991,0L6.991,-36.475L0,-36.475L0,-42.554Z" style="fill:rgb(13,35,59);fill-rule:nonzero;"/>
            </g>
        </g>
        <g transform="matrix(4.16667,0,0,4.16667,3590,14648.8)">
            <g transform="matrix(1,0,0,1,308.38,466.219)">
                <path d="M0,14.346L-8.45,-14.104L-1.459,-14.104L3.647,5.288L8.754,-14.104L15.137,-14.104L6.687,14.346L6.687,28.45L0,28.45L0,14.346Z" style="fill:rgb(13,35,59);fill-rule:nonzero;"/>
            </g>
        </g>
        <g transform="matrix(4.16667,0,0,4.16667,3590,14648.8)">
            <g transform="matrix(1,0,0,1,334.944,469.075)">
                <path d="M0,8.632L-2.066,12.523L-2.066,25.593L-8.754,25.593L-8.754,-16.961L-2.066,-16.961L-2.066,1.58L6.687,-16.961L13.374,-16.961L4.073,2.006L13.374,25.593L6.505,25.593L0,8.632Z" style="fill:rgb(13,35,59);fill-rule:nonzero;"/>
            </g>
        </g>
        <g transform="matrix(4.16667,0,0,4.16667,3590,14648.8)">
            <g transform="matrix(1,0,0,1,357.738,465.61)">
                <path d="M0,15.562L6.444,15.562L3.222,-5.958L0,15.562ZM15.259,29.058L8.511,29.058L7.356,21.337L-0.851,21.337L-2.006,29.058L-8.146,29.058L-1.337,-13.496L8.45,-13.496L15.259,29.058Z" style="fill:rgb(13,35,59);fill-rule:nonzero;"/>
            </g>
        </g>
        <g transform="matrix(4.16667,0,0,4.16667,3590,14648.8)">
            <g transform="matrix(1,0,0,1,0,395.263)">
                <path d="M69.752,119.718L60.721,119.718L60.721,110.688L69.752,110.688L69.752,119.718ZM80.193,123.199L80.193,132.418L60.533,179.641L80.193,179.641L80.193,189.049L49.904,189.049L49.904,179.83L69.564,132.606L50.844,132.606L50.844,123.199L80.193,123.199Z" style="fill:rgb(13,35,59);fill-rule:nonzero;"/>
            </g>
        </g>
        <g transform="matrix(4.16667,0,0,4.16667,3590,14648.8)">
            <g transform="matrix(1,0,0,1,96.6563,556.561)">
                <path d="M0,-10.348L14.205,-10.348L14.205,-0.941L0,-0.941L0,18.343L17.875,18.343L17.875,27.751L-10.348,27.751L-10.348,-38.099L17.875,-38.099L17.875,-28.692L0,-28.692L0,-10.348Z" style="fill:rgb(13,35,59);fill-rule:nonzero;"/>
            </g>
        </g>
        <g transform="matrix(4.16667,0,0,4.16667,3590,14648.8)">
            <g transform="matrix(1,0,0,1,136.449,555.15)">
                <path d="M0,-7.526L14.486,-7.526L14.486,13.358C14.486,23.894 9.219,29.914 -0.941,29.914C-11.1,29.914 -16.369,23.894 -16.369,13.358L-16.369,-20.884C-16.369,-31.42 -11.1,-37.44 -0.941,-37.44C9.219,-37.44 14.486,-31.42 14.486,-20.884L14.486,-14.487L4.703,-14.487L4.703,-21.543C4.703,-26.246 2.633,-28.033 -0.658,-28.033C-3.951,-28.033 -6.021,-26.246 -6.021,-21.543L-6.021,14.016C-6.021,18.72 -3.951,20.412 -0.658,20.412C2.633,20.412 4.703,18.72 4.703,14.016L4.703,1.881L0,1.881L0,-7.526Z" style="fill:rgb(13,35,59);fill-rule:nonzero;"/>
            </g>
        </g>
        <g transform="matrix(4.16667,0,0,4.16667,3590,14648.8)">
            <g transform="matrix(1,0,0,1,157.615,584.312)">
                <path d="M0,-65.85L10.348,-65.85L10.348,-9.408L27.375,-9.408L27.375,0L0,0L0,-65.85Z" style="fill:rgb(13,35,59);fill-rule:nonzero;"/>
            </g>
        </g>
        <g transform="matrix(4.16667,0,0,4.16667,3590,14648.8)">
            <g transform="matrix(1,0,0,1,199.383,539.346)">
                <path d="M0,24.082L9.971,24.082L4.984,-9.219L0,24.082ZM23.611,44.966L13.17,44.966L11.381,33.019L-1.318,33.019L-3.105,44.966L-12.605,44.966L-2.07,-20.884L13.074,-20.884L23.611,44.966Z" style="fill:rgb(13,35,59);fill-rule:nonzero;"/>
            </g>
        </g>
        <g transform="matrix(4.16667,0,0,4.16667,3590,14648.8)">
            <g transform="matrix(1,0,0,1,238.139,574.904)">
                <path d="M0,-47.035L0,-26.809L4.045,-26.809C7.902,-26.809 10.254,-28.503 10.254,-33.771L10.254,-40.262C10.254,-44.966 8.654,-47.035 4.986,-47.035L0,-47.035ZM11.289,9.407C10.725,7.714 10.348,6.679 10.348,1.318L10.348,-9.03C10.348,-15.145 8.279,-17.403 3.576,-17.403L0,-17.403L0,9.407L-10.348,9.407L-10.348,-56.442L5.27,-56.442C15.992,-56.442 20.602,-51.456 20.602,-41.297L20.602,-36.123C20.602,-29.349 18.439,-24.929 13.828,-22.764C19.004,-20.601 20.695,-15.615 20.695,-8.748L20.695,1.411C20.695,4.61 20.791,6.961 21.824,9.407L11.289,9.407Z" style="fill:rgb(13,35,59);fill-rule:nonzero;"/>
            </g>
        </g>
        <g transform="matrix(4.16667,0,0,4.16667,3590,14648.8)">
            <g transform="matrix(1,0,0,1,279.531,585.064)">
                <path d="M0,-67.354C10.064,-67.354 15.238,-61.333 15.238,-50.798L15.238,-48.728L5.455,-48.728L5.455,-51.457C5.455,-56.16 3.574,-57.947 0.281,-57.947C-3.012,-57.947 -4.893,-56.16 -4.893,-51.457C-4.893,-37.911 15.332,-35.371 15.332,-16.556C15.332,-6.02 10.064,0 -0.096,0C-10.254,0 -15.521,-6.02 -15.521,-16.556L-15.521,-20.601L-5.738,-20.601L-5.738,-15.898C-5.738,-11.194 -3.67,-9.501 -0.377,-9.501C2.916,-9.501 4.984,-11.194 4.984,-15.898C4.984,-29.444 -15.24,-31.984 -15.24,-50.798C-15.24,-61.333 -10.066,-67.354 0,-67.354" style="fill:rgb(13,35,59);fill-rule:nonzero;"/>
            </g>
        </g>
        <g transform="matrix(4.16667,0,0,4.16667,3590,14648.8)">
            <g transform="matrix(1,0,0,1,314.336,544.707)">
                <path d="M0,13.358L-3.197,19.379L-3.197,39.604L-13.545,39.604L-13.545,-26.246L-3.197,-26.246L-3.197,2.446L10.348,-26.246L20.697,-26.246L6.303,3.105L20.697,39.604L10.066,39.604L0,13.358Z" style="fill:rgb(13,35,59);fill-rule:nonzero;"/>
            </g>
        </g>
        <g transform="matrix(4.16667,0,0,4.16667,3590,14648.8)">
            <g transform="matrix(1,0,0,1,349.613,539.346)">
                <path d="M0,24.082L9.971,24.082L4.984,-9.219L0,24.082ZM23.611,44.966L13.17,44.966L11.381,33.019L-1.318,33.019L-3.105,44.966L-12.605,44.966L-2.07,-20.884L13.074,-20.884L23.611,44.966Z" style="fill:rgb(13,35,59);fill-rule:nonzero;"/>
            </g>
        </g>
    </g>
</svg>
