<svg xmlns="http://www.w3.org/2000/svg" width="251" height="88.362" viewBox="0 0 251 88.362">
  <g id="Group_286" data-name="Group 286" transform="translate(0 199.237)">
    <path id="Path_494" data-name="Path 494" d="M70.73-128.733a36.964,36.964,0,0,1-26.322,10.9,36.976,36.976,0,0,1-26.326-10.9,36.986,36.986,0,0,1-10.9-26.322,36.995,36.995,0,0,1,10.9-26.326,37.005,37.005,0,0,1,26.326-10.9,36.993,36.993,0,0,1,26.322,10.9,36.989,36.989,0,0,1,10.905,26.326A36.98,36.98,0,0,1,70.73-128.733m17.082-24.338a2.459,2.459,0,0,0,.018-3.949,3.516,3.516,0,0,1-.549-5.141,2.453,2.453,0,0,0-.83-3.86,3.549,3.549,0,0,1-1.6-4.869,2.486,2.486,0,0,0-1.637-3.652,3.527,3.527,0,0,1-2.523-4.448,2.489,2.489,0,0,0-2.239-3.2c-2.421-.308-3.469-1.478-3.523-3.922a2.458,2.458,0,0,0-2.972-2.525,3.651,3.651,0,0,1-4.136-2.924c-.353-1.922-1.664-2.649-3.536-2.057a3.521,3.521,0,0,1-4.529-1.987c-.829-1.805-2.2-2.241-3.965-1.262a3.508,3.508,0,0,1-4.778-1c-1.236-1.664-2.611-1.807-4.175-.432a3.5,3.5,0,0,1-4.832.03c-1.665-1.428-2.935-1.283-4.271.494a3.515,3.515,0,0,1-4.611.979c-1.922-1.06-3.188-.659-4.107,1.3a3.534,3.534,0,0,1-4.3,1.948c-2.182-.652-3.274-.024-3.776,2.173a3.548,3.548,0,0,1-4.044,2.743,2.5,2.5,0,0,0-3.006,2.718,3.491,3.491,0,0,1-3.331,3.717,2.5,2.5,0,0,0-2.435,3.238,3.524,3.524,0,0,1-2.557,4.431,2.459,2.459,0,0,0-1.626,3.6,3.512,3.512,0,0,1-1.6,4.918,2.48,2.48,0,0,0-.812,3.866,3.478,3.478,0,0,1-.5,5.077,2.486,2.486,0,0,0,.026,4.056,3.477,3.477,0,0,1,.5,5.021,2.491,2.491,0,0,0,.817,3.921,3.5,3.5,0,0,1,1.584,4.857A2.468,2.468,0,0,0,5.6-135.569a3.507,3.507,0,0,1,2.53,4.375,2.506,2.506,0,0,0,2.462,3.28,3.5,3.5,0,0,1,3.3,3.674,2.512,2.512,0,0,0,2.891,2.782,3.506,3.506,0,0,1,4.2,2.981,2.481,2.481,0,0,0,3.472,2,3.55,3.55,0,0,1,4.673,2.1,2.472,2.472,0,0,0,3.7,1.24c2.071-1.146,3.68-.809,5.106,1.084a2.291,2.291,0,0,0,2.38,1.093,4.2,4.2,0,0,0,1.659-.879,3.564,3.564,0,0,1,4.784-.053c1.742,1.475,2.93,1.351,4.334-.453a3.519,3.519,0,0,1,4.614-.967c1.927,1.054,3.169.654,4.1-1.319a3.537,3.537,0,0,1,4.31-1.929c2.166.654,3.207.043,3.753-2.2a3.557,3.557,0,0,1,4.061-2.722,2.5,2.5,0,0,0,3-2.579c.042-2.363,1.158-3.6,3.495-3.872A2.487,2.487,0,0,0,80.7-131.1a3.531,3.531,0,0,1,2.564-4.49,2.479,2.479,0,0,0,1.6-3.614,3.54,3.54,0,0,1,1.566-4.874,2.46,2.46,0,0,0,.867-3.855c-1.323-1.921-1.156-3.569.516-5.143" transform="translate(0)" fill="#fff" fill-rule="evenodd"/>
    <path id="Path_495" data-name="Path 495" d="M76.394-127.071c-1.692-.913-2.756-.2-3.743,1.219a26.62,26.62,0,0,1-15.027,10.4,11.259,11.259,0,0,0-1.951.777,17.655,17.655,0,0,0-1.551.965c-.034-.015-.068-.03-.1-.047-.034.017-.069.032-.1.047a17.392,17.392,0,0,0-1.551-.965,11.208,11.208,0,0,0-1.95-.777,26.615,26.615,0,0,1-15.027-10.4c-.988-1.418-2.051-2.132-3.744-1.219-2.634-4.568-5.417-8.972-2.9-14.734,3.433,3.748,7.065,6.836,11.586,8.742-2.488,3.5-.486,7.416,4.086,8.3,0-5.179.084-10.354-.036-15.523a11.273,11.273,0,0,1,2.128-7.205c1.711-2.325,2.977-4.764,2.171-8.017H32.471a17.646,17.646,0,0,1,6.273-5.75c1.979-1.219,2.319-1.007,2.386,1.429,2.342,0,4.693-.043,7.041.021.986.026,1.323-.351,1.377-1.287.185-3.109.435-6.213.635-9.322.03-.434.091-1.028-.147-1.292-.919-1.013-.557-2.025-.239-3.1a2.612,2.612,0,0,0,.115-1.4c-.319-1.046.2-1.492,1.066-1.512q1.488-.031,2.979-.026h.131q1.491-.005,2.979.026c.869.021,1.385.466,1.068,1.512a2.578,2.578,0,0,0,.116,1.4c.316,1.074.677,2.087-.241,3.1-.238.265-.176.859-.148,1.292.2,3.109.448,6.214.634,9.322.056.936.393,1.313,1.378,1.287,2.349-.064,4.7-.021,7.043-.021.065-2.436.4-2.649,2.384-1.429a17.653,17.653,0,0,1,6.274,5.75H59.357c-.8,3.253.46,5.691,2.172,8.017a11.251,11.251,0,0,1,2.124,7.205c-.116,5.169-.033,10.345-.033,15.523,4.569-.889,6.574-4.807,4.088-8.3,4.517-1.907,8.153-4.995,11.582-8.742,2.522,5.763-.264,10.166-2.9,14.734M54.021-182.465a36.786,36.786,0,0,0-36.747,36.743,36.79,36.79,0,0,0,36.747,36.745,36.789,36.789,0,0,0,36.744-36.745,36.785,36.785,0,0,0-36.744-36.743" transform="translate(-9.613 -9.333)" fill="#fff" fill-rule="evenodd"/>
    <path id="Path_496" data-name="Path 496" d="M231.377-148.707v14.127h1.752c.989,0,1.582-.509,1.582-1.921v-10.284c0-1.413-.593-1.921-1.582-1.921Zm-3.108-2.826h4.916c3.108,0,4.634,1.723,4.634,4.888v10c0,3.164-1.526,4.888-4.634,4.888h-4.916Z" transform="translate(-127.032 -26.547)" fill="#fff"/>
    <path id="Path_497" data-name="Path 497" d="M256.794-136.588c0,1.413.622,1.95,1.611,1.95s1.611-.537,1.611-1.95v-10.68c0-1.413-.622-1.95-1.611-1.95s-1.611.537-1.611,1.95Zm-3.108-10.482c0-3.164,1.667-4.973,4.718-4.973s4.718,1.808,4.718,4.973v10.284c0,3.164-1.667,4.973-4.718,4.973s-4.718-1.808-4.718-4.973Z" transform="translate(-141.176 -26.263)" fill="#fff"/>
    <path id="Path_498" data-name="Path 498" d="M282.594-140.656v6.075h1.78c1.045,0,1.611-.48,1.611-1.95v-1.723c0-1.837-.593-2.4-2.006-2.4Zm0-8.052v5.227h1.215c1.158,0,1.865-.508,1.865-2.09v-1.1c0-1.413-.481-2.034-1.582-2.034Zm6.188,1.723v.706c0,2.034-.622,3.334-2.006,3.984,1.667.65,2.317,2.147,2.317,4.238v1.61c0,3.052-1.611,4.69-4.718,4.69h-4.888v-19.777h4.69c3.221,0,4.606,1.5,4.606,4.549" transform="translate(-155.534 -26.547)" fill="#fff"/>
    <path id="Path_499" data-name="Path 499" d="M308.455-148.707v6.075h1.215c1.158,0,1.865-.509,1.865-2.091v-1.95c0-1.413-.481-2.034-1.582-2.034Zm3.391,16.952a6.093,6.093,0,0,1-.282-2.429v-3.108c0-1.837-.621-2.515-2.034-2.515h-1.074v8.052h-3.108v-19.777h4.69c3.221,0,4.6,1.5,4.6,4.549v1.554c0,2.034-.65,3.362-2.034,4.012,1.554.65,2.063,2.147,2.063,4.21v3.051a5.822,5.822,0,0,0,.339,2.4Z" transform="translate(-169.925 -26.547)" fill="#fff"/>
    <path id="Path_500" data-name="Path 500" d="M332.894-138.028h3l-1.5-10Zm7.092,6.272H336.85l-.537-3.588H332.5l-.537,3.588h-2.853l3.164-19.777h4.548Z" transform="translate(-183.149 -26.547)" fill="#fff"/>
    <path id="Path_501" data-name="Path 501" d="M369.863-148.707v6.7h1.469c.989,0,1.526-.452,1.526-1.864v-2.967c0-1.413-.537-1.865-1.526-1.865Zm6.1,2.062v2.571c0,3.164-1.527,4.888-4.634,4.888h-1.469v7.43h-3.108v-19.777h4.577c3.108,0,4.634,1.723,4.634,4.888" transform="translate(-204.099 -26.547)" fill="#fff"/>
    <path id="Path_502" data-name="Path 502" d="M394.2-148.707v6.075h1.215c1.158,0,1.865-.509,1.865-2.091v-1.95c0-1.413-.481-2.034-1.582-2.034Zm3.391,16.952a6.093,6.093,0,0,1-.282-2.429v-3.108c0-1.837-.621-2.515-2.034-2.515H394.2v8.052h-3.108v-19.777h4.69c3.221,0,4.6,1.5,4.6,4.549v1.554c0,2.034-.65,3.362-2.034,4.012,1.554.65,2.063,2.147,2.063,4.21v3.051a5.822,5.822,0,0,0,.339,2.4Z" transform="translate(-217.641 -26.547)" fill="#fff"/>
    <path id="Path_503" data-name="Path 503" d="M418.637-138.028h2.995l-1.5-10Zm7.092,6.272h-3.136l-.537-3.588h-3.814l-.537,3.588h-2.853l3.164-19.777h4.549Z" transform="translate(-230.864 -26.547)" fill="#fff"/>
    <path id="Path_504" data-name="Path 504" d="M446.693-139.638l-.961,1.808v6.075h-3.108v-19.777h3.108v8.617l4.069-8.617h3.108l-4.322,8.815,4.322,10.962h-3.193Z" transform="translate(-246.32 -26.547)" fill="#fff"/>
    <path id="Path_505" data-name="Path 505" d="M466.958-151.533h9.606v2.826h-3.249v16.952h-3.108v-16.952h-3.249Z" transform="translate(-259.862 -26.547)" fill="#fff"/>
    <path id="Path_506" data-name="Path 506" d="M493.31-138.31l-3.927-13.223h3.249l2.373,9.013,2.373-9.013h2.967l-3.927,13.223v6.555H493.31Z" transform="translate(-272.341 -26.547)" fill="#fff"/>
    <path id="Path_507" data-name="Path 507" d="M520.968-139.638l-.961,1.808v6.075H516.9v-19.777h3.108v8.617l4.069-8.617h3.108l-4.322,8.815,4.322,10.962h-3.193Z" transform="translate(-287.654 -26.547)" fill="#fff"/>
    <path id="Path_508" data-name="Path 508" d="M545.211-138.028h2.995l-1.5-10Zm7.092,6.272h-3.136l-.537-3.588h-3.814l-.537,3.588h-2.853l3.164-19.777h4.549Z" transform="translate(-301.303 -26.547)" fill="#fff"/>
    <path id="Path_509" data-name="Path 509" d="M233.147-95.714h-2.712v-2.712h2.712Zm3.136,1.045V-91.9l-5.9,14.183h5.9v2.825h-9.1V-77.66l5.905-14.183h-5.623v-2.825Z" transform="translate(-126.428 -56.101)" fill="#fff"/>
    <path id="Path_510" data-name="Path 510" d="M254.947-81.619h4.266v2.826h-4.266V-73h5.368v2.826h-8.476V-89.953h8.476v2.826h-5.368Z" transform="translate(-140.148 -60.816)" fill="#fff"/>
    <path id="Path_511" data-name="Path 511" d="M279.624-81.478h4.351v6.272c0,3.164-1.582,4.973-4.634,4.973s-4.633-1.808-4.633-4.973V-85.49c0-3.164,1.582-4.973,4.633-4.973s4.634,1.808,4.634,4.973v1.921h-2.938v-2.119c0-1.413-.622-1.95-1.61-1.95s-1.611.537-1.611,1.95v10.68c0,1.413.621,1.921,1.611,1.921s1.61-.508,1.61-1.921v-3.645h-1.413Z" transform="translate(-152.875 -60.533)" fill="#fff"/>
    <path id="Path_512" data-name="Path 512" d="M300.124-89.953h3.108V-73h5.114v2.826h-8.222Z" transform="translate(-167.019 -60.816)" fill="#fff"/>
    <path id="Path_513" data-name="Path 513" d="M323.659-76.448h2.995l-1.5-10Zm7.092,6.272h-3.136l-.537-3.588h-3.814l-.537,3.588h-2.853l3.164-19.777h4.549Z" transform="translate(-178.009 -60.816)" fill="#fff"/>
    <path id="Path_514" data-name="Path 514" d="M350.754-87.128v6.075h1.215c1.158,0,1.865-.509,1.865-2.091v-1.949c0-1.413-.481-2.034-1.582-2.034Zm3.391,16.952a6.092,6.092,0,0,1-.283-2.43v-3.108c0-1.837-.621-2.515-2.034-2.515h-1.074v8.052h-3.108V-89.954h4.69c3.221,0,4.6,1.5,4.6,4.549v1.554c0,2.034-.65,3.362-2.034,4.012,1.554.65,2.063,2.147,2.063,4.21v3.051a5.822,5.822,0,0,0,.339,2.4Z" transform="translate(-193.465 -60.816)" fill="#fff"/>
    <path id="Path_515" data-name="Path 515" d="M376.833-90.463c3.023,0,4.577,1.808,4.577,4.973v.622h-2.938v-.82c0-1.413-.565-1.949-1.554-1.949s-1.554.537-1.554,1.949c0,4.069,6.074,4.831,6.074,10.482,0,3.164-1.582,4.973-4.633,4.973s-4.634-1.808-4.634-4.973v-1.215h2.938v1.413c0,1.413.622,1.921,1.61,1.921s1.61-.509,1.61-1.921c0-4.069-6.074-4.831-6.074-10.482,0-3.164,1.554-4.973,4.577-4.973" transform="translate(-207.113 -60.532)" fill="#fff"/>
    <path id="Path_516" data-name="Path 516" d="M401.148-78.059l-.961,1.808v6.075h-3.108V-89.954h3.108v8.617l4.069-8.617h3.108l-4.323,8.815,4.323,10.962h-3.193Z" transform="translate(-220.974 -60.816)" fill="#fff"/>
    <path id="Path_517" data-name="Path 517" d="M425.39-76.448h3l-1.5-10Zm7.092,6.272h-3.136l-.537-3.588H425l-.537,3.588H421.6l3.164-19.777h4.548Z" transform="translate(-234.623 -60.816)" fill="#fff"/>
  </g>
</svg>
