<svg xmlns="http://www.w3.org/2000/svg" xmlns:xlink="http://www.w3.org/1999/xlink" width="617" height="616.831" viewBox="0 0 617 616.831">
  <defs>
    <filter id="Rectangle_60" x="0" y="0" width="617" height="616.831" filterUnits="userSpaceOnUse">
      <feOffset dy="35" input="SourceAlpha"/>
      <feGaussianBlur stdDeviation="13.5" result="blur"/>
      <feFlood flood-opacity="0.071"/>
      <feComposite operator="in" in2="blur"/>
      <feComposite in="SourceGraphic"/>
    </filter>
  </defs>
  <g id="Group_295" data-name="Group 295" transform="translate(-156.5 -344.5)">
    <g id="Group_293" data-name="Group 293">
      <g id="Group_291" data-name="Group 291">
        <g transform="matrix(1, 0, 0, 1, 156.5, 344.5)" filter="url(#Rectangle_60)">
          <rect id="Rectangle_60-2" data-name="Rectangle 60" width="536" height="535.831" transform="translate(40.5 5.5)" fill="#fff"/>
        </g>
      </g>
    </g>
    <g id="Group_294" data-name="Group 294" transform="translate(273 717.474)">
      <path id="Path_382" data-name="Path 382" d="M159.482-40.266a83.346,83.346,0,0,1-59.35,24.587A83.373,83.373,0,0,1,40.773-40.266,83.392,83.392,0,0,1,16.19-99.617a83.412,83.412,0,0,1,24.583-59.359,83.439,83.439,0,0,1,59.359-24.582,83.411,83.411,0,0,1,59.35,24.582,83.4,83.4,0,0,1,24.59,59.359,83.382,83.382,0,0,1-24.59,59.351M198-95.144c3-2.825,3.013-6.1.04-8.9-3.81-3.6-4.212-7.331-1.24-11.593,2.345-3.354,1.638-6.628-1.871-8.7-4.3-2.541-5.576-6.438-3.609-10.978,1.641-3.774.248-6.874-3.692-8.234-4.707-1.614-6.718-5.154-5.689-10.029.8-3.795-1.243-6.718-5.049-7.205-5.457-.694-7.82-3.333-7.943-8.843-.087-3.812-2.959-6.362-6.7-5.693a8.232,8.232,0,0,1-9.326-6.594c-.8-4.333-3.752-5.972-7.973-4.638a7.94,7.94,0,0,1-10.214-4.481c-1.868-4.07-4.97-5.053-8.94-2.846a7.91,7.91,0,0,1-10.774-2.266c-2.787-3.753-5.887-4.075-9.413-.974a7.9,7.9,0,0,1-10.9.067c-3.755-3.219-6.619-2.893-9.631,1.114a7.926,7.926,0,0,1-10.4,2.207c-4.333-2.389-7.187-1.487-9.261,2.935a7.967,7.967,0,0,1-9.692,4.392c-4.922-1.47-7.383-.055-8.514,4.9a8,8,0,0,1-9.119,6.184c-3.989-.593-6.825,1.961-6.778,6.129a7.872,7.872,0,0,1-7.512,8.382c-4.188.394-6.27,3.164-5.491,7.3.945,4.981-1,8.349-5.764,9.992-3.876,1.33-5.248,4.371-3.666,8.107,2.034,4.786.847,8.428-3.6,11.088-3.441,2.054-4.156,5.447-1.831,8.716,2.955,4.156,2.583,8-1.119,11.448-3.129,2.927-3.114,6.2.059,9.145,3.607,3.346,4,7.31,1.118,11.321-2.4,3.346-1.7,6.735,1.842,8.84,4.342,2.575,5.56,6.306,3.571,10.952-1.643,3.829-.284,6.862,3.7,8.225,4.658,1.6,6.64,5.024,5.7,9.865-.825,4.235,1.257,7.009,5.551,7.4a7.881,7.881,0,0,1,7.431,8.284c-.049,4.125,2.652,6.722,6.52,6.273,5.031-.585,8.3,1.741,9.469,6.721.957,4.083,3.853,5.752,7.829,4.511,4.738-1.469,8.469.208,10.536,4.744,1.623,3.566,4.951,4.684,8.341,2.8,4.67-2.583,8.3-1.825,11.512,2.444,1.359,1.8,3.113,2.969,5.367,2.465a9.46,9.46,0,0,0,3.74-1.982c3.379-2.77,7.524-2.893,10.786-.119,3.927,3.325,6.607,3.046,9.773-1.021a7.935,7.935,0,0,1,10.4-2.181c4.343,2.377,7.145,1.474,9.252-2.973a7.974,7.974,0,0,1,9.718-4.35c4.886,1.474,7.232.1,8.462-4.955a8.02,8.02,0,0,1,9.158-6.137c3.862.546,6.694-1.885,6.768-5.815.094-5.329,2.611-8.12,7.88-8.73a5.609,5.609,0,0,0,5.129-7.149c-1.059-4.977.9-8.4,5.782-10.123,3.83-1.359,5.207-4.451,3.609-8.149-1.981-4.587-.736-8.466,3.533-10.99,3.535-2.093,4.265-5.346,1.956-8.692-2.983-4.332-2.608-8.047,1.164-11.6" fill="#0c223b" fill-rule="evenodd"/>
      <path id="Path_383" data-name="Path 383" d="M150.578-57.563c-3.816-2.058-6.215-.449-8.439,2.749-8.361,12.007-19.957,19.432-33.883,23.46a25.451,25.451,0,0,0-4.4,1.753,39.81,39.81,0,0,0-3.5,2.177c-.076-.034-.152-.068-.226-.106-.076.038-.157.072-.233.106A39.108,39.108,0,0,0,96.4-29.6a25.231,25.231,0,0,0-4.4-1.753c-13.924-4.028-25.527-11.453-33.883-23.46-2.228-3.2-4.625-4.807-8.441-2.749-5.94-10.3-12.215-20.229-6.536-33.223,7.741,8.45,15.932,15.413,26.125,19.712-5.61,7.886-1.1,16.721,9.211,18.725,0-11.677.192-23.346-.08-35A25.418,25.418,0,0,1,83.2-103.6c3.858-5.243,6.713-10.741,4.9-18.076H51.539c3.812-6.163,8.875-9.708,14.144-12.965,4.462-2.749,5.229-2.27,5.379,3.223,5.28,0,10.582-.1,15.877.047,2.223.059,2.984-.792,3.1-2.9.418-7.009.98-14.01,1.431-21.02.069-.978.207-2.317-.33-2.914-2.073-2.283-1.255-4.566-.54-6.988a5.91,5.91,0,0,0,.259-3.147c-.721-2.359.443-3.363,2.4-3.41q3.355-.069,6.716-.059h.3q3.361-.012,6.716.059c1.959.047,3.123,1.051,2.407,3.41a5.813,5.813,0,0,0,.261,3.147c.713,2.422,1.527,4.7-.545,6.988-.535.6-.395,1.936-.332,2.914.451,7.01,1.01,14.011,1.43,21.02.127,2.11.886,2.961,3.106,2.9,5.3-.144,10.6-.047,15.881-.047.146-5.493.911-5.972,5.376-3.223,5.27,3.257,10.333,6.8,14.146,12.965H112.163c-1.815,7.335,1.038,12.833,4.9,18.076a25.364,25.364,0,0,1,4.791,16.247c-.262,11.656-.074,23.325-.074,35,10.3-2,14.822-10.839,9.217-18.725,10.186-4.3,18.383-11.262,26.115-19.712,5.686,12.994-.595,22.923-6.531,33.223m-50.445-124.9A82.944,82.944,0,0,0,17.274-99.616a82.954,82.954,0,0,0,82.859,82.853,82.951,82.951,0,0,0,82.85-82.853,82.941,82.941,0,0,0-82.85-82.849" fill="#0c223b" fill-rule="evenodd"/>
      <path id="Path_384" data-name="Path 384" d="M159.482-40.266a83.346,83.346,0,0,1-59.35,24.587A83.373,83.373,0,0,1,40.773-40.266,83.392,83.392,0,0,1,16.19-99.617a83.412,83.412,0,0,1,24.583-59.359,83.439,83.439,0,0,1,59.359-24.582,83.411,83.411,0,0,1,59.35,24.582,83.4,83.4,0,0,1,24.59,59.359,83.382,83.382,0,0,1-24.59,59.351M198-95.144c3-2.825,3.013-6.1.04-8.9-3.81-3.6-4.212-7.331-1.24-11.593,2.345-3.354,1.638-6.628-1.871-8.7-4.3-2.541-5.576-6.438-3.609-10.978,1.641-3.774.248-6.874-3.692-8.234-4.707-1.614-6.718-5.154-5.689-10.029.8-3.795-1.243-6.718-5.049-7.205-5.457-.694-7.82-3.333-7.943-8.843-.087-3.812-2.959-6.362-6.7-5.693a8.232,8.232,0,0,1-9.326-6.594c-.8-4.333-3.752-5.972-7.973-4.638a7.94,7.94,0,0,1-10.214-4.481c-1.868-4.07-4.97-5.053-8.94-2.846a7.91,7.91,0,0,1-10.774-2.266c-2.787-3.753-5.887-4.075-9.413-.974a7.9,7.9,0,0,1-10.9.067c-3.755-3.219-6.619-2.893-9.631,1.114a7.926,7.926,0,0,1-10.4,2.207c-4.333-2.389-7.187-1.487-9.261,2.935a7.967,7.967,0,0,1-9.692,4.392c-4.922-1.47-7.383-.055-8.514,4.9a8,8,0,0,1-9.119,6.184c-3.989-.593-6.825,1.961-6.778,6.129a7.872,7.872,0,0,1-7.512,8.382c-4.188.394-6.27,3.164-5.491,7.3.945,4.981-1,8.349-5.764,9.992-3.876,1.33-5.248,4.371-3.666,8.107,2.034,4.786.847,8.428-3.6,11.088-3.441,2.054-4.156,5.447-1.831,8.716,2.955,4.156,2.583,8-1.119,11.448-3.129,2.927-3.114,6.2.059,9.145,3.607,3.346,4,7.31,1.118,11.321-2.4,3.346-1.7,6.735,1.842,8.84,4.342,2.575,5.56,6.306,3.571,10.952-1.643,3.829-.284,6.862,3.7,8.225,4.658,1.6,6.64,5.024,5.7,9.865-.825,4.235,1.257,7.009,5.551,7.4a7.881,7.881,0,0,1,7.431,8.284c-.049,4.125,2.652,6.722,6.52,6.273,5.031-.585,8.3,1.741,9.469,6.721.957,4.083,3.853,5.752,7.829,4.511,4.738-1.469,8.469.208,10.536,4.744,1.623,3.566,4.951,4.684,8.341,2.8,4.67-2.583,8.3-1.825,11.512,2.444,1.359,1.8,3.113,2.969,5.367,2.465a9.46,9.46,0,0,0,3.74-1.982c3.379-2.77,7.524-2.893,10.786-.119,3.927,3.325,6.607,3.046,9.773-1.021a7.935,7.935,0,0,1,10.4-2.181c4.343,2.377,7.145,1.474,9.252-2.973a7.974,7.974,0,0,1,9.718-4.35c4.886,1.474,7.232.1,8.462-4.955a8.02,8.02,0,0,1,9.158-6.137c3.862.546,6.694-1.885,6.768-5.815.094-5.329,2.611-8.12,7.88-8.73a5.609,5.609,0,0,0,5.129-7.149c-1.059-4.977.9-8.4,5.782-10.123,3.83-1.359,5.207-4.451,3.609-8.149-1.981-4.587-.736-8.466,3.533-10.99,3.535-2.093,4.265-5.346,1.956-8.692-2.983-4.332-2.608-8.047,1.164-11.6" fill="#0c223b" fill-rule="evenodd"/>
      <path id="Path_385" data-name="Path 385" d="M150.578-57.563c-3.816-2.058-6.215-.449-8.439,2.749-8.361,12.007-19.957,19.432-33.883,23.46a25.451,25.451,0,0,0-4.4,1.753,39.81,39.81,0,0,0-3.5,2.177c-.076-.034-.152-.068-.226-.106-.076.038-.157.072-.233.106A39.108,39.108,0,0,0,96.4-29.6a25.231,25.231,0,0,0-4.4-1.753c-13.924-4.028-25.527-11.453-33.883-23.46-2.228-3.2-4.625-4.807-8.441-2.749-5.94-10.3-12.215-20.229-6.536-33.223,7.741,8.45,15.932,15.413,26.125,19.712-5.61,7.886-1.1,16.721,9.211,18.725,0-11.677.192-23.346-.08-35A25.418,25.418,0,0,1,83.2-103.6c3.858-5.243,6.713-10.741,4.9-18.076H51.539c3.812-6.163,8.875-9.708,14.144-12.965,4.462-2.749,5.229-2.27,5.379,3.223,5.28,0,10.582-.1,15.877.047,2.223.059,2.984-.792,3.1-2.9.418-7.009.98-14.01,1.431-21.02.069-.978.207-2.317-.33-2.914-2.073-2.283-1.255-4.566-.54-6.988a5.91,5.91,0,0,0,.259-3.147c-.721-2.359.443-3.363,2.4-3.41q3.355-.069,6.716-.059h.3q3.361-.012,6.716.059c1.959.047,3.123,1.051,2.407,3.41a5.813,5.813,0,0,0,.261,3.147c.713,2.422,1.527,4.7-.545,6.988-.535.6-.395,1.936-.332,2.914.451,7.01,1.01,14.011,1.43,21.02.127,2.11.886,2.961,3.106,2.9,5.3-.144,10.6-.047,15.881-.047.146-5.493.911-5.972,5.376-3.223,5.27,3.257,10.333,6.8,14.146,12.965H112.163c-1.815,7.335,1.038,12.833,4.9,18.076a25.364,25.364,0,0,1,4.791,16.247c-.262,11.656-.074,23.325-.074,35,10.3-2,14.822-10.839,9.217-18.725,10.186-4.3,18.383-11.262,26.115-19.712,5.686,12.994-.595,22.923-6.531,33.223m-50.445-124.9A82.944,82.944,0,0,0,17.274-99.616a82.954,82.954,0,0,0,82.859,82.853,82.951,82.951,0,0,0,82.85-82.853,82.941,82.941,0,0,0-82.85-82.849" fill="#0c223b" fill-rule="evenodd"/>
      <path id="Path_386" data-name="Path 386" d="M246.649-136.521v69.755H255.3c4.883,0,7.813-2.511,7.813-9.486v-50.782c0-6.976-2.93-9.487-7.813-9.487ZM231.3-150.472h24.276c15.345,0,22.88,8.51,22.88,24.135V-76.95c0,15.625-7.535,24.136-22.88,24.136H231.3Z" fill="#0c223b"/>
      <path id="Path_387" data-name="Path 387" d="M303.566-136.521v33.064h7.255c4.883,0,7.533-2.232,7.533-9.208v-14.648c0-6.976-2.65-9.208-7.533-9.208ZM333.7-126.337v12.7c0,15.625-7.534,24.135-22.88,24.135h-7.255v36.692H288.219v-97.658h22.6c15.346,0,22.88,8.51,22.88,24.135" fill="#0c223b"/>
      <path id="Path_388" data-name="Path 388" d="M368.574-155.635H355.181v-13.393h13.393Zm15.485,5.163V-136.8L354.9-66.766h29.157v13.951H339.138V-66.487L368.3-136.521H340.532v-13.951Z" fill="#0c223b"/>
    </g>
  </g>
</svg>
