<?xml version="1.0" encoding="UTF-8" standalone="no"?>
<!DOCTYPE svg PUBLIC "-//W3C//DTD SVG 1.1//EN" "http://www.w3.org/Graphics/SVG/1.1/DTD/svg11.dtd">
<svg width="33198px" height="11711px" version="1.1" xmlns="http://www.w3.org/2000/svg" xmlns:xlink="http://www.w3.org/1999/xlink" xml:space="preserve" xmlns:serif="http://www.serif.com/" style="fill-rule:evenodd;clip-rule:evenodd;stroke-linejoin:round;stroke-miterlimit:2;">
    <g transform="matrix(1,0,0,1,-6627.81,9976.67)">
        <g transform="matrix(0.512031,0,0,0.372104,4755.13,3427.13)">
            <g transform="matrix(6.64058,0,0,6.64058,-10272.6,21484.3)">
                <g transform="matrix(8.13753,0,0,11.1976,11156.4,-7701.92)">
                    <path d="M0,252.153C-33.675,285.849 -78.444,304.384 -126.073,304.384C-173.706,304.384 -218.482,285.849 -252.168,252.153C-285.838,218.477 -304.39,173.709 -304.39,126.078C-304.39,78.446 -285.838,33.658 -252.168,-0.018C-218.482,-33.677 -173.706,-52.238 -126.073,-52.238C-78.444,-52.238 -33.675,-33.677 0,-0.018C33.678,33.658 52.236,78.446 52.236,126.078C52.236,173.709 33.678,218.477 0,252.153M81.822,135.58C88.188,129.576 88.225,122.622 81.906,116.666C73.814,109.009 72.96,101.093 79.274,92.04C84.255,84.915 82.754,77.96 75.3,73.551C66.173,68.153 63.454,59.875 67.633,50.231C71.12,42.215 68.159,35.628 59.791,32.74C49.793,29.312 45.519,21.791 47.706,11.436C49.41,3.374 45.064,-2.834 36.98,-3.87C25.388,-5.345 20.367,-10.949 20.106,-22.656C19.923,-30.753 13.821,-36.169 5.867,-34.747C-3.584,-33.056 -12.342,-40.02 -13.944,-48.756C-15.635,-57.96 -21.913,-61.443 -30.88,-58.608C-40.247,-55.639 -48.511,-59.264 -52.576,-68.127C-56.546,-76.773 -63.135,-78.861 -71.568,-74.173C-79.97,-69.495 -88.741,-71.321 -94.455,-78.986C-100.374,-86.958 -106.959,-87.642 -114.45,-81.056C-121.518,-74.838 -130.447,-74.784 -137.596,-80.912C-145.571,-87.75 -151.654,-87.057 -158.054,-78.546C-163.386,-71.493 -172.409,-69.576 -180.139,-73.859C-189.344,-78.932 -195.407,-77.016 -199.81,-67.623C-203.584,-59.579 -211.961,-55.784 -220.4,-58.294C-230.855,-61.415 -236.083,-58.409 -238.484,-47.884C-240.526,-38.968 -248.76,-33.398 -257.856,-34.747C-266.331,-36.007 -272.355,-30.581 -272.256,-21.73C-272.148,-11.805 -278.356,-4.868 -288.213,-3.923C-297.109,-3.086 -301.533,2.799 -299.877,11.588C-297.869,22.169 -301.998,29.321 -312.121,32.813C-320.354,35.637 -323.27,42.097 -319.909,50.033C-315.59,60.2 -318.11,67.937 -327.557,73.588C-334.866,77.952 -336.384,85.158 -331.447,92.103C-325.169,100.931 -325.96,109.1 -333.823,116.424C-340.471,122.639 -340.437,129.587 -333.697,135.848C-326.036,142.956 -325.202,151.377 -331.322,159.897C-336.428,167.003 -334.925,174.202 -327.41,178.674C-318.187,184.145 -315.6,192.071 -319.824,201.941C-323.314,210.074 -320.428,216.517 -311.963,219.414C-302.068,222.805 -297.856,230.084 -299.844,240.368C-301.595,249.363 -297.172,255.257 -288.051,256.077C-278.535,256.932 -272.145,264.056 -272.267,273.676C-272.369,282.439 -266.632,287.954 -258.417,287C-247.729,285.759 -240.784,290.697 -238.301,301.278C-236.268,309.951 -230.116,313.497 -221.67,310.861C-211.605,307.738 -203.681,311.3 -199.29,320.938C-195.842,328.515 -188.772,330.887 -181.569,326.875C-171.649,321.387 -163.945,322.996 -157.116,332.066C-154.229,335.9 -150.503,338.374 -145.715,337.303C-142.885,336.673 -140.06,334.974 -137.771,333.093C-130.592,327.207 -121.788,326.946 -114.859,332.842C-106.516,339.903 -100.823,339.31 -94.097,330.671C-88.592,323.611 -79.799,321.756 -71.997,326.036C-62.771,331.087 -56.819,329.17 -52.342,319.722C-48.551,311.706 -40.148,307.935 -31.699,310.483C-21.32,313.613 -16.337,310.69 -13.724,299.957C-11.522,291.012 -3.48,285.598 5.73,286.919C13.934,288.078 19.948,282.915 20.106,274.565C20.306,263.246 25.653,257.318 36.846,256.023C44.942,255.085 49.432,248.824 47.74,240.833C45.491,230.262 49.653,223.002 60.024,219.333C68.159,216.444 71.085,209.877 67.691,202.021C63.481,192.278 66.126,184.035 75.196,178.674C82.703,174.231 84.255,167.32 79.349,160.212C73.014,151.009 73.811,143.118 81.822,135.58" style="fill:rgb(13,35,59);"/>
                </g>
                <g transform="matrix(1.95301,0,0,2.68742,-4038.1,-9342.23)">
                    <path d="M7254.73,402.377C6850.35,402.377 6521.36,731.302 6521.36,1135.69C6521.36,1539.99 6850.35,1869.03 7254.73,1869.03C7659.08,1869.03 7988.05,1539.99 7988.05,1135.69C7988.05,731.302 7659.08,402.377 7254.73,402.377Z" style="fill:rgb(13,35,59);"/>
                </g>
            </g>
        </g>
        <g transform="matrix(0.512031,0,0,0.372104,4755.13,3427.13)">
            <g transform="matrix(17.6678,0,0,24.3117,-50014.1,-46701.5)">
                <path d="M3622.05,899.553C3605.98,964.496 3622.05,1462.33 3622.05,1565.68C3713.24,1547.96 3884.1,1417.22 3834.48,1347.42C3924.64,1309.36 3997.19,1247.73 4065.63,1172.95C4115.95,1287.96 4060.36,1375.83 4007.82,1467.01C3974.05,1448.78 3952.82,1463.03 3933.12,1491.33C3859.12,1597.61 3756.48,1663.34 3633.23,1698.99C3619.87,1702.88 3606.72,1708.16 3594.3,1714.5C3581.95,1720.8 3570.6,1729.16 3563.33,1733.77C3562.74,1733.51 3562.15,1733.24 3561.57,1732.96C3561.01,1733.23 3560.44,1733.49 3559.87,1733.74C3552.6,1729.13 3541.25,1720.77 3528.9,1714.48C3516.47,1708.14 3503.33,1702.86 3489.97,1698.96C3366.71,1663.31 3264.07,1597.59 3190.07,1491.31C3170.38,1463 3149.15,1448.76 3115.37,1466.98C3062.84,1375.81 3007.24,1287.94 3057.57,1172.92C3126,1247.71 3198.56,1309.34 3288.72,1347.39C3239.1,1417.19 3409.95,1547.93 3501.14,1565.66C3501.14,1462.31 3517.21,964.462 3501.14,899.527L3131.78,899.527C3165.53,844.977 3210.35,813.598 3256.99,784.769C3296.51,760.44 3303.28,764.677 3304.58,813.298C3351.36,813.298 3454.27,812.032 3501.14,813.298C3511.14,813.568 3513.01,721.097 3515.05,630.212C3482.63,613.358 3460.47,579.457 3460.47,540.42C3460.47,484.604 3505.78,439.288 3561.6,439.288C3617.41,439.288 3662.73,484.604 3662.73,540.42C3662.73,579.457 3640.56,613.358 3608.14,630.212C3610.19,721.105 3612.06,813.593 3622.05,813.323C3668.92,812.057 3771.83,813.323 3818.62,813.323C3819.91,764.703 3826.69,760.465 3866.2,784.794C3912.85,813.623 3957.66,845.001 3991.42,899.553L3622.05,899.553ZM3561.6,488.281C3588.1,488.281 3609.62,509.797 3609.62,536.3C3609.62,562.802 3588.1,584.319 3561.6,584.319C3535.1,584.319 3513.58,562.802 3513.58,536.3C3513.58,509.797 3535.1,488.281 3561.6,488.281Z" style="fill:rgb(13,35,59);"/>
            </g>
        </g>
        <g transform="matrix(0.512031,0,0,0.372104,4755.13,3427.13)">
            <g transform="matrix(21.6506,0,0,29.7922,-81542.6,-51284)">
                <path d="M5336.95,1563.91C5288.39,1564.84 5239.79,1574.12 5194.15,1563.83C5105.35,1543.83 5152.39,1463.68 5152.39,1459.75C5152.39,1356.39 5154.08,1253.11 5151.68,1149.95C5150.5,1096.45 5162.77,1048.81 5194.15,1006.13C5212.56,981.129 5229.8,961.544 5240.66,898.029C5249.96,843.677 5248.32,853.18 5248.81,844.571C5252.51,782.521 5257.49,720.562 5261.48,658.512C5262.09,649.854 5263.31,638.008 5258.56,632.721C5240.21,612.516 5247.45,592.308 5253.78,570.866C5256.37,562.021 5258.62,551.375 5256.07,543.012C5249.69,522.129 5259.99,513.246 5277.35,512.833C5297.14,512.421 5316.95,512.233 5336.79,512.308L5339.4,512.308L5339.49,512.307L5339.58,512.308L5342.19,512.308C5362.03,512.233 5381.84,512.421 5401.64,512.833C5418.99,513.246 5429.29,522.129 5422.91,543.012C5420.36,551.375 5422.61,562.021 5425.2,570.866C5431.53,592.308 5438.77,612.516 5420.42,632.721C5415.67,638.008 5416.89,649.854 5417.5,658.512C5421.49,720.562 5426.47,782.521 5430.17,844.571C5430.66,853.18 5429.02,843.677 5438.32,898.029C5449.18,961.544 5463.64,981.129 5482.04,1006.13C5513.42,1048.81 5525.69,1096.45 5524.52,1149.95C5522.11,1253.11 5523.81,1356.39 5523.81,1459.75C5523.81,1463.68 5570.85,1543.83 5482.04,1563.83C5436.04,1574.2 5387.04,1564.69 5338.1,1563.89L5336.95,1563.91Z" style="fill:rgb(13,35,59);"/>
            </g>
        </g>
    </g>
</svg>
