<svg xmlns="http://www.w3.org/2000/svg" xmlns:xlink="http://www.w3.org/1999/xlink" width="617" height="616.831" viewBox="0 0 617 616.831">
  <defs>
    <filter id="Rectangle_60" x="0" y="0" width="617" height="616.831" filterUnits="userSpaceOnUse">
      <feOffset dy="35" input="SourceAlpha"/>
      <feGaussianBlur stdDeviation="13.5" result="blur"/>
      <feFlood flood-opacity="0.071"/>
      <feComposite operator="in" in2="blur"/>
      <feComposite in="SourceGraphic"/>
    </filter>
  </defs>
  <g id="Group_291" data-name="Group 291" transform="translate(-156.5 -344.5)">
    <g transform="matrix(1, 0, 0, 1, 156.5, 344.5)" filter="url(#Rectangle_60)">
      <rect id="Rectangle_60-2" data-name="Rectangle 60" width="536" height="535.831" transform="translate(40.5 5.5)" fill="#fff"/>
    </g>
    <g id="Group_290" data-name="Group 290" transform="translate(261 745.474)">
      <path id="Path_389" data-name="Path 389" d="M115.037-84.568A60.119,60.119,0,0,1,72.226-66.833,60.139,60.139,0,0,1,29.41-84.568a60.155,60.155,0,0,1-17.731-42.811A60.169,60.169,0,0,1,29.41-170.2a60.186,60.186,0,0,1,42.817-17.731A60.167,60.167,0,0,1,115.037-170.2a60.159,60.159,0,0,1,17.737,42.817,60.145,60.145,0,0,1-17.737,42.811m27.783-39.585c2.162-2.038,2.174-4.4.029-6.422-2.748-2.6-3.038-5.288-.894-8.362,1.691-2.419,1.182-4.781-1.35-6.278-3.1-1.833-4.021-4.644-2.6-7.919,1.184-2.722.178-4.958-2.663-5.939-3.4-1.164-4.847-3.718-4.1-7.234a4.049,4.049,0,0,0-3.642-5.2c-3.937-.5-5.641-2.4-5.73-6.379a4,4,0,0,0-4.834-4.106,5.938,5.938,0,0,1-6.727-4.756c-.575-3.125-2.707-4.308-5.752-3.345a5.726,5.726,0,0,1-7.367-3.232c-1.348-2.936-3.586-3.645-6.449-2.053a5.7,5.7,0,0,1-7.771-1.635c-2.01-2.707-4.247-2.939-6.79-.7a5.7,5.7,0,0,1-7.859.048c-2.709-2.322-4.774-2.087-6.947.8a5.716,5.716,0,0,1-7.5,1.592c-3.125-1.723-5.185-1.073-6.68,2.117a5.748,5.748,0,0,1-6.992,3.168c-3.55-1.06-5.325-.04-6.141,3.534a5.77,5.77,0,0,1-6.578,4.461c-2.877-.428-4.923,1.415-4.89,4.421a5.677,5.677,0,0,1-5.418,6.046c-3.022.284-4.523,2.282-3.961,5.266.681,3.593-.72,6.022-4.158,7.207-2.8.959-3.785,3.153-2.644,5.848,1.467,3.452.612,6.079-2.6,8a4.034,4.034,0,0,0-1.321,6.287c2.132,3,1.863,5.771-.806,8.258-2.258,2.111-2.246,4.47.043,6.6,2.6,2.414,2.884,5.273.806,8.166-1.734,2.414-1.223,4.858,1.329,6.376,3.131,1.857,4.01,4.549,2.576,7.9-1.186,2.762-.2,4.95,2.669,5.933,3.36,1.152,4.79,3.624,4.115,7.116-.6,3.055.907,5.056,4,5.334a5.686,5.686,0,0,1,5.36,5.975c-.035,2.975,1.912,4.849,4.7,4.525,3.629-.422,5.988,1.256,6.831,4.848.69,2.945,2.779,4.149,5.647,3.254,3.417-1.06,6.109.15,7.6,3.422A4.02,4.02,0,0,0,53.383-59.2c3.369-1.863,5.985-1.316,8.3,1.763.98,1.3,2.245,2.142,3.871,1.778a6.823,6.823,0,0,0,2.7-1.43,5.8,5.8,0,0,1,7.78-.086c2.833,2.4,4.766,2.2,7.049-.736a5.724,5.724,0,0,1,7.5-1.573c3.133,1.715,5.154,1.063,6.674-2.144a5.752,5.752,0,0,1,7.011-3.138c3.524,1.063,5.217.071,6.1-3.574a5.784,5.784,0,0,1,6.605-4.427,4.058,4.058,0,0,0,4.882-4.194c.068-3.844,1.883-5.857,5.684-6.3a4.045,4.045,0,0,0,3.7-5.157c-.763-3.59.65-6.055,4.171-7.3,2.763-.98,3.756-3.211,2.6-5.878-1.43-3.309-.532-6.107,2.548-7.927,2.55-1.51,3.077-3.856,1.411-6.27-2.151-3.125-1.88-5.8.84-8.364" fill="#0c223b" fill-rule="evenodd"/>
      <path id="Path_390" data-name="Path 390" d="M113.428-92.371c-2.753-1.484-4.483-.324-6.087,1.983-6.031,8.661-14.4,14.017-24.44,16.922A18.313,18.313,0,0,0,79.727-72.2a28.715,28.715,0,0,0-2.523,1.57c-.055-.025-.11-.049-.164-.076-.055.027-.112.052-.166.076a28.287,28.287,0,0,0-2.523-1.57,18.23,18.23,0,0,0-3.172-1.264c-10.044-2.905-18.413-8.261-24.44-16.922-1.607-2.307-3.336-3.467-6.089-1.983-4.285-7.43-8.811-14.592-4.714-23.964,5.583,6.1,11.491,11.118,18.844,14.219-4.047,5.688-.79,12.061,6.645,13.507,0-8.423.137-16.84-.058-25.248a18.334,18.334,0,0,1,3.462-11.719c2.783-3.782,4.842-7.748,3.532-13.039H41.99c2.75-4.445,6.4-7,10.2-9.352,3.219-1.983,3.772-1.637,3.88,2.325,3.809,0,7.633-.07,11.452.034,1.6.043,2.152-.571,2.239-2.093.3-5.056.708-10.106,1.033-15.162.049-.705.149-1.671-.239-2.1-1.5-1.647-.905-3.294-.39-5.041a4.249,4.249,0,0,0,.187-2.27c-.519-1.7.32-2.426,1.733-2.46q2.42-.05,4.844-.043h.213q2.425-.009,4.844.043c1.413.034,2.253.758,1.736,2.46a4.193,4.193,0,0,0,.188,2.27c.514,1.747,1.1,3.394-.392,5.041-.387.431-.286,1.4-.24,2.1.325,5.056.729,10.106,1.031,15.162.092,1.522.64,2.136,2.24,2.093,3.821-.1,7.642-.034,11.455-.034.105-3.962.657-4.308,3.878-2.325,3.8,2.349,7.453,4.906,10.2,9.352H85.719c-1.309,5.291.749,9.257,3.533,13.039a18.3,18.3,0,0,1,3.455,11.719c-.189,8.408-.053,16.825-.053,25.248,7.432-1.446,10.691-7.818,6.648-13.507,7.347-3.1,13.26-8.123,18.837-14.219,4.1,9.373-.429,16.535-4.711,23.964M77.04-182.465A59.829,59.829,0,0,0,17.274-122.7,59.836,59.836,0,0,0,77.04-62.941,59.834,59.834,0,0,0,136.8-122.7a59.827,59.827,0,0,0-59.762-59.76" transform="translate(-4.814 -4.674)" fill="#0c223b" fill-rule="evenodd"/>
      <path id="Path_391" data-name="Path 391" d="M233.323-146.937v22.976h2.849c1.609,0,2.574-.827,2.574-3.125v-16.727c0-2.3-.965-3.125-2.574-3.125Zm-5.054-4.6h8c5.054,0,7.536,2.8,7.536,7.95v16.267c0,5.147-2.482,7.95-7.536,7.95h-8Z" transform="translate(-63.614 -13.294)" fill="#0c223b"/>
      <path id="Path_392" data-name="Path 392" d="M258.74-126.907c0,2.3,1.011,3.171,2.62,3.171s2.62-.874,2.62-3.171v-17.37c0-2.3-1.012-3.171-2.62-3.171s-2.62.874-2.62,3.171Zm-5.054-17.048c0-5.147,2.711-8.087,7.674-8.087s7.674,2.941,7.674,8.087v16.727c0,5.147-2.711,8.087-7.674,8.087s-7.674-2.941-7.674-8.087Z" transform="translate(-70.697 -13.152)" fill="#0c223b"/>
      <path id="Path_393" data-name="Path 393" d="M284.54-133.842v9.88h2.9c1.7,0,2.62-.781,2.62-3.171v-2.8c0-2.987-.965-3.906-3.263-3.906Zm0-13.1v8.5h1.976c1.884,0,3.033-.827,3.033-3.4v-1.792c0-2.3-.782-3.309-2.574-3.309Zm10.064,2.8v1.149c0,3.309-1.011,5.422-3.263,6.479,2.711,1.057,3.768,3.493,3.768,6.893V-127c0,4.963-2.62,7.628-7.674,7.628h-7.95v-32.166h7.627c5.238,0,7.491,2.435,7.491,7.4" transform="translate(-77.887 -13.294)" fill="#0c223b"/>
      <path id="Path_394" data-name="Path 394" d="M310.4-146.937v9.88h1.976c1.884,0,3.033-.827,3.033-3.4v-3.171c0-2.3-.782-3.308-2.574-3.308Zm5.514,27.571a9.909,9.909,0,0,1-.459-3.951v-5.055c0-2.987-1.011-4.09-3.308-4.09H310.4v13.1h-5.055v-32.167h7.629c5.238,0,7.489,2.436,7.489,7.4v2.527c0,3.309-1.057,5.468-3.308,6.525,2.527,1.057,3.355,3.492,3.355,6.847v4.963a9.469,9.469,0,0,0,.552,3.906Z" transform="translate(-85.094 -13.294)" fill="#0c223b"/>
      <path id="Path_395" data-name="Path 395" d="M335.265-129.568h4.872L337.7-145.835Zm11.534,10.2h-5.1l-.874-5.836h-6.2l-.874,5.836h-4.64l5.147-32.167h7.4Z" transform="translate(-91.716 -13.294)" fill="#0c223b"/>
      <path id="Path_396" data-name="Path 396" d="M371.81-146.937v10.89h2.39c1.609,0,2.482-.735,2.482-3.032V-143.9c0-2.3-.874-3.033-2.482-3.033Zm9.927,3.354v4.182c0,5.147-2.483,7.95-7.537,7.95h-2.39v12.085h-5.055v-32.167H374.2c5.054,0,7.537,2.8,7.537,7.95" transform="translate(-102.208 -13.294)" fill="#0c223b"/>
      <path id="Path_397" data-name="Path 397" d="M396.144-146.937v9.88h1.976c1.884,0,3.033-.827,3.033-3.4v-3.171c0-2.3-.782-3.308-2.574-3.308Zm5.514,27.571a9.908,9.908,0,0,1-.459-3.951v-5.055c0-2.987-1.011-4.09-3.308-4.09h-1.747v13.1h-5.055v-32.167h7.629c5.238,0,7.489,2.436,7.489,7.4v2.527c0,3.309-1.057,5.468-3.308,6.525,2.527,1.057,3.355,3.492,3.355,6.847v4.963a9.469,9.469,0,0,0,.552,3.906Z" transform="translate(-108.989 -13.294)" fill="#0c223b"/>
      <path id="Path_398" data-name="Path 398" d="M421.009-129.568h4.87l-2.436-16.267Zm11.534,10.2h-5.1l-.874-5.836h-6.2l-.874,5.836h-4.64L420-151.533h7.4Z" transform="translate(-115.611 -13.294)" fill="#0c223b"/>
      <path id="Path_399" data-name="Path 399" d="M449.241-132.187l-1.562,2.941v9.88h-5.055v-32.167h5.055v14.015l6.617-14.015h5.055l-7.03,14.337,7.03,17.83h-5.193Z" transform="translate(-123.351 -13.294)" fill="#0c223b"/>
      <path id="Path_400" data-name="Path 400" d="M466.958-151.533h15.624v4.6H477.3v27.571h-5.055v-27.571h-5.284Z" transform="translate(-130.132 -13.294)" fill="#0c223b"/>
      <path id="Path_401" data-name="Path 401" d="M495.77-130.028l-6.387-21.505h5.284l3.86,14.659,3.859-14.659h4.825l-6.387,21.505v10.661H495.77Z" transform="translate(-136.382 -13.294)" fill="#0c223b"/>
      <path id="Path_402" data-name="Path 402" d="M523.516-132.187l-1.562,2.941v9.88H516.9v-32.167h5.055v14.015l6.617-14.015h5.055L526.6-137.2l7.03,17.83h-5.193Z" transform="translate(-144.05 -13.294)" fill="#0c223b"/>
      <path id="Path_403" data-name="Path 403" d="M547.583-129.568h4.87l-2.436-16.267Zm11.534,10.2h-5.1l-.874-5.836h-6.2l-.873,5.836h-4.64l5.147-32.167h7.4Z" transform="translate(-150.885 -13.294)" fill="#0c223b"/>
      <path id="Path_404" data-name="Path 404" d="M236.881-94.014h-4.412v-4.412h4.412Zm5.1,1.7v4.5l-9.6,23.068h9.6v4.595h-14.8v-4.5l9.6-23.068h-9.145v-4.595Z" transform="translate(-63.312 -28.094)" fill="#0c223b"/>
      <path id="Path_405" data-name="Path 405" d="M256.893-76.4h6.939v4.6h-6.939v9.42h8.731v4.6H251.839V-89.953h13.785v4.6h-8.731Z" transform="translate(-70.183 -30.455)" fill="#0c223b"/>
      <path id="Path_406" data-name="Path 406" d="M282.7-75.85h7.077v10.2c0,5.147-2.573,8.087-7.536,8.087s-7.536-2.941-7.536-8.087V-82.375c0-5.147,2.572-8.087,7.536-8.087s7.536,2.941,7.536,8.087v3.125H285V-82.7c0-2.3-1.012-3.171-2.619-3.171s-2.62.874-2.62,3.171v17.37c0,2.3,1.011,3.124,2.62,3.124S285-63.03,285-65.327v-5.928h-2.3Z" transform="translate(-76.556 -30.313)" fill="#0c223b"/>
      <path id="Path_407" data-name="Path 407" d="M300.124-89.953h5.055v27.571H313.5v4.6H300.124Z" transform="translate(-83.639 -30.455)" fill="#0c223b"/>
      <path id="Path_408" data-name="Path 408" d="M326.031-67.988h4.87l-2.436-16.267Zm11.534,10.2h-5.1l-.874-5.836h-6.2l-.874,5.836h-4.64l5.147-32.167h7.4Z" transform="translate(-89.143 -30.455)" fill="#0c223b"/>
      <path id="Path_409" data-name="Path 409" d="M352.7-85.358v9.88h1.976c1.884,0,3.033-.827,3.033-3.4v-3.17c0-2.3-.782-3.309-2.574-3.309Zm5.514,27.571a9.909,9.909,0,0,1-.46-3.951v-5.055c0-2.987-1.011-4.09-3.308-4.09H352.7v13.1h-5.055V-89.954h7.629c5.238,0,7.489,2.436,7.489,7.4v2.528c0,3.309-1.057,5.468-3.308,6.525,2.528,1.057,3.355,3.492,3.355,6.847v4.963a9.469,9.469,0,0,0,.552,3.906Z" transform="translate(-96.882 -30.455)" fill="#0c223b"/>
      <path id="Path_410" data-name="Path 410" d="M379.754-90.463c4.917,0,7.444,2.941,7.444,8.087v1.011h-4.779V-82.7c0-2.3-.92-3.17-2.527-3.17s-2.527.873-2.527,3.17c0,6.617,9.879,7.858,9.879,17.048,0,5.147-2.573,8.087-7.536,8.087s-7.536-2.941-7.536-8.087v-1.976h4.779v2.3c0,2.3,1.012,3.125,2.619,3.125s2.619-.827,2.619-3.125c0-6.617-9.878-7.858-9.878-17.048,0-5.147,2.527-8.087,7.444-8.087" transform="translate(-103.717 -30.313)" fill="#0c223b"/>
      <path id="Path_411" data-name="Path 411" d="M403.7-70.608l-1.562,2.941v9.88h-5.055V-89.954h5.055v14.015l6.617-14.015h5.055l-7.031,14.337,7.031,17.83h-5.193Z" transform="translate(-110.658 -30.455)" fill="#0c223b"/>
      <path id="Path_412" data-name="Path 412" d="M427.761-67.988h4.872L430.2-84.256Zm11.534,10.2h-5.1l-.874-5.836h-6.2l-.874,5.836h-4.64l5.147-32.167h7.4Z" transform="translate(-117.493 -30.455)" fill="#0c223b"/>
    </g>
  </g>
</svg>
