<svg xmlns="http://www.w3.org/2000/svg" width="506.631" height="403.417" viewBox="0 0 506.631 403.417">
  <path id="Intersection_6" data-name="Intersection 6" d="M426.811,402.415A235.979,235.979,0,0,0,391.665,114l-.054-.055A235.614,235.614,0,0,0,0,211.355V120.83q.943-.23,1.95-.4c13.673-2.257,20.754-10.886,20.242-24.687-.448-12.138,6-18.681,18.018-18.267,14.182.5,22.542-6.382,24.931-20.5,1.87-11.1,10.021-16.422,20.926-13.673,14.1,3.552,23.66-1.32,29.128-14.857,4.269-10.559,13.033-13.867,23.359-8.819,12.694,6.208,23.226,3.384,31.248-8.381C176.45,1.492,186.071.121,195.166,7.641c10.086,8.331,22.351,7.661,31.53-1.725,8.16-8.353,18.865-7.806,25.6,1.293a22.415,22.415,0,0,0,30.349,5.824c12.08-7.581,19.761-5.511,26.608,7.174,5.524,10.242,16.889,14.52,27.934,10.524,12.878-4.66,20.331-.781,24.177,12.557a22.266,22.266,0,0,0,25.016,16.247c7.65-1.072,13-.04,16.455,3.413,2.82,2.823,4.369,7.268,4.846,13.5.949,12.4,9.343,20.693,21.749,21.5,13.13.842,18.646,7.627,16.747,20.595-1.83,12.495,4.637,22.418,16.866,25.892,12.259,3.491,16.455,11.609,12.082,23.4-4.469,12.069-.136,23.176,11.367,29.153,11.026,5.725,13.651,14.845,6.621,25.037-6.667,9.657-4.987,24.348,5.42,31.594,8.751,6.1,9.391,16.869,2.008,24.583-10.689,11.2-11.227,21.122-1.789,33.339,6.576,8.517,4.851,18.365-4.281,24.308-11.693,7.633-14.74,18.656-8.608,31.205,5.141,10.512,1.747,19.423-9.01,23.676-6.625,2.615-11.214,6.6-13.642,11.69Zm-186.268,0q-5.411-1.764-10.758-3.935-.344,2.038-.855,3.935H189.223c18.1-18.275,36.135-36.6,54.706-54.367,12.271-11.731,20.2-25.171,22.718-41.758,2.747-18.068,7.989-34.636,26.137-45.59l72.514,72.56c4.656-19.8,1.662-36.893-2.339-53.8-3.4-14.323-5.873-14.885-17.055-4.287-10.475-10.482-20.8-21.193-31.584-31.426-4.517-4.292-4.351-7.478-.4-11.915,13.071-14.748,25.851-29.753,38.855-44.562,1.813-2.071,4.191-5,6.422-5.113,8.641-.425,11.564-6.578,14.953-12.8,1.392-2.574,3.279-5.471,5.716-6.764,6.095-3.246,5.787-7.559,1.989-11.531q-6.5-6.818-13.2-13.453l-.291-.292-.3-.3q-6.632-6.69-13.447-13.208c-3.972-3.8-8.275-4.106-11.516,2-1.3,2.434-4.2,4.315-6.763,5.719-6.22,3.385-12.371,6.31-12.8,14.951-.1,2.237-3.034,4.616-5.1,6.435-14.8,13.012-29.8,25.793-44.534,38.881-4.439,3.947-7.62,4.116-11.91-.405-7.28-7.681-14.805-15.134-22.312-22.567q-4.558-4.514-9.091-9.033c10.585-11.193,10.018-13.67-4.29-17.068-16.9-4.01-33.984-7.006-53.761-2.338l72.511,72.555c-10.944,18.164-27.506,23.4-45.569,26.147-16.574,2.521-30.008,10.453-41.733,22.731-22.592,23.667-46.107,46.453-69.263,69.623-16.477-24.422-7.907-50.934,18.874-55.461-11.687-28.752-14.135-58.835-12.729-90.956C57.6,199.532,50.358,231.7,41.695,263.933c11.657,3.482,13.226,11.435,11.3,22.206-7.231,40.4,1.048,78.175,20.668,113.817q.669,1.212,1.288,2.459H27.185A231.3,231.3,0,0,1,0,337.929v-114.7A231.168,231.168,0,0,1,60.836,116.148c90.615-90.673,238.06-90.67,328.675,0,77.5,77.546,88.715,196.677,33.657,286.264ZM0,402.415v-52.6a232.686,232.686,0,0,0,23.538,52.6Z" transform="translate(0.5 0.502)" fill="#38aecc" stroke="rgba(0,0,0,0)" stroke-width="1"/>
</svg>
