<svg xmlns="http://www.w3.org/2000/svg" width="363.762" height="183.076" viewBox="0 0 363.762 183.076">
  <path id="Subtraction_1" data-name="Subtraction 1" d="M-9647.443-70.378h-120.033c-2.486-6.494-3.692-11.548-3.911-16.387a31.6,31.6,0,0,1,4.1-17.129l64.585,17.307a58.936,58.936,0,0,0-7.945-16.467,108.3,108.3,0,0,0-10.908-13.132c-3.705-3.924-5.227-4.728-6.37-4.728-1.946,0-3.136,2.768-4.65,7.876-2.731-.732-5.569-1.508-8.073-2.193-6.536-1.788-13.295-3.637-20-5.24-1.987-.477-3.2-1.186-3.829-2.233-.606-1.016-.694-2.362-.284-4.363,1.465-7.157,2.907-14.627,4.18-21.218l.05-.256c1.034-5.357,2.1-10.9,3.193-16.335.016-.076.03-.153.046-.231.012-.061.023-.122.036-.185.334-1.709.75-3.835,1.884-4.575,4.519-2.909,4.406-7.053,4.287-11.44q-.009-.323-.017-.647c-.044-1.669.015-4.074,1.028-5.682,1.086-1.744,1.4-3.252.929-4.483-.46-1.2-1.693-2.13-3.566-2.68-3.962-1.152-7.944-2.257-11.838-3.285l-.522-.139c-3.9-1.061-7.9-2.1-11.893-3.075a8.135,8.135,0,0,0-1.9-.25,3.722,3.722,0,0,0-2.8,1.039,5.464,5.464,0,0,0-1.156,4.1c.061,1.9-1.083,4.012-1.948,5.435q-.116.191-.233.381l-.113.185c-2.3,3.734-4.464,7.262-2.006,12.035.625,1.231-.1,3.316-.69,4.992l-.108.312c-1.752,5.185-3.571,10.446-5.33,15.535l-.135.391c-2.324,6.72-4.727,13.669-7.011,20.531-.958,2.9-2.211,4.089-4.324,4.089a9.017,9.017,0,0,1-2.533-.433c-6.641-1.973-13.437-3.756-20.01-5.48-2.618-.687-5.325-1.4-8.016-2.117,1.048-4.383,1.49-7.362.457-8.671a2.678,2.678,0,0,0-2.276-.847,23.567,23.567,0,0,0-6.157,1.278,108.409,108.409,0,0,0-16.011,5.92,58.97,58.97,0,0,0-15.112,10.288l64.583,17.3a31.591,31.591,0,0,1-5.215,17.2c-2.682,4.1-6.38,7.926-11.991,12.414a44.483,44.483,0,0,0-7.057,7.058,44.77,44.77,0,0,0-5.165,8.235h-58.133c-2.17-3.626-4.285-7.427-6.467-11.62a48.332,48.332,0,0,0-6.957,11.62h-39.744a151.408,151.408,0,0,1,5.179-39.463,150.736,150.736,0,0,1,21.109-46.075,151.145,151.145,0,0,1,33.795-35.439,152.428,152.428,0,0,1,42.94-22.761,150.609,150.609,0,0,1,48.546-8.041,151.5,151.5,0,0,1,39.2,5.183,150.774,150.774,0,0,1,46.118,21.138,151.1,151.1,0,0,1,35.458,33.844,152.374,152.374,0,0,1,22.751,43,150.588,150.588,0,0,1,7.991,48.612Zm-305.118,0h-24.326c-.377-.449-.794-.909-1.241-1.367-2.577-2.645-3.854-5.576-3.69-8.476s1.761-5.672,4.62-8.012c3.478-2.848,5.532-6.062,6.107-9.553s-.342-7.183-2.725-10.976c-2.1-3.352-2.792-6.466-2.049-9.257.735-2.765,2.846-5.094,6.273-6.923,8.16-4.332,10.648-10.959,7.4-19.695-1.255-3.372-1.229-6.515.076-9.091s3.824-4.457,7.286-5.439a21.26,21.26,0,0,0,5.845-2.563,13.175,13.175,0,0,0,3.874-3.818,13.206,13.206,0,0,0,1.916-5.1,21.4,21.4,0,0,0-.027-6.4c-.5-3.588.171-6.639,1.943-8.824,1.79-2.207,4.685-3.507,8.37-3.762,9.2-.647,14.222-5.668,14.912-14.922a12.119,12.119,0,0,1,3.136-7.786,9.982,9.982,0,0,1,7.279-2.754,16.45,16.45,0,0,1,2.738.242,18.5,18.5,0,0,0,3.049.261,14.153,14.153,0,0,0,9.007-3.037,15.7,15.7,0,0,0,5.184-8.475,12.4,12.4,0,0,1,3.751-6.43,9.392,9.392,0,0,1,6.209-2.277,12.349,12.349,0,0,1,4.914,1.087,15.243,15.243,0,0,0,6.1,1.288,14.471,14.471,0,0,0,7.453-2.059,14.929,14.929,0,0,0,5.482-5.837c2.7-5.115,5.656-7.5,9.3-7.5,2.29,0,4.928.939,8.064,2.871a15.054,15.054,0,0,0,7.866,2.286,14.148,14.148,0,0,0,6.113-1.384,15.53,15.53,0,0,0,5.22-4.072c3.018-3.58,5.94-5.321,8.935-5.321,2.768,0,5.651,1.479,8.815,4.52a14.759,14.759,0,0,0,10.248,4.267,14.833,14.833,0,0,0,9.161-3.244c3.184-2.494,5.947-3.706,8.45-3.706a8.027,8.027,0,0,1,4.7,1.568,18.1,18.1,0,0,1,4.393,4.727c3.009,4.4,7.3,6.817,12.091,6.817a16.154,16.154,0,0,0,7.188-1.777,15.589,15.589,0,0,1,6.763-1.86,8.2,8.2,0,0,1,5.469,2.006,15.143,15.143,0,0,1,3.937,6.029c2.445,6.144,7.392,9.667,13.571,9.667a18.065,18.065,0,0,0,4.388-.564,18.057,18.057,0,0,1,4.354-.589,9.243,9.243,0,0,1,6.7,2.485,13.07,13.07,0,0,1,3.39,7.361,15.416,15.416,0,0,0,5.024,9.377,15.154,15.154,0,0,0,9.984,3.4c.3,0,.608-.007.914-.021s.621-.021.923-.021a14.514,14.514,0,0,1,4.973.79,8.972,8.972,0,0,1,3.566,2.319,9.009,9.009,0,0,1,2.032,3.756,14.819,14.819,0,0,1,.394,5.123,15.248,15.248,0,0,0,3.359,10.627,14.309,14.309,0,0,0,10,5.437,10.258,10.258,0,0,1,7.653,4.1,10.953,10.953,0,0,1,1.493,9.132c-1.208,4.942-1.033,8.846.533,11.933s4.614,5.525,9.311,7.446a10.817,10.817,0,0,1,6.375,6.132,9.72,9.72,0,0,1,.547,4.3,12.953,12.953,0,0,1-1.411,4.687c-2.054,4.043-2.635,7.86-1.728,11.345s3.271,6.534,7.03,9.062c3.125,2.113,5.009,4.744,5.447,7.608.432,2.818-.545,5.822-2.824,8.686-2.662,3.357-3.985,6.8-3.933,10.247a15.292,15.292,0,0,0,4.231,9.906l-24.707,0A151.7,151.7,0,0,0-9650.536-110a154.562,154.562,0,0,0-15.5-37.39,152.555,152.555,0,0,0-93.206-71.518,154.569,154.569,0,0,0-39.977-5.294,151.838,151.838,0,0,0-39.365,5.194,154.7,154.7,0,0,0-37.155,15.43,152.533,152.533,0,0,0-71.523,93.222,154.544,154.544,0,0,0-5.295,39.978Z" transform="translate(9981.833 253.454)" fill="#fff"/>
</svg>
