<svg xmlns="http://www.w3.org/2000/svg" width="320" height="101.503" viewBox="0 0 320 101.503">
  <g id="Group_230" data-name="Group 230" transform="translate(171.326 563.028)" opacity="0.995">
    <g id="Group_231" data-name="Group 231" transform="translate(46.822 -563.027)">
      <path id="Path_378" data-name="Path 378" d="M649.573-229.822a42.388,42.388,0,0,1-30.185,12.505,42.4,42.4,0,0,1-30.19-12.505,42.413,42.413,0,0,1-12.5-30.185,42.424,42.424,0,0,1,12.5-30.19,42.437,42.437,0,0,1,30.19-12.5,42.422,42.422,0,0,1,30.185,12.5,42.419,42.419,0,0,1,12.507,30.19,42.408,42.408,0,0,1-12.507,30.185m19.59-27.91a2.82,2.82,0,0,0,.02-4.529c-1.937-1.833-2.142-3.728-.63-5.9a2.814,2.814,0,0,0-.951-4.427,4.07,4.07,0,0,1-1.836-5.583,2.85,2.85,0,0,0-1.877-4.188,4.045,4.045,0,0,1-2.893-5.1,2.855,2.855,0,0,0-2.568-3.665c-2.775-.353-3.978-1.695-4.04-4.5a2.818,2.818,0,0,0-3.409-2.895,4.187,4.187,0,0,1-4.743-3.354c-.4-2.2-1.908-3.038-4.055-2.359a4.037,4.037,0,0,1-5.195-2.279c-.95-2.07-2.528-2.57-4.547-1.448a4.023,4.023,0,0,1-5.48-1.152c-1.417-1.909-2.994-2.072-4.787-.5a4.018,4.018,0,0,1-5.542.034c-1.909-1.637-3.366-1.471-4.9.567a4.031,4.031,0,0,1-5.288,1.122c-2.2-1.215-3.655-.756-4.71,1.493a4.052,4.052,0,0,1-4.93,2.234c-2.5-.747-3.755-.027-4.33,2.493a4.07,4.07,0,0,1-4.638,3.145,2.864,2.864,0,0,0-3.448,3.117,4,4,0,0,1-3.821,4.263,2.868,2.868,0,0,0-2.793,3.714,4.041,4.041,0,0,1-2.931,5.082,2.819,2.819,0,0,0-1.865,4.123c1.034,2.434.431,4.286-1.831,5.639a2.844,2.844,0,0,0-.932,4.433,3.99,3.99,0,0,1-.569,5.823c-1.592,1.488-1.583,3.152.03,4.651a3.986,3.986,0,0,1,.568,5.758,2.856,2.856,0,0,0,.937,4.5A4.013,4.013,0,0,1,573-241.844a2.831,2.831,0,0,0,1.882,4.183,4.021,4.021,0,0,1,2.9,5.017,2.874,2.874,0,0,0,2.823,3.761,4.009,4.009,0,0,1,3.779,4.214,2.88,2.88,0,0,0,3.316,3.19,4.021,4.021,0,0,1,4.816,3.419,2.845,2.845,0,0,0,3.982,2.294,4.07,4.07,0,0,1,5.359,2.413,2.835,2.835,0,0,0,4.243,1.421c2.375-1.314,4.22-.929,5.854,1.243a2.628,2.628,0,0,0,2.73,1.254,4.809,4.809,0,0,0,1.9-1.008,4.086,4.086,0,0,1,5.486-.06c2,1.691,3.361,1.549,4.971-.52a4.036,4.036,0,0,1,5.291-1.11c2.209,1.209,3.634.75,4.706-1.512a4.054,4.054,0,0,1,4.942-2.212c2.485.749,3.678.05,4.3-2.52a4.079,4.079,0,0,1,4.658-3.122,2.861,2.861,0,0,0,3.442-2.958c.048-2.71,1.328-4.129,4.008-4.439A2.853,2.853,0,0,0,661-232.532c-.538-2.531.458-4.269,2.941-5.148a2.843,2.843,0,0,0,1.836-4.145,4.06,4.06,0,0,1,1.8-5.59,2.821,2.821,0,0,0,.994-4.42c-1.517-2.2-1.326-4.093.592-5.9" transform="translate(-568.461 310.674)" fill="#0c223b" fill-rule="evenodd"/>
      <path id="Path_379" data-name="Path 379" d="M637.54-284.524A42.186,42.186,0,0,0,595.4-242.386a42.19,42.19,0,0,0,42.141,42.139,42.189,42.189,0,0,0,42.138-42.139A42.184,42.184,0,0,0,637.54-284.524Z" transform="translate(-586.612 293.053)" fill="#0c223b" fill-rule="evenodd"/>
    </g>
    <path id="Path_380" data-name="Path 380" d="M45.735-274.645c-1.258,5.084,0,44.055,0,52.145,7.139-1.388,20.513-11.622,16.629-17.086,7.058-2.979,12.737-7.8,18.094-13.658,3.939,9-.413,15.882-4.525,23.019-2.644-1.427-4.306-.311-5.848,1.9-5.793,8.32-13.828,13.465-23.476,16.255a17.538,17.538,0,0,0-3.048,1.215,27.467,27.467,0,0,0-2.424,1.508c-.046-.02-.093-.041-.138-.063-.044.021-.088.042-.133.061a27.462,27.462,0,0,0-2.424-1.508,17.539,17.539,0,0,0-3.048-1.215c-9.648-2.791-17.683-7.936-23.476-16.255-1.541-2.216-3.2-3.331-5.848-1.9-4.112-7.137-8.464-14.016-4.525-23.019,5.357,5.854,11.037,10.678,18.094,13.658-3.884,5.464,9.49,15.7,16.629,17.086,0-8.091,1.258-47.062,0-52.145H7.356c2.642-4.27,6.15-6.727,9.8-8.983,3.093-1.9,3.624-1.573,3.725,2.233,3.663,0,11.718-.1,15.387,0,.782.021.929-7.217,1.089-14.332a7.92,7.92,0,0,1-4.273-7.029A7.92,7.92,0,0,1,41-310.674a7.92,7.92,0,0,1,7.916,7.916,7.92,7.92,0,0,1-4.273,7.029c.16,7.115.307,14.355,1.089,14.334,3.669-.1,11.725,0,15.387,0,.1-3.806.631-4.138,3.725-2.233,3.651,2.257,7.16,4.713,9.8,8.983ZM41-306.839a3.761,3.761,0,0,1,3.759,3.759A3.761,3.761,0,0,1,41-299.321a3.761,3.761,0,0,1-3.759-3.759A3.761,3.761,0,0,1,41-306.839Z" transform="translate(-171.327 -252.182)" fill="#0c223b" fill-rule="evenodd"/>
    <path id="Path_381" data-name="Path 381" d="M373.21-209.8c-4.658.089-9.32.979-13.7-.007-8.519-1.919-4.007-9.608-4.007-9.985,0-9.914.163-19.822-.068-29.718a21.585,21.585,0,0,1,4.074-13.8c1.766-2.4,3.419-4.277,4.461-10.37.892-5.214.734-4.3.781-5.128.355-5.952.832-11.9,1.216-17.848.058-.83.175-1.967-.28-2.474-1.76-1.938-1.066-3.876-.459-5.933a5.015,5.015,0,0,0,.22-2.672c-.612-2,.375-2.856,2.04-2.9q2.848-.06,5.7-.051h.519q2.855-.011,5.7.051c1.665.039,2.652.892,2.04,2.9a5.014,5.014,0,0,0,.22,2.672c.608,2.057,1.3,4-.459,5.933-.455.507-.339,1.644-.28,2.474.383,5.952.861,11.9,1.216,17.848.047.826-.111-.086.781,5.128,1.042,6.093,2.429,7.972,4.194,10.37a21.589,21.589,0,0,1,4.075,13.8c-.231,9.9-.068,19.8-.068,29.718,0,.377,4.513,8.065-4.006,9.985-4.413.994-9.114.082-13.808,0Z" transform="translate(-394.452 -252.267)" fill="#0c223b" fill-rule="evenodd"/>
  </g>
</svg>
