<svg xmlns="http://www.w3.org/2000/svg" xmlns:xlink="http://www.w3.org/1999/xlink" width="617" height="616.831" viewBox="0 0 617 616.831">
  <defs>
    <filter id="Rectangle_60" x="0" y="0" width="617" height="616.831" filterUnits="userSpaceOnUse">
      <feOffset dy="35" input="SourceAlpha"/>
      <feGaussianBlur stdDeviation="13.5" result="blur"/>
      <feFlood flood-opacity="0.071"/>
      <feComposite operator="in" in2="blur"/>
      <feComposite in="SourceGraphic"/>
    </filter>
  </defs>
  <g id="Group_293" data-name="Group 293" transform="translate(-156.5 -344.5)">
    <g id="Group_291" data-name="Group 291">
      <g transform="matrix(1, 0, 0, 1, 156.5, 344.5)" filter="url(#Rectangle_60)">
        <rect id="Rectangle_60-2" data-name="Rectangle 60" width="536" height="535.831" transform="translate(40.5 5.5)" fill="#fff"/>
      </g>
    </g>
    <g id="Group_292" data-name="Group 292" transform="translate(362 953.43)">
      <path id="Path_413" data-name="Path 413" d="M163.388-328.351a85.386,85.386,0,0,1-60.8,25.19,85.415,85.415,0,0,1-60.813-25.19,85.434,85.434,0,0,1-25.186-60.8,85.454,85.454,0,0,1,25.186-60.814,85.481,85.481,0,0,1,60.813-25.185,85.453,85.453,0,0,1,60.8,25.185,85.444,85.444,0,0,1,25.192,60.814,85.424,85.424,0,0,1-25.192,60.8m39.461-56.221c3.07-2.9,3.087-6.249.041-9.122-3.9-3.692-4.315-7.51-1.27-11.876,2.4-3.437,1.678-6.791-1.917-8.917-4.4-2.6-5.713-6.6-3.7-11.247,1.681-3.866.254-7.043-3.782-8.436-4.822-1.653-6.883-5.281-5.829-10.275.822-3.888-1.274-6.882-5.173-7.382-5.59-.711-8.012-3.414-8.138-9.06-.089-3.905-3.032-6.517-6.867-5.831a8.434,8.434,0,0,1-9.555-6.756c-.815-4.439-3.844-6.118-8.168-4.752a8.133,8.133,0,0,1-10.464-4.591c-1.914-4.17-5.092-5.177-9.159-2.916a8.1,8.1,0,0,1-11.038-2.321c-2.856-3.845-6.031-4.175-9.644-1a8.093,8.093,0,0,1-11.163.069c-3.846-3.3-6.78-2.964-9.867,1.141A8.119,8.119,0,0,1,76.51-485.58c-4.439-2.447-7.363-1.523-9.487,3.007a8.163,8.163,0,0,1-9.93,4.5c-5.043-1.506-7.563-.056-8.722,5.02a8.2,8.2,0,0,1-9.342,6.336c-4.087-.608-6.993,2.009-6.945,6.278a8.064,8.064,0,0,1-7.7,8.588c-4.291.4-6.424,3.241-5.625,7.48.968,5.1-1.023,8.553-5.9,10.237-3.971,1.362-5.377,4.477-3.756,8.3,2.083,4.9.867,8.635-3.689,11.36-3.525,2.1-4.257,5.58-1.876,8.93,3.028,4.257,2.646,8.2-1.146,11.729-3.206,3-3.19,6.348.061,9.368,3.695,3.427,4.1,7.489,1.145,11.6-2.462,3.427-1.737,6.9,1.887,9.056,4.448,2.638,5.7,6.461,3.659,11.221-1.683,3.922-.291,7.03,3.791,8.426,4.772,1.636,6.8,5.146,5.844,10.106-.844,4.339,1.289,7.181,5.688,7.577a8.074,8.074,0,0,1,7.613,8.487c-.05,4.225,2.717,6.886,6.679,6.426,5.155-.6,8.5,1.783,9.7,6.886.98,4.183,3.947,5.893,8.021,4.622,4.854-1.507,8.676.212,10.793,4.86,1.663,3.654,5.073,4.8,8.547,2.864,4.784-2.647,8.5-1.871,11.793,2.5,1.392,1.849,3.19,3.042,5.5,2.526a9.685,9.685,0,0,0,3.832-2.03c3.462-2.838,7.709-2.964,11.05-.121,4.024,3.406,6.77,3.119,10.013-1.047a8.131,8.131,0,0,1,10.659-2.235c4.449,2.436,7.319,1.511,9.478-3.046a8.167,8.167,0,0,1,9.956-4.456c5.006,1.51,7.409.1,8.67-5.076a8.217,8.217,0,0,1,9.383-6.287c3.955.559,6.857-1.931,6.933-5.958.1-5.459,2.675-8.318,8.073-8.942a5.747,5.747,0,0,0,5.254-7.326c-1.085-5.1.923-8.6,5.925-10.369,3.923-1.393,5.334-4.56,3.7-8.349-2.03-4.7-.755-8.674,3.619-11.259,3.621-2.143,4.369-5.477,2-8.9-3.056-4.439-2.672-8.244,1.193-11.88" transform="translate(0)" fill="#0c223b" fill-rule="evenodd"/>
      <path id="Path_414" data-name="Path 414" d="M164.421-336.214c-3.91-2.109-6.367-.461-8.646,2.816-8.565,12.3-20.446,19.909-34.712,24.035a25.956,25.956,0,0,0-4.506,1.8,40.329,40.329,0,0,0-3.584,2.23c-.078-.034-.156-.07-.232-.108-.078.038-.159.074-.237.108a39.891,39.891,0,0,0-3.585-2.23,25.772,25.772,0,0,0-4.5-1.8C90.148-313.489,78.262-321.1,69.7-333.4c-2.282-3.277-4.738-4.925-8.649-2.816-6.085-10.553-12.514-20.724-6.695-34.036,7.93,8.656,16.322,15.789,26.765,20.195-5.748,8.079-1.122,17.131,9.436,19.183,0-11.963.2-23.917-.082-35.858a26.047,26.047,0,0,1,4.916-16.646c3.954-5.371,6.877-11,5.017-18.518H62.955c3.906-6.314,9.093-9.945,14.491-13.283,4.571-2.816,5.357-2.326,5.511,3.3,5.409,0,10.841-.1,16.266.048,2.277.061,3.056-.811,3.179-2.972.428-7.181,1.005-14.354,1.467-21.535.07-1,.211-2.374-.338-2.986-2.124-2.338-1.287-4.677-.553-7.159a6.057,6.057,0,0,0,.266-3.224c-.738-2.417.453-3.445,2.462-3.493q3.436-.072,6.88-.061h.3q3.445-.012,6.881.061c2.007.048,3.2,1.076,2.466,3.493a5.965,5.965,0,0,0,.267,3.224c.731,2.482,1.565,4.821-.558,7.159-.548.612-.405,1.984-.341,2.986.463,7.181,1.034,14.354,1.465,21.535.13,2.162.909,3.033,3.183,2.972,5.425-.147,10.854-.048,16.269-.048.15-5.628.934-6.118,5.508-3.3,5.4,3.337,10.587,6.969,14.494,13.283H125.065c-1.86,7.515,1.063,13.147,5.017,18.518a25.992,25.992,0,0,1,4.909,16.646c-.269,11.941-.076,23.9-.076,35.858,10.555-2.052,15.186-11.1,9.443-19.183,10.435-4.405,18.833-11.538,26.754-20.195,5.825,13.312-.61,23.483-6.691,34.036M112.74-464.176A84.976,84.976,0,0,0,27.853-379.3a84.985,84.985,0,0,0,84.887,84.882,84.982,84.982,0,0,0,84.88-84.882,84.974,84.974,0,0,0-84.88-84.879" transform="translate(-10.155 -9.858)" fill="#0c223b" fill-rule="evenodd"/>
      <path id="Path_415" data-name="Path 415" d="M5.458-129.087v19.314h2.4c1.352,0,2.163-.7,2.163-2.627v-14.06c0-1.932-.811-2.627-2.163-2.627ZM1.209-132.95H7.931c4.249,0,6.335,2.356,6.335,6.682v13.675c0,4.327-2.086,6.683-6.335,6.683H1.209Z" transform="translate(-0.441 -130.621)" fill="#0c223b"/>
      <path id="Path_416" data-name="Path 416" d="M29.712-112.307c0,1.931.85,2.665,2.2,2.665s2.2-.734,2.2-2.665v-14.6c0-1.932-.85-2.666-2.2-2.666s-2.2.734-2.2,2.666Zm-4.249-14.331c0-4.326,2.279-6.8,6.451-6.8s6.451,2.472,6.451,6.8v14.06c0,4.326-2.279,6.8-6.451,6.8s-6.451-2.472-6.451-6.8Z" transform="translate(-9.284 -130.444)" fill="#0c223b"/>
      <path id="Path_417" data-name="Path 417" d="M54.331-118.078v8.3h2.433c1.429,0,2.2-.656,2.2-2.665v-2.357c0-2.51-.811-3.283-2.742-3.283Zm0-11.008v7.146h1.66c1.583,0,2.55-.7,2.55-2.858v-1.507c0-1.931-.657-2.781-2.163-2.781Zm8.459,2.356v.966c0,2.781-.85,4.558-2.743,5.447,2.279.888,3.168,2.936,3.168,5.794v2.2c0,4.172-2.2,6.412-6.451,6.412H50.082v-27.038h6.412c4.4,0,6.3,2.047,6.3,6.219" transform="translate(-18.26 -130.621)" fill="#0c223b"/>
      <path id="Path_418" data-name="Path 418" d="M79.011-129.087v8.3h1.66c1.583,0,2.55-.7,2.55-2.859v-2.665c0-1.931-.657-2.781-2.163-2.781Zm4.635,23.177a8.313,8.313,0,0,1-.386-3.323v-4.249c0-2.511-.85-3.438-2.781-3.438H79.011v11.009H74.762V-132.95h6.412c4.4,0,6.3,2.047,6.3,6.219v2.125c0,2.781-.889,4.6-2.781,5.485,2.124.888,2.819,2.936,2.819,5.756v4.172a7.959,7.959,0,0,0,.464,3.283Z" transform="translate(-27.258 -130.621)" fill="#0c223b"/>
      <path id="Path_419" data-name="Path 419" d="M102.61-114.486H106.7l-2.047-13.674Zm9.7,8.575h-4.288l-.735-4.906h-5.214l-.734,4.906h-3.9l4.327-27.039h6.219Z" transform="translate(-35.524 -130.621)" fill="#0c223b"/>
      <path id="Path_420" data-name="Path 420" d="M137.609-129.087v9.154h2.008c1.352,0,2.086-.618,2.086-2.549v-4.056c0-1.931-.734-2.549-2.086-2.549Zm8.344,2.819v3.516c0,4.326-2.086,6.682-6.336,6.682h-2.008v10.16H133.36V-132.95h6.257c4.25,0,6.336,2.356,6.336,6.682" transform="translate(-48.622 -130.621)" fill="#0c223b"/>
      <path id="Path_421" data-name="Path 421" d="M160.829-129.087v8.3h1.66c1.583,0,2.55-.7,2.55-2.859v-2.665c0-1.931-.657-2.781-2.163-2.781Zm4.635,23.177a8.313,8.313,0,0,1-.386-3.323v-4.249c0-2.511-.85-3.438-2.781-3.438h-1.468v11.009H156.58V-132.95h6.412c4.4,0,6.3,2.047,6.3,6.219v2.125c0,2.781-.889,4.6-2.781,5.485,2.124.888,2.819,2.936,2.819,5.756v4.172a7.959,7.959,0,0,0,.464,3.283Z" transform="translate(-57.088 -130.621)" fill="#0c223b"/>
      <path id="Path_422" data-name="Path 422" d="M184.428-114.486h4.095l-2.047-13.674Zm9.7,8.575h-4.288l-.735-4.906h-5.214l-.734,4.906h-3.9l4.327-27.039H189.8Z" transform="translate(-65.354 -130.621)" fill="#0c223b"/>
      <path id="Path_423" data-name="Path 423" d="M211.318-116.688l-1.313,2.472v8.3h-4.25V-132.95h4.25v11.781l5.562-11.781h4.249l-5.91,12.052,5.91,14.987h-4.365Z" transform="translate(-75.017 -130.621)" fill="#0c223b"/>
      <path id="Path_424" data-name="Path 424" d="M228.975-132.95h13.133v3.863h-4.442v23.177h-4.249v-23.177h-4.442Z" transform="translate(-83.483 -130.621)" fill="#0c223b"/>
      <path id="Path_425" data-name="Path 425" d="M255.741-114.872l-5.369-18.077h4.442l3.244,12.322,3.245-12.322h4.056l-5.369,18.077v8.961h-4.249Z" transform="translate(-91.284 -130.621)" fill="#0c223b"/>
      <path id="Path_426" data-name="Path 426" d="M282.2-116.688l-1.313,2.472v8.3h-4.25V-132.95h4.25v11.781l5.562-11.781h4.249l-5.91,12.052,5.91,14.987h-4.365Z" transform="translate(-100.858 -130.621)" fill="#0c223b"/>
      <path id="Path_427" data-name="Path 427" d="M305.211-114.486h4.095l-2.047-13.674Zm9.7,8.575h-4.288l-.734-4.906H304.67l-.734,4.906h-3.9l4.326-27.039h6.219Z" transform="translate(-109.39 -130.621)" fill="#0c223b"/>
      <path id="Path_428" data-name="Path 428" d="M12.958-73.375H7.219v-5.738h5.738Zm6.634,2.212v5.858L7.1-35.3H19.592v5.978H.346V-35.18L12.838-65.186H.943v-5.977Z" transform="translate(-0.126 -150.249)" fill="#0c223b"/>
      <path id="Path_429" data-name="Path 429" d="M43.326-48.969h9.026v5.977H43.326v12.253H54.684v5.978H36.75V-66.6H54.684v5.977H43.326Z" transform="translate(-13.399 -154.811)" fill="#0c223b"/>
      <path id="Path_430" data-name="Path 430" d="M80.923-48.346h9.2v13.27c0,6.695-3.346,10.52-9.8,10.52s-9.8-3.825-9.8-10.52V-56.834c0-6.695,3.348-10.52,9.8-10.52s9.8,3.825,9.8,10.52v4.065H83.912v-4.483c0-2.988-1.315-4.124-3.406-4.124S77.1-60.241,77.1-57.253v22.594c0,2.989,1.315,4.064,3.408,4.064s3.406-1.075,3.406-4.064v-7.711H80.923Z" transform="translate(-25.712 -154.537)" fill="#0c223b"/>
      <path id="Path_431" data-name="Path 431" d="M108.057-66.6h6.575v35.864h10.819v5.978H108.057Z" transform="translate(-39.397 -154.811)" fill="#0c223b"/>
      <path id="Path_432" data-name="Path 432" d="M145.229-38.031h6.336L148.4-59.19Zm15,13.27H153.6l-1.137-7.591h-8.069l-1.135,7.591H137.22L143.914-66.6h9.623Z" transform="translate(-50.029 -154.811)" fill="#0c223b"/>
      <path id="Path_433" data-name="Path 433" d="M184.808-60.625v12.852h2.57c2.451,0,3.945-1.076,3.945-4.424v-4.124c0-2.989-1.017-4.3-3.347-4.3Zm7.173,35.864c-.358-1.076-.6-1.733-.6-5.14v-6.575c0-3.886-1.315-5.32-4.3-5.32h-2.272v17.035h-6.575V-66.6h9.924c6.813,0,9.742,3.168,9.742,9.623v3.288c0,4.3-1.374,7.113-4.3,8.488,3.289,1.374,4.363,4.543,4.363,8.906v6.455a12.34,12.34,0,0,0,.717,5.081Z" transform="translate(-64.982 -154.811)" fill="#0c223b"/>
      <path id="Path_434" data-name="Path 434" d="M224.314-67.354c6.395,0,9.682,3.826,9.682,10.52v1.315H227.78v-1.734c0-2.988-1.2-4.124-3.288-4.124s-3.288,1.135-3.288,4.124c0,8.607,12.851,10.221,12.851,22.176,0,6.695-3.347,10.52-9.8,10.52s-9.8-3.825-9.8-10.52v-2.57h6.216v2.988c0,2.989,1.314,4.065,3.406,4.065s3.406-1.076,3.406-4.065c0-8.607-12.85-10.221-12.85-22.176,0-6.694,3.288-10.52,9.684-10.52" transform="translate(-78.188 -154.537)" fill="#0c223b"/>
      <path id="Path_435" data-name="Path 435" d="M259.84-41.438l-2.031,3.826v12.851h-6.575V-66.6h6.575v18.231L266.415-66.6h6.576l-9.146,18.65,9.146,23.192h-6.755Z" transform="translate(-91.598 -154.81)" fill="#0c223b"/>
      <path id="Path_436" data-name="Path 436" d="M295.46-38.031H301.8l-3.169-21.16Zm15,13.27h-6.634l-1.137-7.591h-8.069l-1.135,7.591h-6.036L294.145-66.6h9.623Z" transform="translate(-104.802 -154.811)" fill="#0c223b"/>
    </g>
  </g>
</svg>
