<svg xmlns="http://www.w3.org/2000/svg" width="189.625" height="287.785" viewBox="0 0 189.625 287.785">
  <g id="Group_215" data-name="Group 215" transform="translate(0 491.215)">
    <path id="Path_323" data-name="Path 323" d="M150.649-341.05a78.729,78.729,0,0,1-56.062,23.226A78.755,78.755,0,0,1,38.515-341.05a78.772,78.772,0,0,1-23.222-56.063,78.791,78.791,0,0,1,23.222-56.072,78.816,78.816,0,0,1,56.072-23.221,78.79,78.79,0,0,1,56.062,23.221,78.782,78.782,0,0,1,23.228,56.072,78.763,78.763,0,0,1-23.228,56.063m36.385-51.837c2.83-2.67,2.847-5.762.037-8.411-3.6-3.4-3.979-6.925-1.171-10.95,2.215-3.169,1.547-6.262-1.768-8.222-4.058-2.4-5.268-6.081-3.409-10.37,1.55-3.565.234-6.494-3.487-7.778-4.446-1.524-6.347-4.869-5.374-9.473.758-3.585-1.175-6.345-4.77-6.806-5.154-.656-7.387-3.148-7.5-8.354-.082-3.6-2.8-6.009-6.332-5.376a7.776,7.776,0,0,1-8.81-6.229c-.752-4.093-3.544-5.641-7.531-4.381a7.5,7.5,0,0,1-9.648-4.233c-1.765-3.844-4.7-4.773-8.445-2.689a7.471,7.471,0,0,1-10.177-2.14c-2.633-3.545-5.561-3.849-8.892-.92a7.462,7.462,0,0,1-10.292.064c-3.546-3.041-6.251-2.732-9.1,1.052a7.486,7.486,0,0,1-9.821,2.084c-4.093-2.256-6.789-1.4-8.747,2.772a7.527,7.527,0,0,1-9.156,4.149c-4.649-1.389-6.974-.052-8.042,4.629a7.558,7.558,0,0,1-8.614,5.842c-3.768-.561-6.447,1.852-6.4,5.789a7.435,7.435,0,0,1-7.1,7.918c-3.956.372-5.923,2.989-5.187,6.9.893,4.705-.943,7.886-5.444,9.439-3.661,1.256-4.958,4.128-3.463,7.657,1.92,4.521.8,7.961-3.4,10.474-3.25,1.94-3.925,5.145-1.73,8.234,2.792,3.925,2.44,7.558-1.057,10.814-2.956,2.764-2.941,5.853.056,8.638,3.407,3.16,3.778,6.9,1.056,10.694-2.27,3.16-1.6,6.361,1.74,8.35,4.1,2.432,5.252,5.957,3.373,10.346-1.552,3.617-.268,6.481,3.5,7.769,4.4,1.509,6.273,4.745,5.389,9.318-.779,4,1.188,6.621,5.244,6.986a7.445,7.445,0,0,1,7.019,7.825c-.046,3.9,2.505,6.349,6.158,5.925,4.753-.552,7.841,1.644,8.946,6.349.9,3.857,3.639,5.434,7.4,4.262,4.475-1.389,8,.2,9.952,4.481,1.534,3.369,4.678,4.424,7.88,2.641,4.411-2.441,7.837-1.725,10.874,2.308,1.284,1.7,2.941,2.805,5.069,2.329a8.93,8.93,0,0,0,3.533-1.872c3.192-2.617,7.108-2.733,10.188-.112,3.71,3.14,6.242,2.876,9.233-.965a7.5,7.5,0,0,1,9.828-2.061c4.1,2.246,6.749,1.393,8.739-2.808a7.53,7.53,0,0,1,9.179-4.109c4.615,1.392,6.832.093,7.994-4.68a7.576,7.576,0,0,1,8.651-5.8,5.314,5.314,0,0,0,6.392-5.494c.088-5.033,2.466-7.67,7.443-8.245a5.3,5.3,0,0,0,4.845-6.755c-1-4.7.851-7.929,5.463-9.561,3.617-1.285,4.918-4.2,3.409-7.7-1.872-4.332-.7-8,3.337-10.382,3.338-1.976,4.028-5.05,1.847-8.21-2.817-4.093-2.464-7.6,1.1-10.953" transform="translate(0)" fill="#fff" fill-rule="evenodd"/>
    <path id="Path_324" data-name="Path 324" d="M153.772-346.191c-3.6-1.944-5.871-.425-7.972,2.6-7.9,11.342-18.852,18.356-32.006,22.161a23.932,23.932,0,0,0-4.155,1.656,37.184,37.184,0,0,0-3.3,2.056c-.072-.032-.144-.064-.214-.1-.072.035-.146.068-.219.1a36.779,36.779,0,0,0-3.305-2.056,23.761,23.761,0,0,0-4.153-1.656c-13.153-3.8-24.113-10.819-32.006-22.161-2.1-3.021-4.369-4.541-7.974-2.6-5.61-9.73-11.538-19.108-6.173-31.382,7.312,7.981,15.049,14.558,24.678,18.62-5.3,7.449-1.035,15.8,8.7,17.687,0-11.03.18-22.053-.076-33.062a24.016,24.016,0,0,1,4.533-15.349c3.645-4.952,6.341-10.145,4.626-17.074H60.218c3.6-5.822,8.384-9.17,13.361-12.247,4.215-2.6,4.939-2.145,5.081,3.045,4.987,0,10-.091,15,.044,2.1.056,2.818-.748,2.931-2.741.395-6.621.927-13.235,1.353-19.856.064-.924.195-2.189-.312-2.753-1.959-2.156-1.186-4.312-.51-6.6a5.585,5.585,0,0,0,.245-2.973c-.681-2.229.418-3.177,2.27-3.22q3.168-.067,6.344-.056h.279q3.177-.011,6.344.056c1.851.044,2.95.992,2.274,3.22a5.5,5.5,0,0,0,.246,2.973c.674,2.288,1.443,4.445-.514,6.6-.506.564-.374,1.829-.314,2.753.426,6.621.954,13.235,1.351,19.856.12,1.993.838,2.8,2.935,2.741,5-.135,10.008-.044,15-.044.138-5.19.861-5.641,5.078-3.045,4.978,3.077,9.761,6.425,13.364,12.247H117.485c-1.715,6.929.98,12.122,4.626,17.074a23.966,23.966,0,0,1,4.526,15.349c-.248,11.01-.07,22.032-.07,33.062,9.732-1.892,14-10.238,8.707-17.687,9.622-4.062,17.364-10.639,24.668-18.62,5.371,12.274-.562,21.652-6.169,31.382M106.121-464.176a78.351,78.351,0,0,0-78.268,78.261,78.359,78.359,0,0,0,78.268,78.264,78.356,78.356,0,0,0,78.262-78.264,78.348,78.348,0,0,0-78.262-78.261" transform="translate(-11.535 -11.198)" fill="#fff" fill-rule="evenodd"/>
    <path id="Path_325" data-name="Path 325" d="M5.127-129.389v17.808H7.336c1.246,0,1.994-.642,1.994-2.422v-12.964c0-1.781-.748-2.422-1.994-2.422ZM1.209-132.95h6.2c3.918,0,5.841,2.172,5.841,6.161v12.608c0,3.989-1.923,6.162-5.841,6.162h-6.2Z" transform="translate(-0.501 -148.37)" fill="#fff"/>
    <path id="Path_326" data-name="Path 326" d="M29.381-113.954c0,1.78.784,2.457,2.03,2.457s2.031-.677,2.031-2.457v-13.463c0-1.781-.784-2.458-2.031-2.458s-2.03.677-2.03,2.458Zm-3.918-13.214c0-3.989,2.1-6.268,5.948-6.268s5.948,2.28,5.948,6.268V-114.2c0,3.989-2.1,6.268-5.948,6.268s-5.948-2.279-5.948-6.268Z" transform="translate(-10.545 -148.169)" fill="#fff"/>
    <path id="Path_327" data-name="Path 327" d="M54-119.237v7.657h2.243c1.318,0,2.031-.605,2.031-2.457v-2.173c0-2.315-.748-3.027-2.529-3.027Zm0-10.15v6.589h1.531c1.46,0,2.351-.641,2.351-2.635v-1.389c0-1.78-.606-2.564-1.994-2.564Zm7.8,2.172v.891c0,2.564-.783,4.2-2.529,5.022,2.1.818,2.921,2.707,2.921,5.342v2.03c0,3.847-2.029,5.912-5.948,5.912H50.082v-24.93h5.912c4.06,0,5.805,1.887,5.805,5.734" transform="translate(-20.741 -148.371)" fill="#fff"/>
    <path id="Path_328" data-name="Path 328" d="M78.68-129.389v7.657h1.531c1.46,0,2.351-.641,2.351-2.636v-2.457c0-1.78-.606-2.564-1.994-2.564Zm4.274,21.37a7.665,7.665,0,0,1-.356-3.063V-115c0-2.315-.783-3.17-2.564-3.17H78.68v10.151H74.762V-132.95h5.912c4.06,0,5.805,1.888,5.805,5.734v1.959c0,2.564-.82,4.238-2.564,5.057,1.959.819,2.6,2.707,2.6,5.307v3.847a7.338,7.338,0,0,0,.428,3.027Z" transform="translate(-30.962 -148.37)" fill="#fff"/>
    <path id="Path_329" data-name="Path 329" d="M102.206-115.926h3.775l-1.887-12.608Zm8.94,7.907h-3.953l-.677-4.523h-4.808l-.677,4.523h-3.6l3.989-24.931h5.734Z" transform="translate(-40.351 -148.37)" fill="#fff"/>
    <path id="Path_330" data-name="Path 330" d="M137.278-129.389v8.441h1.851c1.247,0,1.923-.569,1.923-2.35v-3.74c0-1.78-.677-2.35-1.923-2.35Zm7.693,2.6v3.242c0,3.989-1.923,6.161-5.842,6.161h-1.851v9.368H133.36V-132.95h5.769c3.918,0,5.842,2.172,5.842,6.161" transform="translate(-55.229 -148.37)" fill="#fff"/>
    <path id="Path_331" data-name="Path 331" d="M160.5-129.389v7.657h1.531c1.46,0,2.351-.641,2.351-2.636v-2.457c0-1.78-.606-2.564-1.994-2.564Zm4.274,21.37a7.665,7.665,0,0,1-.356-3.063V-115c0-2.315-.783-3.17-2.564-3.17H160.5v10.151H156.58V-132.95h5.912c4.06,0,5.805,1.888,5.805,5.734v1.959c0,2.564-.82,4.238-2.564,5.057,1.959.819,2.6,2.707,2.6,5.307v3.847a7.338,7.338,0,0,0,.428,3.027Z" transform="translate(-64.845 -148.37)" fill="#fff"/>
    <path id="Path_332" data-name="Path 332" d="M184.024-115.926H187.8l-1.887-12.608Zm8.94,7.907h-3.953l-.677-4.523h-4.808l-.677,4.523h-3.6l3.989-24.931h5.734Z" transform="translate(-74.235 -148.37)" fill="#fff"/>
    <path id="Path_333" data-name="Path 333" d="M210.885-117.956l-1.21,2.28v7.657h-3.918V-132.95h3.918v10.863L214.8-132.95h3.918l-5.449,11.112,5.449,13.819H214.7Z" transform="translate(-85.211 -148.37)" fill="#fff"/>
    <path id="Path_334" data-name="Path 334" d="M228.975-132.95h12.109v3.561h-4.1v21.37h-3.918v-21.37h-4.1Z" transform="translate(-94.827 -148.37)" fill="#fff"/>
    <path id="Path_335" data-name="Path 335" d="M255.323-116.281l-4.951-16.668h4.1l2.991,11.361,2.992-11.361h3.74l-4.951,16.668v8.263h-3.918Z" transform="translate(-103.688 -148.371)" fill="#fff"/>
    <path id="Path_336" data-name="Path 336" d="M281.762-117.956l-1.21,2.28v7.657h-3.918V-132.95h3.918v10.863l5.128-10.863H289.6l-5.449,11.112,5.449,13.819h-4.024Z" transform="translate(-114.564 -148.37)" fill="#fff"/>
    <path id="Path_337" data-name="Path 337" d="M304.807-115.926h3.775L306.7-128.534Zm8.94,7.907h-3.953l-.677-4.523h-4.808l-.677,4.523h-3.6l3.989-24.931h5.734Z" transform="translate(-124.255 -148.37)" fill="#fff"/>
    <path id="Path_338" data-name="Path 338" d="M11.974-73.823H6.683v-5.29h5.291Zm6.117,2.039v5.4L6.573-38.716H18.091V-33.2H.346v-5.4L11.864-66.272H.9v-5.511Z" transform="translate(-0.143 -170.666)" fill="#fff"/>
    <path id="Path_339" data-name="Path 339" d="M42.813-50.344h8.322v5.511H42.813v11.3H53.285v5.512H36.75V-66.6H53.285v5.511H42.813Z" transform="translate(-15.22 -175.847)" fill="#fff"/>
    <path id="Path_340" data-name="Path 340" d="M80.112-49.828H88.6v12.235c0,6.173-3.086,9.7-9.038,9.7s-9.039-3.527-9.039-9.7V-57.654c0-6.173,3.087-9.7,9.039-9.7s9.038,3.527,9.038,9.7v3.748H82.868v-4.134c0-2.755-1.213-3.8-3.141-3.8s-3.142,1.047-3.142,3.8v20.833c0,2.756,1.213,3.747,3.142,3.747s3.141-.991,3.141-3.747v-7.109H80.112Z" transform="translate(-29.206 -175.536)" fill="#fff"/>
    <path id="Path_341" data-name="Path 341" d="M108.057-66.6h6.063v33.067H124.1v5.512H108.057Z" transform="translate(-44.75 -175.847)" fill="#fff"/>
    <path id="Path_342" data-name="Path 342" d="M144.6-40.258h5.842l-2.922-19.51Zm13.833,12.235h-6.117l-1.048-7h-7.44l-1.047,7H137.22L143.392-66.6h8.872Z" transform="translate(-56.828 -175.847)" fill="#fff"/>
    <path id="Path_343" data-name="Path 343" d="M184.3-61.091v11.85h2.37c2.26,0,3.638-.992,3.638-4.079v-3.8c0-2.756-.937-3.968-3.086-3.968Zm6.614,33.067c-.33-.992-.551-1.6-.551-4.739v-6.063c0-3.583-1.212-4.905-3.967-4.905h-2.1v15.707h-6.063V-66.6h9.15c6.282,0,8.982,2.921,8.982,8.873V-54.7c0,3.969-1.267,6.558-3.969,7.827,3.032,1.267,4.023,4.188,4.023,8.211v5.952a11.378,11.378,0,0,0,.661,4.685Z" transform="translate(-73.813 -175.847)" fill="#fff"/>
    <path id="Path_344" data-name="Path 344" d="M223.545-67.354c5.9,0,8.927,3.527,8.927,9.7v1.213h-5.732v-1.6c0-2.755-1.1-3.8-3.031-3.8s-3.031,1.047-3.031,3.8c0,7.936,11.849,9.424,11.849,20.447,0,6.173-3.086,9.7-9.039,9.7s-9.037-3.527-9.037-9.7v-2.37h5.732v2.755c0,2.756,1.212,3.748,3.141,3.748s3.141-.992,3.141-3.748c0-7.936-11.849-9.424-11.849-20.447,0-6.172,3.031-9.7,8.929-9.7" transform="translate(-88.812 -175.536)" fill="#fff"/>
    <path id="Path_345" data-name="Path 345" d="M259.169-43.4,257.3-39.873v11.849h-6.062V-66.6H257.3v16.81l7.936-16.81h6.063l-8.433,17.2,8.433,21.383h-6.228Z" transform="translate(-104.045 -175.847)" fill="#fff"/>
    <path id="Path_346" data-name="Path 346" d="M294.836-40.258h5.842l-2.922-19.51Zm13.833,12.235h-6.117l-1.048-7h-7.44l-1.047,7h-5.566L293.623-66.6H302.5Z" transform="translate(-119.044 -175.847)" fill="#fff"/>
  </g>
</svg>
