<?xml version="1.0" encoding="utf-8"?>
<!-- Generator: Adobe Illustrator 16.0.0, SVG Export Plug-In . SVG Version: 6.00 Build 0)  -->
<!DOCTYPE svg PUBLIC "-//W3C//DTD SVG 1.1//EN" "http://www.w3.org/Graphics/SVG/1.1/DTD/svg11.dtd">
<svg version="1.1" id="Layer_1" xmlns="http://www.w3.org/2000/svg" xmlns:xlink="http://www.w3.org/1999/xlink" x="0px" y="0px"
	 width="512px" height="512px" viewBox="0 0 512 512" enable-background="new 0 0 512 512" xml:space="preserve">
<path fill="#FFFFFF" d="M286.035,333.703c-4.348,0-8.707-1.527-12.242-4.621l-59.844-52.379L107.5,322.09
	c-7.559,3.309-16.844,0.965-21.992-5.605c-5.453-6.957-5.242-16.758,0.449-23.473l29.086-38.082
	c3.352-4.387,9.629-5.227,14.016-1.875c4.391,3.352,5.23,9.629,1.879,14.016l-26.375,34.531l107.32-45.762
	c3.531-1.508,7.617-0.855,10.508,1.676l63.5,55.574l121.035-139.016l-115.555,45.898c-3.484,1.383-7.453,0.699-10.273-1.77
	l-63.609-55.672l-30.199,34.48c-3.641,4.152-9.961,4.57-14.113,0.934s-4.57-9.957-0.934-14.109l31.176-35.594
	c6.805-7.652,18.527-8.391,26.176-1.691l60.074,52.578l115.16-45.738c8.035-3.273,17.41-0.465,22.324,6.688
	c4.883,7.098,4.184,16.781-1.645,23.113L299.813,327.555c-0.086,0.102-0.176,0.203-0.27,0.301
	C295.879,331.735,290.969,333.703,286.035,333.703z M99.606,303.715c-0.012,0.004-0.023,0.012-0.035,0.016L99.606,303.715z"/>
<path fill="#FFFFFF" d="M151.391,235.699c-4.238,0-8.098-2.785-9.461-6.789c-1.359-4,0.016-8.57,3.375-11.145
	c3.188-2.445,7.617-2.711,11.09-0.715c3.566,2.047,5.535,6.223,4.863,10.277C160.473,232.086,156.219,235.699,151.391,235.699z"/>
<path fill="#FFFFFF" d="M107.137,504.379c-1.738,0-3.469-0.449-5.016-1.348c-2.824-1.637-4.676-4.551-4.949-7.805l-6.152-72.434
	C33.114,377.11,0,310.582,0,239.578c0-64.125,26.719-124.371,75.23-169.645C123.551,24.836,187.75,0,256.004,0
	s132.453,24.836,180.77,69.934C485.285,115.207,512,175.457,512,239.586c0,64.121-26.715,124.371-75.227,169.645
	c-48.32,45.098-112.52,69.934-180.77,69.934c-24.469,0-48.656-3.223-71.965-9.586l-72.68,33.867
	C110.016,504.071,108.574,504.379,107.137,504.379z M256.004,20C125.871,20,20,118.504,20,239.578
	c0,66.141,31.59,128.117,86.672,170.043c2.246,1.711,3.668,4.293,3.906,7.109l5.309,62.539l63.063-29.383
	c2.191-1.023,4.672-1.215,6.996-0.547c22.621,6.52,46.191,9.824,70.059,9.824C386.133,459.164,492,360.66,492,239.586
	C492,118.504,386.133,20,256.004,20z"/>
</svg>
