<svg id="messenger" xmlns="http://www.w3.org/2000/svg" width="36.952" height="36.402" viewBox="0 0 36.952 36.402">
  <path id="Path_144" data-name="Path 144" d="M96.308,155.813a1.337,1.337,0,0,1-.884-.334l-4.319-3.78-7.683,3.276a1.356,1.356,0,0,1-1.587-.4,1.34,1.34,0,0,1,.032-1.694l2.1-2.748a.722.722,0,0,1,1.147.876l-1.9,2.492,7.745-3.3a.721.721,0,0,1,.758.121l4.583,4.011,8.735-10.033-8.34,3.313a.722.722,0,0,1-.741-.128l-4.591-4.018-2.18,2.488A.722.722,0,0,1,88.095,145l2.25-2.569a1.346,1.346,0,0,1,1.889-.122L96.57,146.1l8.311-3.3a1.341,1.341,0,0,1,1.492,2.151L97.3,155.369l-.019.022a1.337,1.337,0,0,1-.975.422Zm-13.455-2.164h0Zm0,0" transform="translate(-75.664 -131.729)" fill="#fff"/>
  <path id="Path_145" data-name="Path 145" d="M142.131,217.164a.721.721,0,1,1,.712-.6A.728.728,0,0,1,142.131,217.164Zm0,0" transform="translate(-131.205 -200.153)" fill="#fff"/>
  <path id="Path_146" data-name="Path 146" d="M7.733,36.4a.722.722,0,0,1-.719-.661l-.444-5.228A16.558,16.558,0,0,1,5.43,5.047,19.016,19.016,0,0,1,18.476,0,19.015,19.015,0,0,1,31.523,5.047a16.52,16.52,0,0,1,0,24.488,19.016,19.016,0,0,1-13.046,5.047,19.714,19.714,0,0,1-5.194-.692L8.037,36.334a.722.722,0,0,1-.3.067ZM18.476,1.443C9.085,1.443,1.444,8.552,1.444,17.29A15.4,15.4,0,0,0,7.7,29.562a.722.722,0,0,1,.282.513l.383,4.514,4.551-2.121a.721.721,0,0,1,.5-.039,18.251,18.251,0,0,0,5.056.709c9.392,0,17.032-7.109,17.032-15.847S27.868,1.443,18.476,1.443Zm0,0" transform="translate(0 0.001)" fill="#fff"/>
</svg>
