<?xml version="1.0" encoding="UTF-8" standalone="no"?>
<!DOCTYPE svg PUBLIC "-//W3C//DTD SVG 1.1//EN" "http://www.w3.org/Graphics/SVG/1.1/DTD/svg11.dtd">
<svg width="100%" height="100%" viewBox="0 0 512 512" version="1.1" xmlns="http://www.w3.org/2000/svg" xmlns:xlink="http://www.w3.org/1999/xlink" xml:space="preserve" xmlns:serif="http://www.serif.com/" style="fill-rule:evenodd;clip-rule:evenodd;stroke-linejoin:round;stroke-miterlimit:2;">
    <g>
        <g>
            <path d="M177.303,229.206C160.673,229.206 147.144,245.531 147.144,265.596C147.144,285.661 160.673,301.987 177.303,301.987C193.933,301.987 207.462,285.662 207.462,265.596C207.462,245.53 193.933,229.206 177.303,229.206ZM177.303,286.989C169.085,286.989 162.142,277.192 162.142,265.596C162.142,254 169.085,244.204 177.303,244.204C185.521,244.204 192.464,254.001 192.464,265.596C192.464,277.194 185.521,286.989 177.303,286.989Z" style="fill:rgb(56,174,204);fill-rule:nonzero;"/>
        </g>
    </g>
    <g>
        <g>
            <path d="M334.596,229.207C317.966,229.207 304.437,245.532 304.437,265.597C304.437,285.662 317.966,301.988 334.596,301.988C351.226,301.988 364.755,285.663 364.755,265.597C364.755,245.531 351.226,229.207 334.596,229.207ZM334.596,286.989C326.378,286.989 319.435,277.192 319.435,265.596C319.435,254.001 326.379,244.204 334.596,244.204C342.814,244.204 349.757,254.001 349.757,265.596C349.757,277.193 342.814,286.989 334.596,286.989Z" style="fill:rgb(56,174,204);fill-rule:nonzero;"/>
        </g>
    </g>
    <g>
        <g>
            <path d="M313.667,374.666C291.351,325.338 220.818,324.978 198.237,374.654C196.523,378.425 198.191,382.87 201.962,384.585C205.732,386.297 210.178,384.632 211.893,380.86C229.163,342.811 283.074,343.426 300.003,380.847C301.256,383.618 303.983,385.257 306.84,385.257C312.222,385.257 315.93,379.666 313.667,374.666Z" style="fill:rgb(56,174,204);fill-rule:nonzero;"/>
        </g>
    </g>
    <g>
        <g>
            <path d="M380.105,203.079C364.426,188.084 344.538,180.053 323.997,180.476C319.857,180.56 316.568,183.986 316.653,188.126C316.737,192.266 320.126,195.551 324.303,195.47C341.403,195.14 357.379,202.098 369.738,213.918C371.191,215.308 373.057,215.998 374.92,215.998C381.613,215.997 385.017,207.777 380.105,203.079Z" style="fill:rgb(56,174,204);fill-rule:nonzero;"/>
        </g>
    </g>
    <g>
        <g>
            <path d="M187.901,180.476C167.361,180.038 147.47,188.086 131.793,203.079C128.8,205.941 128.693,210.688 131.557,213.682C133.03,215.223 135.002,215.998 136.977,215.998C138.84,215.998 140.706,215.308 142.159,213.918C154.636,201.985 170.298,195.458 186.382,195.458C186.786,195.458 187.191,195.462 187.594,195.47C187.647,195.471 187.698,195.472 187.75,195.472C191.82,195.472 195.161,192.214 195.244,188.126C195.33,183.985 192.042,180.56 187.901,180.476Z" style="fill:rgb(56,174,204);fill-rule:nonzero;"/>
        </g>
    </g>
    <g>
        <g>
            <path d="M178.15,372.239L174.917,365.772C173.065,362.067 168.561,360.564 164.856,362.418C161.151,364.27 159.65,368.773 161.502,372.479L164.617,378.71C172.871,398.825 157.931,420.98 135.972,420.654C114.767,420.298 100.974,398.439 109.65,379.187L138.341,326.146L145.774,341.017C147.627,344.72 152.127,346.222 155.836,344.372C159.541,342.519 161.042,338.016 159.191,334.31L151.192,318.309C148.792,313.506 143.964,310.468 138.596,310.382C138.517,310.38 138.439,310.38 138.361,310.38C133.084,310.383 128.268,313.247 125.751,317.9C94.6,375.498 96.312,372.294 96.117,372.716C82.619,402.096 104.08,435.658 136.497,435.658C171.283,435.656 191.327,398.253 178.15,372.239Z" style="fill:rgb(56,174,204);fill-rule:nonzero;"/>
        </g>
    </g>
    <g>
        <g>
            <path d="M477.574,128.028C402.935,-1.251 234.229,-39.596 110.785,45.223C107.371,47.569 106.506,52.237 108.85,55.651C111.195,59.065 115.864,59.93 119.278,57.586C235.634,-22.362 394.404,13.971 464.586,135.528C522.596,236.005 500.094,361.851 415.627,436.434C412.522,439.175 412.228,443.914 414.969,447.019C417.702,450.114 422.439,450.427 425.554,447.677C515.246,368.481 539.232,234.822 477.574,128.028Z" style="fill:rgb(56,174,204);fill-rule:nonzero;"/>
        </g>
    </g>
    <g>
        <g>
            <path d="M399.005,459.2C396.726,455.74 392.077,454.784 388.617,457.06C384.481,459.785 380.372,462.326 376.405,464.617C320.578,496.848 255.657,505.311 193.597,488.684C9.865,439.452 -46.184,206.425 92.723,78.743C95.773,75.94 95.973,71.197 93.169,68.147C90.366,65.097 85.623,64.898 82.573,67.701C-65.018,203.365 -5.428,450.885 189.716,503.17C260.902,522.247 335.302,510.122 396.865,469.587C400.324,467.31 401.282,462.658 399.005,459.2Z" style="fill:rgb(56,174,204);fill-rule:nonzero;"/>
        </g>
    </g>
</svg>
