<svg xmlns="http://www.w3.org/2000/svg" width="513.334" height="260.147" viewBox="0 0 513.334 260.147">
  <g id="Group_249" data-name="Group 249" transform="translate(0 29.847)">
    <path id="Path_437" data-name="Path 437" d="M9.021,123.917H0V-26.35H12.882L57.962,100.5V-26.35h9.012V123.917H56.036L9.021-10.033Z" transform="translate(0 26.982)" fill="#0c1a2b"/>
    <path id="Path_438" data-name="Path 438" d="M19.428,88.983c0,16.325,6.441,28.345,22.967,28.345,16.744,0,23.4-12.02,23.4-28.345V10.851c0-16.308-6.659-28.327-23.4-28.327-16.526,0-22.967,12.02-22.967,28.327ZM9.553,11.5C9.553-10.4,19.646-26.5,42.4-26.5,65.58-26.5,75.673-10.4,75.673,11.5V88.355c0,21.886-10.093,37.976-33.278,37.976-22.749,0-32.842-16.09-32.842-37.976Z" transform="translate(73.711 25.842)" fill="#0c1a2b"/>
    <path id="Path_439" data-name="Path 439" d="M70.163-29.847,52.138-9.46H44.616L59.861-29.847ZM83.473,36.91v3.216H74.024V36.265c0-15.881-6.005-27.9-22.322-27.9S29.38,20.167,29.38,36.056c0,36.486,54.31,37.131,54.31,78.567,0,21.668-9.448,37.549-32.415,37.549S18.86,136.292,18.86,114.624v-7.731h9.448v8.376c0,16.09,6.223,27.682,22.749,27.682s22.758-11.592,22.758-27.682c0-36.067-54.31-36.712-54.31-78.576,0-22.54,9.875-37.131,31.98-37.349,22.758,0,31.988,15.89,31.988,37.567" transform="translate(145.526 0)" fill="#0c1a2b"/>
    <path id="Path_440" data-name="Path 440" d="M55.546-4.882V102.449h13.3c7.522,0,12.028-3.861,12.028-14.608V9.709c0-10.73-4.506-14.591-12.028-14.591ZM31.934-26.35H69.283c23.612,0,35.2,13.092,35.2,37.131V86.768c0,24.057-11.592,37.148-35.2,37.148H31.934Z" transform="translate(246.407 26.983)" fill="#0c1a2b"/>
    <path id="Path_441" data-name="Path 441" d="M65.591-4.882V45.986H76.747c7.522,0,11.592-3.434,11.592-14.164V9.282c0-10.73-4.07-14.164-11.592-14.164Zm46.361,15.663V30.323c0,24.039-11.592,37.131-35.2,37.131H65.591v56.463H41.979V-26.35H76.747c23.612,0,35.2,13.092,35.2,37.131" transform="translate(323.915 26.983)" fill="#0c1a2b"/>
    <path id="Path_442" data-name="Path 442" d="M96.255-9.02H75.65v-20.6h20.6Zm23.821,7.94V19.961L75.223,127.719h44.853v21.468H50.966V128.146L95.828,20.388H53.11V-1.079Z" transform="translate(393.258 1.711)" fill="#0c1a2b"/>
    <path id="Path_443" data-name="Path 443" d="M7.594,26.51c0,4.559,1.8,7.932,6.433,7.932,4.689,0,6.555-3.373,6.555-7.932V4.624c0-4.567-1.865-7.94-6.555-7.94C9.4-3.317,7.594.057,7.594,4.624ZM4.831,4.807c0-6.127,2.824-10.642,9.2-10.642,6.494,0,9.318,4.515,9.318,10.642v21.52c0,6.136-2.824,10.634-9.318,10.634-6.372,0-9.2-4.5-9.2-10.634Z" transform="translate(37.275 185.273)" fill="#0c1a2b"/>
    <path id="Path_444" data-name="Path 444" d="M25.614,4.807v3.12H22.973v-3.3c0-4.506-1.743-7.94-6.372-7.94s-6.38,3.434-6.38,7.94V26.51c0,4.506,1.752,7.879,6.38,7.879s6.372-3.373,6.372-7.879V17.428h-5.6V14.9h8.237V26.327c0,6.075-2.641,10.634-9.074,10.634S7.458,32.4,7.458,26.327V4.807c0-6.066,2.65-10.642,9.082-10.642S25.614-1.26,25.614,4.807" transform="translate(57.549 185.272)" fill="#0c1a2b"/>
    <path id="Path_445" data-name="Path 445" d="M15.044,24.618H27.308L21.119-2.611Zm-.418,2.4-2.109,9.326H10L19.193-5.8H23.22L32.6,36.342H29.835l-2.1-9.326Z" transform="translate(77.142 185.539)" fill="#0c1a2b"/>
    <path id="Path_446" data-name="Path 446" d="M20.29,14.95c4.925,0,7.81-1.386,7.81-7.043V3.941c0-4.5-1.735-7.208-6.31-7.208H15.845V14.95ZM21.85-5.794c6.433,0,9.021,3.547,9.021,9.5V7.376c0,4.925-1.926,7.757-6.075,8.716,4.332.959,6.075,4.027,6.075,8.594V31.24a9.449,9.449,0,0,0,1.02,5.047H29.006c-.723-1.255-.906-2.763-.906-5.047V24.625c0-5.587-3.059-7.156-7.871-7.156H15.845V36.287H13.073V-5.794Z" transform="translate(100.875 185.59)" fill="#0c1a2b"/>
    <path id="Path_447" data-name="Path 447" d="M18.263,36.287H15.736V-5.794h3.608l12.63,35.527V-5.794h2.519V36.287H31.433L18.263-1.227Z" transform="translate(121.419 185.591)" fill="#0c1a2b"/>
    <path id="Path_448" data-name="Path 448" d="M18.434,36.288H21.2V-5.794H18.434Z" transform="translate(142.236 185.595)" fill="#0c1a2b" fill-rule="evenodd"/>
    <path id="Path_449" data-name="Path 449" d="M33.553,13.678v2.528H22.074V33.76H35.9v2.528H34.511c-1.5,1.194-2.763,3.3-2.7,4.811a2.082,2.082,0,0,0,2.345,1.918,4.515,4.515,0,0,0,2.641-.784v1.691a7.044,7.044,0,0,1-3.364.784c-2.162-.061-3.722-.967-3.853-3.068-.052-1.926,1.386-4.036,3.19-5.352H19.3V-5.794H35.9v2.528H22.074V13.678Z" transform="translate(148.936 185.593)" fill="#0c1a2b"/>
    <path id="Path_450" data-name="Path 450" d="M30.091,36.287V-3.267H21.558V-5.794h19.89v2.528H32.854V36.287Z" transform="translate(166.344 185.591)" fill="#0c1a2b"/>
    <path id="Path_451" data-name="Path 451" d="M38.484,13.678v2.528H27.005V33.76H40.829v2.528h-16.6V-5.794h16.6v2.528H27.005V13.678Z" transform="translate(186.989 185.593)" fill="#0c1a2b"/>
    <path id="Path_452" data-name="Path 452" d="M38.3,36.287H34.46l-6.8-42.082h2.7l6.319,38.351L42.81-5.62h2.946l5.892,38.063L57.724-5.794h2.458L53.453,36.287H49.844L44.2,1.841Z" transform="translate(213.441 185.591)" fill="#0c1a2b"/>
    <path id="Path_453" data-name="Path 453" d="M38.6,16.51l-2.885,4.567V36.3H32.953V-5.795h2.763V16.449l13.7-22.244H52.3l-12.02,19.6L53.087,36.3H50.2Z" transform="translate(254.269 185.587)" fill="#0c1a2b"/>
    <path id="Path_454" data-name="Path 454" d="M42.948,14.95c4.925,0,7.81-1.386,7.81-7.043V3.941c0-4.5-1.743-7.208-6.3-7.208H38.494V14.95Zm1.56-20.744c6.432,0,9.021,3.547,9.021,9.5V7.376c0,4.925-1.926,7.757-6.075,8.716,4.332.959,6.075,4.027,6.075,8.594V31.24a9.449,9.449,0,0,0,1.02,5.047H51.664c-.723-1.255-.906-2.763-.906-5.047V24.625c0-5.587-3.059-7.156-7.871-7.156H38.494V36.287H35.74V-5.794Z" transform="translate(275.773 185.59)" fill="#0c1a2b"/>
    <path id="Path_455" data-name="Path 455" d="M43.371,24.618H55.644l-6.2-27.229Zm-.418,2.4-2.1,9.326H38.333L47.529-5.8h4.018l9.387,42.143H58.163l-2.1-9.326Z" transform="translate(295.786 185.539)" fill="#0c1a2b"/>
    <path id="Path_456" data-name="Path 456" d="M47.058,16.51l-2.894,4.567V36.3H41.41V-5.795h2.754V16.449l13.7-22.244H60.76l-12.028,19.6L61.544,36.3H58.65Z" transform="translate(319.525 185.587)" fill="#0c1a2b"/>
    <path id="Path_457" data-name="Path 457" d="M46.89,26.51c0,4.559,1.8,7.932,6.433,7.932,4.689,0,6.546-3.373,6.546-7.932V4.624c0-4.567-1.857-7.94-6.546-7.94-4.628,0-6.433,3.373-6.433,7.94Zm-2.763-21.7c0-6.127,2.824-10.642,9.2-10.642,6.494,0,9.326,4.515,9.326,10.642v21.52c0,6.136-2.833,10.634-9.326,10.634-6.372,0-9.2-4.5-9.2-10.634Z" transform="translate(340.488 185.273)" fill="#0c1a2b"/>
    <path id="Path_458" data-name="Path 458" d="M57.356,36.287H53.512l-6.8-42.082h2.7l6.31,38.351L61.863-5.62H64.8l5.9,38.063L76.767-5.794h2.467L72.5,36.287H68.9L63.248,1.841Z" transform="translate(360.451 185.591)" fill="#0c1a2b"/>
    <path id="Path_459" data-name="Path 459" d="M50.936,36.288H53.7V-5.794H50.936Z" transform="translate(393.027 185.595)" fill="#0c1a2b" fill-rule="evenodd"/>
    <path id="Path_460" data-name="Path 460" d="M66.046,13.678v2.528H54.567V33.76H68.4v2.528H51.8V-5.794H68.4v2.528H54.567V13.678Z" transform="translate(399.726 185.593)" fill="#0c1a2b"/>
  </g>
</svg>
