<?xml version="1.0" encoding="UTF-8" standalone="no"?>
<!DOCTYPE svg PUBLIC "-//W3C//DTD SVG 1.1//EN" "http://www.w3.org/Graphics/SVG/1.1/DTD/svg11.dtd">
<svg width="100%" height="100%" viewBox="0 0 425 111" version="1.1" xmlns="http://www.w3.org/2000/svg" xmlns:xlink="http://www.w3.org/1999/xlink" xml:space="preserve" xmlns:serif="http://www.serif.com/" style="fill-rule:evenodd;clip-rule:evenodd;stroke-linejoin:round;stroke-miterlimit:2;">
    <g transform="matrix(1,0,0,1,-62.7539,0)">
        <g transform="matrix(1,0,0,1,8.24726,0)">
            <path d="M479.173,27.75C479.173,12.434 466.738,0 451.423,0L82.257,0C66.941,0 54.507,12.434 54.507,27.75L54.507,83.25C54.507,98.566 66.941,111 82.257,111L451.423,111C466.738,111 479.173,98.566 479.173,83.25L479.173,27.75Z" style="fill:white;"/>
        </g>
        <g transform="matrix(0.854196,0,0,0.854196,40.1962,8.12127)">
            <g transform="matrix(1,0,0,1,98.387,19.85)">
                <path d="M264,25.5L264,70.2L249.6,70.2L249.6,18.5L264,25.5Z" style="fill:rgb(243,115,104);fill-rule:nonzero;"/>
            </g>
            <g transform="matrix(1,0,0,1,98.387,19.85)">
                <path d="M60.2,61.9L71,71.3L116.5,47.6L111.8,36.3L60.2,61.9ZM249.6,33.1L286.2,14.1L280,3.4L249.6,18.5L249.6,33.1Z" style="fill:rgb(247,161,153);fill-rule:nonzero;"/>
            </g>
            <g transform="matrix(1,0,0,1,98.387,19.85)">
                <path d="M146.6,22L146.6,70.2L132.8,70.2L132.8,1.5L146.6,22ZM60.2,61.9L71,71.3L91.8,19.3L85.1,1.5L60.2,61.9Z" style="fill:rgb(243,115,104);fill-rule:nonzero;"/>
            </g>
            <g transform="matrix(1,0,0,1,98.387,19.85)">
                <path d="M85.1,1.5L99.3,1.5L125.6,70.2L111,70.2L85.1,1.5ZM148.7,1.5L179,48.4L179,70.2L132.8,1.5L148.7,1.5ZM205,1.5L219.3,1.5L219.3,70.2L205,70.2L205,1.5ZM286.2,14.1L227.6,14.1L227.6,1.5L278.9,1.5L286.2,14.1Z" style="fill:rgb(240,73,57);fill-rule:nonzero;"/>
            </g>
            <g transform="matrix(1,0,0,1,98.387,19.85)">
                <path d="M328.5,44.1L328.5,70.2L314.3,70.2L314.3,44.1" style="fill:rgb(247,161,153);fill-rule:nonzero;"/>
            </g>
            <g transform="matrix(1,0,0,1,98.387,19.85)">
                <path d="M338.3,1.5L314.3,44.1L328.5,44.1L353.4,1.5L338.3,1.5Z" style="fill:rgb(240,73,57);fill-rule:nonzero;"/>
            </g>
            <g transform="matrix(1,0,0,1,98.387,19.85)">
                <path d="M314.3,44.1L289.5,1.5L305.1,1.5L321.8,30.7L314.3,44.1Z" style="fill:rgb(243,115,104);fill-rule:nonzero;"/>
            </g>
            <g transform="matrix(1,0,0,1,98.387,19.85)">
                <path d="M6.9,9.5C6.9,19 12.8,24.7 24.6,27.7L37.1,30.6C48.3,33.2 55.1,39.6 55.1,50C55.2,54.5 53.7,58.9 51,62.5C51,52.1 45.6,46.5 32.7,43.1L20.4,40.3C10.5,38.1 2.9,32.8 2.9,21.5C2.9,17.2 4.3,12.9 6.9,9.5" style="fill:rgb(240,73,57);fill-rule:nonzero;"/>
            </g>
            <g transform="matrix(1,0,0,1,98.387,19.85)">
                <path d="M179,70.2L179,1.5L192.8,1.5L192.8,70.2L179,70.2Z" style="fill:rgb(243,115,104);fill-rule:nonzero;"/>
            </g>
            <g transform="matrix(1,0,0,1,98.387,19.85)">
                <g>
                    <path d="M43.3,47.4C48.6,50.8 51,55.6 51,62.5C46.5,68.2 38.8,71.3 29.7,71.3C14.4,71.3 3.5,63.7 1.2,50.6L15.9,50.6C17.8,56.6 22.8,59.4 29.6,59.4C37.7,59.5 43.2,55.1 43.3,47.4M14.6,23.6C9.6,20.6 6.7,15.2 6.9,9.4C11.2,3.8 18.6,0.4 27.6,0.4C43.3,0.4 52.3,8.7 54.6,20.3L40.4,20.3C38.8,15.7 34.9,12.1 27.8,12.1C20.1,12.2 14.9,16.6 14.6,23.6" style="fill:rgb(243,115,104);fill-rule:nonzero;"/>
                </g>
            </g>
        </g>
    </g>
</svg>
