<svg id="tick" xmlns="http://www.w3.org/2000/svg" width="18.45" height="18.45" viewBox="0 0 18.45 18.45">
  <g id="Group_328" data-name="Group 328" transform="translate(4.381 2.318)">
    <g id="Group_327" data-name="Group 327">
      <path id="Path_527" data-name="Path 527" d="M135.11,64.532a.7.7,0,0,0-.983,0l-8.342,8.32-3.01-3.269a.7.7,0,1,0-1.023.942l3.5,3.8a.7.7,0,0,0,.5.224h.015a.7.7,0,0,0,.491-.2l8.854-8.831A.7.7,0,0,0,135.11,64.532Z" transform="translate(-121.568 -64.327)" fill="#74e195"/>
    </g>
  </g>
  <g id="Group_330" data-name="Group 330">
    <g id="Group_329" data-name="Group 329">
      <path id="Path_528" data-name="Path 528" d="M17.755,8.53a.7.7,0,0,0-.7.7A7.834,7.834,0,1,1,9.225,1.391.7.7,0,1,0,9.225,0,9.225,9.225,0,1,0,18.45,9.225.7.7,0,0,0,17.755,8.53Z" fill="#74e195"/>
    </g>
  </g>
</svg>
