<?xml version="1.0" encoding="utf-8"?>
<!-- Generator: Adobe Illustrator 16.0.0, SVG Export Plug-In . SVG Version: 6.00 Build 0)  -->
<!DOCTYPE svg PUBLIC "-//W3C//DTD SVG 1.1//EN" "http://www.w3.org/Graphics/SVG/1.1/DTD/svg11.dtd">
<svg version="1.1" id="Capa_1" xmlns="http://www.w3.org/2000/svg" xmlns:xlink="http://www.w3.org/1999/xlink" x="0px" y="0px"
	 width="595.279px" height="595.279px" viewBox="0 0 595.279 595.279" enable-background="new 0 0 595.279 595.279"
	 xml:space="preserve">
<g>
	<g>
		<path fill="#FFFFFF" d="M300.581,82.552l-0.842-0.002c-0.012,0-0.021,0-0.032,0c-6.406,0-11.609,5.184-11.627,11.595
			c0,0.01,0,0.019,0,0.028c-0.002,6.408,5.184,11.612,11.596,11.63l0.843,0.002c0.011,0,0.021,0,0.031,0
			c6.406,0,11.609-5.184,11.627-11.595c0-0.01,0-0.019,0-0.028C312.179,87.774,306.993,82.57,300.581,82.552z"/>
	</g>
</g>
<g>
	<g>
		<path fill="#FFFFFF" d="M582.946,154.759c-7.634-29.025-30.153-51.885-58.764-59.656c-29.502-8.035-111.754-10.994-175.561-12.06
			c-6.383-0.088-11.713,5.011-11.819,11.431c-0.107,6.42,5.011,11.713,11.431,11.819c88.315,1.477,148.632,5.471,169.847,11.248
			c20.614,5.6,36.853,22.126,42.379,43.139c11.429,43.348,11.568,136.027,11.568,136.958c0,0.932-0.14,93.611-11.569,136.965
			c-5.525,21.006-21.764,37.533-42.385,43.135c-42.609,11.604-218.659,11.739-220.433,11.739c-1.772,0-177.823-0.137-220.439-11.741
			c-20.614-5.6-36.853-22.127-42.379-43.14C23.393,391.249,23.253,298.57,23.253,297.639c0-0.932,0.14-93.611,11.569-136.965
			c5.525-21.005,21.764-37.532,42.385-43.134c21.681-5.904,83.78-9.926,174.862-11.327c6.421-0.098,11.544-5.383,11.446-11.803
			c-0.099-6.421-5.4-11.503-11.804-11.446c-65.771,1.01-150.493,3.938-180.607,12.138c-28.616,7.772-51.136,30.633-58.768,59.651
			C0.141,201.013,0,293.715,0,297.639s0.141,96.626,12.334,142.879c7.635,29.025,30.154,51.885,58.764,59.655
			c45.585,12.414,219.176,12.557,226.542,12.557s180.957-0.143,226.535-12.554c28.617-7.772,51.137-30.633,58.769-59.651
			c12.195-46.26,12.336-138.962,12.336-142.886S595.139,201.013,582.946,154.759z"/>
	</g>
</g>
<g>
	<g>
		<path fill="#FFFFFF" d="M67.434,266.854c-6.421,0-11.626,5.206-11.626,11.627v94.757c0,6.421,5.205,11.626,11.626,11.626
			c6.422,0,11.627-5.205,11.627-11.626v-94.757C79.061,272.06,73.856,266.854,67.434,266.854z"/>
	</g>
</g>
<g>
	<g>
		<path fill="#FFFFFF" d="M67.434,213.953c-6.421,0-11.626,5.205-11.626,11.626v0.138c0,6.421,5.205,11.627,11.626,11.627
			c6.422,0,11.627-5.206,11.627-11.627v-0.138C79.061,219.158,73.856,213.953,67.434,213.953z"/>
	</g>
</g>
<g>
	<g>
		<path fill="#FFFFFF" d="M391.939,289.354l-144.17-83.711c-3.597-2.09-8.035-2.098-11.639-0.022
			c-3.604,2.075-5.826,5.918-5.826,10.077v167.422c0,4.16,2.222,8.002,5.826,10.077c1.795,1.033,3.797,1.55,5.8,1.55
			c2.018,0,4.035-0.523,5.839-1.572l144.17-83.711c3.584-2.081,5.788-5.911,5.788-10.055S395.522,291.435,391.939,289.354z
			 M253.557,362.924V235.893l109.389,63.516L253.557,362.924z"/>
	</g>
</g>
</svg>
