<svg id="youtube" xmlns="http://www.w3.org/2000/svg" width="37.085" height="26.8" viewBox="0 0 37.085 26.8">
  <g id="Group_168" data-name="Group 168" transform="translate(17.947 0)">
    <g id="Group_167" data-name="Group 167">
      <path id="Path_214" data-name="Path 214" d="M248.557,71H248.5a.724.724,0,0,0-.724.722v0a.724.724,0,0,0,.722.725h.054a.724.724,0,0,0,.724-.722v0A.724.724,0,0,0,248.557,71Z" transform="translate(-247.778 -71.001)" fill="#fff"/>
    </g>
  </g>
  <g id="Group_170" data-name="Group 170" transform="translate(0 0.026)">
    <g id="Group_169" data-name="Group 169">
      <path id="Path_215" data-name="Path 215" d="M36.316,75.829a5.225,5.225,0,0,0-3.661-3.716c-1.838-.5-6.962-.685-10.937-.751a.724.724,0,0,0-.024,1.448c5.5.092,9.259.341,10.581.7a3.773,3.773,0,0,1,2.64,2.687,47.487,47.487,0,0,1,.721,8.532,47.489,47.489,0,0,1-.721,8.533,3.773,3.773,0,0,1-2.64,2.687c-2.654.723-13.622.731-13.733.731S7.464,96.673,4.809,95.95a3.773,3.773,0,0,1-2.64-2.688,50.866,50.866,0,0,1,0-17.065,3.774,3.774,0,0,1,2.64-2.687c1.351-.368,5.219-.618,10.894-.706a.724.724,0,1,0-.022-1.448c-4.1.063-9.375.245-11.251.756A5.225,5.225,0,0,0,.769,75.829C.009,78.711,0,84.486,0,84.73s.009,6.02.768,8.9a5.225,5.225,0,0,0,3.661,3.716c2.84.773,13.654.782,14.113.782s11.273-.009,14.113-.782a5.225,5.225,0,0,0,3.661-3.716c.76-2.882.769-8.657.769-8.9S37.076,78.711,36.316,75.829Z" transform="translate(0 -71.357)" fill="#fff"/>
    </g>
  </g>
  <g id="Group_172" data-name="Group 172" transform="translate(3.477 11.482)">
    <g id="Group_171" data-name="Group 171">
      <path id="Path_216" data-name="Path 216" d="M48.724,229.521a.724.724,0,0,0-.724.724v5.9a.724.724,0,0,0,1.449,0v-5.9A.724.724,0,0,0,48.724,229.521Z" transform="translate(-48 -229.521)" fill="#fff"/>
    </g>
  </g>
  <g id="Group_174" data-name="Group 174" transform="translate(3.477 8.186)">
    <g id="Group_173" data-name="Group 173">
      <path id="Path_217" data-name="Path 217" d="M48.724,184.021a.724.724,0,0,0-.724.724v.009a.724.724,0,1,0,1.449,0v-.009A.724.724,0,0,0,48.724,184.021Z" transform="translate(-48 -184.021)" fill="#fff"/>
    </g>
  </g>
  <g id="Group_176" data-name="Group 176" transform="translate(14.347 7.57)">
    <g id="Group_175" data-name="Group 175">
      <path id="Path_218" data-name="Path 218" d="M208.154,180.833l-8.981-5.215a.724.724,0,0,0-1.088.626v10.43a.724.724,0,0,0,1.088.626l8.981-5.215a.724.724,0,0,0,0-1.253Zm-8.621,4.583V177.5l6.815,3.957Z" transform="translate(-198.084 -175.52)" fill="#fff"/>
    </g>
  </g>
</svg>
