<?xml version="1.0" encoding="UTF-8" standalone="no"?>
<!DOCTYPE svg PUBLIC "-//W3C//DTD SVG 1.1//EN" "http://www.w3.org/Graphics/SVG/1.1/DTD/svg11.dtd">
<svg width="100%" height="100%" viewBox="0 0 594 594" version="1.1" xmlns="http://www.w3.org/2000/svg" xmlns:xlink="http://www.w3.org/1999/xlink" xml:space="preserve" xmlns:serif="http://www.serif.com/" style="fill-rule:evenodd;clip-rule:evenodd;stroke-linejoin:round;stroke-miterlimit:2;">
    <g transform="matrix(1,0,0,1,-3300.24,-1219.71)">
        <g transform="matrix(1,0,0,1,4089.83,736.806)">
            <g transform="matrix(1,0,0,1,441.864,-98.2497)">
                <g transform="matrix(1,0,0,1,-4200.04,137.275)">
                    <path d="M3324.93,819.062L3328.7,848.394C3328.88,849.795 3329.24,851.17 3329.74,852.49C3330.03,853.298 3330.38,854.087 3330.76,854.854C3336.57,862.55 3339.64,863.87 3342.12,864.934C3342.55,865.118 3342.96,865.298 3343.37,865.482C3347.01,866.484 3350.72,867.178 3354.48,867.558L3357.53,867.958C3361.04,868.286 3364.12,868.558 3366.84,868.782C3369.64,869.014 3372,869.182 3374.24,869.362C3377.16,869.586 3379.84,869.79 3382.93,870.066C3385,870.246 3387.09,870.414 3389.18,870.582C3400.65,871.155 3412.04,872.802 3423.21,875.502C3437.57,879.451 3450.83,886.689 3461.91,896.642C3462.16,896.828 3462.39,897.031 3462.61,897.25C3482.77,915.542 3494.3,941.52 3494.34,968.742L3494.34,968.734L3494.34,1030.41C3494.34,1034.25 3491.18,1037.41 3487.34,1037.41L3043.34,1037.41C3039.5,1037.41 3036.35,1034.25 3036.34,1030.41L3036.34,968.742C3036.39,941.524 3047.93,915.554 3068.09,897.27C3068.31,897.052 3068.54,896.849 3068.79,896.662C3079.88,886.709 3093.13,879.471 3107.49,875.522C3122.7,871.896 3138.24,869.817 3153.86,869.318C3159.6,868.938 3160.81,868.866 3163.59,868.638C3171.33,868.318 3179.03,867.367 3186.62,865.794C3198.3,859.702 3199.73,855.434 3200.67,852.594C3201.9,848.546 3201.8,848.734 3202.1,847.794L3205.88,818.194C3193.4,808.128 3183.68,795.05 3177.65,780.194C3173.56,769.111 3170.53,757.665 3168.61,746.01C3168.41,744.99 3168.21,744.01 3167.99,742.978C3165.87,743.405 3163.71,743.626 3161.54,743.638C3161.53,743.638 3161.51,743.638 3161.5,743.638C3142.72,743.638 3127.28,728.19 3127.28,709.418C3127.28,692.241 3140.21,677.591 3157.26,675.462C3151.07,666.007 3147.58,655.035 3147.19,643.742L3130.18,618.742C3123.14,608.308 3122.66,594.716 3128.94,583.81L3141.69,561.85C3154.81,539.352 3178.95,525.454 3204.99,525.41L3325.7,525.41C3351.74,525.452 3375.88,539.352 3388.99,561.854L3401.74,583.81C3408.02,594.714 3407.54,608.298 3400.49,618.726L3383.49,643.726C3383.1,655.08 3379.59,666.11 3373.34,675.602C3389.97,678.153 3402.37,692.603 3402.37,709.422C3402.37,728.192 3386.92,743.638 3368.15,743.638C3368.15,743.638 3368.15,743.638 3368.14,743.638C3366.3,743.623 3364.47,743.456 3362.66,743.138C3362.47,744.106 3362.26,745.054 3362.07,746.026C3361.63,748.27 3361.19,750.518 3360.72,752.77C3360.59,753.42 3360.37,754.034 3360.07,754.6L3360.07,754.6C3360.07,754.6 3355.87,794.376 3324.93,819.062ZM3374.76,883.464C3374.1,883.298 3373.59,883.177 3373.24,883.106C3366.39,881.694 3351.38,892.783 3351.38,892.783L3272.34,939.906L3272.34,1023.41L3408.34,1023.41L3408.34,971.91C3408.34,968.07 3411.5,964.91 3415.34,964.91C3419.18,964.91 3422.34,968.07 3422.34,971.91L3422.34,1023.41L3480.34,1023.41L3480.34,968.742C3480.32,951.485 3474.88,934.668 3464.79,920.672L3464.56,920.342C3462.44,913.335 3450.56,905.314 3450.56,905.314L3450.13,904.959C3441.16,897.54 3430.72,892.108 3419.49,889.026C3409.17,886.561 3398.64,885.065 3388.04,884.558C3385.92,884.39 3383.8,884.218 3381.68,884.03C3379.22,883.81 3377.02,883.636 3374.76,883.464ZM3157.44,883.106L3154.77,883.286C3140.08,883.725 3125.47,885.648 3111.17,889.026C3099.78,892.162 3089.19,897.718 3080.14,905.314C3071.01,911.629 3064.33,922.942 3064.33,922.942L3064.33,922.942C3055.26,936.469 3050.38,952.407 3050.36,968.738L3050.34,1023.41L3108.34,1023.41L3108.34,971.91C3108.34,968.07 3111.5,964.91 3115.34,964.91C3119.18,964.91 3122.34,968.07 3122.34,971.91L3122.34,1023.41L3258.34,1023.41L3258.34,939.906L3171.44,888.098C3168.45,885.037 3158.76,883.328 3157.57,883.126L3157.44,883.106ZM3383.84,970.286L3383.84,992.786C3383.84,996.626 3380.68,999.786 3376.84,999.786L3301.09,999.786C3297.25,999.784 3294.09,996.625 3294.09,992.786L3294.09,970.286C3294.09,966.446 3297.25,963.286 3301.09,963.286L3376.85,963.286C3380.68,963.286 3383.84,966.444 3383.84,970.282C3383.84,970.283 3383.84,970.284 3383.84,970.286ZM3369.84,977.286L3308.09,977.286L3308.09,985.786L3369.84,985.786L3369.84,977.286ZM3185.81,880.366L3257.23,922.942C3253.28,900.09 3239.12,880.245 3218.79,869.086L3210.36,864.462C3205.69,870.592 3199.53,875.432 3192.47,878.526C3192.13,878.7 3191.77,878.848 3191.41,878.966C3189.57,879.549 3187.7,880.017 3185.81,880.366ZM3320.42,864.406L3311.9,869.086C3291.57,880.245 3277.4,900.09 3273.45,922.942L3341.23,882.542L3345,880.294C3342.84,879.889 3340.7,879.348 3338.6,878.674C3338.3,878.578 3338,878.459 3337.72,878.318C3337.36,878.142 3336.97,877.982 3336.58,877.81C3330.03,874.967 3324.42,870.317 3320.42,864.406ZM3218.87,827.01L3215.91,850.174C3215.85,850.588 3215.76,850.996 3215.64,851.394L3225.52,856.822C3243.43,866.648 3257.47,882.27 3265.34,901.114C3273.22,882.269 3287.26,866.645 3305.16,856.814L3315.01,851.41C3314.95,851.01 3314.84,850.586 3314.78,850.174L3311.8,826.878C3283.01,843.143 3247.71,843.193 3218.87,827.01ZM3347.59,747.094C3347.84,745.836 3348.09,744.579 3348.34,743.322C3349.03,739.798 3349.73,736.298 3350.47,732.846L3350.47,732.806L3354.34,715.158L3356.59,704.886C3357.5,700.641 3358.08,696.33 3358.32,691.994L3358.32,691.426C3347.62,699.419 3334.62,703.742 3321.27,703.746L3269.55,703.746L3266.63,725.23L3274.17,725.018C3278.01,725.018 3281.17,728.178 3281.17,732.018C3281.17,735.858 3278.01,739.018 3274.17,739.018L3266.34,739.018C3258.81,739.018 3252.62,732.824 3252.62,725.298C3252.62,724.608 3252.67,723.92 3252.78,723.238L3255.42,703.746L3209.4,703.746C3196.05,703.742 3183.05,699.419 3172.36,691.426C3172.52,694.925 3172.91,698.409 3173.53,701.858C3173.71,702.87 3173.88,703.882 3174.1,704.886L3176.94,717.81L3180.14,732.446C3180.94,736.026 3181.64,739.646 3182.36,743.306C3184.13,754.079 3186.9,764.665 3190.63,774.926C3196.09,788.364 3205.08,800.078 3216.66,808.822C3217.21,809.119 3217.72,809.491 3218.18,809.926C3246.36,830.2 3284.6,830.128 3312.71,809.746C3313.4,809.129 3314.18,808.675 3315.01,808.383L3315.01,808.383C3319.32,806.649 3342.27,778.994 3346.91,750.569C3346.94,750.367 3346.97,750.164 3347.01,749.962C3347.18,748.834 3347.38,747.885 3347.59,747.094ZM3295.99,756.182C3297.61,757.51 3298.55,759.494 3298.55,761.583C3298.55,763.207 3297.98,764.781 3296.95,766.034C3288.73,774.975 3276.98,779.868 3264.84,779.41C3252.7,779.866 3240.95,774.969 3232.73,766.026C3231.79,764.803 3231.28,763.302 3231.28,761.759C3231.28,757.919 3234.44,754.759 3238.28,754.759C3240.29,754.759 3242.2,755.623 3243.53,757.13C3249.13,762.799 3256.89,765.815 3264.84,765.41C3272.79,765.812 3280.55,762.799 3286.14,757.134C3288.59,754.173 3293.03,753.743 3295.99,756.182ZM3165.09,729.318C3162.78,719.006 3157.82,697.758 3158.25,689.43C3148.5,691.02 3141.27,699.525 3141.27,709.402C3141.27,720.503 3150.4,729.638 3161.51,729.638C3161.51,729.638 3161.52,729.638 3161.53,729.638C3162.73,729.639 3163.93,729.532 3165.11,729.318L3165.09,729.318ZM3372.41,689.61C3371.74,706.314 3368.36,715.014 3365.54,729.454C3366.41,729.57 3367.27,729.629 3368.14,729.63C3368.15,729.63 3368.16,729.63 3368.16,729.63C3379.26,729.63 3388.4,720.495 3388.4,709.394C3388.4,699.892 3381.7,691.607 3372.41,689.61ZM3369.11,648.41L3161.58,648.41C3165.06,672.028 3185.53,689.716 3209.4,689.742L3321.28,689.742C3345.16,689.716 3365.62,672.028 3369.11,648.41ZM3141.74,610.866L3157.74,634.41L3372.91,634.41L3388.91,610.866C3392.95,604.892 3393.22,597.112 3389.63,590.866L3376.88,568.894C3366.27,550.691 3346.74,539.447 3325.68,539.414L3204.99,539.414C3183.93,539.448 3164.4,550.692 3153.79,568.894L3141.05,590.85C3137.44,597.097 3137.71,604.884 3141.74,610.866ZM3232.42,600.874C3232.14,600.109 3232,599.302 3232,598.489C3232,594.649 3235.16,591.489 3239,591.489C3242.02,591.489 3244.72,593.445 3245.66,596.318C3247.57,601.896 3252.5,605.93 3258.34,606.718L3258.34,592.018C3251.43,589.201 3246.89,582.443 3246.89,574.978C3246.89,567.512 3251.43,560.755 3258.34,557.938L3258.34,550.662C3258.34,546.822 3261.5,543.662 3265.34,543.662C3269.18,543.662 3272.34,546.822 3272.34,550.662L3272.34,557.938C3279.26,560.755 3283.8,567.512 3283.8,574.978C3283.8,582.443 3279.26,589.201 3272.34,592.018L3272.34,606.71C3278.19,605.922 3283.11,601.888 3285.03,596.31C3286.01,593.494 3288.67,591.592 3291.65,591.592C3295.49,591.592 3298.65,594.751 3298.65,598.59C3298.65,599.366 3298.52,600.136 3298.27,600.87C3294.16,612.791 3282.88,620.842 3270.27,620.838L3260.41,620.838C3247.81,620.841 3236.52,612.792 3232.42,600.874ZM3265.34,579.41C3265.34,579.41 3265.35,579.41 3265.35,579.41C3267.78,579.41 3269.79,577.405 3269.79,574.97C3269.79,572.534 3267.78,570.53 3265.35,570.53C3262.91,570.53 3260.91,572.534 3260.91,574.97C3260.91,577.404 3262.91,579.408 3265.34,579.41Z" style="fill:rgb(56,174,204);fill-rule:nonzero;"/>
                </g>
                <g transform="matrix(1,0,0,1,-4200.04,137.275)">
                    <path d="M3183,746.971C3195.72,755.279 3209.31,750.404 3221.52,746.437C3235.76,741.81 3250.48,754.6 3264.91,754.6C3279.34,754.6 3287.81,741.726 3301.77,745.326C3315.15,748.774 3334.18,755.56 3347.48,747.529L3345,781.41L3309.23,821.43L3277.39,831.424L3238.44,826.878L3201.15,806.083L3179.85,767.02L3183,746.971Z" style="fill:rgb(56,174,204);fill-opacity:0.5;"/>
                </g>
                <g transform="matrix(1,0,0,1,-2670.64,10.6202)">
                    <path d="M2032.72,631.731C2032.72,597.953 2005.3,570.53 1971.52,570.53L1500.39,570.53C1466.61,570.53 1439.18,597.953 1439.18,631.731L1439.18,1102.86C1439.18,1136.64 1466.61,1164.07 1500.39,1164.07L1971.52,1164.07C2005.3,1164.07 2032.72,1136.64 2032.72,1102.86L2032.72,631.731ZM2018.72,631.731L2018.72,1102.86C2018.72,1128.91 1997.57,1150.07 1971.52,1150.07C1971.52,1150.07 1500.39,1150.07 1500.39,1150.07C1474.34,1150.07 1453.18,1128.91 1453.18,1102.86C1453.18,1102.86 1453.18,631.731 1453.18,631.731C1453.18,605.68 1474.34,584.53 1500.39,584.53L1971.52,584.53C1997.57,584.53 2018.72,605.68 2018.72,631.731Z" style="fill:rgb(56,174,204);"/>
                </g>
                <g transform="matrix(0.617423,0,0,0.617423,-273.932,0.998047)">
                    <g transform="matrix(1,0,0,1,-4531.7,-638.556)">
                        <circle cx="3798.67" cy="2393.52" r="81.101" style="fill:white;"/>
                    </g>
                    <g transform="matrix(9.71708,0,0,9.71708,-849.63,1636.71)">
                        <path d="M12,2C6.48,2 2,6.48 2,12C2,17.52 6.48,22 12,22C17.52,22 22,17.52 22,12C22,6.48 17.52,2 12,2ZM10,17L5,12L6.41,10.59L10,14.17L17.59,6.58L19,8L10,17Z" style="fill:rgb(56,174,204);fill-rule:nonzero;"/>
                    </g>
                </g>
            </g>
        </g>
    </g>
</svg>
