<?xml version="1.0" encoding="UTF-8" standalone="no"?>
<!DOCTYPE svg PUBLIC "-//W3C//DTD SVG 1.1//EN" "http://www.w3.org/Graphics/SVG/1.1/DTD/svg11.dtd">
<svg width="100%" height="100%" viewBox="0 0 594 594" version="1.1" xmlns="http://www.w3.org/2000/svg" xmlns:xlink="http://www.w3.org/1999/xlink" xml:space="preserve" xmlns:serif="http://www.serif.com/" style="fill-rule:evenodd;clip-rule:evenodd;stroke-linejoin:round;stroke-miterlimit:2;">
    <g transform="matrix(1,0,0,1,-2370.35,-1219.71)">
        <g transform="matrix(1,0,0,1,4089.32,1514.77)">
            <g transform="matrix(1,0,0,1,-3412.86,-742.779)">
                <path d="M2051.75,529.253C2077.68,529.403 2101.68,543.282 2114.74,565.696L2127.49,587.652C2133.77,598.555 2133.29,612.14 2126.24,622.568L2109.24,647.568C2108.85,658.922 2105.34,669.952 2099.09,679.444C2115.72,681.995 2128.12,696.445 2128.12,713.264C2128.12,732.034 2112.67,747.48 2093.9,747.48C2093.9,747.48 2093.9,747.48 2093.89,747.48C2092.05,747.465 2090.22,747.298 2088.41,746.98C2088.22,747.948 2088.01,748.896 2087.82,749.868C2087.38,752.112 2086.94,754.36 2086.47,756.612C2085.81,759.855 2082.93,762.207 2079.62,762.212C2079.15,762.211 2078.68,762.162 2078.21,762.068C2074.45,761.293 2071.99,757.564 2072.76,753.804C2073.21,751.588 2073.65,749.374 2074.09,747.164C2074.78,743.64 2075.48,740.14 2076.22,736.688L2076.22,736.648L2080.09,719L2082.34,708.728C2083.26,704.483 2083.83,700.172 2084.07,695.836L2084.07,695.268C2073.37,703.261 2060.37,707.584 2047.02,707.588L1995.3,707.588L1992.38,729.072L1999.92,728.86C2003.76,728.86 2006.92,732.02 2006.92,735.86C2006.92,739.7 2003.76,742.86 1999.92,742.86L1992.09,742.86C1984.56,742.86 1978.37,736.666 1978.37,729.14C1978.37,728.45 1978.42,727.762 1978.53,727.08L1981.17,707.588L1935.15,707.588C1921.8,707.584 1908.8,703.261 1898.11,695.268C1898.27,698.767 1898.66,702.251 1899.28,705.7C1899.46,706.712 1899.63,707.724 1899.85,708.728L1902.69,721.652L1905.89,736.288C1906.69,739.868 1907.39,743.488 1908.11,747.148C1909.88,757.921 1912.65,768.507 1916.38,778.768C1921.84,792.206 1930.83,803.92 1942.4,812.664C1942.96,812.961 1943.47,813.333 1943.92,813.768C1972.11,834.042 2010.35,833.97 2038.46,813.588C2041.11,811.223 2045.16,811.245 2047.79,813.64C2049.01,814.763 2049.81,816.28 2050.05,817.928L2054.45,852.236C2054.64,853.637 2054.99,855.012 2055.49,856.332C2055.78,857.14 2056.13,857.929 2056.51,858.696C2062.32,866.392 2065.39,867.712 2067.87,868.776C2068.3,868.96 2068.71,869.14 2069.12,869.324C2072.76,870.326 2076.47,871.02 2080.23,871.4L2083.28,871.8C2086.79,872.128 2089.87,872.4 2092.59,872.624C2095.39,872.856 2097.75,873.024 2099.99,873.204C2102.91,873.428 2105.59,873.632 2108.68,873.908C2110.75,874.088 2112.84,874.256 2114.93,874.424C2126.4,874.997 2137.79,876.644 2148.96,879.344C2163.32,883.293 2176.58,890.531 2187.66,900.484C2187.91,900.67 2188.14,900.873 2188.36,901.092C2208.52,919.384 2220.05,945.362 2220.09,972.584L2220.09,1034.25C2220.09,1038.09 2216.93,1041.25 2213.09,1041.25L1769.09,1041.25C1765.25,1041.25 1762.1,1038.09 1762.09,1034.25L1762.09,972.584C1762.14,945.366 1773.68,919.396 1793.84,901.112C1794.06,900.894 1794.29,900.691 1794.54,900.504C1805.63,890.551 1818.88,883.313 1833.25,879.364C1848.45,875.738 1863.99,873.659 1879.61,873.16C1885.35,872.78 1886.56,872.708 1889.34,872.48C1897.08,872.16 1904.78,871.209 1912.37,869.636C1924.05,863.544 1925.48,859.276 1926.42,856.436C1927.65,852.388 1927.55,852.576 1927.85,851.636L1931.63,822.036C1919.15,811.97 1909.43,798.892 1903.4,784.036C1899.31,772.953 1896.29,761.507 1894.36,749.852C1894.16,748.832 1893.96,747.852 1893.74,746.82C1891.62,747.247 1889.46,747.468 1887.29,747.48C1887.28,747.48 1887.26,747.48 1887.25,747.48C1868.48,747.48 1853.03,732.032 1853.03,713.26C1853.03,696.083 1865.96,681.433 1883.01,679.304C1876.82,669.849 1873.34,658.877 1872.94,647.584L1855.93,622.584C1848.89,612.15 1848.41,598.558 1854.69,587.652L1867.44,565.692C1880.56,543.194 1904.7,529.296 1930.74,529.252L2051.45,529.252L2051.75,529.253ZM1897.19,891.94C1891.55,886.9 1884.18,886.922 1883.29,886.945L1883.19,886.948L1880.52,887.128C1865.83,887.567 1851.22,889.49 1836.92,892.868C1826.31,895.79 1816.39,900.813 1807.77,907.631L1807.76,907.634C1796.45,915.248 1789.04,928.374 1789.04,928.374L1789.04,928.374C1780.64,941.55 1776.13,956.883 1776.11,972.58L1776.09,1027.25L1834.09,1027.25L1834.09,975.752C1834.09,971.912 1837.25,968.752 1841.09,968.752C1844.93,968.752 1848.09,971.912 1848.09,975.752L1848.09,1027.25L1984.09,1027.25L1984.09,943.748L1897.19,891.94ZM2102.37,887.45C2100.94,887.186 2099.78,887.011 2098.99,886.948C2091.75,886.374 2075.64,897.516 2075.64,897.516L1998.09,943.748L1998.09,1027.25L2134.09,1027.25L2134.09,975.752C2134.09,971.912 2137.25,968.752 2141.09,968.752C2144.93,968.752 2148.09,971.912 2148.09,975.752L2148.09,1027.25L2206.09,1027.25L2206.09,972.584C2206.07,955.327 2200.63,938.51 2190.54,924.514L2190.3,924.184C2188.46,919.571 2176.3,909.156 2176.3,909.156L2175.88,908.801C2166.91,901.382 2156.47,895.95 2145.24,892.868C2134.92,890.403 2124.39,888.907 2113.79,888.4C2111.67,888.232 2109.55,888.06 2107.43,887.872C2105.65,887.713 2104.01,887.578 2102.37,887.45ZM1982.98,926.784C1982.56,926.604 1989.76,933.127 1991.09,935.234C1991.66,936.123 1999.44,925.829 2000.18,926.204L2066.98,886.384L2070.75,884.136C2068.59,883.731 2066.45,883.19 2064.35,882.516C2064.05,882.42 2063.76,882.301 2063.47,882.16C2063.11,881.984 2062.72,881.824 2062.33,881.652C2055.78,878.809 2050.17,874.159 2046.17,868.248L2046.07,868.304C2046.07,868.304 2040.48,858.815 2040.77,855.252C2040.79,854.983 2040.73,854.721 2040.61,854.467C2040.58,854.316 2040.55,854.165 2040.53,854.016L2037.55,830.72C2008.76,846.985 1973.46,847.035 1944.62,830.852L1942.11,850.444C1942.11,850.444 1939.78,862.029 1935.46,869.139C1934.11,870.824 1932.65,872.406 1931.09,873.874C1930.31,874.303 1929.78,874.794 1929.46,875.327C1926.09,878.201 1922.31,880.577 1918.22,882.368C1917.88,882.542 1917.52,882.69 1917.16,882.808C1915.32,883.391 1913.45,883.859 1911.56,884.208L1982.98,926.784ZM2063.82,783.252C2062.91,785.148 2061.9,787.052 2060.82,788.908C2060.2,789.977 2059.87,791.192 2059.87,792.43C2059.87,796.268 2063.03,799.427 2066.87,799.427C2069.36,799.427 2071.67,798.101 2072.92,795.952C2074.18,793.776 2075.37,791.552 2076.45,789.308C2076.9,788.363 2077.13,787.328 2077.13,786.28C2077.13,782.439 2073.97,779.279 2070.13,779.279C2067.45,779.279 2064.98,780.828 2063.82,783.252ZM2021.75,760.024C2023.36,761.352 2024.3,763.335 2024.3,765.425C2024.3,767.049 2023.73,768.623 2022.7,769.876C2019.1,773.789 2014.83,776.927 2010.14,779.18C2004.12,782.075 1997.42,783.51 1990.59,783.252C1978.45,783.708 1966.7,778.811 1958.48,769.868C1957.54,768.645 1957.03,767.144 1957.03,765.601C1957.03,761.761 1960.19,758.601 1964.03,758.601C1966.04,758.601 1967.95,759.465 1969.28,760.972C1974.88,766.641 1982.64,769.657 1990.59,769.252C1998.54,769.654 2006.3,766.641 2011.89,760.976C2014.34,758.015 2018.78,757.585 2021.75,760.024ZM1890.84,733.16C1888.53,722.848 1883.57,701.6 1884,693.272C1874.25,694.862 1867.02,703.367 1867.02,713.244C1867.02,724.345 1876.15,733.48 1887.26,733.48C1887.26,733.48 1887.27,733.48 1887.28,733.48C1888.48,733.481 1889.68,733.374 1890.86,733.16L1890.84,733.16ZM2098.16,693.452C2097.49,710.156 2094.11,718.856 2091.29,733.296C2092.16,733.412 2093.02,733.471 2093.89,733.472C2093.9,733.472 2093.91,733.472 2093.91,733.472C2105.01,733.472 2114.15,724.337 2114.15,713.236C2114.15,703.734 2107.45,695.449 2098.16,693.452ZM2094.86,652.252L1887.33,652.252C1890.81,675.87 1911.28,693.558 1935.15,693.584L2047.03,693.584C2070.91,693.558 2091.38,675.87 2094.86,652.252ZM1867.49,614.708L1883.49,638.252L2098.66,638.252L2114.66,614.708C2118.7,608.734 2118.98,600.954 2115.38,594.708L2102.63,572.736C2092.03,554.533 2072.5,543.289 2051.43,543.256L1930.74,543.256C1909.67,543.29 1890.15,554.534 1879.54,572.736L1866.8,594.692C1863.19,600.939 1863.46,608.726 1867.49,614.708Z" style="fill:rgb(112,112,112);fill-rule:nonzero;"/>
            </g>
        </g>
        <g transform="matrix(1,0,0,1,4089.32,1514.77)">
            <g transform="matrix(1,0,0,1,-4768.55,-744.909)">
                <path d="M3465.34,976.259L3465.34,998.759C3465.34,1002.6 3462.18,1005.76 3458.34,1005.76L3382.59,1005.76C3378.75,1005.76 3375.59,1002.6 3375.59,998.759L3375.59,976.259C3375.59,972.418 3378.75,969.259 3382.59,969.259L3458.35,969.259C3462.18,969.259 3465.34,972.417 3465.34,976.255C3465.34,976.256 3465.34,976.257 3465.34,976.259ZM3451.34,983.259L3389.59,983.259L3389.59,991.759L3451.34,991.759L3451.34,983.259Z" style="fill:rgb(112,112,112);fill-rule:nonzero;"/>
            </g>
        </g>
        <g transform="matrix(1,0,0,1,4089.32,1514.77)">
            <g transform="matrix(1,0,0,1,-3158.15,-865.591)">
                <path d="M2032.72,631.731C2032.72,597.953 2005.3,570.53 1971.52,570.53L1500.39,570.53C1466.61,570.53 1439.18,597.953 1439.18,631.731L1439.18,1102.86C1439.18,1136.64 1466.61,1164.07 1500.39,1164.07L1971.52,1164.07C2005.3,1164.07 2032.72,1136.64 2032.72,1102.86L2032.72,631.731ZM2018.72,631.731L2018.72,1102.86C2018.72,1128.91 1997.57,1150.07 1971.52,1150.07C1971.52,1150.07 1500.39,1150.07 1500.39,1150.07C1474.34,1150.07 1453.18,1128.91 1453.18,1102.86L1453.18,631.731C1453.18,605.68 1474.34,584.53 1500.39,584.53L1971.52,584.53C1997.57,584.53 2018.72,605.68 2018.72,631.731Z" style="fill:rgb(112,112,112);"/>
            </g>
        </g>
    </g>
</svg>
