<?xml version="1.0" encoding="UTF-8" standalone="no"?>
<!DOCTYPE svg PUBLIC "-//W3C//DTD SVG 1.1//EN" "http://www.w3.org/Graphics/SVG/1.1/DTD/svg11.dtd">
<svg width="100%" height="100%" viewBox="0 0 594 594" version="1.1" xmlns="http://www.w3.org/2000/svg" xmlns:xlink="http://www.w3.org/1999/xlink" xml:space="preserve" xmlns:serif="http://www.serif.com/" style="fill-rule:evenodd;clip-rule:evenodd;stroke-linecap:round;stroke-linejoin:round;stroke-miterlimit:1.5;">
    <g transform="matrix(1,0,0,1,-4230.12,-1219.71)">
        <g transform="matrix(1,0,0,1,4089.83,-41.1561)">
            <g transform="matrix(1,0,0,1,-2828.3,816.987)">
                <path d="M3183,746.971C3195.72,755.279 3209.31,750.404 3221.52,746.437C3235.76,741.81 3250.48,754.6 3264.91,754.6C3279.34,754.6 3287.81,741.726 3301.77,745.326C3315.15,748.774 3334.18,755.56 3347.48,747.529L3345,781.41L3309.23,821.43L3277.39,831.424L3238.44,826.878L3201.15,806.083L3179.85,767.02L3183,746.971Z" style="fill:rgb(112,112,112);fill-opacity:0.5;"/>
            </g>
        </g>
        <g transform="matrix(1,0,0,1,4089.83,-41.1561)">
            <g transform="matrix(1,0,0,1,-3443.08,816.987)">
                <path d="M3658.13,1037.41C3654.29,1037.41 3651.13,1034.25 3651.13,1030.41L3651.13,968.742C3651.18,941.524 3662.72,915.554 3682.88,897.27C3683.1,897.052 3683.33,896.849 3683.58,896.662C3694.66,886.709 3707.92,879.471 3722.28,875.522C3737.49,871.896 3753.03,869.817 3768.65,869.318C3774.39,868.938 3775.6,868.866 3778.38,868.638C3786.12,868.318 3793.82,867.367 3801.4,865.794C3813.09,859.702 3814.51,855.434 3815.46,852.594C3816.69,848.546 3816.59,848.734 3816.88,847.794L3820.67,818.194C3808.18,808.128 3798.47,795.05 3792.43,780.194C3788.35,769.111 3785.32,757.665 3783.4,746.01C3783.2,744.991 3783,744.012 3782.78,742.981C3780.66,743.406 3778.51,743.626 3776.35,743.638L3776.28,743.638C3757.51,743.638 3742.07,728.19 3742.07,709.418C3742.07,692.241 3755,677.591 3772.04,675.462C3765.86,666.007 3762.37,655.035 3761.97,643.742L3744.97,618.742C3737.93,608.308 3737.45,594.716 3743.73,583.81L3756.47,561.85C3769.59,539.352 3793.74,525.454 3819.78,525.41L3940.5,525.41C3966.55,525.452 3990.69,539.352 4003.8,561.854L4016.55,583.81C4022.83,594.714 4022.34,608.298 4015.3,618.726L3998.3,643.726C3997.9,655.08 3994.39,666.11 3988.15,675.602C4004.77,678.153 4017.18,692.603 4017.18,709.422C4017.18,728.192 4001.73,743.638 3982.96,743.638L3982.93,743.638C3981.1,743.623 3979.27,743.457 3977.47,743.141C3977.27,744.108 3977.07,745.055 3976.88,746.026C3976.43,748.27 3975.99,750.518 3975.53,752.77C3975.39,753.437 3975.16,754.066 3974.86,754.644C3974.69,756.129 3970.06,794.837 3939.74,819.048L3943.5,848.394C3943.69,849.795 3944.04,851.17 3944.55,852.49C3944.84,853.298 3945.18,854.087 3945.57,854.854C3951.37,862.55 3954.45,863.87 3956.93,864.934C3957.36,865.118 3957.77,865.298 3958.17,865.482C3961.81,866.484 3965.53,867.178 3969.29,867.558L3972.34,867.958C3975.85,868.286 3978.92,868.558 3981.64,868.782C3984.44,869.014 3986.81,869.182 3989.04,869.362C3991.97,869.586 3994.64,869.79 3997.74,870.066C3999.81,870.246 4001.9,870.414 4003.99,870.582C4015.46,871.155 4026.85,872.802 4038.01,875.502C4052.38,879.451 4065.63,886.689 4076.72,896.642C4076.97,896.828 4077.2,897.031 4077.42,897.25C4097.58,915.542 4109.11,941.52 4109.15,968.742L4109.15,1030.41C4109.15,1034.25 4105.99,1037.41 4102.15,1037.41L3658.13,1037.41ZM4079.36,920.367L4079.36,931.453C4079.36,939.675 4072.6,946.441 4064.37,946.441C4062.3,946.441 4060.24,946.01 4058.34,945.174L3987.81,914.25C3979.47,910.591 3974.05,902.3 3974.05,893.186L3974.05,888.098L3887.15,939.906L3887.15,1023.41L4023.13,1023.41L4023.13,971.91C4023.13,968.07 4026.29,964.91 4030.13,964.91L4030.14,964.91L4030.15,964.91C4033.99,964.91 4037.15,968.07 4037.15,971.91L4037.15,1023.41L4095.13,1023.41L4095.13,968.742C4095.11,951.485 4089.66,934.668 4079.58,920.672L4079.36,920.367ZM3772.24,883.107L3769.58,883.286C3754.89,883.725 3740.28,885.648 3725.98,889.026C3714.59,892.162 3704,897.718 3694.95,905.314L3694.95,931.431C3694.95,931.98 3695.4,932.431 3695.95,932.431C3696.09,932.431 3696.23,932.402 3696.35,932.346L3734.35,915.69C3735.22,915.318 3736.16,915.127 3737.1,915.127C3740.94,915.127 3744.1,918.287 3744.1,922.127C3744.1,924.876 3742.48,927.381 3739.98,928.51L3701.98,945.17C3700.08,946.003 3698.03,946.433 3695.95,946.433C3687.72,946.433 3680.95,939.661 3680.95,931.433L3680.95,920.338C3670.72,934.4 3665.19,951.346 3665.17,968.738L3665.15,1023.41L3723.13,1023.41L3723.13,971.91C3723.13,968.07 3726.29,964.91 3730.13,964.91L3730.14,964.91L3730.15,964.91C3733.99,964.91 3737.15,968.07 3737.15,971.91L3737.15,1023.41L3873.13,1023.41L3873.13,939.906L3786.25,888.109L3786.25,893.186C3786.25,897.026 3783.09,900.186 3779.25,900.186C3775.41,900.186 3772.25,897.026 3772.25,893.186L3772.25,883.109L3772.24,883.107ZM3915.88,999.786C3912.04,999.784 3908.88,996.625 3908.88,992.786L3908.88,970.286C3908.88,966.446 3912.04,963.286 3915.88,963.286L3991.65,963.286C3995.49,963.286 3998.65,966.444 3998.65,970.282C3998.65,970.283 3998.65,970.284 3998.65,970.286L3998.65,992.786C3998.65,996.626 3995.49,999.786 3991.65,999.786L3915.88,999.786ZM3984.63,977.286L3922.9,977.286L3922.9,985.786L3984.63,985.786L3984.63,977.286ZM3989.54,883.462L3988.05,883.35L3988.05,893.186C3988.05,896.752 3990.17,899.996 3993.43,901.43L4063.96,932.346C4064.26,932.492 4064.63,932.461 4064.91,932.266C4065.2,932.093 4065.38,931.771 4065.36,931.43L4065.36,905.326L4065.34,905.314L4064.92,904.959C4055.95,897.54 4045.51,892.108 4034.28,889.026C4023.96,886.561 4013.43,885.065 4002.83,884.558C4000.71,884.39 3998.58,884.218 3996.47,884.03C3994.01,883.81 3991.81,883.636 3989.54,883.464L3989.54,883.462ZM3825.16,864.469C3820.49,870.596 3814.33,875.434 3807.27,878.526C3806.93,878.7 3806.58,878.848 3806.21,878.966C3804.38,879.549 3802.51,880.017 3800.61,880.366L3872.02,922.929C3868.06,900.082 3853.9,880.243 3833.58,869.086L3825.16,864.469ZM3935.21,864.413L3926.71,869.086C3906.38,880.243 3892.22,900.082 3888.26,922.929L3956.01,882.542L3959.79,880.294C3957.63,879.889 3955.49,879.348 3953.39,878.674C3953.09,878.578 3952.79,878.459 3952.51,878.318C3952.14,878.142 3951.76,877.982 3951.37,877.81C3944.82,874.968 3939.22,870.321 3935.21,864.413ZM3926.59,826.887C3912.2,835.015 3896.18,839.091 3880.15,839.112C3864.12,839.136 3848.09,835.106 3833.67,827.019L3830.71,850.174C3830.66,850.588 3830.57,850.996 3830.44,851.394L3840.33,856.822C3858.22,866.645 3872.26,882.258 3880.14,901.092C3888.02,882.256 3902.06,866.641 3919.95,856.814L3929.8,851.41C3929.74,851.01 3929.62,850.586 3929.57,850.174L3926.59,826.887ZM3881.13,739.018C3873.6,739.018 3867.41,732.824 3867.41,725.298C3867.41,724.608 3867.46,723.92 3867.56,723.238L3870.21,703.746L3824.19,703.746C3810.85,703.742 3797.85,699.424 3787.16,691.44C3787.33,694.934 3787.72,698.414 3788.33,701.858C3788.51,702.87 3788.69,703.882 3788.91,704.886L3791.75,717.81L3794.95,732.446C3795.75,736.026 3796.45,739.646 3797.17,743.306C3798.94,754.079 3801.71,764.665 3805.44,774.926C3810.89,788.364 3819.89,800.078 3831.46,808.822C3832.02,809.119 3832.53,809.491 3832.98,809.926C3847.07,820.059 3863.67,825.11 3880.26,825.082C3896.86,825.05 3913.44,819.937 3927.49,809.746C3928.18,809.129 3928.97,808.675 3929.8,808.383L3929.8,808.383C3934.1,806.649 3957.06,778.994 3961.7,750.569C3961.72,750.367 3961.76,750.164 3961.8,749.962C3961.97,748.834 3962.17,747.885 3962.38,747.094C3962.63,745.836 3962.88,744.579 3963.12,743.322C3963.82,739.798 3964.51,736.298 3965.26,732.846L3965.26,732.806L3969.13,715.158L3971.38,704.886C3972.29,700.641 3972.87,696.33 3973.1,691.994L3973.1,691.44C3962.41,699.424 3949.42,703.742 3936.07,703.746L3884.36,703.746L3881.44,725.229L3888.96,725.018L3888.97,725.018L3888.98,725.018C3892.82,725.018 3895.98,728.178 3895.98,732.018C3895.98,735.858 3892.82,739.018 3888.98,739.018L3881.13,739.018ZM3906.34,754.6C3907.92,754.595 3909.5,755.113 3910.8,756.182C3912.41,757.51 3913.35,759.494 3913.35,761.583C3913.35,763.207 3912.79,764.781 3911.75,766.034C3903.91,774.56 3892.87,779.406 3881.34,779.439C3880.77,779.441 3880.21,779.431 3879.64,779.41C3879.16,779.428 3878.69,779.437 3878.21,779.439C3866.58,779.477 3855.42,774.62 3847.52,766.026C3846.58,764.803 3846.07,763.302 3846.07,761.759C3846.07,757.919 3849.23,754.759 3853.07,754.759L3853.08,754.759L3853.09,754.759C3855.1,754.759 3857.01,755.623 3858.34,757.13C3863.58,762.444 3870.73,765.426 3878.16,765.446C3878.64,765.447 3879.14,765.435 3879.63,765.41L3879.64,765.41L3879.65,765.41C3880.14,765.435 3880.64,765.447 3881.12,765.445C3888.55,765.424 3895.69,762.444 3900.93,757.134C3902.31,755.465 3904.32,754.601 3906.34,754.6ZM3773.03,689.433C3763.3,691.03 3756.08,699.531 3756.08,709.402C3756.08,720.503 3765.21,729.638 3776.31,729.638L3776.32,729.638C3777.52,729.639 3778.71,729.532 3779.89,729.318L3779.88,729.318C3777.57,719.007 3772.6,697.762 3773.03,689.433ZM3987.22,689.614C3986.55,706.316 3983.17,715.015 3980.35,729.454C3981.21,729.57 3982.08,729.629 3982.95,729.63L3982.95,729.63C3994.05,729.63 4003.19,720.495 4003.19,709.394C4003.19,699.898 3996.5,691.619 3987.22,689.614ZM3983.9,648.41L3776.38,648.41C3779.87,672.028 3800.34,689.716 3824.21,689.742L3936.07,689.742C3959.95,689.716 3980.41,672.028 3983.9,648.41ZM3940.47,539.414L3819.8,539.414C3798.73,539.448 3779.2,550.692 3768.6,568.894L3755.85,590.85C3752.25,597.097 3752.52,604.884 3756.55,610.866L3772.55,634.41L3987.7,634.41L4003.7,610.866C4007.74,604.892 4008.01,597.112 4004.42,590.866L3991.67,568.894C3981.06,550.691 3961.53,539.447 3940.47,539.414ZM3875.2,620.838C3862.6,620.841 3851.31,612.792 3847.21,600.874C3846.93,600.109 3846.79,599.302 3846.79,598.489C3846.79,594.649 3849.95,591.489 3853.79,591.489L3853.81,591.489C3856.83,591.489 3859.52,593.445 3860.46,596.318C3862.38,601.89 3867.29,605.921 3873.13,606.715L3873.13,592.018C3866.22,589.201 3861.67,582.443 3861.67,574.978C3861.67,567.512 3866.22,560.755 3873.13,557.938L3873.13,550.662C3873.13,546.822 3876.29,543.662 3880.13,543.662L3880.14,543.662L3880.15,543.662C3883.99,543.662 3887.15,546.822 3887.15,550.662L3887.15,557.938C3894.06,560.755 3898.61,567.512 3898.61,574.978C3898.61,582.443 3894.06,589.201 3887.15,592.018L3887.15,606.707C3892.99,605.913 3897.9,601.882 3899.82,596.31C3900.79,593.494 3903.46,591.592 3906.44,591.592L3906.46,591.592C3910.3,591.592 3913.45,594.751 3913.45,598.59C3913.45,599.366 3913.33,600.136 3913.07,600.87C3908.97,612.791 3897.68,620.842 3885.07,620.838L3875.2,620.838ZM3880.14,570.53C3877.71,570.535 3875.71,572.537 3875.71,574.97C3875.71,577.402 3877.71,579.404 3880.14,579.41C3882.58,579.406 3884.58,577.403 3884.58,574.97C3884.58,572.537 3882.58,570.535 3880.14,570.53Z" style="fill:rgb(112,112,112);fill-rule:nonzero;"/>
            </g>
        </g>
        <g transform="matrix(1,0,0,1,4089.83,-41.1561)">
            <g id="smoke" transform="matrix(0.222066,0,0,0.222066,510.68,1598.4)">
                <g transform="matrix(1,0,0,1,-256,-256)">
                    <g>
                        <g>
                            <path d="M315.92,256L457.735,256L482,288.318L492.517,366.901L492.517,429.076L466.096,471.524L391.008,494.45L315.92,491.434L256,482.199L180,431.834L147.23,349.849L119.038,256L99.582,230.595L30,222.08L17.146,192.224L30,169.334L69.248,168.769L133.492,169.359L173.997,210L199.991,285L210,344.204L263.239,369.359L280.86,376.577L296.4,300L315.92,256Z" style="fill:white;stroke:black;stroke-width:1px;"/>
                            <path d="M488.542,270.952L488.541,270.951C482.419,252.438 465.235,240.199 445.783,240.199L338.216,240.199C318.212,240.199 299.39,253.017 293.459,270.952C284.504,298.04 276.256,330.858 272.43,359.257C250.991,353.295 232.386,337.213 222.747,315.507L202.265,238.133C201.878,236.672 202.37,237.972 191.942,213.64C175.373,174.98 137.49,150.2 95.432,150.2L45,150.2C20.187,150.2 0,170.187 0,195C0,219.813 20.187,240 45,240L90.352,240C97.212,240 102.84,244.51 104.687,250.563L141.746,373.943C166.637,455.469 241.775,511.999 328.248,511.999L393.196,511.999C455.181,511.999 511.654,463.389 512,391.999C512,354.782 500.272,306.429 488.542,270.952ZM321.944,280.369C323.834,274.651 331.134,269.999 338.216,269.999L445.783,269.999C452.269,269.999 458.006,274.166 460.057,280.369C461.425,284.506 463.618,291.378 466.096,300L315.92,300C317.933,292.948 319.976,286.322 321.944,280.369ZM99.561,211.133C96.58,210.52 93.499,210.199 90.352,210.199L45,210.199C36.729,210.199 30,203.27 30,194.999C30,186.728 36.729,179.999 45,179.999L95.433,179.999C99.866,179.999 104.232,180.397 108.496,181.149L99.561,211.133ZM393.196,482.199L328.248,482.199C255.191,482.199 191.772,435.053 170.458,365.246L133.4,241.868C131.761,236.496 129.209,231.622 125.944,227.39L136.494,192.224C148.6,200.143 158.413,211.561 164.369,225.457L173.546,246.872C195.703,330.57 194.137,324.923 194.754,326.362C208.653,358.793 237.273,382.407 270.026,389.538C269.938,396.071 270.099,401.841 271.048,408.982C272.05,416.524 278.492,422.008 285.899,422.008C286.557,422.008 287.223,421.965 287.893,421.876C296.105,420.785 301.878,413.243 300.787,405.031C299.61,396.173 299.913,386.67 300.597,377.794C301.765,362.845 304.643,346.19 308.269,330.002L473.818,330.002C478.287,349.818 482.001,372.212 482.001,391.925C481.73,445.09 439.823,482.199 393.196,482.199Z" style="fill:rgb(112,112,112);fill-rule:nonzero;"/>
                        </g>
                    </g>
                    <path d="M280.995,15.131L457.681,20.346L464.202,41.344L463.483,73.191L492.517,82.677L490.881,121.486L438.012,133.765L403.783,142.174L380.358,188.875L346,135.904L276.857,137.82L210,129.11L189.666,105L210,76.069L262.884,77.895L256,56.223L256,30L280.995,15.131Z" style="fill:white;stroke:black;stroke-width:1px;"/>
                    <g>
                        <g>
                            <path d="M478.836,61.58C480.877,56.447 482,50.853 482,45C482,20.187 461.813,0 437,0L285,0C260.187,0 240,20.187 240,45C240,50.257 240.906,55.307 242.57,60L225,60C200.187,60 180,80.187 180,105C180,129.813 200.188,150 225,150L337.73,150L363.584,201.708C366.124,206.79 371.318,210 377,210C382.682,210 387.876,206.79 390.416,201.708L416.27,150L467,150C491.813,150 512,129.813 512,105C512,84.283 497.925,66.789 478.836,61.58ZM467,120L407,120C401.318,120 396.124,123.21 393.584,128.292L377,161.46L360.416,128.293C357.876,123.21 352.682,120 347,120L225,120C216.729,120 210,113.271 210,105C210,96.729 216.729,90 225,90L285,90C293.284,90 300,83.284 300,75C300,66.716 293.284,60 285,60C276.729,60 270,53.271 270,45C270,36.729 276.729,30 285,30L437,30C445.271,30 452,36.729 452,45C452,53.271 445.271,60 437,60C428.716,60 422,66.716 422,75C422,83.284 428.716,90 437,90L467,90C475.271,90 482,96.729 482,105C482,113.271 475.271,120 467,120Z" style="fill:rgb(112,112,112);fill-rule:nonzero;"/>
                        </g>
                    </g>
                </g>
            </g>
        </g>
        <g transform="matrix(1,0,0,1,4089.83,-41.1561)">
            <g transform="matrix(1,0,0,1,-1298.89,690.332)">
                <path d="M2032.72,631.731C2032.72,597.953 2005.3,570.53 1971.52,570.53L1500.39,570.53C1466.61,570.53 1439.18,597.953 1439.18,631.731L1439.18,1102.86C1439.18,1136.64 1466.61,1164.07 1500.39,1164.07L1971.52,1164.07C2005.3,1164.07 2032.72,1136.64 2032.72,1102.86L2032.72,631.731ZM2018.72,631.731L2018.72,1102.86C2018.72,1128.91 1997.57,1150.07 1971.52,1150.07C1971.52,1150.07 1500.39,1150.07 1500.39,1150.07C1474.34,1150.07 1453.18,1128.91 1453.18,1102.86C1453.18,1102.86 1453.18,631.731 1453.18,631.731C1453.18,605.68 1474.34,584.53 1500.39,584.53L1971.52,584.53C1997.57,584.53 2018.72,605.68 2018.72,631.731Z" style="fill:rgb(112,112,112);"/>
            </g>
        </g>
    </g>
</svg>
